%TF.GenerationSoftware,KiCad,Pcbnew,10.0.0*%
%TF.CreationDate,2026-04-01T17:16:54+03:00*%
%TF.ProjectId,IronHand_v1,49726f6e-4861-46e6-945f-76312e6b6963,rev?*%
%TF.SameCoordinates,Original*%
%TF.FileFunction,Paste,Bot*%
%TF.FilePolarity,Positive*%
%FSLAX46Y46*%
G04 Gerber Fmt 4.6, Leading zero omitted, Abs format (unit mm)*
G04 Created by KiCad (PCBNEW 10.0.0) date 2026-04-01 17:16:54*
%MOMM*%
%LPD*%
G01*
G04 APERTURE LIST*
G04 Aperture macros list*
%AMRoundRect*
0 Rectangle with rounded corners*
0 $1 Rounding radius*
0 $2 $3 $4 $5 $6 $7 $8 $9 X,Y pos of 4 corners*
0 Add a 4 corners polygon primitive as box body*
4,1,4,$2,$3,$4,$5,$6,$7,$8,$9,$2,$3,0*
0 Add four circle primitives for the rounded corners*
1,1,$1+$1,$2,$3*
1,1,$1+$1,$4,$5*
1,1,$1+$1,$6,$7*
1,1,$1+$1,$8,$9*
0 Add four rect primitives between the rounded corners*
20,1,$1+$1,$2,$3,$4,$5,0*
20,1,$1+$1,$4,$5,$6,$7,0*
20,1,$1+$1,$6,$7,$8,$9,0*
20,1,$1+$1,$8,$9,$2,$3,0*%
G04 Aperture macros list end*
%ADD10RoundRect,0.250000X-1.025000X-1.000000X1.025000X-1.000000X1.025000X1.000000X-1.025000X1.000000X0*%
%ADD11RoundRect,0.237500X0.237500X-0.250000X0.237500X0.250000X-0.237500X0.250000X-0.237500X-0.250000X0*%
%ADD12RoundRect,0.237500X-0.237500X0.300000X-0.237500X-0.300000X0.237500X-0.300000X0.237500X0.300000X0*%
%ADD13RoundRect,0.237500X0.237500X-0.300000X0.237500X0.300000X-0.237500X0.300000X-0.237500X-0.300000X0*%
%ADD14RoundRect,0.237500X0.300000X0.237500X-0.300000X0.237500X-0.300000X-0.237500X0.300000X-0.237500X0*%
%ADD15RoundRect,0.237500X-0.300000X-0.237500X0.300000X-0.237500X0.300000X0.237500X-0.300000X0.237500X0*%
%ADD16RoundRect,0.250000X1.450000X0.650000X-1.450000X0.650000X-1.450000X-0.650000X1.450000X-0.650000X0*%
%ADD17RoundRect,0.075000X0.225000X-0.875000X0.225000X0.875000X-0.225000X0.875000X-0.225000X-0.875000X0*%
%ADD18R,1.400000X1.600000*%
G04 APERTURE END LIST*
D10*
%TO.C,SW1*%
X139192000Y-33020000D03*
X126265000Y-35560000D03*
%TD*%
%TO.C,SW2*%
X163004500Y-33020000D03*
X150077500Y-35560000D03*
%TD*%
%TO.C,SW3*%
X182054500Y-33020000D03*
X169127500Y-35560000D03*
%TD*%
%TO.C,SW4*%
X201104500Y-33020000D03*
X188177500Y-35560000D03*
%TD*%
%TO.C,SW5*%
X220154500Y-33020000D03*
X207227500Y-35560000D03*
%TD*%
%TO.C,SW6*%
X243967000Y-33020000D03*
X231040000Y-35560000D03*
%TD*%
%TO.C,SW7*%
X263017000Y-33020000D03*
X250090000Y-35560000D03*
%TD*%
%TO.C,SW8*%
X282067000Y-33020000D03*
X269140000Y-35560000D03*
%TD*%
%TO.C,SW9*%
X301117000Y-33020000D03*
X288190000Y-35560000D03*
%TD*%
%TO.C,SW10*%
X324929500Y-33020000D03*
X312002500Y-35560000D03*
%TD*%
%TO.C,SW11*%
X343979500Y-33020000D03*
X331052500Y-35560000D03*
%TD*%
%TO.C,SW12*%
X363029500Y-33020000D03*
X350102500Y-35560000D03*
%TD*%
%TO.C,SW13*%
X382079500Y-33020000D03*
X369152500Y-35560000D03*
%TD*%
%TO.C,SW14*%
X401129500Y-33020000D03*
X388202500Y-35560000D03*
%TD*%
%TO.C,SW15*%
X53467000Y-56832500D03*
X40540000Y-59372500D03*
%TD*%
%TO.C,SW16*%
X72517000Y-56832500D03*
X59590000Y-59372500D03*
%TD*%
%TO.C,SW17*%
X91567000Y-56832500D03*
X78640000Y-59372500D03*
%TD*%
%TO.C,SW18*%
X110617000Y-56832500D03*
X97690000Y-59372500D03*
%TD*%
%TO.C,SW19*%
X139192000Y-56832500D03*
X126265000Y-59372500D03*
%TD*%
%TO.C,SW20*%
X158242000Y-56832500D03*
X145315000Y-59372500D03*
%TD*%
%TO.C,SW21*%
X177292000Y-56832500D03*
X164365000Y-59372500D03*
%TD*%
%TO.C,SW22*%
X196342000Y-56832500D03*
X183415000Y-59372500D03*
%TD*%
%TO.C,SW23*%
X215392000Y-56832500D03*
X202465000Y-59372500D03*
%TD*%
%TO.C,SW24*%
X234442000Y-56832500D03*
X221515000Y-59372500D03*
%TD*%
%TO.C,SW25*%
X253492000Y-56832500D03*
X240565000Y-59372500D03*
%TD*%
%TO.C,SW26*%
X272542000Y-56832500D03*
X259615000Y-59372500D03*
%TD*%
%TO.C,SW27*%
X291592000Y-56832500D03*
X278665000Y-59372500D03*
%TD*%
%TO.C,SW28*%
X310642000Y-56832500D03*
X297715000Y-59372500D03*
%TD*%
%TO.C,SW29*%
X329692000Y-56832500D03*
X316765000Y-59372500D03*
%TD*%
%TO.C,SW30*%
X348742000Y-56832500D03*
X335815000Y-59372500D03*
%TD*%
%TO.C,SW31*%
X367792000Y-56832500D03*
X354865000Y-59372500D03*
%TD*%
%TO.C,SW32*%
X393985750Y-56832500D03*
X381058750Y-59372500D03*
%TD*%
%TO.C,SW33*%
X429704500Y-66357500D03*
X416777500Y-68897500D03*
%TD*%
%TO.C,SW34*%
X448754500Y-66357500D03*
X435827500Y-68897500D03*
%TD*%
%TO.C,SW35*%
X467804500Y-66357500D03*
X454877500Y-68897500D03*
%TD*%
%TO.C,SW36*%
X53467000Y-75882500D03*
X40540000Y-78422500D03*
%TD*%
%TO.C,SW37*%
X72517000Y-75882500D03*
X59590000Y-78422500D03*
%TD*%
%TO.C,SW38*%
X91567000Y-75882500D03*
X78640000Y-78422500D03*
%TD*%
%TO.C,SW39*%
X110617000Y-85407500D03*
X97690000Y-87947500D03*
%TD*%
%TO.C,SW40*%
X141573250Y-75882500D03*
X128646250Y-78422500D03*
%TD*%
%TO.C,SW41*%
X163004500Y-75882500D03*
X150077500Y-78422500D03*
%TD*%
%TO.C,SW42*%
X182054500Y-75882500D03*
X169127500Y-78422500D03*
%TD*%
%TO.C,SW43*%
X201104500Y-75882500D03*
X188177500Y-78422500D03*
%TD*%
%TO.C,SW44*%
X220154500Y-75882500D03*
X207227500Y-78422500D03*
%TD*%
%TO.C,SW45*%
X239204500Y-75882500D03*
X226277500Y-78422500D03*
%TD*%
%TO.C,SW46*%
X258254500Y-75882500D03*
X245327500Y-78422500D03*
%TD*%
%TO.C,SW47*%
X277304500Y-75882500D03*
X264377500Y-78422500D03*
%TD*%
%TO.C,SW48*%
X296354500Y-75882500D03*
X283427500Y-78422500D03*
%TD*%
%TO.C,SW49*%
X315404500Y-75882500D03*
X302477500Y-78422500D03*
%TD*%
%TO.C,SW50*%
X334454500Y-75882500D03*
X321527500Y-78422500D03*
%TD*%
%TO.C,SW51*%
X353504500Y-75882500D03*
X340577500Y-78422500D03*
%TD*%
%TO.C,SW52*%
X372554500Y-75882500D03*
X359627500Y-78422500D03*
%TD*%
%TO.C,SW53*%
X398748250Y-85407500D03*
X385821250Y-87947500D03*
%TD*%
%TO.C,SW54*%
X429704500Y-85407500D03*
X416777500Y-87947500D03*
%TD*%
%TO.C,SW55*%
X448754500Y-85407500D03*
X435827500Y-87947500D03*
%TD*%
%TO.C,SW56*%
X467804500Y-85407500D03*
X454877500Y-87947500D03*
%TD*%
%TO.C,SW57*%
X53467000Y-94932500D03*
X40540000Y-97472500D03*
%TD*%
%TO.C,SW58*%
X72517000Y-94932500D03*
X59590000Y-97472500D03*
%TD*%
%TO.C,SW59*%
X91567000Y-94932500D03*
X78640000Y-97472500D03*
%TD*%
%TO.C,SW60*%
X143954500Y-94932500D03*
X131027500Y-97472500D03*
%TD*%
%TO.C,SW61*%
X167767000Y-94932500D03*
X154840000Y-97472500D03*
%TD*%
%TO.C,SW62*%
X186817000Y-94932500D03*
X173890000Y-97472500D03*
%TD*%
%TO.C,SW63*%
X205867000Y-94932500D03*
X192940000Y-97472500D03*
%TD*%
%TO.C,SW64*%
X224917000Y-94932500D03*
X211990000Y-97472500D03*
%TD*%
%TO.C,SW65*%
X243967000Y-94932500D03*
X231040000Y-97472500D03*
%TD*%
%TO.C,SW66*%
X263017000Y-94932500D03*
X250090000Y-97472500D03*
%TD*%
%TO.C,SW67*%
X282067000Y-94932500D03*
X269140000Y-97472500D03*
%TD*%
%TO.C,SW68*%
X301117000Y-94932500D03*
X288190000Y-97472500D03*
%TD*%
%TO.C,SW69*%
X320167000Y-94932500D03*
X307240000Y-97472500D03*
%TD*%
%TO.C,SW70*%
X339217000Y-94932500D03*
X326290000Y-97472500D03*
%TD*%
%TO.C,SW71*%
X358267000Y-94932500D03*
X345340000Y-97472500D03*
%TD*%
%TO.C,SW72*%
X377317000Y-94932500D03*
X364390000Y-97472500D03*
%TD*%
%TO.C,SW73*%
X53467000Y-113982500D03*
X40540000Y-116522500D03*
%TD*%
%TO.C,SW74*%
X72517000Y-113982500D03*
X59590000Y-116522500D03*
%TD*%
%TO.C,SW75*%
X91567000Y-113982500D03*
X78640000Y-116522500D03*
%TD*%
%TO.C,SW76*%
X110617000Y-123507500D03*
X97690000Y-126047500D03*
%TD*%
%TO.C,SW77*%
X148717000Y-113982500D03*
X135790000Y-116522500D03*
%TD*%
%TO.C,SW78*%
X177292000Y-113982500D03*
X164365000Y-116522500D03*
%TD*%
%TO.C,SW79*%
X196342000Y-113982500D03*
X183415000Y-116522500D03*
%TD*%
%TO.C,SW80*%
X215392000Y-113982500D03*
X202465000Y-116522500D03*
%TD*%
%TO.C,SW81*%
X234442000Y-113982500D03*
X221515000Y-116522500D03*
%TD*%
%TO.C,SW82*%
X253492000Y-113982500D03*
X240565000Y-116522500D03*
%TD*%
%TO.C,SW83*%
X272542000Y-113982500D03*
X259615000Y-116522500D03*
%TD*%
%TO.C,SW84*%
X291592000Y-113982500D03*
X278665000Y-116522500D03*
%TD*%
%TO.C,SW85*%
X310642000Y-113982500D03*
X297715000Y-116522500D03*
%TD*%
%TO.C,SW86*%
X329692000Y-113982500D03*
X316765000Y-116522500D03*
%TD*%
%TO.C,SW87*%
X348742000Y-113982500D03*
X335815000Y-116522500D03*
%TD*%
%TO.C,SW88*%
X384460750Y-113982500D03*
X371533750Y-116522500D03*
%TD*%
%TO.C,SW89*%
X448754500Y-113982500D03*
X435827500Y-116522500D03*
%TD*%
%TO.C,SW90*%
X62992000Y-133032500D03*
X50065000Y-135572500D03*
%TD*%
%TO.C,SW91*%
X91567000Y-133032500D03*
X78640000Y-135572500D03*
%TD*%
%TO.C,SW92*%
X141573250Y-133032500D03*
X128646250Y-135572500D03*
%TD*%
%TO.C,SW93*%
X165385750Y-133032500D03*
X152458750Y-135572500D03*
%TD*%
%TO.C,SW94*%
X189198250Y-133032500D03*
X176271250Y-135572500D03*
%TD*%
%TO.C,SW95*%
X260635750Y-133032500D03*
X247708750Y-135572500D03*
%TD*%
%TO.C,SW96*%
X332073250Y-133032500D03*
X319146250Y-135572500D03*
%TD*%
%TO.C,SW97*%
X355885750Y-133032500D03*
X342958750Y-135572500D03*
%TD*%
%TO.C,SW98*%
X379698250Y-133032500D03*
X366771250Y-135572500D03*
%TD*%
%TO.C,SW99*%
X401129500Y-133032500D03*
X388202500Y-135572500D03*
%TD*%
%TO.C,SW100*%
X429704500Y-133032500D03*
X416777500Y-135572500D03*
%TD*%
%TO.C,SW101*%
X448754500Y-133032500D03*
X435827500Y-135572500D03*
%TD*%
%TO.C,SW102*%
X467804500Y-133032500D03*
X454877500Y-135572500D03*
%TD*%
D11*
%TO.C,R1*%
X453800000Y-43912500D03*
X453800000Y-42087500D03*
%TD*%
D12*
%TO.C,C23*%
X281020000Y-134275000D03*
X281020000Y-136000000D03*
%TD*%
%TO.C,C28*%
X293570000Y-134275000D03*
X293570000Y-136000000D03*
%TD*%
%TO.C,C26*%
X288550000Y-134275000D03*
X288550000Y-136000000D03*
%TD*%
D13*
%TO.C,C42*%
X55110000Y-29962500D03*
X55110000Y-28237500D03*
%TD*%
%TO.C,C43*%
X56610000Y-29962500D03*
X56610000Y-28237500D03*
%TD*%
D12*
%TO.C,C40*%
X229050000Y-134275000D03*
X229050000Y-136000000D03*
%TD*%
%TO.C,C8*%
X292900000Y-49075000D03*
X292900000Y-50800000D03*
%TD*%
D14*
%TO.C,C30*%
X411562500Y-79490000D03*
X409837500Y-79490000D03*
%TD*%
%TO.C,C14*%
X460762500Y-58200000D03*
X459037500Y-58200000D03*
%TD*%
D15*
%TO.C,C48*%
X122637500Y-110410000D03*
X124362500Y-110410000D03*
%TD*%
%TO.C,C31*%
X122637500Y-90127500D03*
X124362500Y-90127500D03*
%TD*%
%TO.C,C57*%
X122637500Y-101717500D03*
X124362500Y-101717500D03*
%TD*%
D12*
%TO.C,C5*%
X234590000Y-49775000D03*
X234590000Y-51500000D03*
%TD*%
%TO.C,C7*%
X290390000Y-49075000D03*
X290390000Y-50800000D03*
%TD*%
D15*
%TO.C,C47*%
X122637500Y-113307500D03*
X124362500Y-113307500D03*
%TD*%
D12*
%TO.C,C39*%
X226540000Y-134275000D03*
X226540000Y-136000000D03*
%TD*%
%TO.C,C1*%
X169270000Y-48537500D03*
X169270000Y-50262500D03*
%TD*%
D14*
%TO.C,C18*%
X411562500Y-104532857D03*
X409837500Y-104532857D03*
%TD*%
%TO.C,C29*%
X411562500Y-84498571D03*
X409837500Y-84498571D03*
%TD*%
D12*
%TO.C,C33*%
X211480000Y-134275000D03*
X211480000Y-136000000D03*
%TD*%
%TO.C,C38*%
X224030000Y-134275000D03*
X224030000Y-136000000D03*
%TD*%
%TO.C,C10*%
X349300000Y-49475000D03*
X349300000Y-51200000D03*
%TD*%
D15*
%TO.C,C58*%
X122637500Y-98820000D03*
X124362500Y-98820000D03*
%TD*%
D16*
%TO.C,TP2*%
X118600000Y-43900000D03*
%TD*%
D11*
%TO.C,R3*%
X457200000Y-43912500D03*
X457200000Y-42087500D03*
%TD*%
D12*
%TO.C,C53*%
X51160000Y-51637500D03*
X51160000Y-53362500D03*
%TD*%
D15*
%TO.C,C49*%
X122637500Y-107512500D03*
X124362500Y-107512500D03*
%TD*%
%TO.C,C50*%
X122637500Y-104615000D03*
X124362500Y-104615000D03*
%TD*%
D12*
%TO.C,C55*%
X43192000Y-51637500D03*
X43192000Y-53362500D03*
%TD*%
D16*
%TO.C,TP3*%
X118600000Y-38900000D03*
%TD*%
D12*
%TO.C,C22*%
X278510000Y-134275000D03*
X278510000Y-136000000D03*
%TD*%
%TO.C,C9*%
X346790000Y-49475000D03*
X346790000Y-51200000D03*
%TD*%
%TO.C,C2*%
X171780000Y-48537500D03*
X171780000Y-50262500D03*
%TD*%
D11*
%TO.C,R2*%
X455500000Y-43912500D03*
X455500000Y-42087500D03*
%TD*%
D15*
%TO.C,C46*%
X122637500Y-116205000D03*
X124362500Y-116205000D03*
%TD*%
D14*
%TO.C,C17*%
X411562500Y-99524286D03*
X409837500Y-99524286D03*
%TD*%
D12*
%TO.C,C54*%
X45184000Y-51637500D03*
X45184000Y-53362500D03*
%TD*%
%TO.C,C51*%
X47176000Y-51637500D03*
X47176000Y-53362500D03*
%TD*%
D14*
%TO.C,C12*%
X467700000Y-118500000D03*
X465975000Y-118500000D03*
%TD*%
D12*
%TO.C,C25*%
X286040000Y-134275000D03*
X286040000Y-136000000D03*
%TD*%
D14*
%TO.C,C11*%
X467700000Y-110990000D03*
X465975000Y-110990000D03*
%TD*%
D15*
%TO.C,C45*%
X122637500Y-119102500D03*
X124362500Y-119102500D03*
%TD*%
D14*
%TO.C,C19*%
X411562500Y-109541429D03*
X409837500Y-109541429D03*
%TD*%
D13*
%TO.C,C41*%
X53610000Y-29962500D03*
X53610000Y-28237500D03*
%TD*%
D16*
%TO.C,TP1*%
X118600000Y-48900000D03*
%TD*%
D17*
%TO.C,U1*%
X107455000Y-44667500D03*
X106185000Y-44667500D03*
X104915000Y-44667500D03*
X103645000Y-44667500D03*
X102375000Y-44667500D03*
X101105000Y-44667500D03*
X99835000Y-44667500D03*
X98565000Y-44667500D03*
X97295000Y-44667500D03*
X96025000Y-44667500D03*
X94755000Y-44667500D03*
X93485000Y-44667500D03*
X92215000Y-44667500D03*
X90945000Y-44667500D03*
X90945000Y-35457500D03*
X92215000Y-35457500D03*
X93485000Y-35457500D03*
X94755000Y-35457500D03*
X96025000Y-35457500D03*
X97295000Y-35457500D03*
X98565000Y-35457500D03*
X99835000Y-35457500D03*
X101105000Y-35457500D03*
X102375000Y-35457500D03*
X103645000Y-35457500D03*
X104915000Y-35457500D03*
X106185000Y-35457500D03*
X107455000Y-35457500D03*
%TD*%
D15*
%TO.C,C60*%
X122637500Y-93025000D03*
X124362500Y-93025000D03*
%TD*%
D12*
%TO.C,C27*%
X291060000Y-134275000D03*
X291060000Y-136000000D03*
%TD*%
%TO.C,C4*%
X176800000Y-48537500D03*
X176800000Y-50262500D03*
%TD*%
D14*
%TO.C,C13*%
X460762500Y-55690000D03*
X459037500Y-55690000D03*
%TD*%
D12*
%TO.C,C21*%
X276000000Y-134275000D03*
X276000000Y-136000000D03*
%TD*%
%TO.C,C34*%
X213990000Y-134275000D03*
X213990000Y-136000000D03*
%TD*%
%TO.C,C56*%
X41200000Y-51637500D03*
X41200000Y-53362500D03*
%TD*%
D18*
%TO.C,S2*%
X62600000Y-42600000D03*
X62600000Y-35400000D03*
X59600000Y-42600000D03*
X59600000Y-35400000D03*
%TD*%
D14*
%TO.C,C15*%
X411562500Y-89507143D03*
X409837500Y-89507143D03*
%TD*%
%TO.C,C16*%
X411562500Y-94515714D03*
X409837500Y-94515714D03*
%TD*%
D12*
%TO.C,C35*%
X216500000Y-134275000D03*
X216500000Y-136000000D03*
%TD*%
%TO.C,C6*%
X237100000Y-49775000D03*
X237100000Y-51500000D03*
%TD*%
%TO.C,C36*%
X219010000Y-134275000D03*
X219010000Y-136000000D03*
%TD*%
D15*
%TO.C,C59*%
X122637500Y-95922500D03*
X124362500Y-95922500D03*
%TD*%
%TO.C,C44*%
X122637500Y-122000000D03*
X124362500Y-122000000D03*
%TD*%
D14*
%TO.C,C20*%
X411562500Y-114550000D03*
X409837500Y-114550000D03*
%TD*%
D12*
%TO.C,C37*%
X221520000Y-134275000D03*
X221520000Y-136000000D03*
%TD*%
%TO.C,C52*%
X49168000Y-51637500D03*
X49168000Y-53362500D03*
%TD*%
%TO.C,C24*%
X283530000Y-134275000D03*
X283530000Y-136000000D03*
%TD*%
%TO.C,C3*%
X174290000Y-48537500D03*
X174290000Y-50262500D03*
%TD*%
D15*
%TO.C,C32*%
X122637500Y-87230000D03*
X124362500Y-87230000D03*
%TD*%
M02*
