%TF.GenerationSoftware,KiCad,Pcbnew,10.0.0*%
%TF.CreationDate,2026-04-01T17:16:54+03:00*%
%TF.ProjectId,IronHand_v1,49726f6e-4861-46e6-945f-76312e6b6963,rev?*%
%TF.SameCoordinates,Original*%
%TF.FileFunction,Paste,Top*%
%TF.FilePolarity,Positive*%
%FSLAX46Y46*%
G04 Gerber Fmt 4.6, Leading zero omitted, Abs format (unit mm)*
G04 Created by KiCad (PCBNEW 10.0.0) date 2026-04-01 17:16:54*
%MOMM*%
%LPD*%
G01*
G04 APERTURE LIST*
G04 Aperture macros list*
%AMRoundRect*
0 Rectangle with rounded corners*
0 $1 Rounding radius*
0 $2 $3 $4 $5 $6 $7 $8 $9 X,Y pos of 4 corners*
0 Add a 4 corners polygon primitive as box body*
4,1,4,$2,$3,$4,$5,$6,$7,$8,$9,$2,$3,0*
0 Add four circle primitives for the rounded corners*
1,1,$1+$1,$2,$3*
1,1,$1+$1,$4,$5*
1,1,$1+$1,$6,$7*
1,1,$1+$1,$8,$9*
0 Add four rect primitives between the rounded corners*
20,1,$1+$1,$2,$3,$4,$5,0*
20,1,$1+$1,$4,$5,$6,$7,0*
20,1,$1+$1,$6,$7,$8,$9,0*
20,1,$1+$1,$8,$9,$2,$3,0*%
G04 Aperture macros list end*
%ADD10R,0.700000X0.700000*%
%ADD11RoundRect,0.250000X1.450000X0.650000X-1.450000X0.650000X-1.450000X-0.650000X1.450000X-0.650000X0*%
G04 APERTURE END LIST*
D10*
%TO.C,L103*%
X72550000Y-39685000D03*
X71450000Y-39685000D03*
X71450000Y-41515000D03*
X72550000Y-41515000D03*
%TD*%
%TO.C,L1*%
X132435000Y-43850000D03*
X132435000Y-42750000D03*
X134265000Y-42750000D03*
X134265000Y-43850000D03*
%TD*%
%TO.C,L75*%
X86640000Y-124812500D03*
X86640000Y-123712500D03*
X84810000Y-123712500D03*
X84810000Y-124812500D03*
%TD*%
%TO.C,L99*%
X158628750Y-142762500D03*
X158628750Y-143862500D03*
X160458750Y-143862500D03*
X160458750Y-142762500D03*
%TD*%
%TO.C,L71*%
X65760000Y-104537500D03*
X65760000Y-105637500D03*
X67590000Y-105637500D03*
X67590000Y-104537500D03*
%TD*%
%TO.C,L46*%
X253327500Y-86712500D03*
X253327500Y-85612500D03*
X251497500Y-85612500D03*
X251497500Y-86712500D03*
%TD*%
%TO.C,L33*%
X84810000Y-66562500D03*
X84810000Y-67662500D03*
X86640000Y-67662500D03*
X86640000Y-66562500D03*
%TD*%
%TO.C,L31*%
X132435000Y-66562500D03*
X132435000Y-67662500D03*
X134265000Y-67662500D03*
X134265000Y-66562500D03*
%TD*%
%TO.C,L56*%
X462877500Y-96237500D03*
X462877500Y-95137500D03*
X461047500Y-95137500D03*
X461047500Y-96237500D03*
%TD*%
%TO.C,L28*%
X189585000Y-66562500D03*
X189585000Y-67662500D03*
X191415000Y-67662500D03*
X191415000Y-66562500D03*
%TD*%
%TO.C,L74*%
X67590000Y-124812500D03*
X67590000Y-123712500D03*
X65760000Y-123712500D03*
X65760000Y-124812500D03*
%TD*%
%TO.C,L60*%
X313410000Y-104662500D03*
X313410000Y-105762500D03*
X315240000Y-105762500D03*
X315240000Y-104662500D03*
%TD*%
%TO.C,L88*%
X379533750Y-124812500D03*
X379533750Y-123712500D03*
X377703750Y-123712500D03*
X377703750Y-124812500D03*
%TD*%
%TO.C,L70*%
X84810000Y-104537500D03*
X84810000Y-105637500D03*
X86640000Y-105637500D03*
X86640000Y-104537500D03*
%TD*%
%TO.C,L45*%
X234277500Y-86712500D03*
X234277500Y-85612500D03*
X232447500Y-85612500D03*
X232447500Y-86712500D03*
%TD*%
%TO.C,L3*%
X177127500Y-43850000D03*
X177127500Y-42750000D03*
X175297500Y-42750000D03*
X175297500Y-43850000D03*
%TD*%
%TO.C,L90*%
X461047500Y-142762500D03*
X461047500Y-143862500D03*
X462877500Y-143862500D03*
X462877500Y-142762500D03*
%TD*%
%TO.C,L73*%
X48540000Y-124812500D03*
X48540000Y-123712500D03*
X46710000Y-123712500D03*
X46710000Y-124812500D03*
%TD*%
%TO.C,L8*%
X277140000Y-43850000D03*
X277140000Y-42750000D03*
X275310000Y-42750000D03*
X275310000Y-43850000D03*
%TD*%
%TO.C,L10*%
X320002500Y-43850000D03*
X320002500Y-42750000D03*
X318172500Y-42750000D03*
X318172500Y-43850000D03*
%TD*%
%TO.C,L52*%
X367627500Y-86712500D03*
X367627500Y-85612500D03*
X365797500Y-85612500D03*
X365797500Y-86712500D03*
%TD*%
%TO.C,L53*%
X393821250Y-96237500D03*
X393821250Y-95137500D03*
X391991250Y-95137500D03*
X391991250Y-96237500D03*
%TD*%
%TO.C,L37*%
X67590000Y-86712500D03*
X67590000Y-85612500D03*
X65760000Y-85612500D03*
X65760000Y-86712500D03*
%TD*%
%TO.C,L91*%
X441997500Y-142762500D03*
X441997500Y-143862500D03*
X443827500Y-143862500D03*
X443827500Y-142762500D03*
%TD*%
%TO.C,L69*%
X137197500Y-104662500D03*
X137197500Y-105762500D03*
X139027500Y-105762500D03*
X139027500Y-104662500D03*
%TD*%
%TO.C,L18*%
X387228750Y-66562500D03*
X387228750Y-67662500D03*
X389058750Y-67662500D03*
X389058750Y-66562500D03*
%TD*%
%TO.C,L95*%
X349128750Y-142762500D03*
X349128750Y-143862500D03*
X350958750Y-143862500D03*
X350958750Y-142762500D03*
%TD*%
%TO.C,L63*%
X256260000Y-104662500D03*
X256260000Y-105762500D03*
X258090000Y-105762500D03*
X258090000Y-104662500D03*
%TD*%
%TO.C,L61*%
X294360000Y-104662500D03*
X294360000Y-105762500D03*
X296190000Y-105762500D03*
X296190000Y-104662500D03*
%TD*%
%TO.C,L100*%
X134816250Y-142762500D03*
X134816250Y-143862500D03*
X136646250Y-143862500D03*
X136646250Y-142762500D03*
%TD*%
%TO.C,L66*%
X199110000Y-104662500D03*
X199110000Y-105762500D03*
X200940000Y-105762500D03*
X200940000Y-104662500D03*
%TD*%
%TO.C,L12*%
X358102500Y-43850000D03*
X358102500Y-42750000D03*
X356272500Y-42750000D03*
X356272500Y-43850000D03*
%TD*%
%TO.C,L98*%
X182441250Y-142762500D03*
X182441250Y-143862500D03*
X184271250Y-143862500D03*
X184271250Y-142762500D03*
%TD*%
%TO.C,L22*%
X303885000Y-66562500D03*
X303885000Y-67662500D03*
X305715000Y-67662500D03*
X305715000Y-66562500D03*
%TD*%
%TO.C,L11*%
X339052500Y-43850000D03*
X339052500Y-42750000D03*
X337222500Y-42750000D03*
X337222500Y-43850000D03*
%TD*%
D11*
%TO.C,TP4*%
X101500000Y-42800000D03*
%TD*%
D10*
%TO.C,L4*%
X196177500Y-43850000D03*
X196177500Y-42750000D03*
X194347500Y-42750000D03*
X194347500Y-43850000D03*
%TD*%
%TO.C,L15*%
X461460000Y-76337500D03*
X461460000Y-77437500D03*
X463290000Y-77437500D03*
X463290000Y-76337500D03*
%TD*%
%TO.C,L2*%
X158077500Y-43850000D03*
X158077500Y-42750000D03*
X156247500Y-42750000D03*
X156247500Y-43850000D03*
%TD*%
%TO.C,L16*%
X442410000Y-76337500D03*
X442410000Y-77437500D03*
X444240000Y-77437500D03*
X444240000Y-76337500D03*
%TD*%
%TO.C,L7*%
X258090000Y-43850000D03*
X258090000Y-42750000D03*
X256260000Y-42750000D03*
X256260000Y-43850000D03*
%TD*%
%TO.C,L62*%
X275310000Y-104662500D03*
X275310000Y-105762500D03*
X277140000Y-105762500D03*
X277140000Y-104662500D03*
%TD*%
%TO.C,L57*%
X370560000Y-104537500D03*
X370560000Y-105637500D03*
X372390000Y-105637500D03*
X372390000Y-104537500D03*
%TD*%
%TO.C,L26*%
X227685000Y-66562500D03*
X227685000Y-67662500D03*
X229515000Y-67662500D03*
X229515000Y-66562500D03*
%TD*%
%TO.C,L85*%
X305715000Y-124812500D03*
X305715000Y-123712500D03*
X303885000Y-123712500D03*
X303885000Y-124812500D03*
%TD*%
%TO.C,L39*%
X105690000Y-96237500D03*
X105690000Y-95137500D03*
X103860000Y-95137500D03*
X103860000Y-96237500D03*
%TD*%
%TO.C,L84*%
X286665000Y-124812500D03*
X286665000Y-123712500D03*
X284835000Y-123712500D03*
X284835000Y-124812500D03*
%TD*%
%TO.C,L5*%
X215227500Y-43850000D03*
X215227500Y-42750000D03*
X213397500Y-42750000D03*
X213397500Y-43850000D03*
%TD*%
%TO.C,L102*%
X56322500Y-142537500D03*
X56322500Y-143637500D03*
X58152500Y-143637500D03*
X58152500Y-142537500D03*
%TD*%
%TO.C,L89*%
X443827500Y-124812500D03*
X443827500Y-123712500D03*
X441997500Y-123712500D03*
X441997500Y-124812500D03*
%TD*%
%TO.C,L80*%
X210465000Y-124812500D03*
X210465000Y-123712500D03*
X208635000Y-123712500D03*
X208635000Y-124812500D03*
%TD*%
%TO.C,L48*%
X291427500Y-86712500D03*
X291427500Y-85612500D03*
X289597500Y-85612500D03*
X289597500Y-86712500D03*
%TD*%
%TO.C,L92*%
X422947500Y-142762500D03*
X422947500Y-143862500D03*
X424777500Y-143862500D03*
X424777500Y-142762500D03*
%TD*%
%TO.C,L77*%
X143790000Y-124812500D03*
X143790000Y-123712500D03*
X141960000Y-123712500D03*
X141960000Y-124812500D03*
%TD*%
%TO.C,L86*%
X324765000Y-124812500D03*
X324765000Y-123712500D03*
X322935000Y-123712500D03*
X322935000Y-124812500D03*
%TD*%
%TO.C,L20*%
X341985000Y-66562500D03*
X341985000Y-67662500D03*
X343815000Y-67662500D03*
X343815000Y-66562500D03*
%TD*%
%TO.C,L38*%
X86640000Y-86712500D03*
X86640000Y-85612500D03*
X84810000Y-85612500D03*
X84810000Y-86712500D03*
%TD*%
%TO.C,L97*%
X253878750Y-142762500D03*
X253878750Y-143862500D03*
X255708750Y-143862500D03*
X255708750Y-142762500D03*
%TD*%
%TO.C,L67*%
X180060000Y-104662500D03*
X180060000Y-105762500D03*
X181890000Y-105762500D03*
X181890000Y-104662500D03*
%TD*%
%TO.C,L14*%
X396202500Y-43850000D03*
X396202500Y-42750000D03*
X394372500Y-42750000D03*
X394372500Y-43850000D03*
%TD*%
%TO.C,L50*%
X329527500Y-86712500D03*
X329527500Y-85612500D03*
X327697500Y-85612500D03*
X327697500Y-86712500D03*
%TD*%
%TO.C,L68*%
X161010000Y-104662500D03*
X161010000Y-105762500D03*
X162840000Y-105762500D03*
X162840000Y-104662500D03*
%TD*%
%TO.C,L29*%
X170535000Y-66562500D03*
X170535000Y-67662500D03*
X172365000Y-67662500D03*
X172365000Y-66562500D03*
%TD*%
%TO.C,L6*%
X239040000Y-43850000D03*
X239040000Y-42750000D03*
X237210000Y-42750000D03*
X237210000Y-43850000D03*
%TD*%
%TO.C,L58*%
X351510000Y-104537500D03*
X351510000Y-105637500D03*
X353340000Y-105637500D03*
X353340000Y-104537500D03*
%TD*%
%TO.C,L9*%
X296190000Y-43850000D03*
X296190000Y-42750000D03*
X294360000Y-42750000D03*
X294360000Y-43850000D03*
%TD*%
%TO.C,L34*%
X65760000Y-66562500D03*
X65760000Y-67662500D03*
X67590000Y-67662500D03*
X67590000Y-66562500D03*
%TD*%
%TO.C,L79*%
X191415000Y-124812500D03*
X191415000Y-123712500D03*
X189585000Y-123712500D03*
X189585000Y-124812500D03*
%TD*%
%TO.C,L30*%
X151485000Y-66562500D03*
X151485000Y-67662500D03*
X153315000Y-67662500D03*
X153315000Y-66562500D03*
%TD*%
%TO.C,L54*%
X424777500Y-96237500D03*
X424777500Y-95137500D03*
X422947500Y-95137500D03*
X422947500Y-96237500D03*
%TD*%
%TO.C,L101*%
X84810000Y-142762500D03*
X84810000Y-143862500D03*
X86640000Y-143862500D03*
X86640000Y-142762500D03*
%TD*%
%TO.C,L82*%
X248565000Y-124812500D03*
X248565000Y-123712500D03*
X246735000Y-123712500D03*
X246735000Y-124812500D03*
%TD*%
%TO.C,L96*%
X325316250Y-142762500D03*
X325316250Y-143862500D03*
X327146250Y-143862500D03*
X327146250Y-142762500D03*
%TD*%
%TO.C,L93*%
X394372500Y-142762500D03*
X394372500Y-143862500D03*
X396202500Y-143862500D03*
X396202500Y-142762500D03*
%TD*%
%TO.C,L72*%
X46710000Y-104537500D03*
X46710000Y-105637500D03*
X48540000Y-105637500D03*
X48540000Y-104537500D03*
%TD*%
%TO.C,L44*%
X215227500Y-86712500D03*
X215227500Y-85612500D03*
X213397500Y-85612500D03*
X213397500Y-86712500D03*
%TD*%
%TO.C,L17*%
X423360000Y-76337500D03*
X423360000Y-77437500D03*
X425190000Y-77437500D03*
X425190000Y-76337500D03*
%TD*%
%TO.C,L42*%
X177127500Y-86712500D03*
X177127500Y-85612500D03*
X175297500Y-85612500D03*
X175297500Y-86712500D03*
%TD*%
%TO.C,L83*%
X267615000Y-124812500D03*
X267615000Y-123712500D03*
X265785000Y-123712500D03*
X265785000Y-124812500D03*
%TD*%
%TO.C,L35*%
X46710000Y-66562500D03*
X46710000Y-67662500D03*
X48540000Y-67662500D03*
X48540000Y-66562500D03*
%TD*%
%TO.C,L13*%
X377152500Y-43850000D03*
X377152500Y-42750000D03*
X375322500Y-42750000D03*
X375322500Y-43850000D03*
%TD*%
%TO.C,L64*%
X237210000Y-104662500D03*
X237210000Y-105762500D03*
X239040000Y-105762500D03*
X239040000Y-104662500D03*
%TD*%
%TO.C,L43*%
X196177500Y-86712500D03*
X196177500Y-85612500D03*
X194347500Y-85612500D03*
X194347500Y-86712500D03*
%TD*%
%TO.C,L94*%
X372941250Y-142762500D03*
X372941250Y-143862500D03*
X374771250Y-143862500D03*
X374771250Y-142762500D03*
%TD*%
%TO.C,L19*%
X361035000Y-66562500D03*
X361035000Y-67662500D03*
X362865000Y-67662500D03*
X362865000Y-66562500D03*
%TD*%
%TO.C,L87*%
X343815000Y-124812500D03*
X343815000Y-123712500D03*
X341985000Y-123712500D03*
X341985000Y-124812500D03*
%TD*%
%TO.C,L32*%
X103860000Y-66562500D03*
X103860000Y-67662500D03*
X105690000Y-67662500D03*
X105690000Y-66562500D03*
%TD*%
%TO.C,L24*%
X265785000Y-66562500D03*
X265785000Y-67662500D03*
X267615000Y-67662500D03*
X267615000Y-66562500D03*
%TD*%
%TO.C,L21*%
X322935000Y-66562500D03*
X322935000Y-67662500D03*
X324765000Y-67662500D03*
X324765000Y-66562500D03*
%TD*%
%TO.C,L51*%
X348577500Y-86712500D03*
X348577500Y-85612500D03*
X346747500Y-85612500D03*
X346747500Y-86712500D03*
%TD*%
%TO.C,L59*%
X332460000Y-104537500D03*
X332460000Y-105637500D03*
X334290000Y-105637500D03*
X334290000Y-104537500D03*
%TD*%
%TO.C,L81*%
X229515000Y-124812500D03*
X229515000Y-123712500D03*
X227685000Y-123712500D03*
X227685000Y-124812500D03*
%TD*%
%TO.C,L47*%
X272377500Y-86712500D03*
X272377500Y-85612500D03*
X270547500Y-85612500D03*
X270547500Y-86712500D03*
%TD*%
%TO.C,L55*%
X443827500Y-96237500D03*
X443827500Y-95137500D03*
X441997500Y-95137500D03*
X441997500Y-96237500D03*
%TD*%
%TO.C,L40*%
X136646250Y-86712500D03*
X136646250Y-85612500D03*
X134816250Y-85612500D03*
X134816250Y-86712500D03*
%TD*%
%TO.C,L36*%
X48540000Y-86712500D03*
X48540000Y-85612500D03*
X46710000Y-85612500D03*
X46710000Y-86712500D03*
%TD*%
%TO.C,L23*%
X284835000Y-66562500D03*
X284835000Y-67662500D03*
X286665000Y-67662500D03*
X286665000Y-66562500D03*
%TD*%
%TO.C,L76*%
X105690000Y-134337500D03*
X105690000Y-133237500D03*
X103860000Y-133237500D03*
X103860000Y-134337500D03*
%TD*%
%TO.C,L27*%
X208635000Y-66562500D03*
X208635000Y-67662500D03*
X210465000Y-67662500D03*
X210465000Y-66562500D03*
%TD*%
%TO.C,L78*%
X172365000Y-124812500D03*
X172365000Y-123712500D03*
X170535000Y-123712500D03*
X170535000Y-124812500D03*
%TD*%
%TO.C,L41*%
X158077500Y-86712500D03*
X158077500Y-85612500D03*
X156247500Y-85612500D03*
X156247500Y-86712500D03*
%TD*%
%TO.C,L25*%
X246735000Y-66562500D03*
X246735000Y-67662500D03*
X248565000Y-67662500D03*
X248565000Y-66562500D03*
%TD*%
%TO.C,L49*%
X310477500Y-86712500D03*
X310477500Y-85612500D03*
X308647500Y-85612500D03*
X308647500Y-86712500D03*
%TD*%
%TO.C,L65*%
X218160000Y-104662500D03*
X218160000Y-105762500D03*
X219990000Y-105762500D03*
X219990000Y-104662500D03*
%TD*%
M02*
