%TF.GenerationSoftware,KiCad,Pcbnew,10.0.0*%
%TF.CreationDate,2026-04-01T17:09:58+03:00*%
%TF.ProjectId,IronHand_v1,49726f6e-4861-46e6-945f-76312e6b6963,rev?*%
%TF.SameCoordinates,Original*%
%TF.FileFunction,Drillmap*%
%TF.FilePolarity,Positive*%
%FSLAX45Y45*%
G04 Gerber Fmt 4.5, Leading zero omitted, Abs format (unit mm)*
G04 Created by KiCad (PCBNEW 10.0.0) date 2026-04-01 17:09:58*
%MOMM*%
%LPD*%
G01*
G04 APERTURE LIST*
%ADD10C,0.050000*%
%ADD11C,0.200000*%
%ADD12C,0.100000*%
%ADD13C,0.120000*%
G04 APERTURE END LIST*
D10*
X3862500Y-14711200D02*
X3862500Y-4870000D01*
X3862500Y-14711200D02*
X47396300Y-14711200D01*
X4940000Y-4870000D02*
X3862500Y-4870000D01*
X4940000Y-4870000D02*
X5240000Y-4570000D01*
X5240000Y-2711200D02*
X5240000Y-4570000D01*
X47396300Y-2711200D02*
X5240000Y-2711200D01*
X47396300Y-14711200D02*
X47396300Y-2711200D01*
D11*
D12*
X4045000Y-5535000D02*
X4075000Y-5565000D01*
X4075000Y-5535000D02*
X4045000Y-5565000D01*
X4105000Y-5035000D02*
X4135000Y-5065000D01*
X4135000Y-5035000D02*
X4105000Y-5065000D01*
X4305000Y-5025000D02*
X4335000Y-5055000D01*
X4335000Y-5025000D02*
X4305000Y-5055000D01*
X4485000Y-5635000D02*
X4515000Y-5665000D01*
X4515000Y-5635000D02*
X4485000Y-5665000D01*
X4505000Y-5025000D02*
X4535000Y-5055000D01*
X4535000Y-5025000D02*
X4505000Y-5055000D01*
X4535000Y-10675000D02*
X4565000Y-10705000D01*
X4565000Y-10675000D02*
X4535000Y-10705000D01*
X4565000Y-7025000D02*
X4595000Y-7055000D01*
X4595000Y-7025000D02*
X4565000Y-7055000D01*
X4702600Y-5025000D02*
X4732600Y-5055000D01*
X4732600Y-5025000D02*
X4702600Y-5055000D01*
X4901800Y-5025000D02*
X4931800Y-5055000D01*
X4931800Y-5025000D02*
X4901800Y-5055000D01*
X4973750Y-12356250D02*
X5003750Y-12386250D01*
X5003750Y-12356250D02*
X4973750Y-12386250D01*
X5005000Y-8475000D02*
X5035000Y-8505000D01*
X5035000Y-8475000D02*
X5005000Y-8505000D01*
X5101000Y-5021000D02*
X5131000Y-5051000D01*
X5131000Y-5021000D02*
X5101000Y-5051000D01*
X5465000Y-14425000D02*
X5495000Y-14455000D01*
X5495000Y-14425000D02*
X5465000Y-14455000D01*
X5655000Y-5275000D02*
X5685000Y-5305000D01*
X5685000Y-5275000D02*
X5655000Y-5305000D01*
X5942000Y-6198000D02*
X5972000Y-6228000D01*
X5972000Y-6198000D02*
X5942000Y-6228000D01*
X5944000Y-8985000D02*
X5974000Y-9015000D01*
X5974000Y-8985000D02*
X5944000Y-9015000D01*
X6305000Y-10605000D02*
X6335000Y-10635000D01*
X6335000Y-10605000D02*
X6305000Y-10635000D01*
X6355000Y-6835000D02*
X6385000Y-6865000D01*
X6385000Y-6835000D02*
X6355000Y-6865000D01*
X6415000Y-9155000D02*
X6445000Y-9185000D01*
X6445000Y-9155000D02*
X6415000Y-9185000D01*
X6555000Y-5115000D02*
X6585000Y-5145000D01*
X6585000Y-5115000D02*
X6555000Y-5145000D01*
X6725000Y-9155000D02*
X6755000Y-9185000D01*
X6755000Y-9155000D02*
X6725000Y-9185000D01*
X6805000Y-5115000D02*
X6835000Y-5145000D01*
X6835000Y-5115000D02*
X6805000Y-5145000D01*
X6885000Y-12355000D02*
X6915000Y-12385000D01*
X6915000Y-12355000D02*
X6885000Y-12385000D01*
X6975000Y-8505000D02*
X7005000Y-8535000D01*
X7005000Y-8505000D02*
X6975000Y-8535000D01*
X7005000Y-3735000D02*
X7035000Y-3765000D01*
X7035000Y-3735000D02*
X7005000Y-3765000D01*
X7295000Y-4525000D02*
X7325000Y-4555000D01*
X7325000Y-4525000D02*
X7295000Y-4555000D01*
X7426000Y-6885000D02*
X7456000Y-6915000D01*
X7456000Y-6885000D02*
X7426000Y-6915000D01*
X7505000Y-13105000D02*
X7535000Y-13135000D01*
X7535000Y-13105000D02*
X7505000Y-13135000D01*
X7575000Y-5395000D02*
X7605000Y-5425000D01*
X7605000Y-5395000D02*
X7575000Y-5425000D01*
X7586000Y-6994000D02*
X7616000Y-7024000D01*
X7616000Y-6994000D02*
X7586000Y-7024000D01*
X7595000Y-3935000D02*
X7625000Y-3965000D01*
X7625000Y-3935000D02*
X7595000Y-3965000D01*
X7605000Y-6105000D02*
X7635000Y-6135000D01*
X7635000Y-6105000D02*
X7605000Y-6135000D01*
X7685000Y-6865000D02*
X7715000Y-6895000D01*
X7715000Y-6865000D02*
X7685000Y-6895000D01*
X7725000Y-9165000D02*
X7755000Y-9195000D01*
X7755000Y-9165000D02*
X7725000Y-9195000D01*
X7745000Y-4265000D02*
X7775000Y-4295000D01*
X7775000Y-4265000D02*
X7745000Y-4295000D01*
X7849000Y-8985000D02*
X7879000Y-9015000D01*
X7879000Y-8985000D02*
X7849000Y-9015000D01*
X7875000Y-5655000D02*
X7905000Y-5685000D01*
X7905000Y-5655000D02*
X7875000Y-5685000D01*
X7905000Y-5395000D02*
X7935000Y-5425000D01*
X7935000Y-5395000D02*
X7905000Y-5425000D01*
X7964250Y-6426250D02*
X7994250Y-6456250D01*
X7994250Y-6426250D02*
X7964250Y-6456250D01*
X7985000Y-9165000D02*
X8015000Y-9195000D01*
X8015000Y-9165000D02*
X7985000Y-9195000D01*
X8185000Y-6865000D02*
X8215000Y-6895000D01*
X8215000Y-6865000D02*
X8185000Y-6895000D01*
X8225000Y-10605000D02*
X8255000Y-10635000D01*
X8255000Y-10605000D02*
X8225000Y-10635000D01*
X8255000Y-14435000D02*
X8285000Y-14465000D01*
X8285000Y-14435000D02*
X8255000Y-14465000D01*
X8355000Y-3475000D02*
X8385000Y-3505000D01*
X8385000Y-3475000D02*
X8355000Y-3505000D01*
X8385000Y-2935000D02*
X8415000Y-2965000D01*
X8415000Y-2935000D02*
X8385000Y-2965000D01*
X8785000Y-12355000D02*
X8815000Y-12385000D01*
X8815000Y-12355000D02*
X8785000Y-12385000D01*
X8825000Y-8485000D02*
X8855000Y-8515000D01*
X8855000Y-8485000D02*
X8825000Y-8515000D01*
X8855000Y-2865000D02*
X8885000Y-2895000D01*
X8885000Y-2865000D02*
X8855000Y-2895000D01*
X8995000Y-3635000D02*
X9025000Y-3665000D01*
X9025000Y-3635000D02*
X8995000Y-3665000D01*
X9155000Y-6645000D02*
X9185000Y-6675000D01*
X9185000Y-6645000D02*
X9155000Y-6675000D01*
X9195000Y-2915000D02*
X9225000Y-2945000D01*
X9225000Y-2915000D02*
X9195000Y-2945000D01*
X9225000Y-3215000D02*
X9255000Y-3245000D01*
X9255000Y-3215000D02*
X9225000Y-3245000D01*
X9225000Y-6875000D02*
X9255000Y-6905000D01*
X9255000Y-6875000D02*
X9225000Y-6905000D01*
X9460500Y-3745000D02*
X9490500Y-3775000D01*
X9490500Y-3745000D02*
X9460500Y-3775000D01*
X9465000Y-3275000D02*
X9495000Y-3305000D01*
X9495000Y-3275000D02*
X9465000Y-3305000D01*
X9475000Y-7125000D02*
X9505000Y-7155000D01*
X9505000Y-7125000D02*
X9475000Y-7155000D01*
X9525000Y-4725000D02*
X9555000Y-4755000D01*
X9555000Y-4725000D02*
X9525000Y-4755000D01*
X9588000Y-4103000D02*
X9618000Y-4133000D01*
X9618000Y-4103000D02*
X9588000Y-4133000D01*
X9595000Y-3285000D02*
X9625000Y-3315000D01*
X9625000Y-3285000D02*
X9595000Y-3315000D01*
X9685000Y-4895000D02*
X9715000Y-4925000D01*
X9715000Y-4895000D02*
X9685000Y-4925000D01*
X10028000Y-5174000D02*
X10058000Y-5204000D01*
X10058000Y-5174000D02*
X10028000Y-5204000D01*
X10045000Y-7695000D02*
X10075000Y-7725000D01*
X10075000Y-7695000D02*
X10045000Y-7725000D01*
X10095000Y-13835000D02*
X10125000Y-13865000D01*
X10125000Y-13835000D02*
X10095000Y-13865000D01*
X10155000Y-3195000D02*
X10185000Y-3225000D01*
X10185000Y-3195000D02*
X10155000Y-3225000D01*
X10195000Y-6795000D02*
X10225000Y-6825000D01*
X10225000Y-6795000D02*
X10195000Y-6825000D01*
X10225000Y-3285000D02*
X10255000Y-3315000D01*
X10255000Y-3285000D02*
X10225000Y-3315000D01*
X10465000Y-5065000D02*
X10495000Y-5095000D01*
X10495000Y-5065000D02*
X10465000Y-5095000D01*
X10495000Y-5375000D02*
X10525000Y-5405000D01*
X10525000Y-5375000D02*
X10495000Y-5405000D01*
X10540000Y-4970000D02*
X10570000Y-5000000D01*
X10570000Y-4970000D02*
X10540000Y-5000000D01*
X10605000Y-4885000D02*
X10635000Y-4915000D01*
X10635000Y-4885000D02*
X10605000Y-4915000D01*
X10605000Y-13665000D02*
X10635000Y-13695000D01*
X10635000Y-13665000D02*
X10605000Y-13695000D01*
X10625000Y-13195000D02*
X10655000Y-13225000D01*
X10655000Y-13195000D02*
X10625000Y-13225000D01*
X10685000Y-4795000D02*
X10715000Y-4825000D01*
X10715000Y-4795000D02*
X10685000Y-4825000D01*
X10765000Y-9495000D02*
X10795000Y-9525000D01*
X10795000Y-9495000D02*
X10765000Y-9525000D01*
X10775000Y-4705000D02*
X10805000Y-4735000D01*
X10805000Y-4705000D02*
X10775000Y-4735000D01*
X10835000Y-6895000D02*
X10865000Y-6925000D01*
X10865000Y-6895000D02*
X10835000Y-6925000D01*
X10865000Y-4595000D02*
X10895000Y-4625000D01*
X10895000Y-4595000D02*
X10865000Y-4625000D01*
X10885000Y-6645000D02*
X10915000Y-6675000D01*
X10915000Y-6645000D02*
X10885000Y-6675000D01*
X11065000Y-4455000D02*
X11095000Y-4485000D01*
X11095000Y-4455000D02*
X11065000Y-4485000D01*
X11155000Y-3325000D02*
X11185000Y-3355000D01*
X11185000Y-3325000D02*
X11155000Y-3355000D01*
X11565000Y-3325000D02*
X11595000Y-3355000D01*
X11595000Y-3325000D02*
X11565000Y-3355000D01*
X11615000Y-13405000D02*
X11645000Y-13435000D01*
X11645000Y-13405000D02*
X11615000Y-13435000D01*
X11765000Y-9125000D02*
X11795000Y-9155000D01*
X11795000Y-9125000D02*
X11765000Y-9155000D01*
X11765000Y-10235000D02*
X11795000Y-10265000D01*
X11795000Y-10235000D02*
X11765000Y-10265000D01*
X12045000Y-10875000D02*
X12075000Y-10905000D01*
X12075000Y-10875000D02*
X12045000Y-10905000D01*
X12045000Y-11165000D02*
X12075000Y-11195000D01*
X12075000Y-11165000D02*
X12045000Y-11195000D01*
X12055000Y-9735000D02*
X12085000Y-9765000D01*
X12085000Y-9735000D02*
X12055000Y-9765000D01*
X12055000Y-10585000D02*
X12085000Y-10615000D01*
X12085000Y-10585000D02*
X12055000Y-10615000D01*
X12055000Y-11395000D02*
X12085000Y-11425000D01*
X12085000Y-11395000D02*
X12055000Y-11425000D01*
X12075000Y-11605000D02*
X12105000Y-11635000D01*
X12105000Y-11605000D02*
X12075000Y-11635000D01*
X12085000Y-8705000D02*
X12115000Y-8735000D01*
X12115000Y-8705000D02*
X12085000Y-8735000D01*
X12085000Y-11895000D02*
X12115000Y-11925000D01*
X12115000Y-11895000D02*
X12085000Y-11925000D01*
X12095000Y-10156750D02*
X12125000Y-10186750D01*
X12125000Y-10156750D02*
X12095000Y-10186750D01*
X12095000Y-12185000D02*
X12125000Y-12215000D01*
X12125000Y-12185000D02*
X12095000Y-12215000D01*
X12097000Y-9867000D02*
X12127000Y-9897000D01*
X12127000Y-9867000D02*
X12097000Y-9897000D01*
X12102250Y-8997750D02*
X12132250Y-9027750D01*
X12132250Y-8997750D02*
X12102250Y-9027750D01*
X12105000Y-9285000D02*
X12135000Y-9315000D01*
X12135000Y-9285000D02*
X12105000Y-9315000D01*
X12145000Y-3325000D02*
X12175000Y-3355000D01*
X12175000Y-3325000D02*
X12145000Y-3355000D01*
X12505000Y-3325000D02*
X12535000Y-3355000D01*
X12535000Y-3325000D02*
X12505000Y-3355000D01*
X12516000Y-8101000D02*
X12546000Y-8131000D01*
X12546000Y-8101000D02*
X12516000Y-8131000D01*
X12611500Y-5265000D02*
X12641500Y-5295000D01*
X12641500Y-5265000D02*
X12611500Y-5295000D01*
X13084000Y-8481000D02*
X13114000Y-8511000D01*
X13114000Y-8481000D02*
X13084000Y-8511000D01*
X13085000Y-6751250D02*
X13115000Y-6781250D01*
X13115000Y-6751250D02*
X13085000Y-6781250D01*
X13165000Y-3325000D02*
X13195000Y-3355000D01*
X13195000Y-3325000D02*
X13165000Y-3355000D01*
X13245000Y-14445000D02*
X13275000Y-14475000D01*
X13275000Y-14445000D02*
X13245000Y-14475000D01*
X13555000Y-4215000D02*
X13585000Y-4245000D01*
X13585000Y-4215000D02*
X13555000Y-4245000D01*
X13565000Y-10565000D02*
X13595000Y-10595000D01*
X13595000Y-10565000D02*
X13565000Y-10595000D01*
X13585000Y-10735000D02*
X13615000Y-10765000D01*
X13615000Y-10735000D02*
X13585000Y-10765000D01*
X13883750Y-8546250D02*
X13913750Y-8576250D01*
X13913750Y-8546250D02*
X13883750Y-8576250D01*
X14055000Y-5140000D02*
X14085000Y-5170000D01*
X14085000Y-5140000D02*
X14055000Y-5170000D01*
X14155000Y-10235000D02*
X14185000Y-10265000D01*
X14185000Y-10235000D02*
X14155000Y-10265000D01*
X14155000Y-10465000D02*
X14185000Y-10495000D01*
X14185000Y-10465000D02*
X14155000Y-10495000D01*
X14250000Y-7220000D02*
X14280000Y-7250000D01*
X14280000Y-7220000D02*
X14250000Y-7250000D01*
X14515000Y-3325000D02*
X14545000Y-3355000D01*
X14545000Y-3325000D02*
X14515000Y-3355000D01*
X14515000Y-12355000D02*
X14545000Y-12385000D01*
X14545000Y-12355000D02*
X14515000Y-12385000D01*
X14595000Y-10482000D02*
X14625000Y-10512000D01*
X14625000Y-10482000D02*
X14595000Y-10512000D01*
X14763000Y-8333000D02*
X14793000Y-8363000D01*
X14793000Y-8333000D02*
X14763000Y-8363000D01*
X14965000Y-6751250D02*
X14995000Y-6781250D01*
X14995000Y-6751250D02*
X14965000Y-6781250D01*
X14975000Y-3255000D02*
X15005000Y-3285000D01*
X15005000Y-3255000D02*
X14975000Y-3285000D01*
X15075000Y-9285000D02*
X15105000Y-9315000D01*
X15105000Y-9285000D02*
X15075000Y-9315000D01*
X15075000Y-10575000D02*
X15105000Y-10605000D01*
X15105000Y-10575000D02*
X15075000Y-10605000D01*
X15185000Y-5125000D02*
X15215000Y-5155000D01*
X15215000Y-5125000D02*
X15185000Y-5155000D01*
X15362000Y-10236000D02*
X15392000Y-10266000D01*
X15392000Y-10236000D02*
X15362000Y-10266000D01*
X15625000Y-3365000D02*
X15655000Y-3395000D01*
X15655000Y-3365000D02*
X15625000Y-3395000D01*
X15625000Y-14445000D02*
X15655000Y-14475000D01*
X15655000Y-14445000D02*
X15625000Y-14475000D01*
X15965000Y-4215000D02*
X15995000Y-4245000D01*
X15995000Y-4215000D02*
X15965000Y-4245000D01*
X15965000Y-8505000D02*
X15995000Y-8535000D01*
X15995000Y-8505000D02*
X15965000Y-8535000D01*
X15968750Y-10561250D02*
X15998750Y-10591250D01*
X15998750Y-10561250D02*
X15968750Y-10591250D01*
X16265000Y-10905000D02*
X16295000Y-10935000D01*
X16295000Y-10905000D02*
X16265000Y-10935000D01*
X16495000Y-5225000D02*
X16525000Y-5255000D01*
X16525000Y-5225000D02*
X16495000Y-5255000D01*
X16631250Y-7912750D02*
X16661250Y-7942750D01*
X16661250Y-7912750D02*
X16631250Y-7942750D01*
X16815000Y-4525000D02*
X16845000Y-4555000D01*
X16845000Y-4525000D02*
X16815000Y-4555000D01*
X16888750Y-6751250D02*
X16918750Y-6781250D01*
X16918750Y-6751250D02*
X16888750Y-6781250D01*
X16925000Y-3275000D02*
X16955000Y-3305000D01*
X16955000Y-3275000D02*
X16925000Y-3305000D01*
X17235000Y-4485000D02*
X17265000Y-4515000D01*
X17265000Y-4485000D02*
X17235000Y-4515000D01*
X17415000Y-12355000D02*
X17445000Y-12385000D01*
X17445000Y-12355000D02*
X17415000Y-12385000D01*
X17465000Y-4545000D02*
X17495000Y-4575000D01*
X17495000Y-4545000D02*
X17465000Y-4575000D01*
X17515000Y-3355000D02*
X17545000Y-3385000D01*
X17545000Y-3355000D02*
X17515000Y-3385000D01*
X17795000Y-4555000D02*
X17825000Y-4585000D01*
X17825000Y-4555000D02*
X17795000Y-4585000D01*
X17830000Y-4260000D02*
X17860000Y-4290000D01*
X17860000Y-4260000D02*
X17830000Y-4290000D01*
X17865000Y-10565000D02*
X17895000Y-10595000D01*
X17895000Y-10565000D02*
X17865000Y-10595000D01*
X17867000Y-7044000D02*
X17897000Y-7074000D01*
X17897000Y-7044000D02*
X17867000Y-7074000D01*
X17895000Y-8546250D02*
X17925000Y-8576250D01*
X17925000Y-8546250D02*
X17895000Y-8576250D01*
X17955000Y-14445000D02*
X17985000Y-14475000D01*
X17985000Y-14445000D02*
X17955000Y-14475000D01*
X18065000Y-5125000D02*
X18095000Y-5155000D01*
X18095000Y-5125000D02*
X18065000Y-5155000D01*
X18635000Y-5035000D02*
X18665000Y-5065000D01*
X18665000Y-5035000D02*
X18635000Y-5065000D01*
X18655000Y-8545000D02*
X18685000Y-8575000D01*
X18685000Y-8545000D02*
X18655000Y-8575000D01*
X18675000Y-3835000D02*
X18705000Y-3865000D01*
X18705000Y-3835000D02*
X18675000Y-3865000D01*
X18675000Y-8105000D02*
X18705000Y-8135000D01*
X18705000Y-8105000D02*
X18675000Y-8135000D01*
X18785000Y-6755000D02*
X18815000Y-6785000D01*
X18815000Y-6755000D02*
X18785000Y-6785000D01*
X18875000Y-3265000D02*
X18905000Y-3295000D01*
X18905000Y-3265000D02*
X18875000Y-3295000D01*
X18885000Y-8965000D02*
X18915000Y-8995000D01*
X18915000Y-8965000D02*
X18885000Y-8995000D01*
X18915000Y-3965000D02*
X18945000Y-3995000D01*
X18945000Y-3965000D02*
X18915000Y-3995000D01*
X18915000Y-8235000D02*
X18945000Y-8265000D01*
X18945000Y-8235000D02*
X18915000Y-8265000D01*
X19016000Y-5224000D02*
X19046000Y-5254000D01*
X19046000Y-5224000D02*
X19016000Y-5254000D01*
X19045000Y-8515000D02*
X19075000Y-8545000D01*
X19075000Y-8515000D02*
X19045000Y-8545000D01*
X19265000Y-12355000D02*
X19295000Y-12385000D01*
X19295000Y-12355000D02*
X19265000Y-12385000D01*
X19455000Y-3375000D02*
X19485000Y-3405000D01*
X19485000Y-3375000D02*
X19455000Y-3405000D01*
X19485000Y-9125000D02*
X19515000Y-9155000D01*
X19515000Y-9125000D02*
X19485000Y-9155000D01*
X19655000Y-8415000D02*
X19685000Y-8445000D01*
X19685000Y-8415000D02*
X19655000Y-8445000D01*
X19765000Y-4195000D02*
X19795000Y-4225000D01*
X19795000Y-4195000D02*
X19765000Y-4225000D01*
X19955000Y-8475000D02*
X19985000Y-8505000D01*
X19985000Y-8475000D02*
X19955000Y-8505000D01*
X19965000Y-10715000D02*
X19995000Y-10745000D01*
X19995000Y-10715000D02*
X19965000Y-10745000D01*
X20634000Y-5224000D02*
X20664000Y-5254000D01*
X20664000Y-5224000D02*
X20634000Y-5254000D01*
X20705000Y-6751250D02*
X20735000Y-6781250D01*
X20735000Y-6751250D02*
X20705000Y-6781250D01*
X20825000Y-3285000D02*
X20855000Y-3315000D01*
X20855000Y-3285000D02*
X20825000Y-3315000D01*
X21133000Y-13247000D02*
X21163000Y-13277000D01*
X21163000Y-13247000D02*
X21133000Y-13277000D01*
X21175000Y-12356250D02*
X21205000Y-12386250D01*
X21205000Y-12356250D02*
X21175000Y-12386250D01*
X21385000Y-13255000D02*
X21415000Y-13285000D01*
X21415000Y-13255000D02*
X21385000Y-13285000D01*
X21407000Y-7225000D02*
X21437000Y-7255000D01*
X21437000Y-7225000D02*
X21407000Y-7255000D01*
X21635000Y-13245000D02*
X21665000Y-13275000D01*
X21665000Y-13245000D02*
X21635000Y-13275000D01*
X21658750Y-10561250D02*
X21688750Y-10591250D01*
X21688750Y-10561250D02*
X21658750Y-10591250D01*
X21685000Y-8546250D02*
X21715000Y-8576250D01*
X21715000Y-8546250D02*
X21685000Y-8576250D01*
X21835000Y-4205000D02*
X21865000Y-4235000D01*
X21865000Y-4205000D02*
X21835000Y-4235000D01*
X21886000Y-13246000D02*
X21916000Y-13276000D01*
X21916000Y-13246000D02*
X21886000Y-13276000D01*
X22137000Y-13267000D02*
X22167000Y-13297000D01*
X22167000Y-13267000D02*
X22137000Y-13297000D01*
X22165000Y-10905000D02*
X22195000Y-10935000D01*
X22195000Y-10905000D02*
X22165000Y-10935000D01*
X22388000Y-13265000D02*
X22418000Y-13295000D01*
X22418000Y-13265000D02*
X22388000Y-13295000D01*
X22595000Y-6751250D02*
X22625000Y-6781250D01*
X22625000Y-6751250D02*
X22595000Y-6781250D01*
X22645000Y-4895000D02*
X22675000Y-4925000D01*
X22675000Y-4895000D02*
X22645000Y-4925000D01*
X22695000Y-3345000D02*
X22725000Y-3375000D01*
X22725000Y-3345000D02*
X22695000Y-3375000D01*
X22725000Y-13205000D02*
X22755000Y-13235000D01*
X22755000Y-13205000D02*
X22725000Y-13235000D01*
X22765000Y-12715000D02*
X22795000Y-12745000D01*
X22795000Y-12715000D02*
X22765000Y-12745000D01*
X22818000Y-10857000D02*
X22848000Y-10887000D01*
X22848000Y-10857000D02*
X22818000Y-10887000D01*
X23215000Y-6995000D02*
X23245000Y-7025000D01*
X23245000Y-6995000D02*
X23215000Y-7025000D01*
X23295000Y-4935000D02*
X23325000Y-4965000D01*
X23325000Y-4935000D02*
X23295000Y-4965000D01*
X23295000Y-6605000D02*
X23325000Y-6635000D01*
X23325000Y-6605000D02*
X23295000Y-6635000D01*
X23405000Y-3255000D02*
X23435000Y-3285000D01*
X23435000Y-3255000D02*
X23405000Y-3285000D01*
X23415000Y-12345000D02*
X23445000Y-12375000D01*
X23445000Y-12345000D02*
X23415000Y-12375000D01*
X23585000Y-10561250D02*
X23615000Y-10591250D01*
X23615000Y-10561250D02*
X23585000Y-10591250D01*
X23600000Y-12931000D02*
X23630000Y-12961000D01*
X23630000Y-12931000D02*
X23600000Y-12961000D01*
X23605000Y-8546250D02*
X23635000Y-8576250D01*
X23635000Y-8546250D02*
X23605000Y-8576250D01*
X23615000Y-4505000D02*
X23645000Y-4535000D01*
X23645000Y-4505000D02*
X23615000Y-4535000D01*
X23765000Y-3415000D02*
X23795000Y-3445000D01*
X23795000Y-3415000D02*
X23765000Y-3445000D01*
X23875000Y-4885000D02*
X23905000Y-4915000D01*
X23905000Y-4885000D02*
X23875000Y-4915000D01*
X24045000Y-4260000D02*
X24075000Y-4290000D01*
X24075000Y-4260000D02*
X24045000Y-4290000D01*
X24085000Y-12315000D02*
X24115000Y-12345000D01*
X24115000Y-12315000D02*
X24085000Y-12345000D01*
X24505000Y-6755000D02*
X24535000Y-6785000D01*
X24535000Y-6755000D02*
X24505000Y-6785000D01*
X24560000Y-4790000D02*
X24590000Y-4820000D01*
X24590000Y-4790000D02*
X24560000Y-4820000D01*
X24925000Y-12215000D02*
X24955000Y-12245000D01*
X24955000Y-12215000D02*
X24925000Y-12245000D01*
X25075000Y-3255000D02*
X25105000Y-3285000D01*
X25105000Y-3255000D02*
X25075000Y-3285000D01*
X25125000Y-14455000D02*
X25155000Y-14485000D01*
X25155000Y-14455000D02*
X25125000Y-14485000D01*
X25264000Y-13020000D02*
X25294000Y-13050000D01*
X25294000Y-13020000D02*
X25264000Y-13050000D01*
X25415000Y-12345000D02*
X25445000Y-12375000D01*
X25445000Y-12345000D02*
X25415000Y-12375000D01*
X25475000Y-10595000D02*
X25505000Y-10625000D01*
X25505000Y-10595000D02*
X25475000Y-10625000D01*
X25485000Y-8495000D02*
X25515000Y-8525000D01*
X25515000Y-8495000D02*
X25485000Y-8525000D01*
X25615000Y-3355000D02*
X25645000Y-3385000D01*
X25645000Y-3355000D02*
X25615000Y-3385000D01*
X25945000Y-4265000D02*
X25975000Y-4295000D01*
X25975000Y-4265000D02*
X25945000Y-4295000D01*
X26425000Y-6751250D02*
X26455000Y-6781250D01*
X26455000Y-6751250D02*
X26425000Y-6781250D01*
X26899000Y-4531000D02*
X26929000Y-4561000D01*
X26929000Y-4531000D02*
X26899000Y-4561000D01*
X26985000Y-3265000D02*
X27015000Y-3295000D01*
X27015000Y-3265000D02*
X26985000Y-3295000D01*
X27015000Y-12435000D02*
X27045000Y-12465000D01*
X27045000Y-12435000D02*
X27015000Y-12465000D01*
X27355000Y-10585000D02*
X27385000Y-10615000D01*
X27385000Y-10585000D02*
X27355000Y-10615000D01*
X27435000Y-8505000D02*
X27465000Y-8535000D01*
X27465000Y-8505000D02*
X27435000Y-8535000D01*
X27525000Y-3375000D02*
X27555000Y-3405000D01*
X27555000Y-3375000D02*
X27525000Y-3405000D01*
X27585000Y-13265000D02*
X27615000Y-13295000D01*
X27615000Y-13265000D02*
X27585000Y-13295000D01*
X27836000Y-13245000D02*
X27866000Y-13275000D01*
X27866000Y-13245000D02*
X27836000Y-13275000D01*
X27855000Y-4265000D02*
X27885000Y-4295000D01*
X27885000Y-4265000D02*
X27855000Y-4295000D01*
X28087000Y-13255000D02*
X28117000Y-13285000D01*
X28117000Y-13255000D02*
X28087000Y-13285000D01*
X28338000Y-13272000D02*
X28368000Y-13302000D01*
X28368000Y-13272000D02*
X28338000Y-13302000D01*
X28338750Y-6751250D02*
X28368750Y-6781250D01*
X28368750Y-6751250D02*
X28338750Y-6781250D01*
X28432000Y-4248000D02*
X28462000Y-4278000D01*
X28462000Y-4248000D02*
X28432000Y-4278000D01*
X28485000Y-3455000D02*
X28515000Y-3485000D01*
X28515000Y-3455000D02*
X28485000Y-3485000D01*
X28589000Y-13265000D02*
X28619000Y-13295000D01*
X28619000Y-13265000D02*
X28589000Y-13295000D01*
X28665000Y-3845000D02*
X28695000Y-3875000D01*
X28695000Y-3845000D02*
X28665000Y-3875000D01*
X28805000Y-4285000D02*
X28835000Y-4315000D01*
X28835000Y-4285000D02*
X28805000Y-4315000D01*
X28840000Y-13280000D02*
X28870000Y-13310000D01*
X28870000Y-13280000D02*
X28840000Y-13310000D01*
X28865000Y-12445000D02*
X28895000Y-12475000D01*
X28895000Y-12445000D02*
X28865000Y-12475000D01*
X28925000Y-3935000D02*
X28955000Y-3965000D01*
X28955000Y-3935000D02*
X28925000Y-3965000D01*
X29025000Y-4745000D02*
X29055000Y-4775000D01*
X29055000Y-4745000D02*
X29025000Y-4775000D01*
X29055000Y-4155000D02*
X29085000Y-4185000D01*
X29085000Y-4155000D02*
X29055000Y-4185000D01*
X29091000Y-13279000D02*
X29121000Y-13309000D01*
X29121000Y-13279000D02*
X29091000Y-13309000D01*
X29095000Y-3245000D02*
X29125000Y-3275000D01*
X29125000Y-3245000D02*
X29095000Y-3275000D01*
X29255000Y-10595000D02*
X29285000Y-10625000D01*
X29285000Y-10595000D02*
X29255000Y-10625000D01*
X29275000Y-4745000D02*
X29305000Y-4775000D01*
X29305000Y-4745000D02*
X29275000Y-4775000D01*
X29305000Y-8465000D02*
X29335000Y-8495000D01*
X29335000Y-8465000D02*
X29305000Y-8495000D01*
X29342000Y-13275000D02*
X29372000Y-13305000D01*
X29372000Y-13275000D02*
X29342000Y-13305000D01*
X29505000Y-3425000D02*
X29535000Y-3455000D01*
X29535000Y-3425000D02*
X29505000Y-3455000D01*
X29525000Y-4655000D02*
X29555000Y-4685000D01*
X29555000Y-4655000D02*
X29525000Y-4685000D01*
X29945000Y-4625000D02*
X29975000Y-4655000D01*
X29975000Y-4625000D02*
X29945000Y-4655000D01*
X30105000Y-4260000D02*
X30135000Y-4290000D01*
X30135000Y-4260000D02*
X30105000Y-4290000D01*
X30195000Y-6751250D02*
X30225000Y-6781250D01*
X30225000Y-6751250D02*
X30195000Y-6781250D01*
X30225000Y-4545000D02*
X30255000Y-4575000D01*
X30255000Y-4545000D02*
X30225000Y-4575000D01*
X30305000Y-8465000D02*
X30335000Y-8495000D01*
X30335000Y-8465000D02*
X30305000Y-8495000D01*
X30442500Y-5162500D02*
X30472500Y-5192500D01*
X30472500Y-5162500D02*
X30442500Y-5192500D01*
X30755000Y-12455000D02*
X30785000Y-12485000D01*
X30785000Y-12455000D02*
X30755000Y-12485000D01*
X30785000Y-3395000D02*
X30815000Y-3425000D01*
X30815000Y-3395000D02*
X30785000Y-3425000D01*
X30995000Y-6625000D02*
X31025000Y-6655000D01*
X31025000Y-6625000D02*
X30995000Y-6655000D01*
X31065000Y-5305000D02*
X31095000Y-5335000D01*
X31095000Y-5305000D02*
X31065000Y-5335000D01*
X31135000Y-6325000D02*
X31165000Y-6355000D01*
X31165000Y-6325000D02*
X31135000Y-6355000D01*
X31145000Y-4975000D02*
X31175000Y-5005000D01*
X31175000Y-4975000D02*
X31145000Y-5005000D01*
X31175000Y-8485000D02*
X31205000Y-8515000D01*
X31205000Y-8485000D02*
X31175000Y-8515000D01*
X31385000Y-10695000D02*
X31415000Y-10725000D01*
X31415000Y-10695000D02*
X31385000Y-10725000D01*
X31395000Y-7085000D02*
X31425000Y-7115000D01*
X31425000Y-7085000D02*
X31395000Y-7115000D01*
X31445000Y-3255000D02*
X31475000Y-3285000D01*
X31475000Y-3255000D02*
X31445000Y-3285000D01*
X31855000Y-8965000D02*
X31885000Y-8995000D01*
X31885000Y-8965000D02*
X31855000Y-8995000D01*
X31865000Y-3405000D02*
X31895000Y-3435000D01*
X31895000Y-3405000D02*
X31865000Y-3435000D01*
X32118750Y-6751250D02*
X32148750Y-6781250D01*
X32148750Y-6751250D02*
X32118750Y-6781250D01*
X32195000Y-4215000D02*
X32225000Y-4245000D01*
X32225000Y-4215000D02*
X32195000Y-4245000D01*
X32335000Y-14465000D02*
X32365000Y-14495000D01*
X32365000Y-14465000D02*
X32335000Y-14495000D01*
X32347500Y-10825000D02*
X32377500Y-10855000D01*
X32377500Y-10825000D02*
X32347500Y-10855000D01*
X32425000Y-9175000D02*
X32455000Y-9205000D01*
X32455000Y-9175000D02*
X32425000Y-9205000D01*
X32675000Y-12425000D02*
X32705000Y-12455000D01*
X32705000Y-12425000D02*
X32675000Y-12455000D01*
X32695000Y-7185000D02*
X32725000Y-7215000D01*
X32725000Y-7185000D02*
X32695000Y-7215000D01*
X32725000Y-6365000D02*
X32755000Y-6395000D01*
X32755000Y-6365000D02*
X32725000Y-6395000D01*
X32765000Y-9115000D02*
X32795000Y-9145000D01*
X32795000Y-9115000D02*
X32765000Y-9145000D01*
X32805000Y-8835000D02*
X32835000Y-8865000D01*
X32835000Y-8835000D02*
X32805000Y-8865000D01*
X32875000Y-6705000D02*
X32905000Y-6735000D01*
X32905000Y-6705000D02*
X32875000Y-6735000D01*
X33135000Y-8495000D02*
X33165000Y-8525000D01*
X33165000Y-8495000D02*
X33135000Y-8525000D01*
X33285000Y-10675000D02*
X33315000Y-10705000D01*
X33315000Y-10675000D02*
X33285000Y-10705000D01*
X33385000Y-12615000D02*
X33415000Y-12645000D01*
X33415000Y-12615000D02*
X33385000Y-12645000D01*
X33405000Y-3265000D02*
X33435000Y-3295000D01*
X33435000Y-3265000D02*
X33405000Y-3295000D01*
X33795000Y-3425000D02*
X33825000Y-3455000D01*
X33825000Y-3425000D02*
X33795000Y-3455000D01*
X34125000Y-4195000D02*
X34155000Y-4225000D01*
X34155000Y-4195000D02*
X34125000Y-4225000D01*
X34245000Y-6925000D02*
X34275000Y-6955000D01*
X34275000Y-6925000D02*
X34245000Y-6955000D01*
X34515000Y-10085000D02*
X34545000Y-10115000D01*
X34545000Y-10085000D02*
X34515000Y-10115000D01*
X34545000Y-12295000D02*
X34575000Y-12325000D01*
X34575000Y-12295000D02*
X34545000Y-12325000D01*
X34565000Y-10345000D02*
X34595000Y-10375000D01*
X34595000Y-10345000D02*
X34565000Y-10375000D01*
X34605000Y-14495000D02*
X34635000Y-14525000D01*
X34635000Y-14495000D02*
X34605000Y-14525000D01*
X34665000Y-4805000D02*
X34695000Y-4835000D01*
X34695000Y-4805000D02*
X34665000Y-4835000D01*
X34915000Y-4805000D02*
X34945000Y-4835000D01*
X34945000Y-4805000D02*
X34915000Y-4835000D01*
X34915000Y-7165000D02*
X34945000Y-7195000D01*
X34945000Y-7165000D02*
X34915000Y-7195000D01*
X34935000Y-10595000D02*
X34965000Y-10625000D01*
X34965000Y-10595000D02*
X34935000Y-10625000D01*
X35035000Y-8505000D02*
X35065000Y-8535000D01*
X35065000Y-8505000D02*
X35035000Y-8535000D01*
X35055000Y-6765000D02*
X35085000Y-6795000D01*
X35085000Y-6765000D02*
X35055000Y-6795000D01*
X35245000Y-3265000D02*
X35275000Y-3295000D01*
X35275000Y-3265000D02*
X35245000Y-3295000D01*
X35385000Y-4475000D02*
X35415000Y-4505000D01*
X35415000Y-4475000D02*
X35385000Y-4505000D01*
X35525000Y-10115000D02*
X35555000Y-10145000D01*
X35555000Y-10115000D02*
X35525000Y-10145000D01*
X35525000Y-10405000D02*
X35555000Y-10435000D01*
X35555000Y-10405000D02*
X35525000Y-10435000D01*
X35655000Y-3425000D02*
X35685000Y-3455000D01*
X35685000Y-3425000D02*
X35655000Y-3455000D01*
X36025000Y-4205000D02*
X36055000Y-4235000D01*
X36055000Y-4205000D02*
X36025000Y-4235000D01*
X36155000Y-6925000D02*
X36185000Y-6955000D01*
X36185000Y-6925000D02*
X36155000Y-6955000D01*
X36725000Y-12875000D02*
X36755000Y-12905000D01*
X36755000Y-12875000D02*
X36725000Y-12905000D01*
X36745000Y-4275000D02*
X36775000Y-4305000D01*
X36775000Y-4275000D02*
X36745000Y-4305000D01*
X36775000Y-3835000D02*
X36805000Y-3865000D01*
X36805000Y-3835000D02*
X36775000Y-3865000D01*
X36785000Y-6665000D02*
X36815000Y-6695000D01*
X36815000Y-6665000D02*
X36785000Y-6695000D01*
X36875000Y-6265000D02*
X36905000Y-6295000D01*
X36905000Y-6265000D02*
X36875000Y-6295000D01*
X36905000Y-10548750D02*
X36935000Y-10578750D01*
X36935000Y-10548750D02*
X36905000Y-10578750D01*
X36925000Y-8485000D02*
X36955000Y-8515000D01*
X36955000Y-8485000D02*
X36925000Y-8515000D01*
X36995000Y-14445000D02*
X37025000Y-14475000D01*
X37025000Y-14445000D02*
X36995000Y-14475000D01*
X37015000Y-3935000D02*
X37045000Y-3965000D01*
X37045000Y-3935000D02*
X37015000Y-3965000D01*
X37015000Y-4175000D02*
X37045000Y-4205000D01*
X37045000Y-4175000D02*
X37015000Y-4205000D01*
X37195000Y-3265000D02*
X37225000Y-3295000D01*
X37225000Y-3265000D02*
X37195000Y-3295000D01*
X37235000Y-5175000D02*
X37265000Y-5205000D01*
X37265000Y-5175000D02*
X37235000Y-5205000D01*
X37595000Y-3415000D02*
X37625000Y-3445000D01*
X37625000Y-3415000D02*
X37595000Y-3445000D01*
X37745000Y-5045000D02*
X37775000Y-5075000D01*
X37775000Y-5045000D02*
X37745000Y-5075000D01*
X37835000Y-4260000D02*
X37865000Y-4290000D01*
X37865000Y-4260000D02*
X37835000Y-4290000D01*
X37985000Y-12245000D02*
X38015000Y-12275000D01*
X38015000Y-12245000D02*
X37985000Y-12275000D01*
X38065000Y-5005000D02*
X38095000Y-5035000D01*
X38095000Y-5005000D02*
X38065000Y-5035000D01*
X38185000Y-4685000D02*
X38215000Y-4715000D01*
X38215000Y-4685000D02*
X38185000Y-4715000D01*
X38345000Y-12365000D02*
X38375000Y-12395000D01*
X38375000Y-12365000D02*
X38345000Y-12395000D01*
X38535000Y-4625000D02*
X38565000Y-4655000D01*
X38565000Y-4625000D02*
X38535000Y-4655000D01*
X38535000Y-6875000D02*
X38565000Y-6905000D01*
X38565000Y-6875000D02*
X38535000Y-6905000D01*
X38685000Y-12365000D02*
X38715000Y-12395000D01*
X38715000Y-12365000D02*
X38685000Y-12395000D01*
X38795000Y-5135000D02*
X38825000Y-5165000D01*
X38825000Y-5135000D02*
X38795000Y-5165000D01*
X38945000Y-3255000D02*
X38975000Y-3285000D01*
X38975000Y-3255000D02*
X38945000Y-3285000D01*
X39045000Y-14415000D02*
X39075000Y-14445000D01*
X39075000Y-14415000D02*
X39045000Y-14445000D01*
X39445000Y-9355000D02*
X39475000Y-9385000D01*
X39475000Y-9355000D02*
X39445000Y-9385000D01*
X39465000Y-3405000D02*
X39495000Y-3435000D01*
X39495000Y-3405000D02*
X39465000Y-3435000D01*
X39605000Y-10825000D02*
X39635000Y-10855000D01*
X39635000Y-10825000D02*
X39605000Y-10855000D01*
X39728000Y-7550000D02*
X39758000Y-7580000D01*
X39758000Y-7550000D02*
X39728000Y-7580000D01*
X39825000Y-4205000D02*
X39855000Y-4235000D01*
X39855000Y-4205000D02*
X39825000Y-4235000D01*
X39995000Y-5165000D02*
X40025000Y-5195000D01*
X40025000Y-5165000D02*
X39995000Y-5195000D01*
X40205000Y-9815000D02*
X40235000Y-9845000D01*
X40235000Y-9815000D02*
X40205000Y-9845000D01*
X40443750Y-4843750D02*
X40473750Y-4873750D01*
X40473750Y-4843750D02*
X40443750Y-4873750D01*
X40535000Y-5165000D02*
X40565000Y-5195000D01*
X40565000Y-5165000D02*
X40535000Y-5195000D01*
X40565000Y-7135000D02*
X40595000Y-7165000D01*
X40595000Y-7135000D02*
X40565000Y-7165000D01*
X40745000Y-13275000D02*
X40775000Y-13305000D01*
X40775000Y-13275000D02*
X40745000Y-13305000D01*
X41005000Y-12715000D02*
X41035000Y-12745000D01*
X41035000Y-12715000D02*
X41005000Y-12745000D01*
X41025000Y-5055000D02*
X41055000Y-5085000D01*
X41055000Y-5055000D02*
X41025000Y-5085000D01*
X41245000Y-3355000D02*
X41275000Y-3385000D01*
X41275000Y-3355000D02*
X41245000Y-3385000D01*
X41305000Y-8005000D02*
X41335000Y-8035000D01*
X41335000Y-8005000D02*
X41305000Y-8035000D01*
X41305000Y-8515000D02*
X41335000Y-8545000D01*
X41335000Y-8515000D02*
X41305000Y-8545000D01*
X41305000Y-9015000D02*
X41335000Y-9045000D01*
X41335000Y-9015000D02*
X41305000Y-9045000D01*
X41305000Y-9365000D02*
X41335000Y-9395000D01*
X41335000Y-9365000D02*
X41305000Y-9395000D01*
X41305000Y-9935000D02*
X41335000Y-9965000D01*
X41335000Y-9935000D02*
X41305000Y-9965000D01*
X41305000Y-10445000D02*
X41335000Y-10475000D01*
X41335000Y-10445000D02*
X41305000Y-10475000D01*
X41305000Y-10945000D02*
X41335000Y-10975000D01*
X41335000Y-10945000D02*
X41305000Y-10975000D01*
X41305000Y-11275000D02*
X41335000Y-11305000D01*
X41335000Y-11275000D02*
X41305000Y-11305000D01*
X41445000Y-11955000D02*
X41475000Y-11985000D01*
X41475000Y-11955000D02*
X41445000Y-11985000D01*
X41505000Y-7805000D02*
X41535000Y-7835000D01*
X41535000Y-7805000D02*
X41505000Y-7835000D01*
X41765000Y-10235000D02*
X41795000Y-10265000D01*
X41795000Y-10235000D02*
X41765000Y-10265000D01*
X41965000Y-11955000D02*
X41995000Y-11985000D01*
X41995000Y-11955000D02*
X41965000Y-11985000D01*
X42045000Y-14435000D02*
X42075000Y-14465000D01*
X42075000Y-14435000D02*
X42045000Y-14465000D01*
X42115000Y-7805000D02*
X42145000Y-7835000D01*
X42145000Y-7805000D02*
X42115000Y-7835000D01*
X42635000Y-9425000D02*
X42665000Y-9455000D01*
X42665000Y-9425000D02*
X42635000Y-9455000D01*
X43110000Y-5670000D02*
X43140000Y-5700000D01*
X43140000Y-5670000D02*
X43110000Y-5700000D01*
X43365000Y-10805000D02*
X43395000Y-10835000D01*
X43395000Y-10805000D02*
X43365000Y-10835000D01*
X43425000Y-12265000D02*
X43455000Y-12295000D01*
X43455000Y-12265000D02*
X43425000Y-12295000D01*
X43435000Y-12905000D02*
X43465000Y-12935000D01*
X43465000Y-12905000D02*
X43435000Y-12935000D01*
X43475000Y-5405000D02*
X43505000Y-5435000D01*
X43505000Y-5405000D02*
X43475000Y-5435000D01*
X43565000Y-6645000D02*
X43595000Y-6675000D01*
X43595000Y-6645000D02*
X43565000Y-6675000D01*
X43685000Y-5195000D02*
X43715000Y-5225000D01*
X43715000Y-5195000D02*
X43685000Y-5225000D01*
X43715000Y-12265000D02*
X43745000Y-12295000D01*
X43745000Y-12265000D02*
X43715000Y-12295000D01*
X43755000Y-12905000D02*
X43785000Y-12935000D01*
X43785000Y-12905000D02*
X43755000Y-12935000D01*
X43785000Y-12165000D02*
X43815000Y-12195000D01*
X43815000Y-12165000D02*
X43785000Y-12195000D01*
X43805000Y-10805000D02*
X43835000Y-10835000D01*
X43835000Y-10805000D02*
X43805000Y-10835000D01*
X43935000Y-12475000D02*
X43965000Y-12505000D01*
X43965000Y-12475000D02*
X43935000Y-12505000D01*
X43955000Y-14445000D02*
X43985000Y-14475000D01*
X43985000Y-14445000D02*
X43955000Y-14475000D01*
X44055000Y-7805000D02*
X44085000Y-7835000D01*
X44085000Y-7805000D02*
X44055000Y-7835000D01*
X44075000Y-8495000D02*
X44105000Y-8525000D01*
X44105000Y-8495000D02*
X44075000Y-8525000D01*
X44275000Y-8295000D02*
X44305000Y-8325000D01*
X44305000Y-8295000D02*
X44275000Y-8325000D01*
X44595000Y-9365000D02*
X44625000Y-9395000D01*
X44625000Y-9365000D02*
X44595000Y-9395000D01*
X44615000Y-12295000D02*
X44645000Y-12325000D01*
X44645000Y-12295000D02*
X44615000Y-12325000D01*
X44775000Y-5105000D02*
X44805000Y-5135000D01*
X44805000Y-5105000D02*
X44775000Y-5135000D01*
X44915000Y-10035000D02*
X44945000Y-10065000D01*
X44945000Y-10035000D02*
X44915000Y-10065000D01*
X45035000Y-8245000D02*
X45065000Y-8275000D01*
X45065000Y-8245000D02*
X45035000Y-8275000D01*
X45155000Y-8845000D02*
X45185000Y-8875000D01*
X45185000Y-8845000D02*
X45155000Y-8875000D01*
X45265000Y-10275000D02*
X45295000Y-10305000D01*
X45295000Y-10275000D02*
X45265000Y-10305000D01*
X45345000Y-7805000D02*
X45375000Y-7835000D01*
X45375000Y-7805000D02*
X45345000Y-7835000D01*
X45365000Y-8265000D02*
X45395000Y-8295000D01*
X45395000Y-8265000D02*
X45365000Y-8295000D01*
X45365000Y-8385000D02*
X45395000Y-8415000D01*
X45395000Y-8385000D02*
X45365000Y-8415000D01*
X45635000Y-8385000D02*
X45665000Y-8415000D01*
X45665000Y-8385000D02*
X45635000Y-8415000D01*
X45665000Y-8265000D02*
X45695000Y-8295000D01*
X45695000Y-8265000D02*
X45665000Y-8295000D01*
X45915000Y-7805000D02*
X45945000Y-7835000D01*
X45945000Y-7805000D02*
X45915000Y-7835000D01*
X45935000Y-14455000D02*
X45965000Y-14485000D01*
X45965000Y-14455000D02*
X45935000Y-14485000D01*
X46255000Y-5635000D02*
X46285000Y-5665000D01*
X46285000Y-5635000D02*
X46255000Y-5665000D01*
X46275000Y-5905000D02*
X46305000Y-5935000D01*
X46305000Y-5905000D02*
X46275000Y-5935000D01*
X46435000Y-9435000D02*
X46465000Y-9465000D01*
X46465000Y-9435000D02*
X46435000Y-9465000D01*
X46845000Y-11655000D02*
X46875000Y-11685000D01*
X46875000Y-11655000D02*
X46845000Y-11685000D01*
X46865000Y-10935000D02*
X46895000Y-10965000D01*
X46895000Y-10935000D02*
X46865000Y-10965000D01*
X5550631Y-3940000D02*
G75*
G02*
X5475631Y-3940000I-37500J0D01*
G01*
X5475631Y-3940000D02*
G75*
G02*
X5550631Y-3940000I37500J0D01*
G01*
X5550631Y-4140000D02*
G75*
G02*
X5475631Y-4140000I-37500J0D01*
G01*
X5475631Y-4140000D02*
G75*
G02*
X5550631Y-4140000I37500J0D01*
G01*
X5692500Y-5639250D02*
X5692500Y-5719250D01*
X5652500Y-5679250D02*
X5732500Y-5679250D01*
X5692500Y-6401250D02*
X5692500Y-6481250D01*
X5652500Y-6441250D02*
X5732500Y-6441250D01*
X5692500Y-7544250D02*
X5692500Y-7624250D01*
X5652500Y-7584250D02*
X5732500Y-7584250D01*
X5692500Y-8306250D02*
X5692500Y-8386250D01*
X5652500Y-8346250D02*
X5732500Y-8346250D01*
X5692500Y-9449250D02*
X5692500Y-9529250D01*
X5652500Y-9489250D02*
X5732500Y-9489250D01*
X5692500Y-10211250D02*
X5692500Y-10291250D01*
X5652500Y-10251250D02*
X5732500Y-10251250D01*
X5692500Y-11354250D02*
X5692500Y-11434250D01*
X5652500Y-11394250D02*
X5732500Y-11394250D01*
X5692500Y-12116250D02*
X5692500Y-12196250D01*
X5652500Y-12156250D02*
X5732500Y-12156250D01*
X6645000Y-13259250D02*
X6645000Y-13339250D01*
X6605000Y-13299250D02*
X6685000Y-13299250D01*
X6645000Y-14021250D02*
X6645000Y-14101250D01*
X6605000Y-14061250D02*
X6685000Y-14061250D01*
X7597500Y-5639250D02*
X7597500Y-5719250D01*
X7557500Y-5679250D02*
X7637500Y-5679250D01*
X7597500Y-6401250D02*
X7597500Y-6481250D01*
X7557500Y-6441250D02*
X7637500Y-6441250D01*
X7597500Y-7544250D02*
X7597500Y-7624250D01*
X7557500Y-7584250D02*
X7637500Y-7584250D01*
X7597500Y-8306250D02*
X7597500Y-8386250D01*
X7557500Y-8346250D02*
X7637500Y-8346250D01*
X7597500Y-9449250D02*
X7597500Y-9529250D01*
X7557500Y-9489250D02*
X7637500Y-9489250D01*
X7597500Y-10211250D02*
X7597500Y-10291250D01*
X7557500Y-10251250D02*
X7637500Y-10251250D01*
X7597500Y-11354250D02*
X7597500Y-11434250D01*
X7557500Y-11394250D02*
X7637500Y-11394250D01*
X7597500Y-12116250D02*
X7597500Y-12196250D01*
X7557500Y-12156250D02*
X7637500Y-12156250D01*
X9472500Y-7544250D02*
X9472500Y-7624250D01*
X9432500Y-7584250D02*
X9512500Y-7584250D01*
X9472500Y-8306250D02*
X9472500Y-8386250D01*
X9432500Y-8346250D02*
X9512500Y-8346250D01*
X9472500Y-9449250D02*
X9472500Y-9529250D01*
X9432500Y-9489250D02*
X9512500Y-9489250D01*
X9472500Y-10211250D02*
X9472500Y-10291250D01*
X9432500Y-10251250D02*
X9512500Y-10251250D01*
X9472500Y-11354250D02*
X9472500Y-11434250D01*
X9432500Y-11394250D02*
X9512500Y-11394250D01*
X9472500Y-12116250D02*
X9472500Y-12196250D01*
X9432500Y-12156250D02*
X9512500Y-12156250D01*
X9472500Y-13559250D02*
X9472500Y-13639250D01*
X9432500Y-13599250D02*
X9512500Y-13599250D01*
X9472500Y-14321250D02*
X9472500Y-14401250D01*
X9432500Y-14361250D02*
X9512500Y-14361250D01*
X9502500Y-5639250D02*
X9502500Y-5719250D01*
X9462500Y-5679250D02*
X9542500Y-5679250D01*
X9502500Y-6401250D02*
X9502500Y-6481250D01*
X9462500Y-6441250D02*
X9542500Y-6441250D01*
X11407500Y-5639250D02*
X11407500Y-5719250D01*
X11367500Y-5679250D02*
X11447500Y-5679250D01*
X11407500Y-6401250D02*
X11407500Y-6481250D01*
X11367500Y-6441250D02*
X11447500Y-6441250D01*
X11407500Y-8496750D02*
X11407500Y-8576750D01*
X11367500Y-8536750D02*
X11447500Y-8536750D01*
X11407500Y-9258750D02*
X11407500Y-9338750D01*
X11367500Y-9298750D02*
X11447500Y-9298750D01*
X11407500Y-12306750D02*
X11407500Y-12386750D01*
X11367500Y-12346750D02*
X11447500Y-12346750D01*
X11407500Y-13068750D02*
X11407500Y-13148750D01*
X11367500Y-13108750D02*
X11447500Y-13108750D01*
X14265000Y-3258000D02*
X14265000Y-3338000D01*
X14225000Y-3298000D02*
X14305000Y-3298000D01*
X14265000Y-4020000D02*
X14265000Y-4100000D01*
X14225000Y-4060000D02*
X14305000Y-4060000D01*
X14265000Y-5639250D02*
X14265000Y-5719250D01*
X14225000Y-5679250D02*
X14305000Y-5679250D01*
X14265000Y-6401250D02*
X14265000Y-6481250D01*
X14225000Y-6441250D02*
X14305000Y-6441250D01*
X14503125Y-7544250D02*
X14503125Y-7624250D01*
X14463125Y-7584250D02*
X14543125Y-7584250D01*
X14503125Y-8306250D02*
X14503125Y-8386250D01*
X14463125Y-8346250D02*
X14543125Y-8346250D01*
X14503125Y-13259250D02*
X14503125Y-13339250D01*
X14463125Y-13299250D02*
X14543125Y-13299250D01*
X14503125Y-14021250D02*
X14503125Y-14101250D01*
X14463125Y-14061250D02*
X14543125Y-14061250D01*
X14741250Y-9449250D02*
X14741250Y-9529250D01*
X14701250Y-9489250D02*
X14781250Y-9489250D01*
X14741250Y-10211250D02*
X14741250Y-10291250D01*
X14701250Y-10251250D02*
X14781250Y-10251250D01*
X15217500Y-11354250D02*
X15217500Y-11434250D01*
X15177500Y-11394250D02*
X15257500Y-11394250D01*
X15217500Y-12116250D02*
X15217500Y-12196250D01*
X15177500Y-12156250D02*
X15257500Y-12156250D01*
X16170000Y-5639250D02*
X16170000Y-5719250D01*
X16130000Y-5679250D02*
X16210000Y-5679250D01*
X16170000Y-6401250D02*
X16170000Y-6481250D01*
X16130000Y-6441250D02*
X16210000Y-6441250D01*
X16646250Y-3258000D02*
X16646250Y-3338000D01*
X16606250Y-3298000D02*
X16686250Y-3298000D01*
X16646250Y-4020000D02*
X16646250Y-4100000D01*
X16606250Y-4060000D02*
X16686250Y-4060000D01*
X16646250Y-7544250D02*
X16646250Y-7624250D01*
X16606250Y-7584250D02*
X16686250Y-7584250D01*
X16646250Y-8306250D02*
X16646250Y-8386250D01*
X16606250Y-8346250D02*
X16686250Y-8346250D01*
X16884375Y-13259250D02*
X16884375Y-13339250D01*
X16844375Y-13299250D02*
X16924375Y-13299250D01*
X16884375Y-14021250D02*
X16884375Y-14101250D01*
X16844375Y-14061250D02*
X16924375Y-14061250D01*
X17122500Y-9449250D02*
X17122500Y-9529250D01*
X17082500Y-9489250D02*
X17162500Y-9489250D01*
X17122500Y-10211250D02*
X17122500Y-10291250D01*
X17082500Y-10251250D02*
X17162500Y-10251250D01*
X18075000Y-5639250D02*
X18075000Y-5719250D01*
X18035000Y-5679250D02*
X18115000Y-5679250D01*
X18075000Y-6401250D02*
X18075000Y-6481250D01*
X18035000Y-6441250D02*
X18115000Y-6441250D01*
X18075000Y-11354250D02*
X18075000Y-11434250D01*
X18035000Y-11394250D02*
X18115000Y-11394250D01*
X18075000Y-12116250D02*
X18075000Y-12196250D01*
X18035000Y-12156250D02*
X18115000Y-12156250D01*
X18551250Y-3258000D02*
X18551250Y-3338000D01*
X18511250Y-3298000D02*
X18591250Y-3298000D01*
X18551250Y-4020000D02*
X18551250Y-4100000D01*
X18511250Y-4060000D02*
X18591250Y-4060000D01*
X18551250Y-7544250D02*
X18551250Y-7624250D01*
X18511250Y-7584250D02*
X18591250Y-7584250D01*
X18551250Y-8306250D02*
X18551250Y-8386250D01*
X18511250Y-8346250D02*
X18591250Y-8346250D01*
X19027500Y-9449250D02*
X19027500Y-9529250D01*
X18987500Y-9489250D02*
X19067500Y-9489250D01*
X19027500Y-10211250D02*
X19027500Y-10291250D01*
X18987500Y-10251250D02*
X19067500Y-10251250D01*
X19265625Y-13259250D02*
X19265625Y-13339250D01*
X19225625Y-13299250D02*
X19305625Y-13299250D01*
X19265625Y-14021250D02*
X19265625Y-14101250D01*
X19225625Y-14061250D02*
X19305625Y-14061250D01*
X19980000Y-5639250D02*
X19980000Y-5719250D01*
X19940000Y-5679250D02*
X20020000Y-5679250D01*
X19980000Y-6401250D02*
X19980000Y-6481250D01*
X19940000Y-6441250D02*
X20020000Y-6441250D01*
X19980000Y-11354250D02*
X19980000Y-11434250D01*
X19940000Y-11394250D02*
X20020000Y-11394250D01*
X19980000Y-12116250D02*
X19980000Y-12196250D01*
X19940000Y-12156250D02*
X20020000Y-12156250D01*
X20456250Y-3258000D02*
X20456250Y-3338000D01*
X20416250Y-3298000D02*
X20496250Y-3298000D01*
X20456250Y-4020000D02*
X20456250Y-4100000D01*
X20416250Y-4060000D02*
X20496250Y-4060000D01*
X20456250Y-7544250D02*
X20456250Y-7624250D01*
X20416250Y-7584250D02*
X20496250Y-7584250D01*
X20456250Y-8306250D02*
X20456250Y-8386250D01*
X20416250Y-8346250D02*
X20496250Y-8346250D01*
X20932500Y-9449250D02*
X20932500Y-9529250D01*
X20892500Y-9489250D02*
X20972500Y-9489250D01*
X20932500Y-10211250D02*
X20932500Y-10291250D01*
X20892500Y-10251250D02*
X20972500Y-10251250D01*
X21885000Y-5639250D02*
X21885000Y-5719250D01*
X21845000Y-5679250D02*
X21925000Y-5679250D01*
X21885000Y-6401250D02*
X21885000Y-6481250D01*
X21845000Y-6441250D02*
X21925000Y-6441250D01*
X21885000Y-11354250D02*
X21885000Y-11434250D01*
X21845000Y-11394250D02*
X21925000Y-11394250D01*
X21885000Y-12116250D02*
X21885000Y-12196250D01*
X21845000Y-12156250D02*
X21925000Y-12156250D01*
X22361250Y-3258000D02*
X22361250Y-3338000D01*
X22321250Y-3298000D02*
X22401250Y-3298000D01*
X22361250Y-4020000D02*
X22361250Y-4100000D01*
X22321250Y-4060000D02*
X22401250Y-4060000D01*
X22361250Y-7544250D02*
X22361250Y-7624250D01*
X22321250Y-7584250D02*
X22401250Y-7584250D01*
X22361250Y-8306250D02*
X22361250Y-8386250D01*
X22321250Y-8346250D02*
X22401250Y-8346250D01*
X22837500Y-9449250D02*
X22837500Y-9529250D01*
X22797500Y-9489250D02*
X22877500Y-9489250D01*
X22837500Y-10211250D02*
X22837500Y-10291250D01*
X22797500Y-10251250D02*
X22877500Y-10251250D01*
X23790000Y-5639250D02*
X23790000Y-5719250D01*
X23750000Y-5679250D02*
X23830000Y-5679250D01*
X23790000Y-6401250D02*
X23790000Y-6481250D01*
X23750000Y-6441250D02*
X23830000Y-6441250D01*
X23790000Y-11354250D02*
X23790000Y-11434250D01*
X23750000Y-11394250D02*
X23830000Y-11394250D01*
X23790000Y-12116250D02*
X23790000Y-12196250D01*
X23750000Y-12156250D02*
X23830000Y-12156250D01*
X24266250Y-7544250D02*
X24266250Y-7624250D01*
X24226250Y-7584250D02*
X24306250Y-7584250D01*
X24266250Y-8306250D02*
X24266250Y-8386250D01*
X24226250Y-8346250D02*
X24306250Y-8346250D01*
X24742500Y-3258000D02*
X24742500Y-3338000D01*
X24702500Y-3298000D02*
X24782500Y-3298000D01*
X24742500Y-4020000D02*
X24742500Y-4100000D01*
X24702500Y-4060000D02*
X24782500Y-4060000D01*
X24742500Y-9449250D02*
X24742500Y-9529250D01*
X24702500Y-9489250D02*
X24782500Y-9489250D01*
X24742500Y-10211250D02*
X24742500Y-10291250D01*
X24702500Y-10251250D02*
X24782500Y-10251250D01*
X25695000Y-5639250D02*
X25695000Y-5719250D01*
X25655000Y-5679250D02*
X25735000Y-5679250D01*
X25695000Y-6401250D02*
X25695000Y-6481250D01*
X25655000Y-6441250D02*
X25735000Y-6441250D01*
X25695000Y-11354250D02*
X25695000Y-11434250D01*
X25655000Y-11394250D02*
X25735000Y-11394250D01*
X25695000Y-12116250D02*
X25695000Y-12196250D01*
X25655000Y-12156250D02*
X25735000Y-12156250D01*
X26171250Y-7544250D02*
X26171250Y-7624250D01*
X26131250Y-7584250D02*
X26211250Y-7584250D01*
X26171250Y-8306250D02*
X26171250Y-8386250D01*
X26131250Y-8346250D02*
X26211250Y-8346250D01*
X26409375Y-13259250D02*
X26409375Y-13339250D01*
X26369375Y-13299250D02*
X26449375Y-13299250D01*
X26409375Y-14021250D02*
X26409375Y-14101250D01*
X26369375Y-14061250D02*
X26449375Y-14061250D01*
X26647500Y-3258000D02*
X26647500Y-3338000D01*
X26607500Y-3298000D02*
X26687500Y-3298000D01*
X26647500Y-4020000D02*
X26647500Y-4100000D01*
X26607500Y-4060000D02*
X26687500Y-4060000D01*
X26647500Y-9449250D02*
X26647500Y-9529250D01*
X26607500Y-9489250D02*
X26687500Y-9489250D01*
X26647500Y-10211250D02*
X26647500Y-10291250D01*
X26607500Y-10251250D02*
X26687500Y-10251250D01*
X27600000Y-5639250D02*
X27600000Y-5719250D01*
X27560000Y-5679250D02*
X27640000Y-5679250D01*
X27600000Y-6401250D02*
X27600000Y-6481250D01*
X27560000Y-6441250D02*
X27640000Y-6441250D01*
X27600000Y-11354250D02*
X27600000Y-11434250D01*
X27560000Y-11394250D02*
X27640000Y-11394250D01*
X27600000Y-12116250D02*
X27600000Y-12196250D01*
X27560000Y-12156250D02*
X27640000Y-12156250D01*
X28076250Y-7544250D02*
X28076250Y-7624250D01*
X28036250Y-7584250D02*
X28116250Y-7584250D01*
X28076250Y-8306250D02*
X28076250Y-8386250D01*
X28036250Y-8346250D02*
X28116250Y-8346250D01*
X28552500Y-3258000D02*
X28552500Y-3338000D01*
X28512500Y-3298000D02*
X28592500Y-3298000D01*
X28552500Y-4020000D02*
X28552500Y-4100000D01*
X28512500Y-4060000D02*
X28592500Y-4060000D01*
X28552500Y-9449250D02*
X28552500Y-9529250D01*
X28512500Y-9489250D02*
X28592500Y-9489250D01*
X28552500Y-10211250D02*
X28552500Y-10291250D01*
X28512500Y-10251250D02*
X28592500Y-10251250D01*
X29505000Y-5639250D02*
X29505000Y-5719250D01*
X29465000Y-5679250D02*
X29545000Y-5679250D01*
X29505000Y-6401250D02*
X29505000Y-6481250D01*
X29465000Y-6441250D02*
X29545000Y-6441250D01*
X29505000Y-11354250D02*
X29505000Y-11434250D01*
X29465000Y-11394250D02*
X29545000Y-11394250D01*
X29505000Y-12116250D02*
X29505000Y-12196250D01*
X29465000Y-12156250D02*
X29545000Y-12156250D01*
X29981250Y-7544250D02*
X29981250Y-7624250D01*
X29941250Y-7584250D02*
X30021250Y-7584250D01*
X29981250Y-8306250D02*
X29981250Y-8386250D01*
X29941250Y-8346250D02*
X30021250Y-8346250D01*
X30457500Y-3258000D02*
X30457500Y-3338000D01*
X30417500Y-3298000D02*
X30497500Y-3298000D01*
X30457500Y-4020000D02*
X30457500Y-4100000D01*
X30417500Y-4060000D02*
X30497500Y-4060000D01*
X30457500Y-9449250D02*
X30457500Y-9529250D01*
X30417500Y-9489250D02*
X30497500Y-9489250D01*
X30457500Y-10211250D02*
X30457500Y-10291250D01*
X30417500Y-10251250D02*
X30497500Y-10251250D01*
X31410000Y-5639250D02*
X31410000Y-5719250D01*
X31370000Y-5679250D02*
X31450000Y-5679250D01*
X31410000Y-6401250D02*
X31410000Y-6481250D01*
X31370000Y-6441250D02*
X31450000Y-6441250D01*
X31410000Y-11354250D02*
X31410000Y-11434250D01*
X31370000Y-11394250D02*
X31450000Y-11394250D01*
X31410000Y-12116250D02*
X31410000Y-12196250D01*
X31370000Y-12156250D02*
X31450000Y-12156250D01*
X31886250Y-7544250D02*
X31886250Y-7624250D01*
X31846250Y-7584250D02*
X31926250Y-7584250D01*
X31886250Y-8306250D02*
X31886250Y-8386250D01*
X31846250Y-8346250D02*
X31926250Y-8346250D01*
X32362500Y-9449250D02*
X32362500Y-9529250D01*
X32322500Y-9489250D02*
X32402500Y-9489250D01*
X32362500Y-10211250D02*
X32362500Y-10291250D01*
X32322500Y-10251250D02*
X32402500Y-10251250D01*
X32838750Y-3258000D02*
X32838750Y-3338000D01*
X32798750Y-3298000D02*
X32878750Y-3298000D01*
X32838750Y-4020000D02*
X32838750Y-4100000D01*
X32798750Y-4060000D02*
X32878750Y-4060000D01*
X33315000Y-5639250D02*
X33315000Y-5719250D01*
X33275000Y-5679250D02*
X33355000Y-5679250D01*
X33315000Y-6401250D02*
X33315000Y-6481250D01*
X33275000Y-6441250D02*
X33355000Y-6441250D01*
X33315000Y-11354250D02*
X33315000Y-11434250D01*
X33275000Y-11394250D02*
X33355000Y-11394250D01*
X33315000Y-12116250D02*
X33315000Y-12196250D01*
X33275000Y-12156250D02*
X33355000Y-12156250D01*
X33553125Y-13259250D02*
X33553125Y-13339250D01*
X33513125Y-13299250D02*
X33593125Y-13299250D01*
X33553125Y-14021250D02*
X33553125Y-14101250D01*
X33513125Y-14061250D02*
X33593125Y-14061250D01*
X33791250Y-7544250D02*
X33791250Y-7624250D01*
X33751250Y-7584250D02*
X33831250Y-7584250D01*
X33791250Y-8306250D02*
X33791250Y-8386250D01*
X33751250Y-8346250D02*
X33831250Y-8346250D01*
X34267500Y-9449250D02*
X34267500Y-9529250D01*
X34227500Y-9489250D02*
X34307500Y-9489250D01*
X34267500Y-10211250D02*
X34267500Y-10291250D01*
X34227500Y-10251250D02*
X34307500Y-10251250D01*
X34743750Y-3258000D02*
X34743750Y-3338000D01*
X34703750Y-3298000D02*
X34783750Y-3298000D01*
X34743750Y-4020000D02*
X34743750Y-4100000D01*
X34703750Y-4060000D02*
X34783750Y-4060000D01*
X35220000Y-5639250D02*
X35220000Y-5719250D01*
X35180000Y-5679250D02*
X35260000Y-5679250D01*
X35220000Y-6401250D02*
X35220000Y-6481250D01*
X35180000Y-6441250D02*
X35260000Y-6441250D01*
X35220000Y-11354250D02*
X35220000Y-11434250D01*
X35180000Y-11394250D02*
X35260000Y-11394250D01*
X35220000Y-12116250D02*
X35220000Y-12196250D01*
X35180000Y-12156250D02*
X35260000Y-12156250D01*
X35696250Y-7544250D02*
X35696250Y-7624250D01*
X35656250Y-7584250D02*
X35736250Y-7584250D01*
X35696250Y-8306250D02*
X35696250Y-8386250D01*
X35656250Y-8346250D02*
X35736250Y-8346250D01*
X35934375Y-13259250D02*
X35934375Y-13339250D01*
X35894375Y-13299250D02*
X35974375Y-13299250D01*
X35934375Y-14021250D02*
X35934375Y-14101250D01*
X35894375Y-14061250D02*
X35974375Y-14061250D01*
X36172500Y-9449250D02*
X36172500Y-9529250D01*
X36132500Y-9489250D02*
X36212500Y-9489250D01*
X36172500Y-10211250D02*
X36172500Y-10291250D01*
X36132500Y-10251250D02*
X36212500Y-10251250D01*
X36648750Y-3258000D02*
X36648750Y-3338000D01*
X36608750Y-3298000D02*
X36688750Y-3298000D01*
X36648750Y-4020000D02*
X36648750Y-4100000D01*
X36608750Y-4060000D02*
X36688750Y-4060000D01*
X37125000Y-5639250D02*
X37125000Y-5719250D01*
X37085000Y-5679250D02*
X37165000Y-5679250D01*
X37125000Y-6401250D02*
X37125000Y-6481250D01*
X37085000Y-6441250D02*
X37165000Y-6441250D01*
X37601250Y-7544250D02*
X37601250Y-7624250D01*
X37561250Y-7584250D02*
X37641250Y-7584250D01*
X37601250Y-8306250D02*
X37601250Y-8386250D01*
X37561250Y-8346250D02*
X37641250Y-8346250D01*
X38077500Y-9449250D02*
X38077500Y-9529250D01*
X38037500Y-9489250D02*
X38117500Y-9489250D01*
X38077500Y-10211250D02*
X38077500Y-10291250D01*
X38037500Y-10251250D02*
X38117500Y-10251250D01*
X38315625Y-13259250D02*
X38315625Y-13339250D01*
X38275625Y-13299250D02*
X38355625Y-13299250D01*
X38315625Y-14021250D02*
X38315625Y-14101250D01*
X38275625Y-14061250D02*
X38355625Y-14061250D01*
X38553750Y-3258000D02*
X38553750Y-3338000D01*
X38513750Y-3298000D02*
X38593750Y-3298000D01*
X38553750Y-4020000D02*
X38553750Y-4100000D01*
X38513750Y-4060000D02*
X38593750Y-4060000D01*
X38791875Y-11354250D02*
X38791875Y-11434250D01*
X38751875Y-11394250D02*
X38831875Y-11394250D01*
X38791875Y-12116250D02*
X38791875Y-12196250D01*
X38751875Y-12156250D02*
X38831875Y-12156250D01*
X39744375Y-5639250D02*
X39744375Y-5719250D01*
X39704375Y-5679250D02*
X39784375Y-5679250D01*
X39744375Y-6401250D02*
X39744375Y-6481250D01*
X39704375Y-6441250D02*
X39784375Y-6441250D01*
X40220625Y-8496750D02*
X40220625Y-8576750D01*
X40180625Y-8536750D02*
X40260625Y-8536750D01*
X40220625Y-9258750D02*
X40220625Y-9338750D01*
X40180625Y-9298750D02*
X40260625Y-9298750D01*
X40458750Y-3258000D02*
X40458750Y-3338000D01*
X40418750Y-3298000D02*
X40498750Y-3298000D01*
X40458750Y-4020000D02*
X40458750Y-4100000D01*
X40418750Y-4060000D02*
X40498750Y-4060000D01*
X40458750Y-13259250D02*
X40458750Y-13339250D01*
X40418750Y-13299250D02*
X40498750Y-13299250D01*
X40458750Y-14021250D02*
X40458750Y-14101250D01*
X40418750Y-14061250D02*
X40498750Y-14061250D01*
X43316250Y-6591750D02*
X43316250Y-6671750D01*
X43276250Y-6631750D02*
X43356250Y-6631750D01*
X43316250Y-7353750D02*
X43316250Y-7433750D01*
X43276250Y-7393750D02*
X43356250Y-7393750D01*
X43316250Y-8496750D02*
X43316250Y-8576750D01*
X43276250Y-8536750D02*
X43356250Y-8536750D01*
X43316250Y-9258750D02*
X43316250Y-9338750D01*
X43276250Y-9298750D02*
X43356250Y-9298750D01*
X43316250Y-13259250D02*
X43316250Y-13339250D01*
X43276250Y-13299250D02*
X43356250Y-13299250D01*
X43316250Y-14021250D02*
X43316250Y-14101250D01*
X43276250Y-14061250D02*
X43356250Y-14061250D01*
X45221250Y-6591750D02*
X45221250Y-6671750D01*
X45181250Y-6631750D02*
X45261250Y-6631750D01*
X45221250Y-7353750D02*
X45221250Y-7433750D01*
X45181250Y-7393750D02*
X45261250Y-7393750D01*
X45221250Y-8496750D02*
X45221250Y-8576750D01*
X45181250Y-8536750D02*
X45261250Y-8536750D01*
X45221250Y-9258750D02*
X45221250Y-9338750D01*
X45181250Y-9298750D02*
X45261250Y-9298750D01*
X45221250Y-11354250D02*
X45221250Y-11434250D01*
X45181250Y-11394250D02*
X45261250Y-11394250D01*
X45221250Y-12116250D02*
X45221250Y-12196250D01*
X45181250Y-12156250D02*
X45261250Y-12156250D01*
X45221250Y-13259250D02*
X45221250Y-13339250D01*
X45181250Y-13299250D02*
X45261250Y-13299250D01*
X45221250Y-14021250D02*
X45221250Y-14101250D01*
X45181250Y-14061250D02*
X45261250Y-14061250D01*
X47126250Y-6591750D02*
X47126250Y-6671750D01*
X47086250Y-6631750D02*
X47166250Y-6631750D01*
X47126250Y-7353750D02*
X47126250Y-7433750D01*
X47086250Y-7393750D02*
X47166250Y-7393750D01*
X47126250Y-8496750D02*
X47126250Y-8576750D01*
X47086250Y-8536750D02*
X47166250Y-8536750D01*
X47126250Y-9258750D02*
X47126250Y-9338750D01*
X47086250Y-9298750D02*
X47166250Y-9298750D01*
X47126250Y-13259250D02*
X47126250Y-13339250D01*
X47086250Y-13299250D02*
X47166250Y-13299250D01*
X47126250Y-14021250D02*
X47126250Y-14101250D01*
X47086250Y-14061250D02*
X47166250Y-14061250D01*
X41785356Y-3335356D02*
X41785356Y-3264644D01*
X41714644Y-3264644D01*
X41714644Y-3335356D01*
X41785356Y-3335356D01*
X42039356Y-3335356D02*
X42039356Y-3264644D01*
X41968644Y-3264644D01*
X41968644Y-3335356D01*
X42039356Y-3335356D01*
X42293356Y-3335356D02*
X42293356Y-3264644D01*
X42222644Y-3264644D01*
X42222644Y-3335356D01*
X42293356Y-3335356D01*
X42547356Y-3335356D02*
X42547356Y-3264644D01*
X42476644Y-3264644D01*
X42476644Y-3335356D01*
X42547356Y-3335356D01*
X42801356Y-3335356D02*
X42801356Y-3264644D01*
X42730644Y-3264644D01*
X42730644Y-3335356D01*
X42801356Y-3335356D01*
X43055356Y-3335356D02*
X43055356Y-3264644D01*
X42984644Y-3264644D01*
X42984644Y-3335356D01*
X43055356Y-3335356D01*
X43309356Y-3335356D02*
X43309356Y-3264644D01*
X43238644Y-3264644D01*
X43238644Y-3335356D01*
X43309356Y-3335356D01*
X43563356Y-3335356D02*
X43563356Y-3264644D01*
X43492644Y-3264644D01*
X43492644Y-3335356D01*
X43563356Y-3335356D01*
X44835356Y-4085356D02*
X44835356Y-4014644D01*
X44764644Y-4014644D01*
X44764644Y-4085356D01*
X44835356Y-4085356D01*
X44835356Y-4335356D02*
X44835356Y-4264644D01*
X44764644Y-4264644D01*
X44764644Y-4335356D01*
X44835356Y-4335356D01*
X44835356Y-4585356D02*
X44835356Y-4514644D01*
X44764644Y-4514644D01*
X44764644Y-4585356D01*
X44835356Y-4585356D01*
X46285356Y-4085356D02*
X46285356Y-4014644D01*
X46214644Y-4014644D01*
X46214644Y-4085356D01*
X46285356Y-4085356D01*
X46285356Y-4585356D02*
X46285356Y-4514644D01*
X46214644Y-4514644D01*
X46214644Y-4585356D01*
X46285356Y-4585356D01*
D13*
X5426000Y-3336000D02*
X5486000Y-3276000D01*
X5426000Y-3216000D01*
X5366000Y-3276000D01*
X5426000Y-3336000D01*
X5426000Y-4860000D02*
X5486000Y-4800000D01*
X5426000Y-4740000D01*
X5366000Y-4800000D01*
X5426000Y-4860000D01*
X5680000Y-3336000D02*
X5740000Y-3276000D01*
X5680000Y-3216000D01*
X5620000Y-3276000D01*
X5680000Y-3336000D01*
X5680000Y-4860000D02*
X5740000Y-4800000D01*
X5680000Y-4740000D01*
X5620000Y-4800000D01*
X5680000Y-4860000D01*
X5934000Y-3336000D02*
X5994000Y-3276000D01*
X5934000Y-3216000D01*
X5874000Y-3276000D01*
X5934000Y-3336000D01*
X5934000Y-4860000D02*
X5994000Y-4800000D01*
X5934000Y-4740000D01*
X5874000Y-4800000D01*
X5934000Y-4860000D01*
X6188000Y-3336000D02*
X6248000Y-3276000D01*
X6188000Y-3216000D01*
X6128000Y-3276000D01*
X6188000Y-3336000D01*
X6188000Y-4860000D02*
X6248000Y-4800000D01*
X6188000Y-4740000D01*
X6128000Y-4800000D01*
X6188000Y-4860000D01*
X6442000Y-3336000D02*
X6502000Y-3276000D01*
X6442000Y-3216000D01*
X6382000Y-3276000D01*
X6442000Y-3336000D01*
X6442000Y-4860000D02*
X6502000Y-4800000D01*
X6442000Y-4740000D01*
X6382000Y-4800000D01*
X6442000Y-4860000D01*
X6696000Y-3336000D02*
X6756000Y-3276000D01*
X6696000Y-3216000D01*
X6636000Y-3276000D01*
X6696000Y-3336000D01*
X6696000Y-4860000D02*
X6756000Y-4800000D01*
X6696000Y-4740000D01*
X6636000Y-4800000D01*
X6696000Y-4860000D01*
X6950000Y-3336000D02*
X7010000Y-3276000D01*
X6950000Y-3216000D01*
X6890000Y-3276000D01*
X6950000Y-3336000D01*
X6950000Y-4860000D02*
X7010000Y-4800000D01*
X6950000Y-4740000D01*
X6890000Y-4800000D01*
X6950000Y-4860000D01*
X7204000Y-3336000D02*
X7264000Y-3276000D01*
X7204000Y-3216000D01*
X7144000Y-3276000D01*
X7204000Y-3336000D01*
X7204000Y-4860000D02*
X7264000Y-4800000D01*
X7204000Y-4740000D01*
X7144000Y-4800000D01*
X7204000Y-4860000D01*
X7458000Y-3336000D02*
X7518000Y-3276000D01*
X7458000Y-3216000D01*
X7398000Y-3276000D01*
X7458000Y-3336000D01*
X7458000Y-4860000D02*
X7518000Y-4800000D01*
X7458000Y-4740000D01*
X7398000Y-4800000D01*
X7458000Y-4860000D01*
X7712000Y-3336000D02*
X7772000Y-3276000D01*
X7712000Y-3216000D01*
X7652000Y-3276000D01*
X7712000Y-3336000D01*
X7712000Y-4860000D02*
X7772000Y-4800000D01*
X7712000Y-4740000D01*
X7652000Y-4800000D01*
X7712000Y-4860000D01*
X7966000Y-3336000D02*
X8026000Y-3276000D01*
X7966000Y-3216000D01*
X7906000Y-3276000D01*
X7966000Y-3336000D01*
X7966000Y-4860000D02*
X8026000Y-4800000D01*
X7966000Y-4740000D01*
X7906000Y-4800000D01*
X7966000Y-4860000D01*
X8109000Y-4050000D02*
X8169000Y-3990000D01*
X8109000Y-3930000D01*
X8049000Y-3990000D01*
X8109000Y-4050000D01*
X8109000Y-4304000D02*
X8169000Y-4244000D01*
X8109000Y-4184000D01*
X8049000Y-4244000D01*
X8109000Y-4304000D01*
X8109000Y-4558000D02*
X8169000Y-4498000D01*
X8109000Y-4438000D01*
X8049000Y-4498000D01*
X8109000Y-4558000D01*
X8220000Y-3336000D02*
X8280000Y-3276000D01*
X8220000Y-3216000D01*
X8160000Y-3276000D01*
X8220000Y-3336000D01*
X8220000Y-4860000D02*
X8280000Y-4800000D01*
X8220000Y-4740000D01*
X8160000Y-4800000D01*
X8220000Y-4860000D01*
X8474000Y-3336000D02*
X8534000Y-3276000D01*
X8474000Y-3216000D01*
X8414000Y-3276000D01*
X8474000Y-3336000D01*
X8474000Y-4860000D02*
X8534000Y-4800000D01*
X8474000Y-4740000D01*
X8414000Y-4800000D01*
X8474000Y-4860000D01*
D11*
X45450000Y-3640000D02*
X45650000Y-3840000D01*
X45650000Y-3640000D02*
X45450000Y-3840000D01*
X45650000Y-3740000D02*
G75*
G02*
X45450000Y-3740000I-100000J0D01*
G01*
X45450000Y-3740000D02*
G75*
G02*
X45650000Y-3740000I100000J0D01*
G01*
D12*
X45525000Y-3840000D02*
X45575000Y-3840000D01*
X45575000Y-3640000D02*
G75*
G02*
X45575000Y-3840000I0J-100000D01*
G01*
X45575000Y-3640000D02*
X45525000Y-3640000D01*
X45525000Y-3640000D02*
G75*
G03*
X45525000Y-3840000I0J-100000D01*
G01*
D11*
X45450000Y-4760000D02*
X45650000Y-4960000D01*
X45650000Y-4760000D02*
X45450000Y-4960000D01*
X45650000Y-4860000D02*
G75*
G02*
X45450000Y-4860000I-100000J0D01*
G01*
X45450000Y-4860000D02*
G75*
G02*
X45650000Y-4860000I100000J0D01*
G01*
D12*
X45525000Y-4960000D02*
X45575000Y-4960000D01*
X45575000Y-4760000D02*
G75*
G02*
X45575000Y-4960000I0J-100000D01*
G01*
X45575000Y-4760000D02*
X45525000Y-4760000D01*
X45525000Y-4760000D02*
G75*
G03*
X45525000Y-4960000I0J-100000D01*
G01*
D11*
X4120777Y-15025184D02*
X4120777Y-14825184D01*
X4120777Y-14825184D02*
X4168396Y-14825184D01*
X4168396Y-14825184D02*
X4196967Y-14834708D01*
X4196967Y-14834708D02*
X4216015Y-14853755D01*
X4216015Y-14853755D02*
X4225539Y-14872803D01*
X4225539Y-14872803D02*
X4235063Y-14910898D01*
X4235063Y-14910898D02*
X4235063Y-14939469D01*
X4235063Y-14939469D02*
X4225539Y-14977565D01*
X4225539Y-14977565D02*
X4216015Y-14996612D01*
X4216015Y-14996612D02*
X4196967Y-15015660D01*
X4196967Y-15015660D02*
X4168396Y-15025184D01*
X4168396Y-15025184D02*
X4120777Y-15025184D01*
X4320777Y-15025184D02*
X4320777Y-14891850D01*
X4320777Y-14929946D02*
X4330301Y-14910898D01*
X4330301Y-14910898D02*
X4339824Y-14901374D01*
X4339824Y-14901374D02*
X4358872Y-14891850D01*
X4358872Y-14891850D02*
X4377920Y-14891850D01*
X4444586Y-15025184D02*
X4444586Y-14891850D01*
X4444586Y-14825184D02*
X4435063Y-14834708D01*
X4435063Y-14834708D02*
X4444586Y-14844231D01*
X4444586Y-14844231D02*
X4454110Y-14834708D01*
X4454110Y-14834708D02*
X4444586Y-14825184D01*
X4444586Y-14825184D02*
X4444586Y-14844231D01*
X4568396Y-15025184D02*
X4549348Y-15015660D01*
X4549348Y-15015660D02*
X4539824Y-14996612D01*
X4539824Y-14996612D02*
X4539824Y-14825184D01*
X4673158Y-15025184D02*
X4654110Y-15015660D01*
X4654110Y-15015660D02*
X4644586Y-14996612D01*
X4644586Y-14996612D02*
X4644586Y-14825184D01*
X4901729Y-15025184D02*
X4901729Y-14825184D01*
X4901729Y-14825184D02*
X4968396Y-14968041D01*
X4968396Y-14968041D02*
X5035063Y-14825184D01*
X5035063Y-14825184D02*
X5035063Y-15025184D01*
X5216015Y-15025184D02*
X5216015Y-14920422D01*
X5216015Y-14920422D02*
X5206491Y-14901374D01*
X5206491Y-14901374D02*
X5187444Y-14891850D01*
X5187444Y-14891850D02*
X5149348Y-14891850D01*
X5149348Y-14891850D02*
X5130301Y-14901374D01*
X5216015Y-15015660D02*
X5196967Y-15025184D01*
X5196967Y-15025184D02*
X5149348Y-15025184D01*
X5149348Y-15025184D02*
X5130301Y-15015660D01*
X5130301Y-15015660D02*
X5120777Y-14996612D01*
X5120777Y-14996612D02*
X5120777Y-14977565D01*
X5120777Y-14977565D02*
X5130301Y-14958517D01*
X5130301Y-14958517D02*
X5149348Y-14948993D01*
X5149348Y-14948993D02*
X5196967Y-14948993D01*
X5196967Y-14948993D02*
X5216015Y-14939469D01*
X5311253Y-14891850D02*
X5311253Y-15091850D01*
X5311253Y-14901374D02*
X5330301Y-14891850D01*
X5330301Y-14891850D02*
X5368396Y-14891850D01*
X5368396Y-14891850D02*
X5387444Y-14901374D01*
X5387444Y-14901374D02*
X5396967Y-14910898D01*
X5396967Y-14910898D02*
X5406491Y-14929946D01*
X5406491Y-14929946D02*
X5406491Y-14987088D01*
X5406491Y-14987088D02*
X5396967Y-15006136D01*
X5396967Y-15006136D02*
X5387444Y-15015660D01*
X5387444Y-15015660D02*
X5368396Y-15025184D01*
X5368396Y-15025184D02*
X5330301Y-15025184D01*
X5330301Y-15025184D02*
X5311253Y-15015660D01*
X5492205Y-15006136D02*
X5501729Y-15015660D01*
X5501729Y-15015660D02*
X5492205Y-15025184D01*
X5492205Y-15025184D02*
X5482682Y-15015660D01*
X5482682Y-15015660D02*
X5492205Y-15006136D01*
X5492205Y-15006136D02*
X5492205Y-15025184D01*
X5492205Y-14901374D02*
X5501729Y-14910898D01*
X5501729Y-14910898D02*
X5492205Y-14920422D01*
X5492205Y-14920422D02*
X5482682Y-14910898D01*
X5482682Y-14910898D02*
X5492205Y-14901374D01*
X5492205Y-14901374D02*
X5492205Y-14920422D01*
D12*
X3830000Y-15338700D02*
X3860000Y-15368700D01*
X3860000Y-15338700D02*
X3830000Y-15368700D01*
D11*
X4158872Y-15245184D02*
X4177920Y-15245184D01*
X4177920Y-15245184D02*
X4196967Y-15254708D01*
X4196967Y-15254708D02*
X4206491Y-15264231D01*
X4206491Y-15264231D02*
X4216015Y-15283279D01*
X4216015Y-15283279D02*
X4225539Y-15321374D01*
X4225539Y-15321374D02*
X4225539Y-15368993D01*
X4225539Y-15368993D02*
X4216015Y-15407088D01*
X4216015Y-15407088D02*
X4206491Y-15426136D01*
X4206491Y-15426136D02*
X4196967Y-15435660D01*
X4196967Y-15435660D02*
X4177920Y-15445184D01*
X4177920Y-15445184D02*
X4158872Y-15445184D01*
X4158872Y-15445184D02*
X4139824Y-15435660D01*
X4139824Y-15435660D02*
X4130301Y-15426136D01*
X4130301Y-15426136D02*
X4120777Y-15407088D01*
X4120777Y-15407088D02*
X4111253Y-15368993D01*
X4111253Y-15368993D02*
X4111253Y-15321374D01*
X4111253Y-15321374D02*
X4120777Y-15283279D01*
X4120777Y-15283279D02*
X4130301Y-15264231D01*
X4130301Y-15264231D02*
X4139824Y-15254708D01*
X4139824Y-15254708D02*
X4158872Y-15245184D01*
X4311253Y-15426136D02*
X4320777Y-15435660D01*
X4320777Y-15435660D02*
X4311253Y-15445184D01*
X4311253Y-15445184D02*
X4301729Y-15435660D01*
X4301729Y-15435660D02*
X4311253Y-15426136D01*
X4311253Y-15426136D02*
X4311253Y-15445184D01*
X4387444Y-15245184D02*
X4511253Y-15245184D01*
X4511253Y-15245184D02*
X4444586Y-15321374D01*
X4444586Y-15321374D02*
X4473158Y-15321374D01*
X4473158Y-15321374D02*
X4492205Y-15330898D01*
X4492205Y-15330898D02*
X4501729Y-15340422D01*
X4501729Y-15340422D02*
X4511253Y-15359469D01*
X4511253Y-15359469D02*
X4511253Y-15407088D01*
X4511253Y-15407088D02*
X4501729Y-15426136D01*
X4501729Y-15426136D02*
X4492205Y-15435660D01*
X4492205Y-15435660D02*
X4473158Y-15445184D01*
X4473158Y-15445184D02*
X4416015Y-15445184D01*
X4416015Y-15445184D02*
X4396967Y-15435660D01*
X4396967Y-15435660D02*
X4387444Y-15426136D01*
X4635063Y-15245184D02*
X4654110Y-15245184D01*
X4654110Y-15245184D02*
X4673158Y-15254708D01*
X4673158Y-15254708D02*
X4682682Y-15264231D01*
X4682682Y-15264231D02*
X4692205Y-15283279D01*
X4692205Y-15283279D02*
X4701729Y-15321374D01*
X4701729Y-15321374D02*
X4701729Y-15368993D01*
X4701729Y-15368993D02*
X4692205Y-15407088D01*
X4692205Y-15407088D02*
X4682682Y-15426136D01*
X4682682Y-15426136D02*
X4673158Y-15435660D01*
X4673158Y-15435660D02*
X4654110Y-15445184D01*
X4654110Y-15445184D02*
X4635063Y-15445184D01*
X4635063Y-15445184D02*
X4616015Y-15435660D01*
X4616015Y-15435660D02*
X4606491Y-15426136D01*
X4606491Y-15426136D02*
X4596967Y-15407088D01*
X4596967Y-15407088D02*
X4587444Y-15368993D01*
X4587444Y-15368993D02*
X4587444Y-15321374D01*
X4587444Y-15321374D02*
X4596967Y-15283279D01*
X4596967Y-15283279D02*
X4606491Y-15264231D01*
X4606491Y-15264231D02*
X4616015Y-15254708D01*
X4616015Y-15254708D02*
X4635063Y-15245184D01*
X4825539Y-15245184D02*
X4844586Y-15245184D01*
X4844586Y-15245184D02*
X4863634Y-15254708D01*
X4863634Y-15254708D02*
X4873158Y-15264231D01*
X4873158Y-15264231D02*
X4882682Y-15283279D01*
X4882682Y-15283279D02*
X4892205Y-15321374D01*
X4892205Y-15321374D02*
X4892205Y-15368993D01*
X4892205Y-15368993D02*
X4882682Y-15407088D01*
X4882682Y-15407088D02*
X4873158Y-15426136D01*
X4873158Y-15426136D02*
X4863634Y-15435660D01*
X4863634Y-15435660D02*
X4844586Y-15445184D01*
X4844586Y-15445184D02*
X4825539Y-15445184D01*
X4825539Y-15445184D02*
X4806491Y-15435660D01*
X4806491Y-15435660D02*
X4796967Y-15426136D01*
X4796967Y-15426136D02*
X4787444Y-15407088D01*
X4787444Y-15407088D02*
X4777920Y-15368993D01*
X4777920Y-15368993D02*
X4777920Y-15321374D01*
X4777920Y-15321374D02*
X4787444Y-15283279D01*
X4787444Y-15283279D02*
X4796967Y-15264231D01*
X4796967Y-15264231D02*
X4806491Y-15254708D01*
X4806491Y-15254708D02*
X4825539Y-15245184D01*
X4977920Y-15445184D02*
X4977920Y-15311850D01*
X4977920Y-15330898D02*
X4987444Y-15321374D01*
X4987444Y-15321374D02*
X5006491Y-15311850D01*
X5006491Y-15311850D02*
X5035063Y-15311850D01*
X5035063Y-15311850D02*
X5054110Y-15321374D01*
X5054110Y-15321374D02*
X5063634Y-15340422D01*
X5063634Y-15340422D02*
X5063634Y-15445184D01*
X5063634Y-15340422D02*
X5073158Y-15321374D01*
X5073158Y-15321374D02*
X5092205Y-15311850D01*
X5092205Y-15311850D02*
X5120777Y-15311850D01*
X5120777Y-15311850D02*
X5139825Y-15321374D01*
X5139825Y-15321374D02*
X5149348Y-15340422D01*
X5149348Y-15340422D02*
X5149348Y-15445184D01*
X5244586Y-15445184D02*
X5244586Y-15311850D01*
X5244586Y-15330898D02*
X5254110Y-15321374D01*
X5254110Y-15321374D02*
X5273158Y-15311850D01*
X5273158Y-15311850D02*
X5301729Y-15311850D01*
X5301729Y-15311850D02*
X5320777Y-15321374D01*
X5320777Y-15321374D02*
X5330301Y-15340422D01*
X5330301Y-15340422D02*
X5330301Y-15445184D01*
X5330301Y-15340422D02*
X5339825Y-15321374D01*
X5339825Y-15321374D02*
X5358872Y-15311850D01*
X5358872Y-15311850D02*
X5387444Y-15311850D01*
X5387444Y-15311850D02*
X5406491Y-15321374D01*
X5406491Y-15321374D02*
X5416015Y-15340422D01*
X5416015Y-15340422D02*
X5416015Y-15445184D01*
X5806491Y-15235660D02*
X5635063Y-15492803D01*
X6063634Y-15245184D02*
X6082682Y-15245184D01*
X6082682Y-15245184D02*
X6101729Y-15254708D01*
X6101729Y-15254708D02*
X6111253Y-15264231D01*
X6111253Y-15264231D02*
X6120777Y-15283279D01*
X6120777Y-15283279D02*
X6130301Y-15321374D01*
X6130301Y-15321374D02*
X6130301Y-15368993D01*
X6130301Y-15368993D02*
X6120777Y-15407088D01*
X6120777Y-15407088D02*
X6111253Y-15426136D01*
X6111253Y-15426136D02*
X6101729Y-15435660D01*
X6101729Y-15435660D02*
X6082682Y-15445184D01*
X6082682Y-15445184D02*
X6063634Y-15445184D01*
X6063634Y-15445184D02*
X6044586Y-15435660D01*
X6044586Y-15435660D02*
X6035063Y-15426136D01*
X6035063Y-15426136D02*
X6025539Y-15407088D01*
X6025539Y-15407088D02*
X6016015Y-15368993D01*
X6016015Y-15368993D02*
X6016015Y-15321374D01*
X6016015Y-15321374D02*
X6025539Y-15283279D01*
X6025539Y-15283279D02*
X6035063Y-15264231D01*
X6035063Y-15264231D02*
X6044586Y-15254708D01*
X6044586Y-15254708D02*
X6063634Y-15245184D01*
X6216015Y-15426136D02*
X6225539Y-15435660D01*
X6225539Y-15435660D02*
X6216015Y-15445184D01*
X6216015Y-15445184D02*
X6206491Y-15435660D01*
X6206491Y-15435660D02*
X6216015Y-15426136D01*
X6216015Y-15426136D02*
X6216015Y-15445184D01*
X6349348Y-15245184D02*
X6368396Y-15245184D01*
X6368396Y-15245184D02*
X6387444Y-15254708D01*
X6387444Y-15254708D02*
X6396967Y-15264231D01*
X6396967Y-15264231D02*
X6406491Y-15283279D01*
X6406491Y-15283279D02*
X6416015Y-15321374D01*
X6416015Y-15321374D02*
X6416015Y-15368993D01*
X6416015Y-15368993D02*
X6406491Y-15407088D01*
X6406491Y-15407088D02*
X6396967Y-15426136D01*
X6396967Y-15426136D02*
X6387444Y-15435660D01*
X6387444Y-15435660D02*
X6368396Y-15445184D01*
X6368396Y-15445184D02*
X6349348Y-15445184D01*
X6349348Y-15445184D02*
X6330301Y-15435660D01*
X6330301Y-15435660D02*
X6320777Y-15426136D01*
X6320777Y-15426136D02*
X6311253Y-15407088D01*
X6311253Y-15407088D02*
X6301729Y-15368993D01*
X6301729Y-15368993D02*
X6301729Y-15321374D01*
X6301729Y-15321374D02*
X6311253Y-15283279D01*
X6311253Y-15283279D02*
X6320777Y-15264231D01*
X6320777Y-15264231D02*
X6330301Y-15254708D01*
X6330301Y-15254708D02*
X6349348Y-15245184D01*
X6606491Y-15445184D02*
X6492206Y-15445184D01*
X6549348Y-15445184D02*
X6549348Y-15245184D01*
X6549348Y-15245184D02*
X6530301Y-15273755D01*
X6530301Y-15273755D02*
X6511253Y-15292803D01*
X6511253Y-15292803D02*
X6492206Y-15302327D01*
X6796967Y-15445184D02*
X6682682Y-15445184D01*
X6739825Y-15445184D02*
X6739825Y-15245184D01*
X6739825Y-15245184D02*
X6720777Y-15273755D01*
X6720777Y-15273755D02*
X6701729Y-15292803D01*
X6701729Y-15292803D02*
X6682682Y-15302327D01*
X6911253Y-15330898D02*
X6892206Y-15321374D01*
X6892206Y-15321374D02*
X6882682Y-15311850D01*
X6882682Y-15311850D02*
X6873158Y-15292803D01*
X6873158Y-15292803D02*
X6873158Y-15283279D01*
X6873158Y-15283279D02*
X6882682Y-15264231D01*
X6882682Y-15264231D02*
X6892206Y-15254708D01*
X6892206Y-15254708D02*
X6911253Y-15245184D01*
X6911253Y-15245184D02*
X6949348Y-15245184D01*
X6949348Y-15245184D02*
X6968396Y-15254708D01*
X6968396Y-15254708D02*
X6977920Y-15264231D01*
X6977920Y-15264231D02*
X6987444Y-15283279D01*
X6987444Y-15283279D02*
X6987444Y-15292803D01*
X6987444Y-15292803D02*
X6977920Y-15311850D01*
X6977920Y-15311850D02*
X6968396Y-15321374D01*
X6968396Y-15321374D02*
X6949348Y-15330898D01*
X6949348Y-15330898D02*
X6911253Y-15330898D01*
X6911253Y-15330898D02*
X6892206Y-15340422D01*
X6892206Y-15340422D02*
X6882682Y-15349946D01*
X6882682Y-15349946D02*
X6873158Y-15368993D01*
X6873158Y-15368993D02*
X6873158Y-15407088D01*
X6873158Y-15407088D02*
X6882682Y-15426136D01*
X6882682Y-15426136D02*
X6892206Y-15435660D01*
X6892206Y-15435660D02*
X6911253Y-15445184D01*
X6911253Y-15445184D02*
X6949348Y-15445184D01*
X6949348Y-15445184D02*
X6968396Y-15435660D01*
X6968396Y-15435660D02*
X6977920Y-15426136D01*
X6977920Y-15426136D02*
X6987444Y-15407088D01*
X6987444Y-15407088D02*
X6987444Y-15368993D01*
X6987444Y-15368993D02*
X6977920Y-15349946D01*
X6977920Y-15349946D02*
X6968396Y-15340422D01*
X6968396Y-15340422D02*
X6949348Y-15330898D01*
X7063634Y-15245184D02*
X7063634Y-15283279D01*
X7139825Y-15245184D02*
X7139825Y-15283279D01*
X7435063Y-15521374D02*
X7425539Y-15511850D01*
X7425539Y-15511850D02*
X7406491Y-15483279D01*
X7406491Y-15483279D02*
X7396968Y-15464231D01*
X7396968Y-15464231D02*
X7387444Y-15435660D01*
X7387444Y-15435660D02*
X7377920Y-15388041D01*
X7377920Y-15388041D02*
X7377920Y-15349946D01*
X7377920Y-15349946D02*
X7387444Y-15302327D01*
X7387444Y-15302327D02*
X7396968Y-15273755D01*
X7396968Y-15273755D02*
X7406491Y-15254708D01*
X7406491Y-15254708D02*
X7425539Y-15226136D01*
X7425539Y-15226136D02*
X7435063Y-15216612D01*
X7492206Y-15245184D02*
X7616015Y-15245184D01*
X7616015Y-15245184D02*
X7549348Y-15321374D01*
X7549348Y-15321374D02*
X7577920Y-15321374D01*
X7577920Y-15321374D02*
X7596968Y-15330898D01*
X7596968Y-15330898D02*
X7606491Y-15340422D01*
X7606491Y-15340422D02*
X7616015Y-15359469D01*
X7616015Y-15359469D02*
X7616015Y-15407088D01*
X7616015Y-15407088D02*
X7606491Y-15426136D01*
X7606491Y-15426136D02*
X7596968Y-15435660D01*
X7596968Y-15435660D02*
X7577920Y-15445184D01*
X7577920Y-15445184D02*
X7520777Y-15445184D01*
X7520777Y-15445184D02*
X7501729Y-15435660D01*
X7501729Y-15435660D02*
X7492206Y-15426136D01*
X7730301Y-15330898D02*
X7711253Y-15321374D01*
X7711253Y-15321374D02*
X7701729Y-15311850D01*
X7701729Y-15311850D02*
X7692206Y-15292803D01*
X7692206Y-15292803D02*
X7692206Y-15283279D01*
X7692206Y-15283279D02*
X7701729Y-15264231D01*
X7701729Y-15264231D02*
X7711253Y-15254708D01*
X7711253Y-15254708D02*
X7730301Y-15245184D01*
X7730301Y-15245184D02*
X7768396Y-15245184D01*
X7768396Y-15245184D02*
X7787444Y-15254708D01*
X7787444Y-15254708D02*
X7796968Y-15264231D01*
X7796968Y-15264231D02*
X7806491Y-15283279D01*
X7806491Y-15283279D02*
X7806491Y-15292803D01*
X7806491Y-15292803D02*
X7796968Y-15311850D01*
X7796968Y-15311850D02*
X7787444Y-15321374D01*
X7787444Y-15321374D02*
X7768396Y-15330898D01*
X7768396Y-15330898D02*
X7730301Y-15330898D01*
X7730301Y-15330898D02*
X7711253Y-15340422D01*
X7711253Y-15340422D02*
X7701729Y-15349946D01*
X7701729Y-15349946D02*
X7692206Y-15368993D01*
X7692206Y-15368993D02*
X7692206Y-15407088D01*
X7692206Y-15407088D02*
X7701729Y-15426136D01*
X7701729Y-15426136D02*
X7711253Y-15435660D01*
X7711253Y-15435660D02*
X7730301Y-15445184D01*
X7730301Y-15445184D02*
X7768396Y-15445184D01*
X7768396Y-15445184D02*
X7787444Y-15435660D01*
X7787444Y-15435660D02*
X7796968Y-15426136D01*
X7796968Y-15426136D02*
X7806491Y-15407088D01*
X7806491Y-15407088D02*
X7806491Y-15368993D01*
X7806491Y-15368993D02*
X7796968Y-15349946D01*
X7796968Y-15349946D02*
X7787444Y-15340422D01*
X7787444Y-15340422D02*
X7768396Y-15330898D01*
X7996968Y-15445184D02*
X7882682Y-15445184D01*
X7939825Y-15445184D02*
X7939825Y-15245184D01*
X7939825Y-15245184D02*
X7920777Y-15273755D01*
X7920777Y-15273755D02*
X7901729Y-15292803D01*
X7901729Y-15292803D02*
X7882682Y-15302327D01*
X8235063Y-15445184D02*
X8235063Y-15245184D01*
X8320777Y-15445184D02*
X8320777Y-15340422D01*
X8320777Y-15340422D02*
X8311253Y-15321374D01*
X8311253Y-15321374D02*
X8292206Y-15311850D01*
X8292206Y-15311850D02*
X8263634Y-15311850D01*
X8263634Y-15311850D02*
X8244587Y-15321374D01*
X8244587Y-15321374D02*
X8235063Y-15330898D01*
X8444587Y-15445184D02*
X8425539Y-15435660D01*
X8425539Y-15435660D02*
X8416015Y-15426136D01*
X8416015Y-15426136D02*
X8406492Y-15407088D01*
X8406492Y-15407088D02*
X8406492Y-15349946D01*
X8406492Y-15349946D02*
X8416015Y-15330898D01*
X8416015Y-15330898D02*
X8425539Y-15321374D01*
X8425539Y-15321374D02*
X8444587Y-15311850D01*
X8444587Y-15311850D02*
X8473158Y-15311850D01*
X8473158Y-15311850D02*
X8492206Y-15321374D01*
X8492206Y-15321374D02*
X8501730Y-15330898D01*
X8501730Y-15330898D02*
X8511253Y-15349946D01*
X8511253Y-15349946D02*
X8511253Y-15407088D01*
X8511253Y-15407088D02*
X8501730Y-15426136D01*
X8501730Y-15426136D02*
X8492206Y-15435660D01*
X8492206Y-15435660D02*
X8473158Y-15445184D01*
X8473158Y-15445184D02*
X8444587Y-15445184D01*
X8625539Y-15445184D02*
X8606492Y-15435660D01*
X8606492Y-15435660D02*
X8596968Y-15416612D01*
X8596968Y-15416612D02*
X8596968Y-15245184D01*
X8777920Y-15435660D02*
X8758873Y-15445184D01*
X8758873Y-15445184D02*
X8720777Y-15445184D01*
X8720777Y-15445184D02*
X8701730Y-15435660D01*
X8701730Y-15435660D02*
X8692206Y-15416612D01*
X8692206Y-15416612D02*
X8692206Y-15340422D01*
X8692206Y-15340422D02*
X8701730Y-15321374D01*
X8701730Y-15321374D02*
X8720777Y-15311850D01*
X8720777Y-15311850D02*
X8758873Y-15311850D01*
X8758873Y-15311850D02*
X8777920Y-15321374D01*
X8777920Y-15321374D02*
X8787444Y-15340422D01*
X8787444Y-15340422D02*
X8787444Y-15359469D01*
X8787444Y-15359469D02*
X8692206Y-15378517D01*
X8863634Y-15435660D02*
X8882682Y-15445184D01*
X8882682Y-15445184D02*
X8920777Y-15445184D01*
X8920777Y-15445184D02*
X8939825Y-15435660D01*
X8939825Y-15435660D02*
X8949349Y-15416612D01*
X8949349Y-15416612D02*
X8949349Y-15407088D01*
X8949349Y-15407088D02*
X8939825Y-15388041D01*
X8939825Y-15388041D02*
X8920777Y-15378517D01*
X8920777Y-15378517D02*
X8892206Y-15378517D01*
X8892206Y-15378517D02*
X8873158Y-15368993D01*
X8873158Y-15368993D02*
X8863634Y-15349946D01*
X8863634Y-15349946D02*
X8863634Y-15340422D01*
X8863634Y-15340422D02*
X8873158Y-15321374D01*
X8873158Y-15321374D02*
X8892206Y-15311850D01*
X8892206Y-15311850D02*
X8920777Y-15311850D01*
X8920777Y-15311850D02*
X8939825Y-15321374D01*
X9016015Y-15521374D02*
X9025539Y-15511850D01*
X9025539Y-15511850D02*
X9044587Y-15483279D01*
X9044587Y-15483279D02*
X9054111Y-15464231D01*
X9054111Y-15464231D02*
X9063634Y-15435660D01*
X9063634Y-15435660D02*
X9073158Y-15388041D01*
X9073158Y-15388041D02*
X9073158Y-15349946D01*
X9073158Y-15349946D02*
X9063634Y-15302327D01*
X9063634Y-15302327D02*
X9054111Y-15273755D01*
X9054111Y-15273755D02*
X9044587Y-15254708D01*
X9044587Y-15254708D02*
X9025539Y-15226136D01*
X9025539Y-15226136D02*
X9016015Y-15216612D01*
D12*
X3860000Y-15617700D02*
G75*
G02*
X3785000Y-15617700I-37500J0D01*
G01*
X3785000Y-15617700D02*
G75*
G02*
X3860000Y-15617700I37500J0D01*
G01*
D11*
X4158872Y-15509184D02*
X4177920Y-15509184D01*
X4177920Y-15509184D02*
X4196967Y-15518708D01*
X4196967Y-15518708D02*
X4206491Y-15528231D01*
X4206491Y-15528231D02*
X4216015Y-15547279D01*
X4216015Y-15547279D02*
X4225539Y-15585374D01*
X4225539Y-15585374D02*
X4225539Y-15632993D01*
X4225539Y-15632993D02*
X4216015Y-15671088D01*
X4216015Y-15671088D02*
X4206491Y-15690136D01*
X4206491Y-15690136D02*
X4196967Y-15699660D01*
X4196967Y-15699660D02*
X4177920Y-15709184D01*
X4177920Y-15709184D02*
X4158872Y-15709184D01*
X4158872Y-15709184D02*
X4139824Y-15699660D01*
X4139824Y-15699660D02*
X4130301Y-15690136D01*
X4130301Y-15690136D02*
X4120777Y-15671088D01*
X4120777Y-15671088D02*
X4111253Y-15632993D01*
X4111253Y-15632993D02*
X4111253Y-15585374D01*
X4111253Y-15585374D02*
X4120777Y-15547279D01*
X4120777Y-15547279D02*
X4130301Y-15528231D01*
X4130301Y-15528231D02*
X4139824Y-15518708D01*
X4139824Y-15518708D02*
X4158872Y-15509184D01*
X4311253Y-15690136D02*
X4320777Y-15699660D01*
X4320777Y-15699660D02*
X4311253Y-15709184D01*
X4311253Y-15709184D02*
X4301729Y-15699660D01*
X4301729Y-15699660D02*
X4311253Y-15690136D01*
X4311253Y-15690136D02*
X4311253Y-15709184D01*
X4387444Y-15509184D02*
X4520777Y-15509184D01*
X4520777Y-15509184D02*
X4435063Y-15709184D01*
X4692205Y-15509184D02*
X4596967Y-15509184D01*
X4596967Y-15509184D02*
X4587444Y-15604422D01*
X4587444Y-15604422D02*
X4596967Y-15594898D01*
X4596967Y-15594898D02*
X4616015Y-15585374D01*
X4616015Y-15585374D02*
X4663634Y-15585374D01*
X4663634Y-15585374D02*
X4682682Y-15594898D01*
X4682682Y-15594898D02*
X4692205Y-15604422D01*
X4692205Y-15604422D02*
X4701729Y-15623469D01*
X4701729Y-15623469D02*
X4701729Y-15671088D01*
X4701729Y-15671088D02*
X4692205Y-15690136D01*
X4692205Y-15690136D02*
X4682682Y-15699660D01*
X4682682Y-15699660D02*
X4663634Y-15709184D01*
X4663634Y-15709184D02*
X4616015Y-15709184D01*
X4616015Y-15709184D02*
X4596967Y-15699660D01*
X4596967Y-15699660D02*
X4587444Y-15690136D01*
X4825539Y-15509184D02*
X4844586Y-15509184D01*
X4844586Y-15509184D02*
X4863634Y-15518708D01*
X4863634Y-15518708D02*
X4873158Y-15528231D01*
X4873158Y-15528231D02*
X4882682Y-15547279D01*
X4882682Y-15547279D02*
X4892205Y-15585374D01*
X4892205Y-15585374D02*
X4892205Y-15632993D01*
X4892205Y-15632993D02*
X4882682Y-15671088D01*
X4882682Y-15671088D02*
X4873158Y-15690136D01*
X4873158Y-15690136D02*
X4863634Y-15699660D01*
X4863634Y-15699660D02*
X4844586Y-15709184D01*
X4844586Y-15709184D02*
X4825539Y-15709184D01*
X4825539Y-15709184D02*
X4806491Y-15699660D01*
X4806491Y-15699660D02*
X4796967Y-15690136D01*
X4796967Y-15690136D02*
X4787444Y-15671088D01*
X4787444Y-15671088D02*
X4777920Y-15632993D01*
X4777920Y-15632993D02*
X4777920Y-15585374D01*
X4777920Y-15585374D02*
X4787444Y-15547279D01*
X4787444Y-15547279D02*
X4796967Y-15528231D01*
X4796967Y-15528231D02*
X4806491Y-15518708D01*
X4806491Y-15518708D02*
X4825539Y-15509184D01*
X4977920Y-15709184D02*
X4977920Y-15575850D01*
X4977920Y-15594898D02*
X4987444Y-15585374D01*
X4987444Y-15585374D02*
X5006491Y-15575850D01*
X5006491Y-15575850D02*
X5035063Y-15575850D01*
X5035063Y-15575850D02*
X5054110Y-15585374D01*
X5054110Y-15585374D02*
X5063634Y-15604422D01*
X5063634Y-15604422D02*
X5063634Y-15709184D01*
X5063634Y-15604422D02*
X5073158Y-15585374D01*
X5073158Y-15585374D02*
X5092205Y-15575850D01*
X5092205Y-15575850D02*
X5120777Y-15575850D01*
X5120777Y-15575850D02*
X5139825Y-15585374D01*
X5139825Y-15585374D02*
X5149348Y-15604422D01*
X5149348Y-15604422D02*
X5149348Y-15709184D01*
X5244586Y-15709184D02*
X5244586Y-15575850D01*
X5244586Y-15594898D02*
X5254110Y-15585374D01*
X5254110Y-15585374D02*
X5273158Y-15575850D01*
X5273158Y-15575850D02*
X5301729Y-15575850D01*
X5301729Y-15575850D02*
X5320777Y-15585374D01*
X5320777Y-15585374D02*
X5330301Y-15604422D01*
X5330301Y-15604422D02*
X5330301Y-15709184D01*
X5330301Y-15604422D02*
X5339825Y-15585374D01*
X5339825Y-15585374D02*
X5358872Y-15575850D01*
X5358872Y-15575850D02*
X5387444Y-15575850D01*
X5387444Y-15575850D02*
X5406491Y-15585374D01*
X5406491Y-15585374D02*
X5416015Y-15604422D01*
X5416015Y-15604422D02*
X5416015Y-15709184D01*
X5806491Y-15499660D02*
X5635063Y-15756803D01*
X6063634Y-15509184D02*
X6082682Y-15509184D01*
X6082682Y-15509184D02*
X6101729Y-15518708D01*
X6101729Y-15518708D02*
X6111253Y-15528231D01*
X6111253Y-15528231D02*
X6120777Y-15547279D01*
X6120777Y-15547279D02*
X6130301Y-15585374D01*
X6130301Y-15585374D02*
X6130301Y-15632993D01*
X6130301Y-15632993D02*
X6120777Y-15671088D01*
X6120777Y-15671088D02*
X6111253Y-15690136D01*
X6111253Y-15690136D02*
X6101729Y-15699660D01*
X6101729Y-15699660D02*
X6082682Y-15709184D01*
X6082682Y-15709184D02*
X6063634Y-15709184D01*
X6063634Y-15709184D02*
X6044586Y-15699660D01*
X6044586Y-15699660D02*
X6035063Y-15690136D01*
X6035063Y-15690136D02*
X6025539Y-15671088D01*
X6025539Y-15671088D02*
X6016015Y-15632993D01*
X6016015Y-15632993D02*
X6016015Y-15585374D01*
X6016015Y-15585374D02*
X6025539Y-15547279D01*
X6025539Y-15547279D02*
X6035063Y-15528231D01*
X6035063Y-15528231D02*
X6044586Y-15518708D01*
X6044586Y-15518708D02*
X6063634Y-15509184D01*
X6216015Y-15690136D02*
X6225539Y-15699660D01*
X6225539Y-15699660D02*
X6216015Y-15709184D01*
X6216015Y-15709184D02*
X6206491Y-15699660D01*
X6206491Y-15699660D02*
X6216015Y-15690136D01*
X6216015Y-15690136D02*
X6216015Y-15709184D01*
X6349348Y-15509184D02*
X6368396Y-15509184D01*
X6368396Y-15509184D02*
X6387444Y-15518708D01*
X6387444Y-15518708D02*
X6396967Y-15528231D01*
X6396967Y-15528231D02*
X6406491Y-15547279D01*
X6406491Y-15547279D02*
X6416015Y-15585374D01*
X6416015Y-15585374D02*
X6416015Y-15632993D01*
X6416015Y-15632993D02*
X6406491Y-15671088D01*
X6406491Y-15671088D02*
X6396967Y-15690136D01*
X6396967Y-15690136D02*
X6387444Y-15699660D01*
X6387444Y-15699660D02*
X6368396Y-15709184D01*
X6368396Y-15709184D02*
X6349348Y-15709184D01*
X6349348Y-15709184D02*
X6330301Y-15699660D01*
X6330301Y-15699660D02*
X6320777Y-15690136D01*
X6320777Y-15690136D02*
X6311253Y-15671088D01*
X6311253Y-15671088D02*
X6301729Y-15632993D01*
X6301729Y-15632993D02*
X6301729Y-15585374D01*
X6301729Y-15585374D02*
X6311253Y-15547279D01*
X6311253Y-15547279D02*
X6320777Y-15528231D01*
X6320777Y-15528231D02*
X6330301Y-15518708D01*
X6330301Y-15518708D02*
X6349348Y-15509184D01*
X6492206Y-15528231D02*
X6501729Y-15518708D01*
X6501729Y-15518708D02*
X6520777Y-15509184D01*
X6520777Y-15509184D02*
X6568396Y-15509184D01*
X6568396Y-15509184D02*
X6587444Y-15518708D01*
X6587444Y-15518708D02*
X6596967Y-15528231D01*
X6596967Y-15528231D02*
X6606491Y-15547279D01*
X6606491Y-15547279D02*
X6606491Y-15566327D01*
X6606491Y-15566327D02*
X6596967Y-15594898D01*
X6596967Y-15594898D02*
X6482682Y-15709184D01*
X6482682Y-15709184D02*
X6606491Y-15709184D01*
X6701729Y-15709184D02*
X6739825Y-15709184D01*
X6739825Y-15709184D02*
X6758872Y-15699660D01*
X6758872Y-15699660D02*
X6768396Y-15690136D01*
X6768396Y-15690136D02*
X6787444Y-15661565D01*
X6787444Y-15661565D02*
X6796967Y-15623469D01*
X6796967Y-15623469D02*
X6796967Y-15547279D01*
X6796967Y-15547279D02*
X6787444Y-15528231D01*
X6787444Y-15528231D02*
X6777920Y-15518708D01*
X6777920Y-15518708D02*
X6758872Y-15509184D01*
X6758872Y-15509184D02*
X6720777Y-15509184D01*
X6720777Y-15509184D02*
X6701729Y-15518708D01*
X6701729Y-15518708D02*
X6692206Y-15528231D01*
X6692206Y-15528231D02*
X6682682Y-15547279D01*
X6682682Y-15547279D02*
X6682682Y-15594898D01*
X6682682Y-15594898D02*
X6692206Y-15613946D01*
X6692206Y-15613946D02*
X6701729Y-15623469D01*
X6701729Y-15623469D02*
X6720777Y-15632993D01*
X6720777Y-15632993D02*
X6758872Y-15632993D01*
X6758872Y-15632993D02*
X6777920Y-15623469D01*
X6777920Y-15623469D02*
X6787444Y-15613946D01*
X6787444Y-15613946D02*
X6796967Y-15594898D01*
X6977920Y-15509184D02*
X6882682Y-15509184D01*
X6882682Y-15509184D02*
X6873158Y-15604422D01*
X6873158Y-15604422D02*
X6882682Y-15594898D01*
X6882682Y-15594898D02*
X6901729Y-15585374D01*
X6901729Y-15585374D02*
X6949348Y-15585374D01*
X6949348Y-15585374D02*
X6968396Y-15594898D01*
X6968396Y-15594898D02*
X6977920Y-15604422D01*
X6977920Y-15604422D02*
X6987444Y-15623469D01*
X6987444Y-15623469D02*
X6987444Y-15671088D01*
X6987444Y-15671088D02*
X6977920Y-15690136D01*
X6977920Y-15690136D02*
X6968396Y-15699660D01*
X6968396Y-15699660D02*
X6949348Y-15709184D01*
X6949348Y-15709184D02*
X6901729Y-15709184D01*
X6901729Y-15709184D02*
X6882682Y-15699660D01*
X6882682Y-15699660D02*
X6873158Y-15690136D01*
X7063634Y-15509184D02*
X7063634Y-15547279D01*
X7139825Y-15509184D02*
X7139825Y-15547279D01*
X7435063Y-15785374D02*
X7425539Y-15775850D01*
X7425539Y-15775850D02*
X7406491Y-15747279D01*
X7406491Y-15747279D02*
X7396968Y-15728231D01*
X7396968Y-15728231D02*
X7387444Y-15699660D01*
X7387444Y-15699660D02*
X7377920Y-15652041D01*
X7377920Y-15652041D02*
X7377920Y-15613946D01*
X7377920Y-15613946D02*
X7387444Y-15566327D01*
X7387444Y-15566327D02*
X7396968Y-15537755D01*
X7396968Y-15537755D02*
X7406491Y-15518708D01*
X7406491Y-15518708D02*
X7425539Y-15490136D01*
X7425539Y-15490136D02*
X7435063Y-15480612D01*
X7501729Y-15528231D02*
X7511253Y-15518708D01*
X7511253Y-15518708D02*
X7530301Y-15509184D01*
X7530301Y-15509184D02*
X7577920Y-15509184D01*
X7577920Y-15509184D02*
X7596968Y-15518708D01*
X7596968Y-15518708D02*
X7606491Y-15528231D01*
X7606491Y-15528231D02*
X7616015Y-15547279D01*
X7616015Y-15547279D02*
X7616015Y-15566327D01*
X7616015Y-15566327D02*
X7606491Y-15594898D01*
X7606491Y-15594898D02*
X7492206Y-15709184D01*
X7492206Y-15709184D02*
X7616015Y-15709184D01*
X7854110Y-15709184D02*
X7854110Y-15509184D01*
X7939825Y-15709184D02*
X7939825Y-15604422D01*
X7939825Y-15604422D02*
X7930301Y-15585374D01*
X7930301Y-15585374D02*
X7911253Y-15575850D01*
X7911253Y-15575850D02*
X7882682Y-15575850D01*
X7882682Y-15575850D02*
X7863634Y-15585374D01*
X7863634Y-15585374D02*
X7854110Y-15594898D01*
X8063634Y-15709184D02*
X8044587Y-15699660D01*
X8044587Y-15699660D02*
X8035063Y-15690136D01*
X8035063Y-15690136D02*
X8025539Y-15671088D01*
X8025539Y-15671088D02*
X8025539Y-15613946D01*
X8025539Y-15613946D02*
X8035063Y-15594898D01*
X8035063Y-15594898D02*
X8044587Y-15585374D01*
X8044587Y-15585374D02*
X8063634Y-15575850D01*
X8063634Y-15575850D02*
X8092206Y-15575850D01*
X8092206Y-15575850D02*
X8111253Y-15585374D01*
X8111253Y-15585374D02*
X8120777Y-15594898D01*
X8120777Y-15594898D02*
X8130301Y-15613946D01*
X8130301Y-15613946D02*
X8130301Y-15671088D01*
X8130301Y-15671088D02*
X8120777Y-15690136D01*
X8120777Y-15690136D02*
X8111253Y-15699660D01*
X8111253Y-15699660D02*
X8092206Y-15709184D01*
X8092206Y-15709184D02*
X8063634Y-15709184D01*
X8244587Y-15709184D02*
X8225539Y-15699660D01*
X8225539Y-15699660D02*
X8216015Y-15680612D01*
X8216015Y-15680612D02*
X8216015Y-15509184D01*
X8396968Y-15699660D02*
X8377920Y-15709184D01*
X8377920Y-15709184D02*
X8339825Y-15709184D01*
X8339825Y-15709184D02*
X8320777Y-15699660D01*
X8320777Y-15699660D02*
X8311253Y-15680612D01*
X8311253Y-15680612D02*
X8311253Y-15604422D01*
X8311253Y-15604422D02*
X8320777Y-15585374D01*
X8320777Y-15585374D02*
X8339825Y-15575850D01*
X8339825Y-15575850D02*
X8377920Y-15575850D01*
X8377920Y-15575850D02*
X8396968Y-15585374D01*
X8396968Y-15585374D02*
X8406492Y-15604422D01*
X8406492Y-15604422D02*
X8406492Y-15623469D01*
X8406492Y-15623469D02*
X8311253Y-15642517D01*
X8482682Y-15699660D02*
X8501730Y-15709184D01*
X8501730Y-15709184D02*
X8539825Y-15709184D01*
X8539825Y-15709184D02*
X8558873Y-15699660D01*
X8558873Y-15699660D02*
X8568396Y-15680612D01*
X8568396Y-15680612D02*
X8568396Y-15671088D01*
X8568396Y-15671088D02*
X8558873Y-15652041D01*
X8558873Y-15652041D02*
X8539825Y-15642517D01*
X8539825Y-15642517D02*
X8511253Y-15642517D01*
X8511253Y-15642517D02*
X8492206Y-15632993D01*
X8492206Y-15632993D02*
X8482682Y-15613946D01*
X8482682Y-15613946D02*
X8482682Y-15604422D01*
X8482682Y-15604422D02*
X8492206Y-15585374D01*
X8492206Y-15585374D02*
X8511253Y-15575850D01*
X8511253Y-15575850D02*
X8539825Y-15575850D01*
X8539825Y-15575850D02*
X8558873Y-15585374D01*
X8635063Y-15785374D02*
X8644587Y-15775850D01*
X8644587Y-15775850D02*
X8663634Y-15747279D01*
X8663634Y-15747279D02*
X8673158Y-15728231D01*
X8673158Y-15728231D02*
X8682682Y-15699660D01*
X8682682Y-15699660D02*
X8692206Y-15652041D01*
X8692206Y-15652041D02*
X8692206Y-15613946D01*
X8692206Y-15613946D02*
X8682682Y-15566327D01*
X8682682Y-15566327D02*
X8673158Y-15537755D01*
X8673158Y-15537755D02*
X8663634Y-15518708D01*
X8663634Y-15518708D02*
X8644587Y-15490136D01*
X8644587Y-15490136D02*
X8635063Y-15480612D01*
D12*
X3820000Y-15841700D02*
X3820000Y-15921700D01*
X3780000Y-15881700D02*
X3860000Y-15881700D01*
D11*
X4158872Y-15773184D02*
X4177920Y-15773184D01*
X4177920Y-15773184D02*
X4196967Y-15782708D01*
X4196967Y-15782708D02*
X4206491Y-15792231D01*
X4206491Y-15792231D02*
X4216015Y-15811279D01*
X4216015Y-15811279D02*
X4225539Y-15849374D01*
X4225539Y-15849374D02*
X4225539Y-15896993D01*
X4225539Y-15896993D02*
X4216015Y-15935088D01*
X4216015Y-15935088D02*
X4206491Y-15954136D01*
X4206491Y-15954136D02*
X4196967Y-15963660D01*
X4196967Y-15963660D02*
X4177920Y-15973184D01*
X4177920Y-15973184D02*
X4158872Y-15973184D01*
X4158872Y-15973184D02*
X4139824Y-15963660D01*
X4139824Y-15963660D02*
X4130301Y-15954136D01*
X4130301Y-15954136D02*
X4120777Y-15935088D01*
X4120777Y-15935088D02*
X4111253Y-15896993D01*
X4111253Y-15896993D02*
X4111253Y-15849374D01*
X4111253Y-15849374D02*
X4120777Y-15811279D01*
X4120777Y-15811279D02*
X4130301Y-15792231D01*
X4130301Y-15792231D02*
X4139824Y-15782708D01*
X4139824Y-15782708D02*
X4158872Y-15773184D01*
X4311253Y-15954136D02*
X4320777Y-15963660D01*
X4320777Y-15963660D02*
X4311253Y-15973184D01*
X4311253Y-15973184D02*
X4301729Y-15963660D01*
X4301729Y-15963660D02*
X4311253Y-15954136D01*
X4311253Y-15954136D02*
X4311253Y-15973184D01*
X4435063Y-15858898D02*
X4416015Y-15849374D01*
X4416015Y-15849374D02*
X4406491Y-15839850D01*
X4406491Y-15839850D02*
X4396967Y-15820803D01*
X4396967Y-15820803D02*
X4396967Y-15811279D01*
X4396967Y-15811279D02*
X4406491Y-15792231D01*
X4406491Y-15792231D02*
X4416015Y-15782708D01*
X4416015Y-15782708D02*
X4435063Y-15773184D01*
X4435063Y-15773184D02*
X4473158Y-15773184D01*
X4473158Y-15773184D02*
X4492205Y-15782708D01*
X4492205Y-15782708D02*
X4501729Y-15792231D01*
X4501729Y-15792231D02*
X4511253Y-15811279D01*
X4511253Y-15811279D02*
X4511253Y-15820803D01*
X4511253Y-15820803D02*
X4501729Y-15839850D01*
X4501729Y-15839850D02*
X4492205Y-15849374D01*
X4492205Y-15849374D02*
X4473158Y-15858898D01*
X4473158Y-15858898D02*
X4435063Y-15858898D01*
X4435063Y-15858898D02*
X4416015Y-15868422D01*
X4416015Y-15868422D02*
X4406491Y-15877946D01*
X4406491Y-15877946D02*
X4396967Y-15896993D01*
X4396967Y-15896993D02*
X4396967Y-15935088D01*
X4396967Y-15935088D02*
X4406491Y-15954136D01*
X4406491Y-15954136D02*
X4416015Y-15963660D01*
X4416015Y-15963660D02*
X4435063Y-15973184D01*
X4435063Y-15973184D02*
X4473158Y-15973184D01*
X4473158Y-15973184D02*
X4492205Y-15963660D01*
X4492205Y-15963660D02*
X4501729Y-15954136D01*
X4501729Y-15954136D02*
X4511253Y-15935088D01*
X4511253Y-15935088D02*
X4511253Y-15896993D01*
X4511253Y-15896993D02*
X4501729Y-15877946D01*
X4501729Y-15877946D02*
X4492205Y-15868422D01*
X4492205Y-15868422D02*
X4473158Y-15858898D01*
X4635063Y-15773184D02*
X4654110Y-15773184D01*
X4654110Y-15773184D02*
X4673158Y-15782708D01*
X4673158Y-15782708D02*
X4682682Y-15792231D01*
X4682682Y-15792231D02*
X4692205Y-15811279D01*
X4692205Y-15811279D02*
X4701729Y-15849374D01*
X4701729Y-15849374D02*
X4701729Y-15896993D01*
X4701729Y-15896993D02*
X4692205Y-15935088D01*
X4692205Y-15935088D02*
X4682682Y-15954136D01*
X4682682Y-15954136D02*
X4673158Y-15963660D01*
X4673158Y-15963660D02*
X4654110Y-15973184D01*
X4654110Y-15973184D02*
X4635063Y-15973184D01*
X4635063Y-15973184D02*
X4616015Y-15963660D01*
X4616015Y-15963660D02*
X4606491Y-15954136D01*
X4606491Y-15954136D02*
X4596967Y-15935088D01*
X4596967Y-15935088D02*
X4587444Y-15896993D01*
X4587444Y-15896993D02*
X4587444Y-15849374D01*
X4587444Y-15849374D02*
X4596967Y-15811279D01*
X4596967Y-15811279D02*
X4606491Y-15792231D01*
X4606491Y-15792231D02*
X4616015Y-15782708D01*
X4616015Y-15782708D02*
X4635063Y-15773184D01*
X4825539Y-15773184D02*
X4844586Y-15773184D01*
X4844586Y-15773184D02*
X4863634Y-15782708D01*
X4863634Y-15782708D02*
X4873158Y-15792231D01*
X4873158Y-15792231D02*
X4882682Y-15811279D01*
X4882682Y-15811279D02*
X4892205Y-15849374D01*
X4892205Y-15849374D02*
X4892205Y-15896993D01*
X4892205Y-15896993D02*
X4882682Y-15935088D01*
X4882682Y-15935088D02*
X4873158Y-15954136D01*
X4873158Y-15954136D02*
X4863634Y-15963660D01*
X4863634Y-15963660D02*
X4844586Y-15973184D01*
X4844586Y-15973184D02*
X4825539Y-15973184D01*
X4825539Y-15973184D02*
X4806491Y-15963660D01*
X4806491Y-15963660D02*
X4796967Y-15954136D01*
X4796967Y-15954136D02*
X4787444Y-15935088D01*
X4787444Y-15935088D02*
X4777920Y-15896993D01*
X4777920Y-15896993D02*
X4777920Y-15849374D01*
X4777920Y-15849374D02*
X4787444Y-15811279D01*
X4787444Y-15811279D02*
X4796967Y-15792231D01*
X4796967Y-15792231D02*
X4806491Y-15782708D01*
X4806491Y-15782708D02*
X4825539Y-15773184D01*
X4977920Y-15973184D02*
X4977920Y-15839850D01*
X4977920Y-15858898D02*
X4987444Y-15849374D01*
X4987444Y-15849374D02*
X5006491Y-15839850D01*
X5006491Y-15839850D02*
X5035063Y-15839850D01*
X5035063Y-15839850D02*
X5054110Y-15849374D01*
X5054110Y-15849374D02*
X5063634Y-15868422D01*
X5063634Y-15868422D02*
X5063634Y-15973184D01*
X5063634Y-15868422D02*
X5073158Y-15849374D01*
X5073158Y-15849374D02*
X5092205Y-15839850D01*
X5092205Y-15839850D02*
X5120777Y-15839850D01*
X5120777Y-15839850D02*
X5139825Y-15849374D01*
X5139825Y-15849374D02*
X5149348Y-15868422D01*
X5149348Y-15868422D02*
X5149348Y-15973184D01*
X5244586Y-15973184D02*
X5244586Y-15839850D01*
X5244586Y-15858898D02*
X5254110Y-15849374D01*
X5254110Y-15849374D02*
X5273158Y-15839850D01*
X5273158Y-15839850D02*
X5301729Y-15839850D01*
X5301729Y-15839850D02*
X5320777Y-15849374D01*
X5320777Y-15849374D02*
X5330301Y-15868422D01*
X5330301Y-15868422D02*
X5330301Y-15973184D01*
X5330301Y-15868422D02*
X5339825Y-15849374D01*
X5339825Y-15849374D02*
X5358872Y-15839850D01*
X5358872Y-15839850D02*
X5387444Y-15839850D01*
X5387444Y-15839850D02*
X5406491Y-15849374D01*
X5406491Y-15849374D02*
X5416015Y-15868422D01*
X5416015Y-15868422D02*
X5416015Y-15973184D01*
X5806491Y-15763660D02*
X5635063Y-16020803D01*
X6063634Y-15773184D02*
X6082682Y-15773184D01*
X6082682Y-15773184D02*
X6101729Y-15782708D01*
X6101729Y-15782708D02*
X6111253Y-15792231D01*
X6111253Y-15792231D02*
X6120777Y-15811279D01*
X6120777Y-15811279D02*
X6130301Y-15849374D01*
X6130301Y-15849374D02*
X6130301Y-15896993D01*
X6130301Y-15896993D02*
X6120777Y-15935088D01*
X6120777Y-15935088D02*
X6111253Y-15954136D01*
X6111253Y-15954136D02*
X6101729Y-15963660D01*
X6101729Y-15963660D02*
X6082682Y-15973184D01*
X6082682Y-15973184D02*
X6063634Y-15973184D01*
X6063634Y-15973184D02*
X6044586Y-15963660D01*
X6044586Y-15963660D02*
X6035063Y-15954136D01*
X6035063Y-15954136D02*
X6025539Y-15935088D01*
X6025539Y-15935088D02*
X6016015Y-15896993D01*
X6016015Y-15896993D02*
X6016015Y-15849374D01*
X6016015Y-15849374D02*
X6025539Y-15811279D01*
X6025539Y-15811279D02*
X6035063Y-15792231D01*
X6035063Y-15792231D02*
X6044586Y-15782708D01*
X6044586Y-15782708D02*
X6063634Y-15773184D01*
X6216015Y-15954136D02*
X6225539Y-15963660D01*
X6225539Y-15963660D02*
X6216015Y-15973184D01*
X6216015Y-15973184D02*
X6206491Y-15963660D01*
X6206491Y-15963660D02*
X6216015Y-15954136D01*
X6216015Y-15954136D02*
X6216015Y-15973184D01*
X6349348Y-15773184D02*
X6368396Y-15773184D01*
X6368396Y-15773184D02*
X6387444Y-15782708D01*
X6387444Y-15782708D02*
X6396967Y-15792231D01*
X6396967Y-15792231D02*
X6406491Y-15811279D01*
X6406491Y-15811279D02*
X6416015Y-15849374D01*
X6416015Y-15849374D02*
X6416015Y-15896993D01*
X6416015Y-15896993D02*
X6406491Y-15935088D01*
X6406491Y-15935088D02*
X6396967Y-15954136D01*
X6396967Y-15954136D02*
X6387444Y-15963660D01*
X6387444Y-15963660D02*
X6368396Y-15973184D01*
X6368396Y-15973184D02*
X6349348Y-15973184D01*
X6349348Y-15973184D02*
X6330301Y-15963660D01*
X6330301Y-15963660D02*
X6320777Y-15954136D01*
X6320777Y-15954136D02*
X6311253Y-15935088D01*
X6311253Y-15935088D02*
X6301729Y-15896993D01*
X6301729Y-15896993D02*
X6301729Y-15849374D01*
X6301729Y-15849374D02*
X6311253Y-15811279D01*
X6311253Y-15811279D02*
X6320777Y-15792231D01*
X6320777Y-15792231D02*
X6330301Y-15782708D01*
X6330301Y-15782708D02*
X6349348Y-15773184D01*
X6482682Y-15773184D02*
X6606491Y-15773184D01*
X6606491Y-15773184D02*
X6539825Y-15849374D01*
X6539825Y-15849374D02*
X6568396Y-15849374D01*
X6568396Y-15849374D02*
X6587444Y-15858898D01*
X6587444Y-15858898D02*
X6596967Y-15868422D01*
X6596967Y-15868422D02*
X6606491Y-15887469D01*
X6606491Y-15887469D02*
X6606491Y-15935088D01*
X6606491Y-15935088D02*
X6596967Y-15954136D01*
X6596967Y-15954136D02*
X6587444Y-15963660D01*
X6587444Y-15963660D02*
X6568396Y-15973184D01*
X6568396Y-15973184D02*
X6511253Y-15973184D01*
X6511253Y-15973184D02*
X6492206Y-15963660D01*
X6492206Y-15963660D02*
X6482682Y-15954136D01*
X6796967Y-15973184D02*
X6682682Y-15973184D01*
X6739825Y-15973184D02*
X6739825Y-15773184D01*
X6739825Y-15773184D02*
X6720777Y-15801755D01*
X6720777Y-15801755D02*
X6701729Y-15820803D01*
X6701729Y-15820803D02*
X6682682Y-15830327D01*
X6977920Y-15773184D02*
X6882682Y-15773184D01*
X6882682Y-15773184D02*
X6873158Y-15868422D01*
X6873158Y-15868422D02*
X6882682Y-15858898D01*
X6882682Y-15858898D02*
X6901729Y-15849374D01*
X6901729Y-15849374D02*
X6949348Y-15849374D01*
X6949348Y-15849374D02*
X6968396Y-15858898D01*
X6968396Y-15858898D02*
X6977920Y-15868422D01*
X6977920Y-15868422D02*
X6987444Y-15887469D01*
X6987444Y-15887469D02*
X6987444Y-15935088D01*
X6987444Y-15935088D02*
X6977920Y-15954136D01*
X6977920Y-15954136D02*
X6968396Y-15963660D01*
X6968396Y-15963660D02*
X6949348Y-15973184D01*
X6949348Y-15973184D02*
X6901729Y-15973184D01*
X6901729Y-15973184D02*
X6882682Y-15963660D01*
X6882682Y-15963660D02*
X6873158Y-15954136D01*
X7063634Y-15773184D02*
X7063634Y-15811279D01*
X7139825Y-15773184D02*
X7139825Y-15811279D01*
X7435063Y-16049374D02*
X7425539Y-16039850D01*
X7425539Y-16039850D02*
X7406491Y-16011279D01*
X7406491Y-16011279D02*
X7396968Y-15992231D01*
X7396968Y-15992231D02*
X7387444Y-15963660D01*
X7387444Y-15963660D02*
X7377920Y-15916041D01*
X7377920Y-15916041D02*
X7377920Y-15877946D01*
X7377920Y-15877946D02*
X7387444Y-15830327D01*
X7387444Y-15830327D02*
X7396968Y-15801755D01*
X7396968Y-15801755D02*
X7406491Y-15782708D01*
X7406491Y-15782708D02*
X7425539Y-15754136D01*
X7425539Y-15754136D02*
X7435063Y-15744612D01*
X7501729Y-15792231D02*
X7511253Y-15782708D01*
X7511253Y-15782708D02*
X7530301Y-15773184D01*
X7530301Y-15773184D02*
X7577920Y-15773184D01*
X7577920Y-15773184D02*
X7596968Y-15782708D01*
X7596968Y-15782708D02*
X7606491Y-15792231D01*
X7606491Y-15792231D02*
X7616015Y-15811279D01*
X7616015Y-15811279D02*
X7616015Y-15830327D01*
X7616015Y-15830327D02*
X7606491Y-15858898D01*
X7606491Y-15858898D02*
X7492206Y-15973184D01*
X7492206Y-15973184D02*
X7616015Y-15973184D01*
X7739825Y-15773184D02*
X7758872Y-15773184D01*
X7758872Y-15773184D02*
X7777920Y-15782708D01*
X7777920Y-15782708D02*
X7787444Y-15792231D01*
X7787444Y-15792231D02*
X7796968Y-15811279D01*
X7796968Y-15811279D02*
X7806491Y-15849374D01*
X7806491Y-15849374D02*
X7806491Y-15896993D01*
X7806491Y-15896993D02*
X7796968Y-15935088D01*
X7796968Y-15935088D02*
X7787444Y-15954136D01*
X7787444Y-15954136D02*
X7777920Y-15963660D01*
X7777920Y-15963660D02*
X7758872Y-15973184D01*
X7758872Y-15973184D02*
X7739825Y-15973184D01*
X7739825Y-15973184D02*
X7720777Y-15963660D01*
X7720777Y-15963660D02*
X7711253Y-15954136D01*
X7711253Y-15954136D02*
X7701729Y-15935088D01*
X7701729Y-15935088D02*
X7692206Y-15896993D01*
X7692206Y-15896993D02*
X7692206Y-15849374D01*
X7692206Y-15849374D02*
X7701729Y-15811279D01*
X7701729Y-15811279D02*
X7711253Y-15792231D01*
X7711253Y-15792231D02*
X7720777Y-15782708D01*
X7720777Y-15782708D02*
X7739825Y-15773184D01*
X7977920Y-15839850D02*
X7977920Y-15973184D01*
X7930301Y-15763660D02*
X7882682Y-15906517D01*
X7882682Y-15906517D02*
X8006491Y-15906517D01*
X8235063Y-15973184D02*
X8235063Y-15773184D01*
X8320777Y-15973184D02*
X8320777Y-15868422D01*
X8320777Y-15868422D02*
X8311253Y-15849374D01*
X8311253Y-15849374D02*
X8292206Y-15839850D01*
X8292206Y-15839850D02*
X8263634Y-15839850D01*
X8263634Y-15839850D02*
X8244587Y-15849374D01*
X8244587Y-15849374D02*
X8235063Y-15858898D01*
X8444587Y-15973184D02*
X8425539Y-15963660D01*
X8425539Y-15963660D02*
X8416015Y-15954136D01*
X8416015Y-15954136D02*
X8406492Y-15935088D01*
X8406492Y-15935088D02*
X8406492Y-15877946D01*
X8406492Y-15877946D02*
X8416015Y-15858898D01*
X8416015Y-15858898D02*
X8425539Y-15849374D01*
X8425539Y-15849374D02*
X8444587Y-15839850D01*
X8444587Y-15839850D02*
X8473158Y-15839850D01*
X8473158Y-15839850D02*
X8492206Y-15849374D01*
X8492206Y-15849374D02*
X8501730Y-15858898D01*
X8501730Y-15858898D02*
X8511253Y-15877946D01*
X8511253Y-15877946D02*
X8511253Y-15935088D01*
X8511253Y-15935088D02*
X8501730Y-15954136D01*
X8501730Y-15954136D02*
X8492206Y-15963660D01*
X8492206Y-15963660D02*
X8473158Y-15973184D01*
X8473158Y-15973184D02*
X8444587Y-15973184D01*
X8625539Y-15973184D02*
X8606492Y-15963660D01*
X8606492Y-15963660D02*
X8596968Y-15944612D01*
X8596968Y-15944612D02*
X8596968Y-15773184D01*
X8777920Y-15963660D02*
X8758873Y-15973184D01*
X8758873Y-15973184D02*
X8720777Y-15973184D01*
X8720777Y-15973184D02*
X8701730Y-15963660D01*
X8701730Y-15963660D02*
X8692206Y-15944612D01*
X8692206Y-15944612D02*
X8692206Y-15868422D01*
X8692206Y-15868422D02*
X8701730Y-15849374D01*
X8701730Y-15849374D02*
X8720777Y-15839850D01*
X8720777Y-15839850D02*
X8758873Y-15839850D01*
X8758873Y-15839850D02*
X8777920Y-15849374D01*
X8777920Y-15849374D02*
X8787444Y-15868422D01*
X8787444Y-15868422D02*
X8787444Y-15887469D01*
X8787444Y-15887469D02*
X8692206Y-15906517D01*
X8863634Y-15963660D02*
X8882682Y-15973184D01*
X8882682Y-15973184D02*
X8920777Y-15973184D01*
X8920777Y-15973184D02*
X8939825Y-15963660D01*
X8939825Y-15963660D02*
X8949349Y-15944612D01*
X8949349Y-15944612D02*
X8949349Y-15935088D01*
X8949349Y-15935088D02*
X8939825Y-15916041D01*
X8939825Y-15916041D02*
X8920777Y-15906517D01*
X8920777Y-15906517D02*
X8892206Y-15906517D01*
X8892206Y-15906517D02*
X8873158Y-15896993D01*
X8873158Y-15896993D02*
X8863634Y-15877946D01*
X8863634Y-15877946D02*
X8863634Y-15868422D01*
X8863634Y-15868422D02*
X8873158Y-15849374D01*
X8873158Y-15849374D02*
X8892206Y-15839850D01*
X8892206Y-15839850D02*
X8920777Y-15839850D01*
X8920777Y-15839850D02*
X8939825Y-15849374D01*
X9016015Y-16049374D02*
X9025539Y-16039850D01*
X9025539Y-16039850D02*
X9044587Y-16011279D01*
X9044587Y-16011279D02*
X9054111Y-15992231D01*
X9054111Y-15992231D02*
X9063634Y-15963660D01*
X9063634Y-15963660D02*
X9073158Y-15916041D01*
X9073158Y-15916041D02*
X9073158Y-15877946D01*
X9073158Y-15877946D02*
X9063634Y-15830327D01*
X9063634Y-15830327D02*
X9054111Y-15801755D01*
X9054111Y-15801755D02*
X9044587Y-15782708D01*
X9044587Y-15782708D02*
X9025539Y-15754136D01*
X9025539Y-15754136D02*
X9016015Y-15744612D01*
D12*
X3845356Y-16181056D02*
X3845356Y-16110344D01*
X3774644Y-16110344D01*
X3774644Y-16181056D01*
X3845356Y-16181056D01*
D11*
X4225539Y-16237184D02*
X4111253Y-16237184D01*
X4168396Y-16237184D02*
X4168396Y-16037184D01*
X4168396Y-16037184D02*
X4149348Y-16065755D01*
X4149348Y-16065755D02*
X4130301Y-16084803D01*
X4130301Y-16084803D02*
X4111253Y-16094327D01*
X4311253Y-16218136D02*
X4320777Y-16227660D01*
X4320777Y-16227660D02*
X4311253Y-16237184D01*
X4311253Y-16237184D02*
X4301729Y-16227660D01*
X4301729Y-16227660D02*
X4311253Y-16218136D01*
X4311253Y-16218136D02*
X4311253Y-16237184D01*
X4444586Y-16037184D02*
X4463634Y-16037184D01*
X4463634Y-16037184D02*
X4482682Y-16046708D01*
X4482682Y-16046708D02*
X4492205Y-16056231D01*
X4492205Y-16056231D02*
X4501729Y-16075279D01*
X4501729Y-16075279D02*
X4511253Y-16113374D01*
X4511253Y-16113374D02*
X4511253Y-16160993D01*
X4511253Y-16160993D02*
X4501729Y-16199088D01*
X4501729Y-16199088D02*
X4492205Y-16218136D01*
X4492205Y-16218136D02*
X4482682Y-16227660D01*
X4482682Y-16227660D02*
X4463634Y-16237184D01*
X4463634Y-16237184D02*
X4444586Y-16237184D01*
X4444586Y-16237184D02*
X4425539Y-16227660D01*
X4425539Y-16227660D02*
X4416015Y-16218136D01*
X4416015Y-16218136D02*
X4406491Y-16199088D01*
X4406491Y-16199088D02*
X4396967Y-16160993D01*
X4396967Y-16160993D02*
X4396967Y-16113374D01*
X4396967Y-16113374D02*
X4406491Y-16075279D01*
X4406491Y-16075279D02*
X4416015Y-16056231D01*
X4416015Y-16056231D02*
X4425539Y-16046708D01*
X4425539Y-16046708D02*
X4444586Y-16037184D01*
X4635063Y-16037184D02*
X4654110Y-16037184D01*
X4654110Y-16037184D02*
X4673158Y-16046708D01*
X4673158Y-16046708D02*
X4682682Y-16056231D01*
X4682682Y-16056231D02*
X4692205Y-16075279D01*
X4692205Y-16075279D02*
X4701729Y-16113374D01*
X4701729Y-16113374D02*
X4701729Y-16160993D01*
X4701729Y-16160993D02*
X4692205Y-16199088D01*
X4692205Y-16199088D02*
X4682682Y-16218136D01*
X4682682Y-16218136D02*
X4673158Y-16227660D01*
X4673158Y-16227660D02*
X4654110Y-16237184D01*
X4654110Y-16237184D02*
X4635063Y-16237184D01*
X4635063Y-16237184D02*
X4616015Y-16227660D01*
X4616015Y-16227660D02*
X4606491Y-16218136D01*
X4606491Y-16218136D02*
X4596967Y-16199088D01*
X4596967Y-16199088D02*
X4587444Y-16160993D01*
X4587444Y-16160993D02*
X4587444Y-16113374D01*
X4587444Y-16113374D02*
X4596967Y-16075279D01*
X4596967Y-16075279D02*
X4606491Y-16056231D01*
X4606491Y-16056231D02*
X4616015Y-16046708D01*
X4616015Y-16046708D02*
X4635063Y-16037184D01*
X4825539Y-16037184D02*
X4844586Y-16037184D01*
X4844586Y-16037184D02*
X4863634Y-16046708D01*
X4863634Y-16046708D02*
X4873158Y-16056231D01*
X4873158Y-16056231D02*
X4882682Y-16075279D01*
X4882682Y-16075279D02*
X4892205Y-16113374D01*
X4892205Y-16113374D02*
X4892205Y-16160993D01*
X4892205Y-16160993D02*
X4882682Y-16199088D01*
X4882682Y-16199088D02*
X4873158Y-16218136D01*
X4873158Y-16218136D02*
X4863634Y-16227660D01*
X4863634Y-16227660D02*
X4844586Y-16237184D01*
X4844586Y-16237184D02*
X4825539Y-16237184D01*
X4825539Y-16237184D02*
X4806491Y-16227660D01*
X4806491Y-16227660D02*
X4796967Y-16218136D01*
X4796967Y-16218136D02*
X4787444Y-16199088D01*
X4787444Y-16199088D02*
X4777920Y-16160993D01*
X4777920Y-16160993D02*
X4777920Y-16113374D01*
X4777920Y-16113374D02*
X4787444Y-16075279D01*
X4787444Y-16075279D02*
X4796967Y-16056231D01*
X4796967Y-16056231D02*
X4806491Y-16046708D01*
X4806491Y-16046708D02*
X4825539Y-16037184D01*
X4977920Y-16237184D02*
X4977920Y-16103850D01*
X4977920Y-16122898D02*
X4987444Y-16113374D01*
X4987444Y-16113374D02*
X5006491Y-16103850D01*
X5006491Y-16103850D02*
X5035063Y-16103850D01*
X5035063Y-16103850D02*
X5054110Y-16113374D01*
X5054110Y-16113374D02*
X5063634Y-16132422D01*
X5063634Y-16132422D02*
X5063634Y-16237184D01*
X5063634Y-16132422D02*
X5073158Y-16113374D01*
X5073158Y-16113374D02*
X5092205Y-16103850D01*
X5092205Y-16103850D02*
X5120777Y-16103850D01*
X5120777Y-16103850D02*
X5139825Y-16113374D01*
X5139825Y-16113374D02*
X5149348Y-16132422D01*
X5149348Y-16132422D02*
X5149348Y-16237184D01*
X5244586Y-16237184D02*
X5244586Y-16103850D01*
X5244586Y-16122898D02*
X5254110Y-16113374D01*
X5254110Y-16113374D02*
X5273158Y-16103850D01*
X5273158Y-16103850D02*
X5301729Y-16103850D01*
X5301729Y-16103850D02*
X5320777Y-16113374D01*
X5320777Y-16113374D02*
X5330301Y-16132422D01*
X5330301Y-16132422D02*
X5330301Y-16237184D01*
X5330301Y-16132422D02*
X5339825Y-16113374D01*
X5339825Y-16113374D02*
X5358872Y-16103850D01*
X5358872Y-16103850D02*
X5387444Y-16103850D01*
X5387444Y-16103850D02*
X5406491Y-16113374D01*
X5406491Y-16113374D02*
X5416015Y-16132422D01*
X5416015Y-16132422D02*
X5416015Y-16237184D01*
X5806491Y-16027660D02*
X5635063Y-16284803D01*
X6063634Y-16037184D02*
X6082682Y-16037184D01*
X6082682Y-16037184D02*
X6101729Y-16046708D01*
X6101729Y-16046708D02*
X6111253Y-16056231D01*
X6111253Y-16056231D02*
X6120777Y-16075279D01*
X6120777Y-16075279D02*
X6130301Y-16113374D01*
X6130301Y-16113374D02*
X6130301Y-16160993D01*
X6130301Y-16160993D02*
X6120777Y-16199088D01*
X6120777Y-16199088D02*
X6111253Y-16218136D01*
X6111253Y-16218136D02*
X6101729Y-16227660D01*
X6101729Y-16227660D02*
X6082682Y-16237184D01*
X6082682Y-16237184D02*
X6063634Y-16237184D01*
X6063634Y-16237184D02*
X6044586Y-16227660D01*
X6044586Y-16227660D02*
X6035063Y-16218136D01*
X6035063Y-16218136D02*
X6025539Y-16199088D01*
X6025539Y-16199088D02*
X6016015Y-16160993D01*
X6016015Y-16160993D02*
X6016015Y-16113374D01*
X6016015Y-16113374D02*
X6025539Y-16075279D01*
X6025539Y-16075279D02*
X6035063Y-16056231D01*
X6035063Y-16056231D02*
X6044586Y-16046708D01*
X6044586Y-16046708D02*
X6063634Y-16037184D01*
X6216015Y-16218136D02*
X6225539Y-16227660D01*
X6225539Y-16227660D02*
X6216015Y-16237184D01*
X6216015Y-16237184D02*
X6206491Y-16227660D01*
X6206491Y-16227660D02*
X6216015Y-16218136D01*
X6216015Y-16218136D02*
X6216015Y-16237184D01*
X6349348Y-16037184D02*
X6368396Y-16037184D01*
X6368396Y-16037184D02*
X6387444Y-16046708D01*
X6387444Y-16046708D02*
X6396967Y-16056231D01*
X6396967Y-16056231D02*
X6406491Y-16075279D01*
X6406491Y-16075279D02*
X6416015Y-16113374D01*
X6416015Y-16113374D02*
X6416015Y-16160993D01*
X6416015Y-16160993D02*
X6406491Y-16199088D01*
X6406491Y-16199088D02*
X6396967Y-16218136D01*
X6396967Y-16218136D02*
X6387444Y-16227660D01*
X6387444Y-16227660D02*
X6368396Y-16237184D01*
X6368396Y-16237184D02*
X6349348Y-16237184D01*
X6349348Y-16237184D02*
X6330301Y-16227660D01*
X6330301Y-16227660D02*
X6320777Y-16218136D01*
X6320777Y-16218136D02*
X6311253Y-16199088D01*
X6311253Y-16199088D02*
X6301729Y-16160993D01*
X6301729Y-16160993D02*
X6301729Y-16113374D01*
X6301729Y-16113374D02*
X6311253Y-16075279D01*
X6311253Y-16075279D02*
X6320777Y-16056231D01*
X6320777Y-16056231D02*
X6330301Y-16046708D01*
X6330301Y-16046708D02*
X6349348Y-16037184D01*
X6482682Y-16037184D02*
X6606491Y-16037184D01*
X6606491Y-16037184D02*
X6539825Y-16113374D01*
X6539825Y-16113374D02*
X6568396Y-16113374D01*
X6568396Y-16113374D02*
X6587444Y-16122898D01*
X6587444Y-16122898D02*
X6596967Y-16132422D01*
X6596967Y-16132422D02*
X6606491Y-16151469D01*
X6606491Y-16151469D02*
X6606491Y-16199088D01*
X6606491Y-16199088D02*
X6596967Y-16218136D01*
X6596967Y-16218136D02*
X6587444Y-16227660D01*
X6587444Y-16227660D02*
X6568396Y-16237184D01*
X6568396Y-16237184D02*
X6511253Y-16237184D01*
X6511253Y-16237184D02*
X6492206Y-16227660D01*
X6492206Y-16227660D02*
X6482682Y-16218136D01*
X6701729Y-16237184D02*
X6739825Y-16237184D01*
X6739825Y-16237184D02*
X6758872Y-16227660D01*
X6758872Y-16227660D02*
X6768396Y-16218136D01*
X6768396Y-16218136D02*
X6787444Y-16189565D01*
X6787444Y-16189565D02*
X6796967Y-16151469D01*
X6796967Y-16151469D02*
X6796967Y-16075279D01*
X6796967Y-16075279D02*
X6787444Y-16056231D01*
X6787444Y-16056231D02*
X6777920Y-16046708D01*
X6777920Y-16046708D02*
X6758872Y-16037184D01*
X6758872Y-16037184D02*
X6720777Y-16037184D01*
X6720777Y-16037184D02*
X6701729Y-16046708D01*
X6701729Y-16046708D02*
X6692206Y-16056231D01*
X6692206Y-16056231D02*
X6682682Y-16075279D01*
X6682682Y-16075279D02*
X6682682Y-16122898D01*
X6682682Y-16122898D02*
X6692206Y-16141946D01*
X6692206Y-16141946D02*
X6701729Y-16151469D01*
X6701729Y-16151469D02*
X6720777Y-16160993D01*
X6720777Y-16160993D02*
X6758872Y-16160993D01*
X6758872Y-16160993D02*
X6777920Y-16151469D01*
X6777920Y-16151469D02*
X6787444Y-16141946D01*
X6787444Y-16141946D02*
X6796967Y-16122898D01*
X6968396Y-16103850D02*
X6968396Y-16237184D01*
X6920777Y-16027660D02*
X6873158Y-16170517D01*
X6873158Y-16170517D02*
X6996967Y-16170517D01*
X7063634Y-16037184D02*
X7063634Y-16075279D01*
X7139825Y-16037184D02*
X7139825Y-16075279D01*
X7435063Y-16313374D02*
X7425539Y-16303850D01*
X7425539Y-16303850D02*
X7406491Y-16275279D01*
X7406491Y-16275279D02*
X7396968Y-16256231D01*
X7396968Y-16256231D02*
X7387444Y-16227660D01*
X7387444Y-16227660D02*
X7377920Y-16180041D01*
X7377920Y-16180041D02*
X7377920Y-16141946D01*
X7377920Y-16141946D02*
X7387444Y-16094327D01*
X7387444Y-16094327D02*
X7396968Y-16065755D01*
X7396968Y-16065755D02*
X7406491Y-16046708D01*
X7406491Y-16046708D02*
X7425539Y-16018136D01*
X7425539Y-16018136D02*
X7435063Y-16008612D01*
X7616015Y-16237184D02*
X7501729Y-16237184D01*
X7558872Y-16237184D02*
X7558872Y-16037184D01*
X7558872Y-16037184D02*
X7539825Y-16065755D01*
X7539825Y-16065755D02*
X7520777Y-16084803D01*
X7520777Y-16084803D02*
X7501729Y-16094327D01*
X7682682Y-16037184D02*
X7806491Y-16037184D01*
X7806491Y-16037184D02*
X7739825Y-16113374D01*
X7739825Y-16113374D02*
X7768396Y-16113374D01*
X7768396Y-16113374D02*
X7787444Y-16122898D01*
X7787444Y-16122898D02*
X7796968Y-16132422D01*
X7796968Y-16132422D02*
X7806491Y-16151469D01*
X7806491Y-16151469D02*
X7806491Y-16199088D01*
X7806491Y-16199088D02*
X7796968Y-16218136D01*
X7796968Y-16218136D02*
X7787444Y-16227660D01*
X7787444Y-16227660D02*
X7768396Y-16237184D01*
X7768396Y-16237184D02*
X7711253Y-16237184D01*
X7711253Y-16237184D02*
X7692206Y-16227660D01*
X7692206Y-16227660D02*
X7682682Y-16218136D01*
X8044587Y-16237184D02*
X8044587Y-16037184D01*
X8130301Y-16237184D02*
X8130301Y-16132422D01*
X8130301Y-16132422D02*
X8120777Y-16113374D01*
X8120777Y-16113374D02*
X8101730Y-16103850D01*
X8101730Y-16103850D02*
X8073158Y-16103850D01*
X8073158Y-16103850D02*
X8054110Y-16113374D01*
X8054110Y-16113374D02*
X8044587Y-16122898D01*
X8254110Y-16237184D02*
X8235063Y-16227660D01*
X8235063Y-16227660D02*
X8225539Y-16218136D01*
X8225539Y-16218136D02*
X8216015Y-16199088D01*
X8216015Y-16199088D02*
X8216015Y-16141946D01*
X8216015Y-16141946D02*
X8225539Y-16122898D01*
X8225539Y-16122898D02*
X8235063Y-16113374D01*
X8235063Y-16113374D02*
X8254110Y-16103850D01*
X8254110Y-16103850D02*
X8282682Y-16103850D01*
X8282682Y-16103850D02*
X8301730Y-16113374D01*
X8301730Y-16113374D02*
X8311253Y-16122898D01*
X8311253Y-16122898D02*
X8320777Y-16141946D01*
X8320777Y-16141946D02*
X8320777Y-16199088D01*
X8320777Y-16199088D02*
X8311253Y-16218136D01*
X8311253Y-16218136D02*
X8301730Y-16227660D01*
X8301730Y-16227660D02*
X8282682Y-16237184D01*
X8282682Y-16237184D02*
X8254110Y-16237184D01*
X8435063Y-16237184D02*
X8416015Y-16227660D01*
X8416015Y-16227660D02*
X8406492Y-16208612D01*
X8406492Y-16208612D02*
X8406492Y-16037184D01*
X8587444Y-16227660D02*
X8568396Y-16237184D01*
X8568396Y-16237184D02*
X8530301Y-16237184D01*
X8530301Y-16237184D02*
X8511253Y-16227660D01*
X8511253Y-16227660D02*
X8501730Y-16208612D01*
X8501730Y-16208612D02*
X8501730Y-16132422D01*
X8501730Y-16132422D02*
X8511253Y-16113374D01*
X8511253Y-16113374D02*
X8530301Y-16103850D01*
X8530301Y-16103850D02*
X8568396Y-16103850D01*
X8568396Y-16103850D02*
X8587444Y-16113374D01*
X8587444Y-16113374D02*
X8596968Y-16132422D01*
X8596968Y-16132422D02*
X8596968Y-16151469D01*
X8596968Y-16151469D02*
X8501730Y-16170517D01*
X8673158Y-16227660D02*
X8692206Y-16237184D01*
X8692206Y-16237184D02*
X8730301Y-16237184D01*
X8730301Y-16237184D02*
X8749349Y-16227660D01*
X8749349Y-16227660D02*
X8758873Y-16208612D01*
X8758873Y-16208612D02*
X8758873Y-16199088D01*
X8758873Y-16199088D02*
X8749349Y-16180041D01*
X8749349Y-16180041D02*
X8730301Y-16170517D01*
X8730301Y-16170517D02*
X8701730Y-16170517D01*
X8701730Y-16170517D02*
X8682682Y-16160993D01*
X8682682Y-16160993D02*
X8673158Y-16141946D01*
X8673158Y-16141946D02*
X8673158Y-16132422D01*
X8673158Y-16132422D02*
X8682682Y-16113374D01*
X8682682Y-16113374D02*
X8701730Y-16103850D01*
X8701730Y-16103850D02*
X8730301Y-16103850D01*
X8730301Y-16103850D02*
X8749349Y-16113374D01*
X8825539Y-16313374D02*
X8835063Y-16303850D01*
X8835063Y-16303850D02*
X8854111Y-16275279D01*
X8854111Y-16275279D02*
X8863634Y-16256231D01*
X8863634Y-16256231D02*
X8873158Y-16227660D01*
X8873158Y-16227660D02*
X8882682Y-16180041D01*
X8882682Y-16180041D02*
X8882682Y-16141946D01*
X8882682Y-16141946D02*
X8873158Y-16094327D01*
X8873158Y-16094327D02*
X8863634Y-16065755D01*
X8863634Y-16065755D02*
X8854111Y-16046708D01*
X8854111Y-16046708D02*
X8835063Y-16018136D01*
X8835063Y-16018136D02*
X8825539Y-16008612D01*
D13*
X3800000Y-16469700D02*
X3860000Y-16409700D01*
X3800000Y-16349700D01*
X3740000Y-16409700D01*
X3800000Y-16469700D01*
D11*
X4225539Y-16501184D02*
X4111253Y-16501184D01*
X4168396Y-16501184D02*
X4168396Y-16301184D01*
X4168396Y-16301184D02*
X4149348Y-16329755D01*
X4149348Y-16329755D02*
X4130301Y-16348803D01*
X4130301Y-16348803D02*
X4111253Y-16358327D01*
X4311253Y-16482136D02*
X4320777Y-16491660D01*
X4320777Y-16491660D02*
X4311253Y-16501184D01*
X4311253Y-16501184D02*
X4301729Y-16491660D01*
X4301729Y-16491660D02*
X4311253Y-16482136D01*
X4311253Y-16482136D02*
X4311253Y-16501184D01*
X4396967Y-16320231D02*
X4406491Y-16310708D01*
X4406491Y-16310708D02*
X4425539Y-16301184D01*
X4425539Y-16301184D02*
X4473158Y-16301184D01*
X4473158Y-16301184D02*
X4492205Y-16310708D01*
X4492205Y-16310708D02*
X4501729Y-16320231D01*
X4501729Y-16320231D02*
X4511253Y-16339279D01*
X4511253Y-16339279D02*
X4511253Y-16358327D01*
X4511253Y-16358327D02*
X4501729Y-16386898D01*
X4501729Y-16386898D02*
X4387444Y-16501184D01*
X4387444Y-16501184D02*
X4511253Y-16501184D01*
X4635063Y-16301184D02*
X4654110Y-16301184D01*
X4654110Y-16301184D02*
X4673158Y-16310708D01*
X4673158Y-16310708D02*
X4682682Y-16320231D01*
X4682682Y-16320231D02*
X4692205Y-16339279D01*
X4692205Y-16339279D02*
X4701729Y-16377374D01*
X4701729Y-16377374D02*
X4701729Y-16424993D01*
X4701729Y-16424993D02*
X4692205Y-16463088D01*
X4692205Y-16463088D02*
X4682682Y-16482136D01*
X4682682Y-16482136D02*
X4673158Y-16491660D01*
X4673158Y-16491660D02*
X4654110Y-16501184D01*
X4654110Y-16501184D02*
X4635063Y-16501184D01*
X4635063Y-16501184D02*
X4616015Y-16491660D01*
X4616015Y-16491660D02*
X4606491Y-16482136D01*
X4606491Y-16482136D02*
X4596967Y-16463088D01*
X4596967Y-16463088D02*
X4587444Y-16424993D01*
X4587444Y-16424993D02*
X4587444Y-16377374D01*
X4587444Y-16377374D02*
X4596967Y-16339279D01*
X4596967Y-16339279D02*
X4606491Y-16320231D01*
X4606491Y-16320231D02*
X4616015Y-16310708D01*
X4616015Y-16310708D02*
X4635063Y-16301184D01*
X4825539Y-16301184D02*
X4844586Y-16301184D01*
X4844586Y-16301184D02*
X4863634Y-16310708D01*
X4863634Y-16310708D02*
X4873158Y-16320231D01*
X4873158Y-16320231D02*
X4882682Y-16339279D01*
X4882682Y-16339279D02*
X4892205Y-16377374D01*
X4892205Y-16377374D02*
X4892205Y-16424993D01*
X4892205Y-16424993D02*
X4882682Y-16463088D01*
X4882682Y-16463088D02*
X4873158Y-16482136D01*
X4873158Y-16482136D02*
X4863634Y-16491660D01*
X4863634Y-16491660D02*
X4844586Y-16501184D01*
X4844586Y-16501184D02*
X4825539Y-16501184D01*
X4825539Y-16501184D02*
X4806491Y-16491660D01*
X4806491Y-16491660D02*
X4796967Y-16482136D01*
X4796967Y-16482136D02*
X4787444Y-16463088D01*
X4787444Y-16463088D02*
X4777920Y-16424993D01*
X4777920Y-16424993D02*
X4777920Y-16377374D01*
X4777920Y-16377374D02*
X4787444Y-16339279D01*
X4787444Y-16339279D02*
X4796967Y-16320231D01*
X4796967Y-16320231D02*
X4806491Y-16310708D01*
X4806491Y-16310708D02*
X4825539Y-16301184D01*
X4977920Y-16501184D02*
X4977920Y-16367850D01*
X4977920Y-16386898D02*
X4987444Y-16377374D01*
X4987444Y-16377374D02*
X5006491Y-16367850D01*
X5006491Y-16367850D02*
X5035063Y-16367850D01*
X5035063Y-16367850D02*
X5054110Y-16377374D01*
X5054110Y-16377374D02*
X5063634Y-16396422D01*
X5063634Y-16396422D02*
X5063634Y-16501184D01*
X5063634Y-16396422D02*
X5073158Y-16377374D01*
X5073158Y-16377374D02*
X5092205Y-16367850D01*
X5092205Y-16367850D02*
X5120777Y-16367850D01*
X5120777Y-16367850D02*
X5139825Y-16377374D01*
X5139825Y-16377374D02*
X5149348Y-16396422D01*
X5149348Y-16396422D02*
X5149348Y-16501184D01*
X5244586Y-16501184D02*
X5244586Y-16367850D01*
X5244586Y-16386898D02*
X5254110Y-16377374D01*
X5254110Y-16377374D02*
X5273158Y-16367850D01*
X5273158Y-16367850D02*
X5301729Y-16367850D01*
X5301729Y-16367850D02*
X5320777Y-16377374D01*
X5320777Y-16377374D02*
X5330301Y-16396422D01*
X5330301Y-16396422D02*
X5330301Y-16501184D01*
X5330301Y-16396422D02*
X5339825Y-16377374D01*
X5339825Y-16377374D02*
X5358872Y-16367850D01*
X5358872Y-16367850D02*
X5387444Y-16367850D01*
X5387444Y-16367850D02*
X5406491Y-16377374D01*
X5406491Y-16377374D02*
X5416015Y-16396422D01*
X5416015Y-16396422D02*
X5416015Y-16501184D01*
X5806491Y-16291660D02*
X5635063Y-16548803D01*
X6063634Y-16301184D02*
X6082682Y-16301184D01*
X6082682Y-16301184D02*
X6101729Y-16310708D01*
X6101729Y-16310708D02*
X6111253Y-16320231D01*
X6111253Y-16320231D02*
X6120777Y-16339279D01*
X6120777Y-16339279D02*
X6130301Y-16377374D01*
X6130301Y-16377374D02*
X6130301Y-16424993D01*
X6130301Y-16424993D02*
X6120777Y-16463088D01*
X6120777Y-16463088D02*
X6111253Y-16482136D01*
X6111253Y-16482136D02*
X6101729Y-16491660D01*
X6101729Y-16491660D02*
X6082682Y-16501184D01*
X6082682Y-16501184D02*
X6063634Y-16501184D01*
X6063634Y-16501184D02*
X6044586Y-16491660D01*
X6044586Y-16491660D02*
X6035063Y-16482136D01*
X6035063Y-16482136D02*
X6025539Y-16463088D01*
X6025539Y-16463088D02*
X6016015Y-16424993D01*
X6016015Y-16424993D02*
X6016015Y-16377374D01*
X6016015Y-16377374D02*
X6025539Y-16339279D01*
X6025539Y-16339279D02*
X6035063Y-16320231D01*
X6035063Y-16320231D02*
X6044586Y-16310708D01*
X6044586Y-16310708D02*
X6063634Y-16301184D01*
X6216015Y-16482136D02*
X6225539Y-16491660D01*
X6225539Y-16491660D02*
X6216015Y-16501184D01*
X6216015Y-16501184D02*
X6206491Y-16491660D01*
X6206491Y-16491660D02*
X6216015Y-16482136D01*
X6216015Y-16482136D02*
X6216015Y-16501184D01*
X6349348Y-16301184D02*
X6368396Y-16301184D01*
X6368396Y-16301184D02*
X6387444Y-16310708D01*
X6387444Y-16310708D02*
X6396967Y-16320231D01*
X6396967Y-16320231D02*
X6406491Y-16339279D01*
X6406491Y-16339279D02*
X6416015Y-16377374D01*
X6416015Y-16377374D02*
X6416015Y-16424993D01*
X6416015Y-16424993D02*
X6406491Y-16463088D01*
X6406491Y-16463088D02*
X6396967Y-16482136D01*
X6396967Y-16482136D02*
X6387444Y-16491660D01*
X6387444Y-16491660D02*
X6368396Y-16501184D01*
X6368396Y-16501184D02*
X6349348Y-16501184D01*
X6349348Y-16501184D02*
X6330301Y-16491660D01*
X6330301Y-16491660D02*
X6320777Y-16482136D01*
X6320777Y-16482136D02*
X6311253Y-16463088D01*
X6311253Y-16463088D02*
X6301729Y-16424993D01*
X6301729Y-16424993D02*
X6301729Y-16377374D01*
X6301729Y-16377374D02*
X6311253Y-16339279D01*
X6311253Y-16339279D02*
X6320777Y-16320231D01*
X6320777Y-16320231D02*
X6330301Y-16310708D01*
X6330301Y-16310708D02*
X6349348Y-16301184D01*
X6587444Y-16367850D02*
X6587444Y-16501184D01*
X6539825Y-16291660D02*
X6492206Y-16434517D01*
X6492206Y-16434517D02*
X6616015Y-16434517D01*
X6673158Y-16301184D02*
X6806491Y-16301184D01*
X6806491Y-16301184D02*
X6720777Y-16501184D01*
X6873158Y-16320231D02*
X6882682Y-16310708D01*
X6882682Y-16310708D02*
X6901729Y-16301184D01*
X6901729Y-16301184D02*
X6949348Y-16301184D01*
X6949348Y-16301184D02*
X6968396Y-16310708D01*
X6968396Y-16310708D02*
X6977920Y-16320231D01*
X6977920Y-16320231D02*
X6987444Y-16339279D01*
X6987444Y-16339279D02*
X6987444Y-16358327D01*
X6987444Y-16358327D02*
X6977920Y-16386898D01*
X6977920Y-16386898D02*
X6863634Y-16501184D01*
X6863634Y-16501184D02*
X6987444Y-16501184D01*
X7063634Y-16301184D02*
X7063634Y-16339279D01*
X7139825Y-16301184D02*
X7139825Y-16339279D01*
X7435063Y-16577374D02*
X7425539Y-16567850D01*
X7425539Y-16567850D02*
X7406491Y-16539279D01*
X7406491Y-16539279D02*
X7396968Y-16520231D01*
X7396968Y-16520231D02*
X7387444Y-16491660D01*
X7387444Y-16491660D02*
X7377920Y-16444041D01*
X7377920Y-16444041D02*
X7377920Y-16405946D01*
X7377920Y-16405946D02*
X7387444Y-16358327D01*
X7387444Y-16358327D02*
X7396968Y-16329755D01*
X7396968Y-16329755D02*
X7406491Y-16310708D01*
X7406491Y-16310708D02*
X7425539Y-16282136D01*
X7425539Y-16282136D02*
X7435063Y-16272612D01*
X7501729Y-16320231D02*
X7511253Y-16310708D01*
X7511253Y-16310708D02*
X7530301Y-16301184D01*
X7530301Y-16301184D02*
X7577920Y-16301184D01*
X7577920Y-16301184D02*
X7596968Y-16310708D01*
X7596968Y-16310708D02*
X7606491Y-16320231D01*
X7606491Y-16320231D02*
X7616015Y-16339279D01*
X7616015Y-16339279D02*
X7616015Y-16358327D01*
X7616015Y-16358327D02*
X7606491Y-16386898D01*
X7606491Y-16386898D02*
X7492206Y-16501184D01*
X7492206Y-16501184D02*
X7616015Y-16501184D01*
X7711253Y-16501184D02*
X7749348Y-16501184D01*
X7749348Y-16501184D02*
X7768396Y-16491660D01*
X7768396Y-16491660D02*
X7777920Y-16482136D01*
X7777920Y-16482136D02*
X7796968Y-16453565D01*
X7796968Y-16453565D02*
X7806491Y-16415469D01*
X7806491Y-16415469D02*
X7806491Y-16339279D01*
X7806491Y-16339279D02*
X7796968Y-16320231D01*
X7796968Y-16320231D02*
X7787444Y-16310708D01*
X7787444Y-16310708D02*
X7768396Y-16301184D01*
X7768396Y-16301184D02*
X7730301Y-16301184D01*
X7730301Y-16301184D02*
X7711253Y-16310708D01*
X7711253Y-16310708D02*
X7701729Y-16320231D01*
X7701729Y-16320231D02*
X7692206Y-16339279D01*
X7692206Y-16339279D02*
X7692206Y-16386898D01*
X7692206Y-16386898D02*
X7701729Y-16405946D01*
X7701729Y-16405946D02*
X7711253Y-16415469D01*
X7711253Y-16415469D02*
X7730301Y-16424993D01*
X7730301Y-16424993D02*
X7768396Y-16424993D01*
X7768396Y-16424993D02*
X7787444Y-16415469D01*
X7787444Y-16415469D02*
X7796968Y-16405946D01*
X7796968Y-16405946D02*
X7806491Y-16386898D01*
X8044587Y-16501184D02*
X8044587Y-16301184D01*
X8130301Y-16501184D02*
X8130301Y-16396422D01*
X8130301Y-16396422D02*
X8120777Y-16377374D01*
X8120777Y-16377374D02*
X8101730Y-16367850D01*
X8101730Y-16367850D02*
X8073158Y-16367850D01*
X8073158Y-16367850D02*
X8054110Y-16377374D01*
X8054110Y-16377374D02*
X8044587Y-16386898D01*
X8254110Y-16501184D02*
X8235063Y-16491660D01*
X8235063Y-16491660D02*
X8225539Y-16482136D01*
X8225539Y-16482136D02*
X8216015Y-16463088D01*
X8216015Y-16463088D02*
X8216015Y-16405946D01*
X8216015Y-16405946D02*
X8225539Y-16386898D01*
X8225539Y-16386898D02*
X8235063Y-16377374D01*
X8235063Y-16377374D02*
X8254110Y-16367850D01*
X8254110Y-16367850D02*
X8282682Y-16367850D01*
X8282682Y-16367850D02*
X8301730Y-16377374D01*
X8301730Y-16377374D02*
X8311253Y-16386898D01*
X8311253Y-16386898D02*
X8320777Y-16405946D01*
X8320777Y-16405946D02*
X8320777Y-16463088D01*
X8320777Y-16463088D02*
X8311253Y-16482136D01*
X8311253Y-16482136D02*
X8301730Y-16491660D01*
X8301730Y-16491660D02*
X8282682Y-16501184D01*
X8282682Y-16501184D02*
X8254110Y-16501184D01*
X8435063Y-16501184D02*
X8416015Y-16491660D01*
X8416015Y-16491660D02*
X8406492Y-16472612D01*
X8406492Y-16472612D02*
X8406492Y-16301184D01*
X8587444Y-16491660D02*
X8568396Y-16501184D01*
X8568396Y-16501184D02*
X8530301Y-16501184D01*
X8530301Y-16501184D02*
X8511253Y-16491660D01*
X8511253Y-16491660D02*
X8501730Y-16472612D01*
X8501730Y-16472612D02*
X8501730Y-16396422D01*
X8501730Y-16396422D02*
X8511253Y-16377374D01*
X8511253Y-16377374D02*
X8530301Y-16367850D01*
X8530301Y-16367850D02*
X8568396Y-16367850D01*
X8568396Y-16367850D02*
X8587444Y-16377374D01*
X8587444Y-16377374D02*
X8596968Y-16396422D01*
X8596968Y-16396422D02*
X8596968Y-16415469D01*
X8596968Y-16415469D02*
X8501730Y-16434517D01*
X8673158Y-16491660D02*
X8692206Y-16501184D01*
X8692206Y-16501184D02*
X8730301Y-16501184D01*
X8730301Y-16501184D02*
X8749349Y-16491660D01*
X8749349Y-16491660D02*
X8758873Y-16472612D01*
X8758873Y-16472612D02*
X8758873Y-16463088D01*
X8758873Y-16463088D02*
X8749349Y-16444041D01*
X8749349Y-16444041D02*
X8730301Y-16434517D01*
X8730301Y-16434517D02*
X8701730Y-16434517D01*
X8701730Y-16434517D02*
X8682682Y-16424993D01*
X8682682Y-16424993D02*
X8673158Y-16405946D01*
X8673158Y-16405946D02*
X8673158Y-16396422D01*
X8673158Y-16396422D02*
X8682682Y-16377374D01*
X8682682Y-16377374D02*
X8701730Y-16367850D01*
X8701730Y-16367850D02*
X8730301Y-16367850D01*
X8730301Y-16367850D02*
X8749349Y-16377374D01*
X8825539Y-16577374D02*
X8835063Y-16567850D01*
X8835063Y-16567850D02*
X8854111Y-16539279D01*
X8854111Y-16539279D02*
X8863634Y-16520231D01*
X8863634Y-16520231D02*
X8873158Y-16491660D01*
X8873158Y-16491660D02*
X8882682Y-16444041D01*
X8882682Y-16444041D02*
X8882682Y-16405946D01*
X8882682Y-16405946D02*
X8873158Y-16358327D01*
X8873158Y-16358327D02*
X8863634Y-16329755D01*
X8863634Y-16329755D02*
X8854111Y-16310708D01*
X8854111Y-16310708D02*
X8835063Y-16282136D01*
X8835063Y-16282136D02*
X8825539Y-16272612D01*
X3660000Y-16573700D02*
X3860000Y-16773700D01*
X3860000Y-16573700D02*
X3660000Y-16773700D01*
X3860000Y-16673700D02*
G75*
G02*
X3660000Y-16673700I-100000J0D01*
G01*
X3660000Y-16673700D02*
G75*
G02*
X3860000Y-16673700I100000J0D01*
G01*
X4111253Y-16584231D02*
X4120777Y-16574708D01*
X4120777Y-16574708D02*
X4139824Y-16565184D01*
X4139824Y-16565184D02*
X4187443Y-16565184D01*
X4187443Y-16565184D02*
X4206491Y-16574708D01*
X4206491Y-16574708D02*
X4216015Y-16584231D01*
X4216015Y-16584231D02*
X4225539Y-16603279D01*
X4225539Y-16603279D02*
X4225539Y-16622327D01*
X4225539Y-16622327D02*
X4216015Y-16650898D01*
X4216015Y-16650898D02*
X4101729Y-16765184D01*
X4101729Y-16765184D02*
X4225539Y-16765184D01*
X4311253Y-16746136D02*
X4320777Y-16755660D01*
X4320777Y-16755660D02*
X4311253Y-16765184D01*
X4311253Y-16765184D02*
X4301729Y-16755660D01*
X4301729Y-16755660D02*
X4311253Y-16746136D01*
X4311253Y-16746136D02*
X4311253Y-16765184D01*
X4444586Y-16565184D02*
X4463634Y-16565184D01*
X4463634Y-16565184D02*
X4482682Y-16574708D01*
X4482682Y-16574708D02*
X4492205Y-16584231D01*
X4492205Y-16584231D02*
X4501729Y-16603279D01*
X4501729Y-16603279D02*
X4511253Y-16641374D01*
X4511253Y-16641374D02*
X4511253Y-16688993D01*
X4511253Y-16688993D02*
X4501729Y-16727088D01*
X4501729Y-16727088D02*
X4492205Y-16746136D01*
X4492205Y-16746136D02*
X4482682Y-16755660D01*
X4482682Y-16755660D02*
X4463634Y-16765184D01*
X4463634Y-16765184D02*
X4444586Y-16765184D01*
X4444586Y-16765184D02*
X4425539Y-16755660D01*
X4425539Y-16755660D02*
X4416015Y-16746136D01*
X4416015Y-16746136D02*
X4406491Y-16727088D01*
X4406491Y-16727088D02*
X4396967Y-16688993D01*
X4396967Y-16688993D02*
X4396967Y-16641374D01*
X4396967Y-16641374D02*
X4406491Y-16603279D01*
X4406491Y-16603279D02*
X4416015Y-16584231D01*
X4416015Y-16584231D02*
X4425539Y-16574708D01*
X4425539Y-16574708D02*
X4444586Y-16565184D01*
X4635063Y-16565184D02*
X4654110Y-16565184D01*
X4654110Y-16565184D02*
X4673158Y-16574708D01*
X4673158Y-16574708D02*
X4682682Y-16584231D01*
X4682682Y-16584231D02*
X4692205Y-16603279D01*
X4692205Y-16603279D02*
X4701729Y-16641374D01*
X4701729Y-16641374D02*
X4701729Y-16688993D01*
X4701729Y-16688993D02*
X4692205Y-16727088D01*
X4692205Y-16727088D02*
X4682682Y-16746136D01*
X4682682Y-16746136D02*
X4673158Y-16755660D01*
X4673158Y-16755660D02*
X4654110Y-16765184D01*
X4654110Y-16765184D02*
X4635063Y-16765184D01*
X4635063Y-16765184D02*
X4616015Y-16755660D01*
X4616015Y-16755660D02*
X4606491Y-16746136D01*
X4606491Y-16746136D02*
X4596967Y-16727088D01*
X4596967Y-16727088D02*
X4587444Y-16688993D01*
X4587444Y-16688993D02*
X4587444Y-16641374D01*
X4587444Y-16641374D02*
X4596967Y-16603279D01*
X4596967Y-16603279D02*
X4606491Y-16584231D01*
X4606491Y-16584231D02*
X4616015Y-16574708D01*
X4616015Y-16574708D02*
X4635063Y-16565184D01*
X4825539Y-16565184D02*
X4844586Y-16565184D01*
X4844586Y-16565184D02*
X4863634Y-16574708D01*
X4863634Y-16574708D02*
X4873158Y-16584231D01*
X4873158Y-16584231D02*
X4882682Y-16603279D01*
X4882682Y-16603279D02*
X4892205Y-16641374D01*
X4892205Y-16641374D02*
X4892205Y-16688993D01*
X4892205Y-16688993D02*
X4882682Y-16727088D01*
X4882682Y-16727088D02*
X4873158Y-16746136D01*
X4873158Y-16746136D02*
X4863634Y-16755660D01*
X4863634Y-16755660D02*
X4844586Y-16765184D01*
X4844586Y-16765184D02*
X4825539Y-16765184D01*
X4825539Y-16765184D02*
X4806491Y-16755660D01*
X4806491Y-16755660D02*
X4796967Y-16746136D01*
X4796967Y-16746136D02*
X4787444Y-16727088D01*
X4787444Y-16727088D02*
X4777920Y-16688993D01*
X4777920Y-16688993D02*
X4777920Y-16641374D01*
X4777920Y-16641374D02*
X4787444Y-16603279D01*
X4787444Y-16603279D02*
X4796967Y-16584231D01*
X4796967Y-16584231D02*
X4806491Y-16574708D01*
X4806491Y-16574708D02*
X4825539Y-16565184D01*
X4977920Y-16765184D02*
X4977920Y-16631850D01*
X4977920Y-16650898D02*
X4987444Y-16641374D01*
X4987444Y-16641374D02*
X5006491Y-16631850D01*
X5006491Y-16631850D02*
X5035063Y-16631850D01*
X5035063Y-16631850D02*
X5054110Y-16641374D01*
X5054110Y-16641374D02*
X5063634Y-16660422D01*
X5063634Y-16660422D02*
X5063634Y-16765184D01*
X5063634Y-16660422D02*
X5073158Y-16641374D01*
X5073158Y-16641374D02*
X5092205Y-16631850D01*
X5092205Y-16631850D02*
X5120777Y-16631850D01*
X5120777Y-16631850D02*
X5139825Y-16641374D01*
X5139825Y-16641374D02*
X5149348Y-16660422D01*
X5149348Y-16660422D02*
X5149348Y-16765184D01*
X5244586Y-16765184D02*
X5244586Y-16631850D01*
X5244586Y-16650898D02*
X5254110Y-16641374D01*
X5254110Y-16641374D02*
X5273158Y-16631850D01*
X5273158Y-16631850D02*
X5301729Y-16631850D01*
X5301729Y-16631850D02*
X5320777Y-16641374D01*
X5320777Y-16641374D02*
X5330301Y-16660422D01*
X5330301Y-16660422D02*
X5330301Y-16765184D01*
X5330301Y-16660422D02*
X5339825Y-16641374D01*
X5339825Y-16641374D02*
X5358872Y-16631850D01*
X5358872Y-16631850D02*
X5387444Y-16631850D01*
X5387444Y-16631850D02*
X5406491Y-16641374D01*
X5406491Y-16641374D02*
X5416015Y-16660422D01*
X5416015Y-16660422D02*
X5416015Y-16765184D01*
X5806491Y-16555660D02*
X5635063Y-16812803D01*
X6063634Y-16565184D02*
X6082682Y-16565184D01*
X6082682Y-16565184D02*
X6101729Y-16574708D01*
X6101729Y-16574708D02*
X6111253Y-16584231D01*
X6111253Y-16584231D02*
X6120777Y-16603279D01*
X6120777Y-16603279D02*
X6130301Y-16641374D01*
X6130301Y-16641374D02*
X6130301Y-16688993D01*
X6130301Y-16688993D02*
X6120777Y-16727088D01*
X6120777Y-16727088D02*
X6111253Y-16746136D01*
X6111253Y-16746136D02*
X6101729Y-16755660D01*
X6101729Y-16755660D02*
X6082682Y-16765184D01*
X6082682Y-16765184D02*
X6063634Y-16765184D01*
X6063634Y-16765184D02*
X6044586Y-16755660D01*
X6044586Y-16755660D02*
X6035063Y-16746136D01*
X6035063Y-16746136D02*
X6025539Y-16727088D01*
X6025539Y-16727088D02*
X6016015Y-16688993D01*
X6016015Y-16688993D02*
X6016015Y-16641374D01*
X6016015Y-16641374D02*
X6025539Y-16603279D01*
X6025539Y-16603279D02*
X6035063Y-16584231D01*
X6035063Y-16584231D02*
X6044586Y-16574708D01*
X6044586Y-16574708D02*
X6063634Y-16565184D01*
X6216015Y-16746136D02*
X6225539Y-16755660D01*
X6225539Y-16755660D02*
X6216015Y-16765184D01*
X6216015Y-16765184D02*
X6206491Y-16755660D01*
X6206491Y-16755660D02*
X6216015Y-16746136D01*
X6216015Y-16746136D02*
X6216015Y-16765184D01*
X6349348Y-16565184D02*
X6368396Y-16565184D01*
X6368396Y-16565184D02*
X6387444Y-16574708D01*
X6387444Y-16574708D02*
X6396967Y-16584231D01*
X6396967Y-16584231D02*
X6406491Y-16603279D01*
X6406491Y-16603279D02*
X6416015Y-16641374D01*
X6416015Y-16641374D02*
X6416015Y-16688993D01*
X6416015Y-16688993D02*
X6406491Y-16727088D01*
X6406491Y-16727088D02*
X6396967Y-16746136D01*
X6396967Y-16746136D02*
X6387444Y-16755660D01*
X6387444Y-16755660D02*
X6368396Y-16765184D01*
X6368396Y-16765184D02*
X6349348Y-16765184D01*
X6349348Y-16765184D02*
X6330301Y-16755660D01*
X6330301Y-16755660D02*
X6320777Y-16746136D01*
X6320777Y-16746136D02*
X6311253Y-16727088D01*
X6311253Y-16727088D02*
X6301729Y-16688993D01*
X6301729Y-16688993D02*
X6301729Y-16641374D01*
X6301729Y-16641374D02*
X6311253Y-16603279D01*
X6311253Y-16603279D02*
X6320777Y-16584231D01*
X6320777Y-16584231D02*
X6330301Y-16574708D01*
X6330301Y-16574708D02*
X6349348Y-16565184D01*
X6482682Y-16565184D02*
X6616015Y-16565184D01*
X6616015Y-16565184D02*
X6530301Y-16765184D01*
X6720777Y-16650898D02*
X6701729Y-16641374D01*
X6701729Y-16641374D02*
X6692206Y-16631850D01*
X6692206Y-16631850D02*
X6682682Y-16612803D01*
X6682682Y-16612803D02*
X6682682Y-16603279D01*
X6682682Y-16603279D02*
X6692206Y-16584231D01*
X6692206Y-16584231D02*
X6701729Y-16574708D01*
X6701729Y-16574708D02*
X6720777Y-16565184D01*
X6720777Y-16565184D02*
X6758872Y-16565184D01*
X6758872Y-16565184D02*
X6777920Y-16574708D01*
X6777920Y-16574708D02*
X6787444Y-16584231D01*
X6787444Y-16584231D02*
X6796967Y-16603279D01*
X6796967Y-16603279D02*
X6796967Y-16612803D01*
X6796967Y-16612803D02*
X6787444Y-16631850D01*
X6787444Y-16631850D02*
X6777920Y-16641374D01*
X6777920Y-16641374D02*
X6758872Y-16650898D01*
X6758872Y-16650898D02*
X6720777Y-16650898D01*
X6720777Y-16650898D02*
X6701729Y-16660422D01*
X6701729Y-16660422D02*
X6692206Y-16669946D01*
X6692206Y-16669946D02*
X6682682Y-16688993D01*
X6682682Y-16688993D02*
X6682682Y-16727088D01*
X6682682Y-16727088D02*
X6692206Y-16746136D01*
X6692206Y-16746136D02*
X6701729Y-16755660D01*
X6701729Y-16755660D02*
X6720777Y-16765184D01*
X6720777Y-16765184D02*
X6758872Y-16765184D01*
X6758872Y-16765184D02*
X6777920Y-16755660D01*
X6777920Y-16755660D02*
X6787444Y-16746136D01*
X6787444Y-16746136D02*
X6796967Y-16727088D01*
X6796967Y-16727088D02*
X6796967Y-16688993D01*
X6796967Y-16688993D02*
X6787444Y-16669946D01*
X6787444Y-16669946D02*
X6777920Y-16660422D01*
X6777920Y-16660422D02*
X6758872Y-16650898D01*
X6863634Y-16565184D02*
X6996967Y-16565184D01*
X6996967Y-16565184D02*
X6911253Y-16765184D01*
X7063634Y-16565184D02*
X7063634Y-16603279D01*
X7139825Y-16565184D02*
X7139825Y-16603279D01*
X7435063Y-16841374D02*
X7425539Y-16831850D01*
X7425539Y-16831850D02*
X7406491Y-16803279D01*
X7406491Y-16803279D02*
X7396968Y-16784231D01*
X7396968Y-16784231D02*
X7387444Y-16755660D01*
X7387444Y-16755660D02*
X7377920Y-16708041D01*
X7377920Y-16708041D02*
X7377920Y-16669946D01*
X7377920Y-16669946D02*
X7387444Y-16622327D01*
X7387444Y-16622327D02*
X7396968Y-16593755D01*
X7396968Y-16593755D02*
X7406491Y-16574708D01*
X7406491Y-16574708D02*
X7425539Y-16546136D01*
X7425539Y-16546136D02*
X7435063Y-16536612D01*
X7549348Y-16565184D02*
X7568396Y-16565184D01*
X7568396Y-16565184D02*
X7587444Y-16574708D01*
X7587444Y-16574708D02*
X7596968Y-16584231D01*
X7596968Y-16584231D02*
X7606491Y-16603279D01*
X7606491Y-16603279D02*
X7616015Y-16641374D01*
X7616015Y-16641374D02*
X7616015Y-16688993D01*
X7616015Y-16688993D02*
X7606491Y-16727088D01*
X7606491Y-16727088D02*
X7596968Y-16746136D01*
X7596968Y-16746136D02*
X7587444Y-16755660D01*
X7587444Y-16755660D02*
X7568396Y-16765184D01*
X7568396Y-16765184D02*
X7549348Y-16765184D01*
X7549348Y-16765184D02*
X7530301Y-16755660D01*
X7530301Y-16755660D02*
X7520777Y-16746136D01*
X7520777Y-16746136D02*
X7511253Y-16727088D01*
X7511253Y-16727088D02*
X7501729Y-16688993D01*
X7501729Y-16688993D02*
X7501729Y-16641374D01*
X7501729Y-16641374D02*
X7511253Y-16603279D01*
X7511253Y-16603279D02*
X7520777Y-16584231D01*
X7520777Y-16584231D02*
X7530301Y-16574708D01*
X7530301Y-16574708D02*
X7549348Y-16565184D01*
X7854110Y-16765184D02*
X7854110Y-16565184D01*
X7939825Y-16765184D02*
X7939825Y-16660422D01*
X7939825Y-16660422D02*
X7930301Y-16641374D01*
X7930301Y-16641374D02*
X7911253Y-16631850D01*
X7911253Y-16631850D02*
X7882682Y-16631850D01*
X7882682Y-16631850D02*
X7863634Y-16641374D01*
X7863634Y-16641374D02*
X7854110Y-16650898D01*
X8063634Y-16765184D02*
X8044587Y-16755660D01*
X8044587Y-16755660D02*
X8035063Y-16746136D01*
X8035063Y-16746136D02*
X8025539Y-16727088D01*
X8025539Y-16727088D02*
X8025539Y-16669946D01*
X8025539Y-16669946D02*
X8035063Y-16650898D01*
X8035063Y-16650898D02*
X8044587Y-16641374D01*
X8044587Y-16641374D02*
X8063634Y-16631850D01*
X8063634Y-16631850D02*
X8092206Y-16631850D01*
X8092206Y-16631850D02*
X8111253Y-16641374D01*
X8111253Y-16641374D02*
X8120777Y-16650898D01*
X8120777Y-16650898D02*
X8130301Y-16669946D01*
X8130301Y-16669946D02*
X8130301Y-16727088D01*
X8130301Y-16727088D02*
X8120777Y-16746136D01*
X8120777Y-16746136D02*
X8111253Y-16755660D01*
X8111253Y-16755660D02*
X8092206Y-16765184D01*
X8092206Y-16765184D02*
X8063634Y-16765184D01*
X8244587Y-16765184D02*
X8225539Y-16755660D01*
X8225539Y-16755660D02*
X8216015Y-16736612D01*
X8216015Y-16736612D02*
X8216015Y-16565184D01*
X8396968Y-16755660D02*
X8377920Y-16765184D01*
X8377920Y-16765184D02*
X8339825Y-16765184D01*
X8339825Y-16765184D02*
X8320777Y-16755660D01*
X8320777Y-16755660D02*
X8311253Y-16736612D01*
X8311253Y-16736612D02*
X8311253Y-16660422D01*
X8311253Y-16660422D02*
X8320777Y-16641374D01*
X8320777Y-16641374D02*
X8339825Y-16631850D01*
X8339825Y-16631850D02*
X8377920Y-16631850D01*
X8377920Y-16631850D02*
X8396968Y-16641374D01*
X8396968Y-16641374D02*
X8406492Y-16660422D01*
X8406492Y-16660422D02*
X8406492Y-16679469D01*
X8406492Y-16679469D02*
X8311253Y-16698517D01*
X8482682Y-16755660D02*
X8501730Y-16765184D01*
X8501730Y-16765184D02*
X8539825Y-16765184D01*
X8539825Y-16765184D02*
X8558873Y-16755660D01*
X8558873Y-16755660D02*
X8568396Y-16736612D01*
X8568396Y-16736612D02*
X8568396Y-16727088D01*
X8568396Y-16727088D02*
X8558873Y-16708041D01*
X8558873Y-16708041D02*
X8539825Y-16698517D01*
X8539825Y-16698517D02*
X8511253Y-16698517D01*
X8511253Y-16698517D02*
X8492206Y-16688993D01*
X8492206Y-16688993D02*
X8482682Y-16669946D01*
X8482682Y-16669946D02*
X8482682Y-16660422D01*
X8482682Y-16660422D02*
X8492206Y-16641374D01*
X8492206Y-16641374D02*
X8511253Y-16631850D01*
X8511253Y-16631850D02*
X8539825Y-16631850D01*
X8539825Y-16631850D02*
X8558873Y-16641374D01*
X8806492Y-16688993D02*
X8958873Y-16688993D01*
X8882682Y-16765184D02*
X8882682Y-16612803D01*
X9196968Y-16584231D02*
X9206492Y-16574708D01*
X9206492Y-16574708D02*
X9225539Y-16565184D01*
X9225539Y-16565184D02*
X9273158Y-16565184D01*
X9273158Y-16565184D02*
X9292206Y-16574708D01*
X9292206Y-16574708D02*
X9301730Y-16584231D01*
X9301730Y-16584231D02*
X9311254Y-16603279D01*
X9311254Y-16603279D02*
X9311254Y-16622327D01*
X9311254Y-16622327D02*
X9301730Y-16650898D01*
X9301730Y-16650898D02*
X9187444Y-16765184D01*
X9187444Y-16765184D02*
X9311254Y-16765184D01*
X9539825Y-16755660D02*
X9558873Y-16765184D01*
X9558873Y-16765184D02*
X9596968Y-16765184D01*
X9596968Y-16765184D02*
X9616016Y-16755660D01*
X9616016Y-16755660D02*
X9625539Y-16736612D01*
X9625539Y-16736612D02*
X9625539Y-16727088D01*
X9625539Y-16727088D02*
X9616016Y-16708041D01*
X9616016Y-16708041D02*
X9596968Y-16698517D01*
X9596968Y-16698517D02*
X9568396Y-16698517D01*
X9568396Y-16698517D02*
X9549349Y-16688993D01*
X9549349Y-16688993D02*
X9539825Y-16669946D01*
X9539825Y-16669946D02*
X9539825Y-16660422D01*
X9539825Y-16660422D02*
X9549349Y-16641374D01*
X9549349Y-16641374D02*
X9568396Y-16631850D01*
X9568396Y-16631850D02*
X9596968Y-16631850D01*
X9596968Y-16631850D02*
X9616016Y-16641374D01*
X9739825Y-16765184D02*
X9720777Y-16755660D01*
X9720777Y-16755660D02*
X9711254Y-16736612D01*
X9711254Y-16736612D02*
X9711254Y-16565184D01*
X9844587Y-16765184D02*
X9825539Y-16755660D01*
X9825539Y-16755660D02*
X9816016Y-16746136D01*
X9816016Y-16746136D02*
X9806492Y-16727088D01*
X9806492Y-16727088D02*
X9806492Y-16669946D01*
X9806492Y-16669946D02*
X9816016Y-16650898D01*
X9816016Y-16650898D02*
X9825539Y-16641374D01*
X9825539Y-16641374D02*
X9844587Y-16631850D01*
X9844587Y-16631850D02*
X9873158Y-16631850D01*
X9873158Y-16631850D02*
X9892206Y-16641374D01*
X9892206Y-16641374D02*
X9901730Y-16650898D01*
X9901730Y-16650898D02*
X9911254Y-16669946D01*
X9911254Y-16669946D02*
X9911254Y-16727088D01*
X9911254Y-16727088D02*
X9901730Y-16746136D01*
X9901730Y-16746136D02*
X9892206Y-16755660D01*
X9892206Y-16755660D02*
X9873158Y-16765184D01*
X9873158Y-16765184D02*
X9844587Y-16765184D01*
X9968397Y-16631850D02*
X10044587Y-16631850D01*
X9996968Y-16565184D02*
X9996968Y-16736612D01*
X9996968Y-16736612D02*
X10006492Y-16755660D01*
X10006492Y-16755660D02*
X10025539Y-16765184D01*
X10025539Y-16765184D02*
X10044587Y-16765184D01*
X10101730Y-16755660D02*
X10120777Y-16765184D01*
X10120777Y-16765184D02*
X10158873Y-16765184D01*
X10158873Y-16765184D02*
X10177920Y-16755660D01*
X10177920Y-16755660D02*
X10187444Y-16736612D01*
X10187444Y-16736612D02*
X10187444Y-16727088D01*
X10187444Y-16727088D02*
X10177920Y-16708041D01*
X10177920Y-16708041D02*
X10158873Y-16698517D01*
X10158873Y-16698517D02*
X10130301Y-16698517D01*
X10130301Y-16698517D02*
X10111254Y-16688993D01*
X10111254Y-16688993D02*
X10101730Y-16669946D01*
X10101730Y-16669946D02*
X10101730Y-16660422D01*
X10101730Y-16660422D02*
X10111254Y-16641374D01*
X10111254Y-16641374D02*
X10130301Y-16631850D01*
X10130301Y-16631850D02*
X10158873Y-16631850D01*
X10158873Y-16631850D02*
X10177920Y-16641374D01*
X10254111Y-16841374D02*
X10263635Y-16831850D01*
X10263635Y-16831850D02*
X10282682Y-16803279D01*
X10282682Y-16803279D02*
X10292206Y-16784231D01*
X10292206Y-16784231D02*
X10301730Y-16755660D01*
X10301730Y-16755660D02*
X10311254Y-16708041D01*
X10311254Y-16708041D02*
X10311254Y-16669946D01*
X10311254Y-16669946D02*
X10301730Y-16622327D01*
X10301730Y-16622327D02*
X10292206Y-16593755D01*
X10292206Y-16593755D02*
X10282682Y-16574708D01*
X10282682Y-16574708D02*
X10263635Y-16546136D01*
X10263635Y-16546136D02*
X10254111Y-16536612D01*
M02*
