M48
; DRILL file KiCad 10.0.0 date 2026-04-01T17:16:30
; FORMAT={-:-/ absolute / metric / decimal}
; #@! TF.CreationDate,2026-04-01T17:16:30+03:00
; #@! TF.GenerationSoftware,Kicad,Pcbnew,10.0.0
; #@! TF.FileFunction,NonPlated,1,2,NPTH
FMAT,2
METRIC
; #@! TA.AperFunction,NonPlated,NPTH,ComponentDrill
T1C1.750
; #@! TA.AperFunction,NonPlated,NPTH,ComponentDrill
T2C3.048
; #@! TA.AperFunction,NonPlated,NPTH,ComponentDrill
T3C3.050
; #@! TA.AperFunction,NonPlated,NPTH,ComponentDrill
T4C3.988
; #@! TA.AperFunction,NonPlated,NPTH,ComponentDrill
T5C4.000
%
G90
G05
T1
X42.545Y-61.912
X42.545Y-80.962
X42.545Y-100.012
X42.545Y-119.062
X52.07Y-138.112
X52.705Y-61.912
X52.705Y-80.962
X52.705Y-100.012
X52.705Y-119.062
X61.595Y-61.912
X61.595Y-80.962
X61.595Y-100.012
X61.595Y-119.062
X62.23Y-138.112
X71.755Y-61.912
X71.755Y-80.962
X71.755Y-100.012
X71.755Y-119.062
X80.645Y-61.912
X80.645Y-80.962
X80.645Y-100.012
X80.645Y-119.062
X80.645Y-138.112
X90.805Y-61.912
X90.805Y-80.962
X90.805Y-100.012
X90.805Y-119.062
X90.805Y-138.112
X99.695Y-61.912
X99.695Y-90.487
X99.695Y-128.588
X109.855Y-61.912
X109.855Y-90.487
X109.855Y-128.588
X128.27Y-38.1
X128.27Y-61.912
X130.651Y-80.962
X130.651Y-138.112
X133.032Y-100.012
X137.795Y-119.062
X138.43Y-38.1
X138.43Y-61.912
X140.811Y-80.962
X140.811Y-138.112
X143.192Y-100.012
X147.32Y-61.912
X147.955Y-119.062
X152.082Y-38.1
X152.082Y-80.962
X154.464Y-138.112
X156.845Y-100.012
X157.48Y-61.912
X162.243Y-38.1
X162.243Y-80.962
X164.624Y-138.112
X166.37Y-61.912
X166.37Y-119.062
X167.005Y-100.012
X171.132Y-38.1
X171.132Y-80.962
X175.895Y-100.012
X176.53Y-61.912
X176.53Y-119.062
X178.276Y-138.112
X181.292Y-38.1
X181.292Y-80.962
X185.42Y-61.912
X185.42Y-119.062
X186.055Y-100.012
X188.436Y-138.112
X190.183Y-38.1
X190.183Y-80.962
X194.945Y-100.012
X195.58Y-61.912
X195.58Y-119.062
X200.343Y-38.1
X200.343Y-80.962
X204.47Y-61.912
X204.47Y-119.062
X205.105Y-100.012
X209.232Y-38.1
X209.232Y-80.962
X213.995Y-100.012
X214.63Y-61.912
X214.63Y-119.062
X219.392Y-38.1
X219.392Y-80.962
X223.52Y-61.912
X223.52Y-119.062
X224.155Y-100.012
X228.282Y-80.962
X233.045Y-38.1
X233.045Y-100.012
X233.68Y-61.912
X233.68Y-119.062
X238.442Y-80.962
X242.57Y-61.912
X242.57Y-119.062
X243.205Y-38.1
X243.205Y-100.012
X247.332Y-80.962
X249.714Y-138.112
X252.095Y-38.1
X252.095Y-100.012
X252.73Y-61.912
X252.73Y-119.062
X257.493Y-80.962
X259.874Y-138.112
X261.62Y-61.912
X261.62Y-119.062
X262.255Y-38.1
X262.255Y-100.012
X266.382Y-80.962
X271.145Y-38.1
X271.145Y-100.012
X271.78Y-61.912
X271.78Y-119.062
X276.542Y-80.962
X280.67Y-61.912
X280.67Y-119.062
X281.305Y-38.1
X281.305Y-100.012
X285.433Y-80.962
X290.195Y-38.1
X290.195Y-100.012
X290.83Y-61.912
X290.83Y-119.062
X295.592Y-80.962
X299.72Y-61.912
X299.72Y-119.062
X300.355Y-38.1
X300.355Y-100.012
X304.482Y-80.962
X309.245Y-100.012
X309.88Y-61.912
X309.88Y-119.062
X314.007Y-38.1
X314.642Y-80.962
X318.77Y-61.912
X318.77Y-119.062
X319.405Y-100.012
X321.151Y-138.112
X323.532Y-80.962
X324.167Y-38.1
X328.295Y-100.012
X328.93Y-61.912
X328.93Y-119.062
X331.311Y-138.112
X333.058Y-38.1
X333.692Y-80.962
X337.82Y-61.912
X337.82Y-119.062
X338.455Y-100.012
X342.582Y-80.962
X343.217Y-38.1
X344.964Y-138.112
X347.345Y-100.012
X347.98Y-61.912
X347.98Y-119.062
X352.107Y-38.1
X352.743Y-80.962
X355.124Y-138.112
X356.87Y-61.912
X357.505Y-100.012
X361.632Y-80.962
X362.267Y-38.1
X366.395Y-100.012
X367.03Y-61.912
X368.776Y-138.112
X371.157Y-38.1
X371.792Y-80.962
X373.539Y-119.062
X376.555Y-100.012
X378.936Y-138.112
X381.317Y-38.1
X383.064Y-61.912
X383.699Y-119.062
X387.826Y-90.487
X390.207Y-38.1
X390.207Y-138.112
X393.224Y-61.912
X397.986Y-90.487
X400.368Y-38.1
X400.368Y-138.112
X418.782Y-71.438
X418.782Y-90.487
X418.782Y-138.112
X428.942Y-71.438
X428.942Y-90.487
X428.942Y-138.112
X437.832Y-71.438
X437.832Y-90.487
X437.832Y-119.062
X437.832Y-138.112
X447.993Y-71.438
X447.993Y-90.487
X447.993Y-119.062
X447.993Y-138.112
X456.882Y-71.438
X456.882Y-90.487
X456.882Y-138.112
X467.042Y-71.438
X467.042Y-90.487
X467.042Y-138.112
T2
X97.79Y-78.549
X97.79Y-102.425
X97.79Y-116.649
X97.79Y-140.525
X130.937Y-112.078
X154.813Y-112.078
X366.681Y-126.047
X376.206Y-54.927
X385.921Y-78.549
X385.921Y-102.425
X390.557Y-126.047
X400.082Y-54.927
T3
X43.815Y-59.372
X43.815Y-78.422
X43.815Y-97.472
X43.815Y-116.522
X50.165Y-56.832
X50.165Y-75.882
X50.165Y-94.932
X50.165Y-113.983
X53.34Y-135.572
X59.69Y-133.032
X62.865Y-59.372
X62.865Y-78.422
X62.865Y-97.472
X62.865Y-116.522
X69.215Y-56.832
X69.215Y-75.882
X69.215Y-94.932
X69.215Y-113.983
X81.915Y-59.372
X81.915Y-78.422
X81.915Y-97.472
X81.915Y-116.522
X81.915Y-135.572
X88.265Y-56.832
X88.265Y-75.882
X88.265Y-94.932
X88.265Y-113.983
X88.265Y-133.032
X100.965Y-59.372
X100.965Y-87.947
X100.965Y-126.047
X107.315Y-56.832
X107.315Y-85.407
X107.315Y-123.507
X129.54Y-35.56
X129.54Y-59.372
X131.921Y-78.422
X131.921Y-135.572
X134.302Y-97.472
X135.89Y-33.02
X135.89Y-56.832
X138.271Y-75.882
X138.271Y-133.032
X139.065Y-116.522
X140.653Y-94.932
X145.415Y-113.983
X148.59Y-59.372
X153.352Y-35.56
X153.352Y-78.422
X154.94Y-56.832
X155.734Y-135.572
X158.115Y-97.472
X159.702Y-33.02
X159.702Y-75.882
X162.084Y-133.032
X164.465Y-94.932
X167.64Y-59.372
X167.64Y-116.522
X172.403Y-35.56
X172.403Y-78.422
X173.99Y-56.832
X173.99Y-113.983
X177.165Y-97.472
X178.752Y-33.02
X178.752Y-75.882
X179.546Y-135.572
X183.515Y-94.932
X185.896Y-133.032
X186.69Y-59.372
X186.69Y-116.522
X191.452Y-35.56
X191.452Y-78.422
X193.04Y-56.832
X193.04Y-113.983
X196.215Y-97.472
X197.802Y-33.02
X197.802Y-75.882
X202.565Y-94.932
X205.74Y-59.372
X205.74Y-116.522
X210.502Y-35.56
X210.502Y-78.422
X212.09Y-56.832
X212.09Y-113.983
X215.265Y-97.472
X216.852Y-33.02
X216.852Y-75.882
X221.615Y-94.932
X224.79Y-59.372
X224.79Y-116.522
X229.552Y-78.422
X231.14Y-56.832
X231.14Y-113.983
X234.315Y-35.56
X234.315Y-97.472
X235.903Y-75.882
X240.665Y-33.02
X240.665Y-94.932
X243.84Y-59.372
X243.84Y-116.522
X248.602Y-78.422
X250.19Y-56.832
X250.19Y-113.983
X250.984Y-135.572
X253.365Y-35.56
X253.365Y-97.472
X254.952Y-75.882
X257.334Y-133.032
X259.715Y-33.02
X259.715Y-94.932
X262.89Y-59.372
X262.89Y-116.522
X267.652Y-78.422
X269.24Y-56.832
X269.24Y-113.983
X272.415Y-35.56
X272.415Y-97.472
X274.002Y-75.882
X278.765Y-33.02
X278.765Y-94.932
X281.94Y-59.372
X281.94Y-116.522
X286.702Y-78.422
X288.29Y-56.832
X288.29Y-113.983
X291.465Y-35.56
X291.465Y-97.472
X293.053Y-75.882
X297.815Y-33.02
X297.815Y-94.932
X300.99Y-59.372
X300.99Y-116.522
X305.752Y-78.422
X307.34Y-56.832
X307.34Y-113.983
X310.515Y-97.472
X312.102Y-75.882
X315.277Y-35.56
X316.865Y-94.932
X320.04Y-59.372
X320.04Y-116.522
X321.627Y-33.02
X322.421Y-135.572
X324.803Y-78.422
X326.39Y-56.832
X326.39Y-113.983
X328.771Y-133.032
X329.565Y-97.472
X331.152Y-75.882
X334.327Y-35.56
X335.915Y-94.932
X339.09Y-59.372
X339.09Y-116.522
X340.678Y-33.02
X343.852Y-78.422
X345.44Y-56.832
X345.44Y-113.983
X346.234Y-135.572
X348.615Y-97.472
X350.202Y-75.882
X352.584Y-133.032
X353.377Y-35.56
X354.965Y-94.932
X358.14Y-59.372
X359.727Y-33.02
X362.902Y-78.422
X364.49Y-56.832
X367.665Y-97.472
X369.252Y-75.882
X370.046Y-135.572
X372.428Y-35.56
X374.015Y-94.932
X374.809Y-116.522
X376.396Y-133.032
X378.777Y-33.02
X381.159Y-113.983
X384.334Y-59.372
X389.096Y-87.947
X390.684Y-56.832
X391.477Y-35.56
X391.477Y-135.572
X395.446Y-85.407
X397.827Y-33.02
X397.827Y-133.032
X420.053Y-68.897
X420.053Y-87.947
X420.053Y-135.572
X426.402Y-66.358
X426.402Y-85.407
X426.402Y-133.032
X439.102Y-68.897
X439.102Y-87.947
X439.102Y-116.522
X439.102Y-135.572
X445.452Y-66.358
X445.452Y-85.407
X445.452Y-113.983
X445.452Y-133.032
X458.152Y-68.897
X458.152Y-87.947
X458.152Y-135.572
X464.502Y-66.358
X464.502Y-85.407
X464.502Y-133.032
T4
X113.0Y-78.549
X113.0Y-102.425
X113.0Y-116.649
X113.0Y-140.525
X130.937Y-127.287
X154.813Y-127.287
X204.794Y-129.887
X304.794Y-129.887
X366.681Y-110.837
X376.206Y-70.138
X390.557Y-110.837
X400.082Y-70.138
X401.131Y-78.549
X401.131Y-102.425
T5
X47.625Y-61.912
X47.625Y-80.962
X47.625Y-100.012
X47.625Y-119.062
X57.15Y-138.112
X66.675Y-61.912
X66.675Y-80.962
X66.675Y-100.012
X66.675Y-119.062
X85.725Y-61.912
X85.725Y-80.962
X85.725Y-100.012
X85.725Y-119.062
X85.725Y-138.112
X104.775Y-61.912
X104.775Y-90.487
X104.775Y-128.588
X133.35Y-38.1
X133.35Y-61.912
X135.731Y-80.962
X135.731Y-138.112
X138.112Y-100.012
X142.875Y-119.062
X152.4Y-61.912
X157.162Y-38.1
X157.162Y-80.962
X159.544Y-138.112
X161.925Y-100.012
X171.45Y-61.912
X171.45Y-119.062
X176.213Y-38.1
X176.213Y-80.962
X180.975Y-100.012
X183.356Y-138.112
X190.5Y-61.912
X190.5Y-119.062
X195.262Y-38.1
X195.262Y-80.962
X200.025Y-100.012
X209.55Y-61.912
X209.55Y-119.062
X214.312Y-38.1
X214.312Y-80.962
X219.075Y-100.012
X228.6Y-61.912
X228.6Y-119.062
X233.362Y-80.962
X238.125Y-38.1
X238.125Y-100.012
X247.65Y-61.912
X247.65Y-119.062
X252.412Y-80.962
X254.794Y-138.112
X257.175Y-38.1
X257.175Y-100.012
X266.7Y-61.912
X266.7Y-119.062
X271.462Y-80.962
X276.225Y-38.1
X276.225Y-100.012
X285.75Y-61.912
X285.75Y-119.062
X290.512Y-80.962
X295.275Y-38.1
X295.275Y-100.012
X304.8Y-61.912
X304.8Y-119.062
X309.562Y-80.962
X314.325Y-100.012
X319.087Y-38.1
X323.85Y-61.912
X323.85Y-119.062
X326.231Y-138.112
X328.613Y-80.962
X333.375Y-100.012
X338.137Y-38.1
X342.9Y-61.912
X342.9Y-119.062
X347.662Y-80.962
X350.044Y-138.112
X352.425Y-100.012
X357.188Y-38.1
X361.95Y-61.912
X366.712Y-80.962
X371.475Y-100.012
X373.856Y-138.112
X376.238Y-38.1
X378.619Y-119.062
X388.144Y-61.912
X392.906Y-90.487
X395.287Y-38.1
X395.287Y-138.112
X423.862Y-71.438
X423.862Y-90.487
X423.862Y-138.112
X442.912Y-71.438
X442.912Y-90.487
X442.912Y-119.062
X442.912Y-138.112
X461.962Y-71.438
X461.962Y-90.487
X461.962Y-138.112
T2
X204.794Y-147.023G85X204.794Y-145.071
G05
X304.794Y-147.023G85X304.794Y-145.071
G05
M30
