%TF.GenerationSoftware,KiCad,Pcbnew,10.0.0*%
%TF.CreationDate,2026-04-01T17:09:58+03:00*%
%TF.ProjectId,IronHand_v1,49726f6e-4861-46e6-945f-76312e6b6963,rev?*%
%TF.SameCoordinates,Original*%
%TF.FileFunction,Drillmap*%
%TF.FilePolarity,Positive*%
%FSLAX45Y45*%
G04 Gerber Fmt 4.5, Leading zero omitted, Abs format (unit mm)*
G04 Created by KiCad (PCBNEW 10.0.0) date 2026-04-01 17:09:58*
%MOMM*%
%LPD*%
G01*
G04 APERTURE LIST*
%ADD10C,0.050000*%
%ADD11C,0.200000*%
%ADD12C,0.175000*%
%ADD13C,0.304800*%
%ADD14C,0.100000*%
%ADD15C,0.305000*%
%ADD16C,0.398780*%
%ADD17C,0.400000*%
G04 APERTURE END LIST*
D10*
X3862500Y-14711200D02*
X3862500Y-4870000D01*
X3862500Y-14711200D02*
X47396300Y-14711200D01*
X4940000Y-4870000D02*
X3862500Y-4870000D01*
X4940000Y-4870000D02*
X5240000Y-4570000D01*
X5240000Y-2711200D02*
X5240000Y-4570000D01*
X47396300Y-2711200D02*
X5240000Y-2711200D01*
X47396300Y-14711200D02*
X47396300Y-2711200D01*
D11*
D12*
X4167000Y-6103750D02*
X4342000Y-6278750D01*
X4342000Y-6103750D02*
X4167000Y-6278750D01*
X4167000Y-8008750D02*
X4342000Y-8183750D01*
X4342000Y-8008750D02*
X4167000Y-8183750D01*
X4167000Y-9913750D02*
X4342000Y-10088750D01*
X4342000Y-9913750D02*
X4167000Y-10088750D01*
X4167000Y-11818750D02*
X4342000Y-11993750D01*
X4342000Y-11818750D02*
X4167000Y-11993750D01*
X5119500Y-13723750D02*
X5294500Y-13898750D01*
X5294500Y-13723750D02*
X5119500Y-13898750D01*
X5183000Y-6103750D02*
X5358000Y-6278750D01*
X5358000Y-6103750D02*
X5183000Y-6278750D01*
X5183000Y-8008750D02*
X5358000Y-8183750D01*
X5358000Y-8008750D02*
X5183000Y-8183750D01*
X5183000Y-9913750D02*
X5358000Y-10088750D01*
X5358000Y-9913750D02*
X5183000Y-10088750D01*
X5183000Y-11818750D02*
X5358000Y-11993750D01*
X5358000Y-11818750D02*
X5183000Y-11993750D01*
X6072000Y-6103750D02*
X6247000Y-6278750D01*
X6247000Y-6103750D02*
X6072000Y-6278750D01*
X6072000Y-8008750D02*
X6247000Y-8183750D01*
X6247000Y-8008750D02*
X6072000Y-8183750D01*
X6072000Y-9913750D02*
X6247000Y-10088750D01*
X6247000Y-9913750D02*
X6072000Y-10088750D01*
X6072000Y-11818750D02*
X6247000Y-11993750D01*
X6247000Y-11818750D02*
X6072000Y-11993750D01*
X6135500Y-13723750D02*
X6310500Y-13898750D01*
X6310500Y-13723750D02*
X6135500Y-13898750D01*
X7088000Y-6103750D02*
X7263000Y-6278750D01*
X7263000Y-6103750D02*
X7088000Y-6278750D01*
X7088000Y-8008750D02*
X7263000Y-8183750D01*
X7263000Y-8008750D02*
X7088000Y-8183750D01*
X7088000Y-9913750D02*
X7263000Y-10088750D01*
X7263000Y-9913750D02*
X7088000Y-10088750D01*
X7088000Y-11818750D02*
X7263000Y-11993750D01*
X7263000Y-11818750D02*
X7088000Y-11993750D01*
X7977000Y-6103750D02*
X8152000Y-6278750D01*
X8152000Y-6103750D02*
X7977000Y-6278750D01*
X7977000Y-8008750D02*
X8152000Y-8183750D01*
X8152000Y-8008750D02*
X7977000Y-8183750D01*
X7977000Y-9913750D02*
X8152000Y-10088750D01*
X8152000Y-9913750D02*
X7977000Y-10088750D01*
X7977000Y-11818750D02*
X8152000Y-11993750D01*
X8152000Y-11818750D02*
X7977000Y-11993750D01*
X7977000Y-13723750D02*
X8152000Y-13898750D01*
X8152000Y-13723750D02*
X7977000Y-13898750D01*
X8993000Y-6103750D02*
X9168000Y-6278750D01*
X9168000Y-6103750D02*
X8993000Y-6278750D01*
X8993000Y-8008750D02*
X9168000Y-8183750D01*
X9168000Y-8008750D02*
X8993000Y-8183750D01*
X8993000Y-9913750D02*
X9168000Y-10088750D01*
X9168000Y-9913750D02*
X8993000Y-10088750D01*
X8993000Y-11818750D02*
X9168000Y-11993750D01*
X9168000Y-11818750D02*
X8993000Y-11993750D01*
X8993000Y-13723750D02*
X9168000Y-13898750D01*
X9168000Y-13723750D02*
X8993000Y-13898750D01*
X9882000Y-6103750D02*
X10057000Y-6278750D01*
X10057000Y-6103750D02*
X9882000Y-6278750D01*
X9882000Y-8961250D02*
X10057000Y-9136250D01*
X10057000Y-8961250D02*
X9882000Y-9136250D01*
X9882000Y-12771250D02*
X10057000Y-12946250D01*
X10057000Y-12771250D02*
X9882000Y-12946250D01*
X10898000Y-6103750D02*
X11073000Y-6278750D01*
X11073000Y-6103750D02*
X10898000Y-6278750D01*
X10898000Y-8961250D02*
X11073000Y-9136250D01*
X11073000Y-8961250D02*
X10898000Y-9136250D01*
X10898000Y-12771250D02*
X11073000Y-12946250D01*
X11073000Y-12771250D02*
X10898000Y-12946250D01*
X12739500Y-3722500D02*
X12914500Y-3897500D01*
X12914500Y-3722500D02*
X12739500Y-3897500D01*
X12739500Y-6103750D02*
X12914500Y-6278750D01*
X12914500Y-6103750D02*
X12739500Y-6278750D01*
X12977625Y-8008750D02*
X13152625Y-8183750D01*
X13152625Y-8008750D02*
X12977625Y-8183750D01*
X12977625Y-13723750D02*
X13152625Y-13898750D01*
X13152625Y-13723750D02*
X12977625Y-13898750D01*
X13215750Y-9913750D02*
X13390750Y-10088750D01*
X13390750Y-9913750D02*
X13215750Y-10088750D01*
X13692000Y-11818750D02*
X13867000Y-11993750D01*
X13867000Y-11818750D02*
X13692000Y-11993750D01*
X13755500Y-3722500D02*
X13930500Y-3897500D01*
X13930500Y-3722500D02*
X13755500Y-3897500D01*
X13755500Y-6103750D02*
X13930500Y-6278750D01*
X13930500Y-6103750D02*
X13755500Y-6278750D01*
X13993625Y-8008750D02*
X14168625Y-8183750D01*
X14168625Y-8008750D02*
X13993625Y-8183750D01*
X13993625Y-13723750D02*
X14168625Y-13898750D01*
X14168625Y-13723750D02*
X13993625Y-13898750D01*
X14231750Y-9913750D02*
X14406750Y-10088750D01*
X14406750Y-9913750D02*
X14231750Y-10088750D01*
X14644500Y-6103750D02*
X14819500Y-6278750D01*
X14819500Y-6103750D02*
X14644500Y-6278750D01*
X14708000Y-11818750D02*
X14883000Y-11993750D01*
X14883000Y-11818750D02*
X14708000Y-11993750D01*
X15120750Y-3722500D02*
X15295750Y-3897500D01*
X15295750Y-3722500D02*
X15120750Y-3897500D01*
X15120750Y-8008750D02*
X15295750Y-8183750D01*
X15295750Y-8008750D02*
X15120750Y-8183750D01*
X15358875Y-13723750D02*
X15533875Y-13898750D01*
X15533875Y-13723750D02*
X15358875Y-13898750D01*
X15597000Y-9913750D02*
X15772000Y-10088750D01*
X15772000Y-9913750D02*
X15597000Y-10088750D01*
X15660500Y-6103750D02*
X15835500Y-6278750D01*
X15835500Y-6103750D02*
X15660500Y-6278750D01*
X16136750Y-3722500D02*
X16311750Y-3897500D01*
X16311750Y-3722500D02*
X16136750Y-3897500D01*
X16136750Y-8008750D02*
X16311750Y-8183750D01*
X16311750Y-8008750D02*
X16136750Y-8183750D01*
X16374875Y-13723750D02*
X16549875Y-13898750D01*
X16549875Y-13723750D02*
X16374875Y-13898750D01*
X16549500Y-6103750D02*
X16724500Y-6278750D01*
X16724500Y-6103750D02*
X16549500Y-6278750D01*
X16549500Y-11818750D02*
X16724500Y-11993750D01*
X16724500Y-11818750D02*
X16549500Y-11993750D01*
X16613000Y-9913750D02*
X16788000Y-10088750D01*
X16788000Y-9913750D02*
X16613000Y-10088750D01*
X17025750Y-3722500D02*
X17200750Y-3897500D01*
X17200750Y-3722500D02*
X17025750Y-3897500D01*
X17025750Y-8008750D02*
X17200750Y-8183750D01*
X17200750Y-8008750D02*
X17025750Y-8183750D01*
X17502000Y-9913750D02*
X17677000Y-10088750D01*
X17677000Y-9913750D02*
X17502000Y-10088750D01*
X17565500Y-6103750D02*
X17740500Y-6278750D01*
X17740500Y-6103750D02*
X17565500Y-6278750D01*
X17565500Y-11818750D02*
X17740500Y-11993750D01*
X17740500Y-11818750D02*
X17565500Y-11993750D01*
X17740125Y-13723750D02*
X17915125Y-13898750D01*
X17915125Y-13723750D02*
X17740125Y-13898750D01*
X18041750Y-3722500D02*
X18216750Y-3897500D01*
X18216750Y-3722500D02*
X18041750Y-3897500D01*
X18041750Y-8008750D02*
X18216750Y-8183750D01*
X18216750Y-8008750D02*
X18041750Y-8183750D01*
X18454500Y-6103750D02*
X18629500Y-6278750D01*
X18629500Y-6103750D02*
X18454500Y-6278750D01*
X18454500Y-11818750D02*
X18629500Y-11993750D01*
X18629500Y-11818750D02*
X18454500Y-11993750D01*
X18518000Y-9913750D02*
X18693000Y-10088750D01*
X18693000Y-9913750D02*
X18518000Y-10088750D01*
X18756125Y-13723750D02*
X18931125Y-13898750D01*
X18931125Y-13723750D02*
X18756125Y-13898750D01*
X18930750Y-3722500D02*
X19105750Y-3897500D01*
X19105750Y-3722500D02*
X18930750Y-3897500D01*
X18930750Y-8008750D02*
X19105750Y-8183750D01*
X19105750Y-8008750D02*
X18930750Y-8183750D01*
X19407000Y-9913750D02*
X19582000Y-10088750D01*
X19582000Y-9913750D02*
X19407000Y-10088750D01*
X19470500Y-6103750D02*
X19645500Y-6278750D01*
X19645500Y-6103750D02*
X19470500Y-6278750D01*
X19470500Y-11818750D02*
X19645500Y-11993750D01*
X19645500Y-11818750D02*
X19470500Y-11993750D01*
X19946750Y-3722500D02*
X20121750Y-3897500D01*
X20121750Y-3722500D02*
X19946750Y-3897500D01*
X19946750Y-8008750D02*
X20121750Y-8183750D01*
X20121750Y-8008750D02*
X19946750Y-8183750D01*
X20359500Y-6103750D02*
X20534500Y-6278750D01*
X20534500Y-6103750D02*
X20359500Y-6278750D01*
X20359500Y-11818750D02*
X20534500Y-11993750D01*
X20534500Y-11818750D02*
X20359500Y-11993750D01*
X20423000Y-9913750D02*
X20598000Y-10088750D01*
X20598000Y-9913750D02*
X20423000Y-10088750D01*
X20835750Y-3722500D02*
X21010750Y-3897500D01*
X21010750Y-3722500D02*
X20835750Y-3897500D01*
X20835750Y-8008750D02*
X21010750Y-8183750D01*
X21010750Y-8008750D02*
X20835750Y-8183750D01*
X21312000Y-9913750D02*
X21487000Y-10088750D01*
X21487000Y-9913750D02*
X21312000Y-10088750D01*
X21375500Y-6103750D02*
X21550500Y-6278750D01*
X21550500Y-6103750D02*
X21375500Y-6278750D01*
X21375500Y-11818750D02*
X21550500Y-11993750D01*
X21550500Y-11818750D02*
X21375500Y-11993750D01*
X21851750Y-3722500D02*
X22026750Y-3897500D01*
X22026750Y-3722500D02*
X21851750Y-3897500D01*
X21851750Y-8008750D02*
X22026750Y-8183750D01*
X22026750Y-8008750D02*
X21851750Y-8183750D01*
X22264500Y-6103750D02*
X22439500Y-6278750D01*
X22439500Y-6103750D02*
X22264500Y-6278750D01*
X22264500Y-11818750D02*
X22439500Y-11993750D01*
X22439500Y-11818750D02*
X22264500Y-11993750D01*
X22328000Y-9913750D02*
X22503000Y-10088750D01*
X22503000Y-9913750D02*
X22328000Y-10088750D01*
X22740750Y-8008750D02*
X22915750Y-8183750D01*
X22915750Y-8008750D02*
X22740750Y-8183750D01*
X23217000Y-3722500D02*
X23392000Y-3897500D01*
X23392000Y-3722500D02*
X23217000Y-3897500D01*
X23217000Y-9913750D02*
X23392000Y-10088750D01*
X23392000Y-9913750D02*
X23217000Y-10088750D01*
X23280500Y-6103750D02*
X23455500Y-6278750D01*
X23455500Y-6103750D02*
X23280500Y-6278750D01*
X23280500Y-11818750D02*
X23455500Y-11993750D01*
X23455500Y-11818750D02*
X23280500Y-11993750D01*
X23756750Y-8008750D02*
X23931750Y-8183750D01*
X23931750Y-8008750D02*
X23756750Y-8183750D01*
X24169500Y-6103750D02*
X24344500Y-6278750D01*
X24344500Y-6103750D02*
X24169500Y-6278750D01*
X24169500Y-11818750D02*
X24344500Y-11993750D01*
X24344500Y-11818750D02*
X24169500Y-11993750D01*
X24233000Y-3722500D02*
X24408000Y-3897500D01*
X24408000Y-3722500D02*
X24233000Y-3897500D01*
X24233000Y-9913750D02*
X24408000Y-10088750D01*
X24408000Y-9913750D02*
X24233000Y-10088750D01*
X24645750Y-8008750D02*
X24820750Y-8183750D01*
X24820750Y-8008750D02*
X24645750Y-8183750D01*
X24883875Y-13723750D02*
X25058875Y-13898750D01*
X25058875Y-13723750D02*
X24883875Y-13898750D01*
X25122000Y-3722500D02*
X25297000Y-3897500D01*
X25297000Y-3722500D02*
X25122000Y-3897500D01*
X25122000Y-9913750D02*
X25297000Y-10088750D01*
X25297000Y-9913750D02*
X25122000Y-10088750D01*
X25185500Y-6103750D02*
X25360500Y-6278750D01*
X25360500Y-6103750D02*
X25185500Y-6278750D01*
X25185500Y-11818750D02*
X25360500Y-11993750D01*
X25360500Y-11818750D02*
X25185500Y-11993750D01*
X25661750Y-8008750D02*
X25836750Y-8183750D01*
X25836750Y-8008750D02*
X25661750Y-8183750D01*
X25899875Y-13723750D02*
X26074875Y-13898750D01*
X26074875Y-13723750D02*
X25899875Y-13898750D01*
X26074500Y-6103750D02*
X26249500Y-6278750D01*
X26249500Y-6103750D02*
X26074500Y-6278750D01*
X26074500Y-11818750D02*
X26249500Y-11993750D01*
X26249500Y-11818750D02*
X26074500Y-11993750D01*
X26138000Y-3722500D02*
X26313000Y-3897500D01*
X26313000Y-3722500D02*
X26138000Y-3897500D01*
X26138000Y-9913750D02*
X26313000Y-10088750D01*
X26313000Y-9913750D02*
X26138000Y-10088750D01*
X26550750Y-8008750D02*
X26725750Y-8183750D01*
X26725750Y-8008750D02*
X26550750Y-8183750D01*
X27027000Y-3722500D02*
X27202000Y-3897500D01*
X27202000Y-3722500D02*
X27027000Y-3897500D01*
X27027000Y-9913750D02*
X27202000Y-10088750D01*
X27202000Y-9913750D02*
X27027000Y-10088750D01*
X27090500Y-6103750D02*
X27265500Y-6278750D01*
X27265500Y-6103750D02*
X27090500Y-6278750D01*
X27090500Y-11818750D02*
X27265500Y-11993750D01*
X27265500Y-11818750D02*
X27090500Y-11993750D01*
X27566750Y-8008750D02*
X27741750Y-8183750D01*
X27741750Y-8008750D02*
X27566750Y-8183750D01*
X27979500Y-6103750D02*
X28154500Y-6278750D01*
X28154500Y-6103750D02*
X27979500Y-6278750D01*
X27979500Y-11818750D02*
X28154500Y-11993750D01*
X28154500Y-11818750D02*
X27979500Y-11993750D01*
X28043000Y-3722500D02*
X28218000Y-3897500D01*
X28218000Y-3722500D02*
X28043000Y-3897500D01*
X28043000Y-9913750D02*
X28218000Y-10088750D01*
X28218000Y-9913750D02*
X28043000Y-10088750D01*
X28455750Y-8008750D02*
X28630750Y-8183750D01*
X28630750Y-8008750D02*
X28455750Y-8183750D01*
X28932000Y-3722500D02*
X29107000Y-3897500D01*
X29107000Y-3722500D02*
X28932000Y-3897500D01*
X28932000Y-9913750D02*
X29107000Y-10088750D01*
X29107000Y-9913750D02*
X28932000Y-10088750D01*
X28995500Y-6103750D02*
X29170500Y-6278750D01*
X29170500Y-6103750D02*
X28995500Y-6278750D01*
X28995500Y-11818750D02*
X29170500Y-11993750D01*
X29170500Y-11818750D02*
X28995500Y-11993750D01*
X29471750Y-8008750D02*
X29646750Y-8183750D01*
X29646750Y-8008750D02*
X29471750Y-8183750D01*
X29884500Y-6103750D02*
X30059500Y-6278750D01*
X30059500Y-6103750D02*
X29884500Y-6278750D01*
X29884500Y-11818750D02*
X30059500Y-11993750D01*
X30059500Y-11818750D02*
X29884500Y-11993750D01*
X29948000Y-3722500D02*
X30123000Y-3897500D01*
X30123000Y-3722500D02*
X29948000Y-3897500D01*
X29948000Y-9913750D02*
X30123000Y-10088750D01*
X30123000Y-9913750D02*
X29948000Y-10088750D01*
X30360750Y-8008750D02*
X30535750Y-8183750D01*
X30535750Y-8008750D02*
X30360750Y-8183750D01*
X30837000Y-9913750D02*
X31012000Y-10088750D01*
X31012000Y-9913750D02*
X30837000Y-10088750D01*
X30900500Y-6103750D02*
X31075500Y-6278750D01*
X31075500Y-6103750D02*
X30900500Y-6278750D01*
X30900500Y-11818750D02*
X31075500Y-11993750D01*
X31075500Y-11818750D02*
X30900500Y-11993750D01*
X31313250Y-3722500D02*
X31488250Y-3897500D01*
X31488250Y-3722500D02*
X31313250Y-3897500D01*
X31376750Y-8008750D02*
X31551750Y-8183750D01*
X31551750Y-8008750D02*
X31376750Y-8183750D01*
X31789500Y-6103750D02*
X31964500Y-6278750D01*
X31964500Y-6103750D02*
X31789500Y-6278750D01*
X31789500Y-11818750D02*
X31964500Y-11993750D01*
X31964500Y-11818750D02*
X31789500Y-11993750D01*
X31853000Y-9913750D02*
X32028000Y-10088750D01*
X32028000Y-9913750D02*
X31853000Y-10088750D01*
X32027625Y-13723750D02*
X32202625Y-13898750D01*
X32202625Y-13723750D02*
X32027625Y-13898750D01*
X32265750Y-8008750D02*
X32440750Y-8183750D01*
X32440750Y-8008750D02*
X32265750Y-8183750D01*
X32329250Y-3722500D02*
X32504250Y-3897500D01*
X32504250Y-3722500D02*
X32329250Y-3897500D01*
X32742000Y-9913750D02*
X32917000Y-10088750D01*
X32917000Y-9913750D02*
X32742000Y-10088750D01*
X32805500Y-6103750D02*
X32980500Y-6278750D01*
X32980500Y-6103750D02*
X32805500Y-6278750D01*
X32805500Y-11818750D02*
X32980500Y-11993750D01*
X32980500Y-11818750D02*
X32805500Y-11993750D01*
X33043625Y-13723750D02*
X33218625Y-13898750D01*
X33218625Y-13723750D02*
X33043625Y-13898750D01*
X33218250Y-3722500D02*
X33393250Y-3897500D01*
X33393250Y-3722500D02*
X33218250Y-3897500D01*
X33281750Y-8008750D02*
X33456750Y-8183750D01*
X33456750Y-8008750D02*
X33281750Y-8183750D01*
X33694500Y-6103750D02*
X33869500Y-6278750D01*
X33869500Y-6103750D02*
X33694500Y-6278750D01*
X33694500Y-11818750D02*
X33869500Y-11993750D01*
X33869500Y-11818750D02*
X33694500Y-11993750D01*
X33758000Y-9913750D02*
X33933000Y-10088750D01*
X33933000Y-9913750D02*
X33758000Y-10088750D01*
X34170750Y-8008750D02*
X34345750Y-8183750D01*
X34345750Y-8008750D02*
X34170750Y-8183750D01*
X34234250Y-3722500D02*
X34409250Y-3897500D01*
X34409250Y-3722500D02*
X34234250Y-3897500D01*
X34408875Y-13723750D02*
X34583875Y-13898750D01*
X34583875Y-13723750D02*
X34408875Y-13898750D01*
X34647000Y-9913750D02*
X34822000Y-10088750D01*
X34822000Y-9913750D02*
X34647000Y-10088750D01*
X34710500Y-6103750D02*
X34885500Y-6278750D01*
X34885500Y-6103750D02*
X34710500Y-6278750D01*
X34710500Y-11818750D02*
X34885500Y-11993750D01*
X34885500Y-11818750D02*
X34710500Y-11993750D01*
X35123250Y-3722500D02*
X35298250Y-3897500D01*
X35298250Y-3722500D02*
X35123250Y-3897500D01*
X35186750Y-8008750D02*
X35361750Y-8183750D01*
X35361750Y-8008750D02*
X35186750Y-8183750D01*
X35424875Y-13723750D02*
X35599875Y-13898750D01*
X35599875Y-13723750D02*
X35424875Y-13898750D01*
X35599500Y-6103750D02*
X35774500Y-6278750D01*
X35774500Y-6103750D02*
X35599500Y-6278750D01*
X35663000Y-9913750D02*
X35838000Y-10088750D01*
X35838000Y-9913750D02*
X35663000Y-10088750D01*
X36075750Y-8008750D02*
X36250750Y-8183750D01*
X36250750Y-8008750D02*
X36075750Y-8183750D01*
X36139250Y-3722500D02*
X36314250Y-3897500D01*
X36314250Y-3722500D02*
X36139250Y-3897500D01*
X36552000Y-9913750D02*
X36727000Y-10088750D01*
X36727000Y-9913750D02*
X36552000Y-10088750D01*
X36615500Y-6103750D02*
X36790500Y-6278750D01*
X36790500Y-6103750D02*
X36615500Y-6278750D01*
X36790125Y-13723750D02*
X36965125Y-13898750D01*
X36965125Y-13723750D02*
X36790125Y-13898750D01*
X37028250Y-3722500D02*
X37203250Y-3897500D01*
X37203250Y-3722500D02*
X37028250Y-3897500D01*
X37091750Y-8008750D02*
X37266750Y-8183750D01*
X37266750Y-8008750D02*
X37091750Y-8183750D01*
X37266375Y-11818750D02*
X37441375Y-11993750D01*
X37441375Y-11818750D02*
X37266375Y-11993750D01*
X37568000Y-9913750D02*
X37743000Y-10088750D01*
X37743000Y-9913750D02*
X37568000Y-10088750D01*
X37806125Y-13723750D02*
X37981125Y-13898750D01*
X37981125Y-13723750D02*
X37806125Y-13898750D01*
X38044250Y-3722500D02*
X38219250Y-3897500D01*
X38219250Y-3722500D02*
X38044250Y-3897500D01*
X38218875Y-6103750D02*
X38393875Y-6278750D01*
X38393875Y-6103750D02*
X38218875Y-6278750D01*
X38282375Y-11818750D02*
X38457375Y-11993750D01*
X38457375Y-11818750D02*
X38282375Y-11993750D01*
X38695125Y-8961250D02*
X38870125Y-9136250D01*
X38870125Y-8961250D02*
X38695125Y-9136250D01*
X38933250Y-3722500D02*
X39108250Y-3897500D01*
X39108250Y-3722500D02*
X38933250Y-3897500D01*
X38933250Y-13723750D02*
X39108250Y-13898750D01*
X39108250Y-13723750D02*
X38933250Y-13898750D01*
X39234875Y-6103750D02*
X39409875Y-6278750D01*
X39409875Y-6103750D02*
X39234875Y-6278750D01*
X39711125Y-8961250D02*
X39886125Y-9136250D01*
X39886125Y-8961250D02*
X39711125Y-9136250D01*
X39949250Y-3722500D02*
X40124250Y-3897500D01*
X40124250Y-3722500D02*
X39949250Y-3897500D01*
X39949250Y-13723750D02*
X40124250Y-13898750D01*
X40124250Y-13723750D02*
X39949250Y-13898750D01*
X41790750Y-7056250D02*
X41965750Y-7231250D01*
X41965750Y-7056250D02*
X41790750Y-7231250D01*
X41790750Y-8961250D02*
X41965750Y-9136250D01*
X41965750Y-8961250D02*
X41790750Y-9136250D01*
X41790750Y-13723750D02*
X41965750Y-13898750D01*
X41965750Y-13723750D02*
X41790750Y-13898750D01*
X42806750Y-7056250D02*
X42981750Y-7231250D01*
X42981750Y-7056250D02*
X42806750Y-7231250D01*
X42806750Y-8961250D02*
X42981750Y-9136250D01*
X42981750Y-8961250D02*
X42806750Y-9136250D01*
X42806750Y-13723750D02*
X42981750Y-13898750D01*
X42981750Y-13723750D02*
X42806750Y-13898750D01*
X43695750Y-7056250D02*
X43870750Y-7231250D01*
X43870750Y-7056250D02*
X43695750Y-7231250D01*
X43695750Y-8961250D02*
X43870750Y-9136250D01*
X43870750Y-8961250D02*
X43695750Y-9136250D01*
X43695750Y-11818750D02*
X43870750Y-11993750D01*
X43870750Y-11818750D02*
X43695750Y-11993750D01*
X43695750Y-13723750D02*
X43870750Y-13898750D01*
X43870750Y-13723750D02*
X43695750Y-13898750D01*
X44711750Y-7056250D02*
X44886750Y-7231250D01*
X44886750Y-7056250D02*
X44711750Y-7231250D01*
X44711750Y-8961250D02*
X44886750Y-9136250D01*
X44886750Y-8961250D02*
X44711750Y-9136250D01*
X44711750Y-11818750D02*
X44886750Y-11993750D01*
X44886750Y-11818750D02*
X44711750Y-11993750D01*
X44711750Y-13723750D02*
X44886750Y-13898750D01*
X44886750Y-13723750D02*
X44711750Y-13898750D01*
X45600750Y-7056250D02*
X45775750Y-7231250D01*
X45775750Y-7056250D02*
X45600750Y-7231250D01*
X45600750Y-8961250D02*
X45775750Y-9136250D01*
X45775750Y-8961250D02*
X45600750Y-9136250D01*
X45600750Y-13723750D02*
X45775750Y-13898750D01*
X45775750Y-13723750D02*
X45600750Y-13898750D01*
X46616750Y-7056250D02*
X46791750Y-7231250D01*
X46791750Y-7056250D02*
X46616750Y-7231250D01*
X46616750Y-8961250D02*
X46791750Y-9136250D01*
X46791750Y-8961250D02*
X46616750Y-9136250D01*
X46616750Y-13723750D02*
X46791750Y-13898750D01*
X46791750Y-13723750D02*
X46616750Y-13898750D01*
D13*
X9931400Y-7854950D02*
G75*
G02*
X9626600Y-7854950I-152400J0D01*
G01*
X9626600Y-7854950D02*
G75*
G02*
X9931400Y-7854950I152400J0D01*
G01*
X9931400Y-10242550D02*
G75*
G02*
X9626600Y-10242550I-152400J0D01*
G01*
X9626600Y-10242550D02*
G75*
G02*
X9931400Y-10242550I152400J0D01*
G01*
X9931400Y-11664950D02*
G75*
G02*
X9626600Y-11664950I-152400J0D01*
G01*
X9626600Y-11664950D02*
G75*
G02*
X9931400Y-11664950I152400J0D01*
G01*
X9931400Y-14052550D02*
G75*
G02*
X9626600Y-14052550I-152400J0D01*
G01*
X9626600Y-14052550D02*
G75*
G02*
X9931400Y-14052550I152400J0D01*
G01*
X13246100Y-11207750D02*
G75*
G02*
X12941300Y-11207750I-152400J0D01*
G01*
X12941300Y-11207750D02*
G75*
G02*
X13246100Y-11207750I152400J0D01*
G01*
X15633700Y-11207750D02*
G75*
G02*
X15328900Y-11207750I-152400J0D01*
G01*
X15328900Y-11207750D02*
G75*
G02*
X15633700Y-11207750I152400J0D01*
G01*
X20631775Y-14604750D02*
G75*
G02*
X20326975Y-14604750I-152400J0D01*
G01*
X20326975Y-14604750D02*
G75*
G02*
X20631775Y-14604750I152400J0D01*
G01*
D14*
X20631775Y-14702350D02*
X20631775Y-14507150D01*
X20326975Y-14507150D02*
G75*
G02*
X20631775Y-14507150I152400J0D01*
G01*
X20326975Y-14507150D02*
X20326975Y-14702350D01*
X20326975Y-14702350D02*
G75*
G03*
X20631775Y-14702350I152400J0D01*
G01*
D13*
X30631775Y-14604750D02*
G75*
G02*
X30326975Y-14604750I-152400J0D01*
G01*
X30326975Y-14604750D02*
G75*
G02*
X30631775Y-14604750I152400J0D01*
G01*
D14*
X30631775Y-14702350D02*
X30631775Y-14507150D01*
X30326975Y-14507150D02*
G75*
G02*
X30631775Y-14507150I152400J0D01*
G01*
X30326975Y-14507150D02*
X30326975Y-14702350D01*
X30326975Y-14702350D02*
G75*
G03*
X30631775Y-14702350I152400J0D01*
G01*
D13*
X36820475Y-12604750D02*
G75*
G02*
X36515675Y-12604750I-152400J0D01*
G01*
X36515675Y-12604750D02*
G75*
G02*
X36820475Y-12604750I152400J0D01*
G01*
X37772975Y-5492750D02*
G75*
G02*
X37468175Y-5492750I-152400J0D01*
G01*
X37468175Y-5492750D02*
G75*
G02*
X37772975Y-5492750I152400J0D01*
G01*
X38744525Y-7854950D02*
G75*
G02*
X38439725Y-7854950I-152400J0D01*
G01*
X38439725Y-7854950D02*
G75*
G02*
X38744525Y-7854950I152400J0D01*
G01*
X38744525Y-10242550D02*
G75*
G02*
X38439725Y-10242550I-152400J0D01*
G01*
X38439725Y-10242550D02*
G75*
G02*
X38744525Y-10242550I152400J0D01*
G01*
X39208075Y-12604750D02*
G75*
G02*
X38903275Y-12604750I-152400J0D01*
G01*
X38903275Y-12604750D02*
G75*
G02*
X39208075Y-12604750I152400J0D01*
G01*
X40160575Y-5492750D02*
G75*
G02*
X39855775Y-5492750I-152400J0D01*
G01*
X39855775Y-5492750D02*
G75*
G02*
X40160575Y-5492750I152400J0D01*
G01*
D15*
X4381500Y-5784750D02*
X4381500Y-6089750D01*
X4229000Y-5937250D02*
X4534000Y-5937250D01*
X4381500Y-7689750D02*
X4381500Y-7994750D01*
X4229000Y-7842250D02*
X4534000Y-7842250D01*
X4381500Y-9594750D02*
X4381500Y-9899750D01*
X4229000Y-9747250D02*
X4534000Y-9747250D01*
X4381500Y-11499750D02*
X4381500Y-11804750D01*
X4229000Y-11652250D02*
X4534000Y-11652250D01*
X5016500Y-5530750D02*
X5016500Y-5835750D01*
X4864000Y-5683250D02*
X5169000Y-5683250D01*
X5016500Y-7435750D02*
X5016500Y-7740750D01*
X4864000Y-7588250D02*
X5169000Y-7588250D01*
X5016500Y-9340750D02*
X5016500Y-9645750D01*
X4864000Y-9493250D02*
X5169000Y-9493250D01*
X5016500Y-11245750D02*
X5016500Y-11550750D01*
X4864000Y-11398250D02*
X5169000Y-11398250D01*
X5334000Y-13404750D02*
X5334000Y-13709750D01*
X5181500Y-13557250D02*
X5486500Y-13557250D01*
X5969000Y-13150750D02*
X5969000Y-13455750D01*
X5816500Y-13303250D02*
X6121500Y-13303250D01*
X6286500Y-5784750D02*
X6286500Y-6089750D01*
X6134000Y-5937250D02*
X6439000Y-5937250D01*
X6286500Y-7689750D02*
X6286500Y-7994750D01*
X6134000Y-7842250D02*
X6439000Y-7842250D01*
X6286500Y-9594750D02*
X6286500Y-9899750D01*
X6134000Y-9747250D02*
X6439000Y-9747250D01*
X6286500Y-11499750D02*
X6286500Y-11804750D01*
X6134000Y-11652250D02*
X6439000Y-11652250D01*
X6921500Y-5530750D02*
X6921500Y-5835750D01*
X6769000Y-5683250D02*
X7074000Y-5683250D01*
X6921500Y-7435750D02*
X6921500Y-7740750D01*
X6769000Y-7588250D02*
X7074000Y-7588250D01*
X6921500Y-9340750D02*
X6921500Y-9645750D01*
X6769000Y-9493250D02*
X7074000Y-9493250D01*
X6921500Y-11245750D02*
X6921500Y-11550750D01*
X6769000Y-11398250D02*
X7074000Y-11398250D01*
X8191500Y-5784750D02*
X8191500Y-6089750D01*
X8039000Y-5937250D02*
X8344000Y-5937250D01*
X8191500Y-7689750D02*
X8191500Y-7994750D01*
X8039000Y-7842250D02*
X8344000Y-7842250D01*
X8191500Y-9594750D02*
X8191500Y-9899750D01*
X8039000Y-9747250D02*
X8344000Y-9747250D01*
X8191500Y-11499750D02*
X8191500Y-11804750D01*
X8039000Y-11652250D02*
X8344000Y-11652250D01*
X8191500Y-13404750D02*
X8191500Y-13709750D01*
X8039000Y-13557250D02*
X8344000Y-13557250D01*
X8826500Y-5530750D02*
X8826500Y-5835750D01*
X8674000Y-5683250D02*
X8979000Y-5683250D01*
X8826500Y-7435750D02*
X8826500Y-7740750D01*
X8674000Y-7588250D02*
X8979000Y-7588250D01*
X8826500Y-9340750D02*
X8826500Y-9645750D01*
X8674000Y-9493250D02*
X8979000Y-9493250D01*
X8826500Y-11245750D02*
X8826500Y-11550750D01*
X8674000Y-11398250D02*
X8979000Y-11398250D01*
X8826500Y-13150750D02*
X8826500Y-13455750D01*
X8674000Y-13303250D02*
X8979000Y-13303250D01*
X10096500Y-5784750D02*
X10096500Y-6089750D01*
X9944000Y-5937250D02*
X10249000Y-5937250D01*
X10096500Y-8642250D02*
X10096500Y-8947250D01*
X9944000Y-8794750D02*
X10249000Y-8794750D01*
X10096500Y-12452250D02*
X10096500Y-12757250D01*
X9944000Y-12604750D02*
X10249000Y-12604750D01*
X10731500Y-5530750D02*
X10731500Y-5835750D01*
X10579000Y-5683250D02*
X10884000Y-5683250D01*
X10731500Y-8388250D02*
X10731500Y-8693250D01*
X10579000Y-8540750D02*
X10884000Y-8540750D01*
X10731500Y-12198250D02*
X10731500Y-12503250D01*
X10579000Y-12350750D02*
X10884000Y-12350750D01*
X12954000Y-3403500D02*
X12954000Y-3708500D01*
X12801500Y-3556000D02*
X13106500Y-3556000D01*
X12954000Y-5784750D02*
X12954000Y-6089750D01*
X12801500Y-5937250D02*
X13106500Y-5937250D01*
X13192125Y-7689750D02*
X13192125Y-7994750D01*
X13039625Y-7842250D02*
X13344625Y-7842250D01*
X13192125Y-13404750D02*
X13192125Y-13709750D01*
X13039625Y-13557250D02*
X13344625Y-13557250D01*
X13430250Y-9594750D02*
X13430250Y-9899750D01*
X13277750Y-9747250D02*
X13582750Y-9747250D01*
X13589000Y-3149500D02*
X13589000Y-3454500D01*
X13436500Y-3302000D02*
X13741500Y-3302000D01*
X13589000Y-5530750D02*
X13589000Y-5835750D01*
X13436500Y-5683250D02*
X13741500Y-5683250D01*
X13827125Y-7435750D02*
X13827125Y-7740750D01*
X13674625Y-7588250D02*
X13979625Y-7588250D01*
X13827125Y-13150750D02*
X13827125Y-13455750D01*
X13674625Y-13303250D02*
X13979625Y-13303250D01*
X13906500Y-11499750D02*
X13906500Y-11804750D01*
X13754000Y-11652250D02*
X14059000Y-11652250D01*
X14065250Y-9340750D02*
X14065250Y-9645750D01*
X13912750Y-9493250D02*
X14217750Y-9493250D01*
X14541500Y-11245750D02*
X14541500Y-11550750D01*
X14389000Y-11398250D02*
X14694000Y-11398250D01*
X14859000Y-5784750D02*
X14859000Y-6089750D01*
X14706500Y-5937250D02*
X15011500Y-5937250D01*
X15335250Y-3403500D02*
X15335250Y-3708500D01*
X15182750Y-3556000D02*
X15487750Y-3556000D01*
X15335250Y-7689750D02*
X15335250Y-7994750D01*
X15182750Y-7842250D02*
X15487750Y-7842250D01*
X15494000Y-5530750D02*
X15494000Y-5835750D01*
X15341500Y-5683250D02*
X15646500Y-5683250D01*
X15573375Y-13404750D02*
X15573375Y-13709750D01*
X15420875Y-13557250D02*
X15725875Y-13557250D01*
X15811500Y-9594750D02*
X15811500Y-9899750D01*
X15659000Y-9747250D02*
X15964000Y-9747250D01*
X15970250Y-3149500D02*
X15970250Y-3454500D01*
X15817750Y-3302000D02*
X16122750Y-3302000D01*
X15970250Y-7435750D02*
X15970250Y-7740750D01*
X15817750Y-7588250D02*
X16122750Y-7588250D01*
X16208375Y-13150750D02*
X16208375Y-13455750D01*
X16055875Y-13303250D02*
X16360875Y-13303250D01*
X16446500Y-9340750D02*
X16446500Y-9645750D01*
X16294000Y-9493250D02*
X16599000Y-9493250D01*
X16764000Y-5784750D02*
X16764000Y-6089750D01*
X16611500Y-5937250D02*
X16916500Y-5937250D01*
X16764000Y-11499750D02*
X16764000Y-11804750D01*
X16611500Y-11652250D02*
X16916500Y-11652250D01*
X17240250Y-3403500D02*
X17240250Y-3708500D01*
X17087750Y-3556000D02*
X17392750Y-3556000D01*
X17240250Y-7689750D02*
X17240250Y-7994750D01*
X17087750Y-7842250D02*
X17392750Y-7842250D01*
X17399000Y-5530750D02*
X17399000Y-5835750D01*
X17246500Y-5683250D02*
X17551500Y-5683250D01*
X17399000Y-11245750D02*
X17399000Y-11550750D01*
X17246500Y-11398250D02*
X17551500Y-11398250D01*
X17716500Y-9594750D02*
X17716500Y-9899750D01*
X17564000Y-9747250D02*
X17869000Y-9747250D01*
X17875250Y-3149500D02*
X17875250Y-3454500D01*
X17722750Y-3302000D02*
X18027750Y-3302000D01*
X17875250Y-7435750D02*
X17875250Y-7740750D01*
X17722750Y-7588250D02*
X18027750Y-7588250D01*
X17954625Y-13404750D02*
X17954625Y-13709750D01*
X17802125Y-13557250D02*
X18107125Y-13557250D01*
X18351500Y-9340750D02*
X18351500Y-9645750D01*
X18199000Y-9493250D02*
X18504000Y-9493250D01*
X18589625Y-13150750D02*
X18589625Y-13455750D01*
X18437125Y-13303250D02*
X18742125Y-13303250D01*
X18669000Y-5784750D02*
X18669000Y-6089750D01*
X18516500Y-5937250D02*
X18821500Y-5937250D01*
X18669000Y-11499750D02*
X18669000Y-11804750D01*
X18516500Y-11652250D02*
X18821500Y-11652250D01*
X19145250Y-3403500D02*
X19145250Y-3708500D01*
X18992750Y-3556000D02*
X19297750Y-3556000D01*
X19145250Y-7689750D02*
X19145250Y-7994750D01*
X18992750Y-7842250D02*
X19297750Y-7842250D01*
X19304000Y-5530750D02*
X19304000Y-5835750D01*
X19151500Y-5683250D02*
X19456500Y-5683250D01*
X19304000Y-11245750D02*
X19304000Y-11550750D01*
X19151500Y-11398250D02*
X19456500Y-11398250D01*
X19621500Y-9594750D02*
X19621500Y-9899750D01*
X19469000Y-9747250D02*
X19774000Y-9747250D01*
X19780250Y-3149500D02*
X19780250Y-3454500D01*
X19627750Y-3302000D02*
X19932750Y-3302000D01*
X19780250Y-7435750D02*
X19780250Y-7740750D01*
X19627750Y-7588250D02*
X19932750Y-7588250D01*
X20256500Y-9340750D02*
X20256500Y-9645750D01*
X20104000Y-9493250D02*
X20409000Y-9493250D01*
X20574000Y-5784750D02*
X20574000Y-6089750D01*
X20421500Y-5937250D02*
X20726500Y-5937250D01*
X20574000Y-11499750D02*
X20574000Y-11804750D01*
X20421500Y-11652250D02*
X20726500Y-11652250D01*
X21050250Y-3403500D02*
X21050250Y-3708500D01*
X20897750Y-3556000D02*
X21202750Y-3556000D01*
X21050250Y-7689750D02*
X21050250Y-7994750D01*
X20897750Y-7842250D02*
X21202750Y-7842250D01*
X21209000Y-5530750D02*
X21209000Y-5835750D01*
X21056500Y-5683250D02*
X21361500Y-5683250D01*
X21209000Y-11245750D02*
X21209000Y-11550750D01*
X21056500Y-11398250D02*
X21361500Y-11398250D01*
X21526500Y-9594750D02*
X21526500Y-9899750D01*
X21374000Y-9747250D02*
X21679000Y-9747250D01*
X21685250Y-3149500D02*
X21685250Y-3454500D01*
X21532750Y-3302000D02*
X21837750Y-3302000D01*
X21685250Y-7435750D02*
X21685250Y-7740750D01*
X21532750Y-7588250D02*
X21837750Y-7588250D01*
X22161500Y-9340750D02*
X22161500Y-9645750D01*
X22009000Y-9493250D02*
X22314000Y-9493250D01*
X22479000Y-5784750D02*
X22479000Y-6089750D01*
X22326500Y-5937250D02*
X22631500Y-5937250D01*
X22479000Y-11499750D02*
X22479000Y-11804750D01*
X22326500Y-11652250D02*
X22631500Y-11652250D01*
X22955250Y-7689750D02*
X22955250Y-7994750D01*
X22802750Y-7842250D02*
X23107750Y-7842250D01*
X23114000Y-5530750D02*
X23114000Y-5835750D01*
X22961500Y-5683250D02*
X23266500Y-5683250D01*
X23114000Y-11245750D02*
X23114000Y-11550750D01*
X22961500Y-11398250D02*
X23266500Y-11398250D01*
X23431500Y-3403500D02*
X23431500Y-3708500D01*
X23279000Y-3556000D02*
X23584000Y-3556000D01*
X23431500Y-9594750D02*
X23431500Y-9899750D01*
X23279000Y-9747250D02*
X23584000Y-9747250D01*
X23590250Y-7435750D02*
X23590250Y-7740750D01*
X23437750Y-7588250D02*
X23742750Y-7588250D01*
X24066500Y-3149500D02*
X24066500Y-3454500D01*
X23914000Y-3302000D02*
X24219000Y-3302000D01*
X24066500Y-9340750D02*
X24066500Y-9645750D01*
X23914000Y-9493250D02*
X24219000Y-9493250D01*
X24384000Y-5784750D02*
X24384000Y-6089750D01*
X24231500Y-5937250D02*
X24536500Y-5937250D01*
X24384000Y-11499750D02*
X24384000Y-11804750D01*
X24231500Y-11652250D02*
X24536500Y-11652250D01*
X24860250Y-7689750D02*
X24860250Y-7994750D01*
X24707750Y-7842250D02*
X25012750Y-7842250D01*
X25019000Y-5530750D02*
X25019000Y-5835750D01*
X24866500Y-5683250D02*
X25171500Y-5683250D01*
X25019000Y-11245750D02*
X25019000Y-11550750D01*
X24866500Y-11398250D02*
X25171500Y-11398250D01*
X25098375Y-13404750D02*
X25098375Y-13709750D01*
X24945875Y-13557250D02*
X25250875Y-13557250D01*
X25336500Y-3403500D02*
X25336500Y-3708500D01*
X25184000Y-3556000D02*
X25489000Y-3556000D01*
X25336500Y-9594750D02*
X25336500Y-9899750D01*
X25184000Y-9747250D02*
X25489000Y-9747250D01*
X25495250Y-7435750D02*
X25495250Y-7740750D01*
X25342750Y-7588250D02*
X25647750Y-7588250D01*
X25733375Y-13150750D02*
X25733375Y-13455750D01*
X25580875Y-13303250D02*
X25885875Y-13303250D01*
X25971500Y-3149500D02*
X25971500Y-3454500D01*
X25819000Y-3302000D02*
X26124000Y-3302000D01*
X25971500Y-9340750D02*
X25971500Y-9645750D01*
X25819000Y-9493250D02*
X26124000Y-9493250D01*
X26289000Y-5784750D02*
X26289000Y-6089750D01*
X26136500Y-5937250D02*
X26441500Y-5937250D01*
X26289000Y-11499750D02*
X26289000Y-11804750D01*
X26136500Y-11652250D02*
X26441500Y-11652250D01*
X26765250Y-7689750D02*
X26765250Y-7994750D01*
X26612750Y-7842250D02*
X26917750Y-7842250D01*
X26924000Y-5530750D02*
X26924000Y-5835750D01*
X26771500Y-5683250D02*
X27076500Y-5683250D01*
X26924000Y-11245750D02*
X26924000Y-11550750D01*
X26771500Y-11398250D02*
X27076500Y-11398250D01*
X27241500Y-3403500D02*
X27241500Y-3708500D01*
X27089000Y-3556000D02*
X27394000Y-3556000D01*
X27241500Y-9594750D02*
X27241500Y-9899750D01*
X27089000Y-9747250D02*
X27394000Y-9747250D01*
X27400250Y-7435750D02*
X27400250Y-7740750D01*
X27247750Y-7588250D02*
X27552750Y-7588250D01*
X27876500Y-3149500D02*
X27876500Y-3454500D01*
X27724000Y-3302000D02*
X28029000Y-3302000D01*
X27876500Y-9340750D02*
X27876500Y-9645750D01*
X27724000Y-9493250D02*
X28029000Y-9493250D01*
X28194000Y-5784750D02*
X28194000Y-6089750D01*
X28041500Y-5937250D02*
X28346500Y-5937250D01*
X28194000Y-11499750D02*
X28194000Y-11804750D01*
X28041500Y-11652250D02*
X28346500Y-11652250D01*
X28670250Y-7689750D02*
X28670250Y-7994750D01*
X28517750Y-7842250D02*
X28822750Y-7842250D01*
X28829000Y-5530750D02*
X28829000Y-5835750D01*
X28676500Y-5683250D02*
X28981500Y-5683250D01*
X28829000Y-11245750D02*
X28829000Y-11550750D01*
X28676500Y-11398250D02*
X28981500Y-11398250D01*
X29146500Y-3403500D02*
X29146500Y-3708500D01*
X28994000Y-3556000D02*
X29299000Y-3556000D01*
X29146500Y-9594750D02*
X29146500Y-9899750D01*
X28994000Y-9747250D02*
X29299000Y-9747250D01*
X29305250Y-7435750D02*
X29305250Y-7740750D01*
X29152750Y-7588250D02*
X29457750Y-7588250D01*
X29781500Y-3149500D02*
X29781500Y-3454500D01*
X29629000Y-3302000D02*
X29934000Y-3302000D01*
X29781500Y-9340750D02*
X29781500Y-9645750D01*
X29629000Y-9493250D02*
X29934000Y-9493250D01*
X30099000Y-5784750D02*
X30099000Y-6089750D01*
X29946500Y-5937250D02*
X30251500Y-5937250D01*
X30099000Y-11499750D02*
X30099000Y-11804750D01*
X29946500Y-11652250D02*
X30251500Y-11652250D01*
X30575250Y-7689750D02*
X30575250Y-7994750D01*
X30422750Y-7842250D02*
X30727750Y-7842250D01*
X30734000Y-5530750D02*
X30734000Y-5835750D01*
X30581500Y-5683250D02*
X30886500Y-5683250D01*
X30734000Y-11245750D02*
X30734000Y-11550750D01*
X30581500Y-11398250D02*
X30886500Y-11398250D01*
X31051500Y-9594750D02*
X31051500Y-9899750D01*
X30899000Y-9747250D02*
X31204000Y-9747250D01*
X31210250Y-7435750D02*
X31210250Y-7740750D01*
X31057750Y-7588250D02*
X31362750Y-7588250D01*
X31527750Y-3403500D02*
X31527750Y-3708500D01*
X31375250Y-3556000D02*
X31680250Y-3556000D01*
X31686500Y-9340750D02*
X31686500Y-9645750D01*
X31534000Y-9493250D02*
X31839000Y-9493250D01*
X32004000Y-5784750D02*
X32004000Y-6089750D01*
X31851500Y-5937250D02*
X32156500Y-5937250D01*
X32004000Y-11499750D02*
X32004000Y-11804750D01*
X31851500Y-11652250D02*
X32156500Y-11652250D01*
X32162750Y-3149500D02*
X32162750Y-3454500D01*
X32010250Y-3302000D02*
X32315250Y-3302000D01*
X32242125Y-13404750D02*
X32242125Y-13709750D01*
X32089625Y-13557250D02*
X32394625Y-13557250D01*
X32480250Y-7689750D02*
X32480250Y-7994750D01*
X32327750Y-7842250D02*
X32632750Y-7842250D01*
X32639000Y-5530750D02*
X32639000Y-5835750D01*
X32486500Y-5683250D02*
X32791500Y-5683250D01*
X32639000Y-11245750D02*
X32639000Y-11550750D01*
X32486500Y-11398250D02*
X32791500Y-11398250D01*
X32877125Y-13150750D02*
X32877125Y-13455750D01*
X32724625Y-13303250D02*
X33029625Y-13303250D01*
X32956500Y-9594750D02*
X32956500Y-9899750D01*
X32804000Y-9747250D02*
X33109000Y-9747250D01*
X33115250Y-7435750D02*
X33115250Y-7740750D01*
X32962750Y-7588250D02*
X33267750Y-7588250D01*
X33432750Y-3403500D02*
X33432750Y-3708500D01*
X33280250Y-3556000D02*
X33585250Y-3556000D01*
X33591500Y-9340750D02*
X33591500Y-9645750D01*
X33439000Y-9493250D02*
X33744000Y-9493250D01*
X33909000Y-5784750D02*
X33909000Y-6089750D01*
X33756500Y-5937250D02*
X34061500Y-5937250D01*
X33909000Y-11499750D02*
X33909000Y-11804750D01*
X33756500Y-11652250D02*
X34061500Y-11652250D01*
X34067750Y-3149500D02*
X34067750Y-3454500D01*
X33915250Y-3302000D02*
X34220250Y-3302000D01*
X34385250Y-7689750D02*
X34385250Y-7994750D01*
X34232750Y-7842250D02*
X34537750Y-7842250D01*
X34544000Y-5530750D02*
X34544000Y-5835750D01*
X34391500Y-5683250D02*
X34696500Y-5683250D01*
X34544000Y-11245750D02*
X34544000Y-11550750D01*
X34391500Y-11398250D02*
X34696500Y-11398250D01*
X34623375Y-13404750D02*
X34623375Y-13709750D01*
X34470875Y-13557250D02*
X34775875Y-13557250D01*
X34861500Y-9594750D02*
X34861500Y-9899750D01*
X34709000Y-9747250D02*
X35014000Y-9747250D01*
X35020250Y-7435750D02*
X35020250Y-7740750D01*
X34867750Y-7588250D02*
X35172750Y-7588250D01*
X35258375Y-13150750D02*
X35258375Y-13455750D01*
X35105875Y-13303250D02*
X35410875Y-13303250D01*
X35337750Y-3403500D02*
X35337750Y-3708500D01*
X35185250Y-3556000D02*
X35490250Y-3556000D01*
X35496500Y-9340750D02*
X35496500Y-9645750D01*
X35344000Y-9493250D02*
X35649000Y-9493250D01*
X35814000Y-5784750D02*
X35814000Y-6089750D01*
X35661500Y-5937250D02*
X35966500Y-5937250D01*
X35972750Y-3149500D02*
X35972750Y-3454500D01*
X35820250Y-3302000D02*
X36125250Y-3302000D01*
X36290250Y-7689750D02*
X36290250Y-7994750D01*
X36137750Y-7842250D02*
X36442750Y-7842250D01*
X36449000Y-5530750D02*
X36449000Y-5835750D01*
X36296500Y-5683250D02*
X36601500Y-5683250D01*
X36766500Y-9594750D02*
X36766500Y-9899750D01*
X36614000Y-9747250D02*
X36919000Y-9747250D01*
X36925250Y-7435750D02*
X36925250Y-7740750D01*
X36772750Y-7588250D02*
X37077750Y-7588250D01*
X37004625Y-13404750D02*
X37004625Y-13709750D01*
X36852125Y-13557250D02*
X37157125Y-13557250D01*
X37242750Y-3403500D02*
X37242750Y-3708500D01*
X37090250Y-3556000D02*
X37395250Y-3556000D01*
X37401500Y-9340750D02*
X37401500Y-9645750D01*
X37249000Y-9493250D02*
X37554000Y-9493250D01*
X37480875Y-11499750D02*
X37480875Y-11804750D01*
X37328375Y-11652250D02*
X37633375Y-11652250D01*
X37639625Y-13150750D02*
X37639625Y-13455750D01*
X37487125Y-13303250D02*
X37792125Y-13303250D01*
X37877750Y-3149500D02*
X37877750Y-3454500D01*
X37725250Y-3302000D02*
X38030250Y-3302000D01*
X38115875Y-11245750D02*
X38115875Y-11550750D01*
X37963375Y-11398250D02*
X38268375Y-11398250D01*
X38433375Y-5784750D02*
X38433375Y-6089750D01*
X38280875Y-5937250D02*
X38585875Y-5937250D01*
X38909625Y-8642250D02*
X38909625Y-8947250D01*
X38757125Y-8794750D02*
X39062125Y-8794750D01*
X39068375Y-5530750D02*
X39068375Y-5835750D01*
X38915875Y-5683250D02*
X39220875Y-5683250D01*
X39147750Y-3403500D02*
X39147750Y-3708500D01*
X38995250Y-3556000D02*
X39300250Y-3556000D01*
X39147750Y-13404750D02*
X39147750Y-13709750D01*
X38995250Y-13557250D02*
X39300250Y-13557250D01*
X39544625Y-8388250D02*
X39544625Y-8693250D01*
X39392125Y-8540750D02*
X39697125Y-8540750D01*
X39782750Y-3149500D02*
X39782750Y-3454500D01*
X39630250Y-3302000D02*
X39935250Y-3302000D01*
X39782750Y-13150750D02*
X39782750Y-13455750D01*
X39630250Y-13303250D02*
X39935250Y-13303250D01*
X42005250Y-6737250D02*
X42005250Y-7042250D01*
X41852750Y-6889750D02*
X42157750Y-6889750D01*
X42005250Y-8642250D02*
X42005250Y-8947250D01*
X41852750Y-8794750D02*
X42157750Y-8794750D01*
X42005250Y-13404750D02*
X42005250Y-13709750D01*
X41852750Y-13557250D02*
X42157750Y-13557250D01*
X42640250Y-6483250D02*
X42640250Y-6788250D01*
X42487750Y-6635750D02*
X42792750Y-6635750D01*
X42640250Y-8388250D02*
X42640250Y-8693250D01*
X42487750Y-8540750D02*
X42792750Y-8540750D01*
X42640250Y-13150750D02*
X42640250Y-13455750D01*
X42487750Y-13303250D02*
X42792750Y-13303250D01*
X43910250Y-6737250D02*
X43910250Y-7042250D01*
X43757750Y-6889750D02*
X44062750Y-6889750D01*
X43910250Y-8642250D02*
X43910250Y-8947250D01*
X43757750Y-8794750D02*
X44062750Y-8794750D01*
X43910250Y-11499750D02*
X43910250Y-11804750D01*
X43757750Y-11652250D02*
X44062750Y-11652250D01*
X43910250Y-13404750D02*
X43910250Y-13709750D01*
X43757750Y-13557250D02*
X44062750Y-13557250D01*
X44545250Y-6483250D02*
X44545250Y-6788250D01*
X44392750Y-6635750D02*
X44697750Y-6635750D01*
X44545250Y-8388250D02*
X44545250Y-8693250D01*
X44392750Y-8540750D02*
X44697750Y-8540750D01*
X44545250Y-11245750D02*
X44545250Y-11550750D01*
X44392750Y-11398250D02*
X44697750Y-11398250D01*
X44545250Y-13150750D02*
X44545250Y-13455750D01*
X44392750Y-13303250D02*
X44697750Y-13303250D01*
X45815250Y-6737250D02*
X45815250Y-7042250D01*
X45662750Y-6889750D02*
X45967750Y-6889750D01*
X45815250Y-8642250D02*
X45815250Y-8947250D01*
X45662750Y-8794750D02*
X45967750Y-8794750D01*
X45815250Y-13404750D02*
X45815250Y-13709750D01*
X45662750Y-13557250D02*
X45967750Y-13557250D01*
X46450250Y-6483250D02*
X46450250Y-6788250D01*
X46297750Y-6635750D02*
X46602750Y-6635750D01*
X46450250Y-8388250D02*
X46450250Y-8693250D01*
X46297750Y-8540750D02*
X46602750Y-8540750D01*
X46450250Y-13150750D02*
X46450250Y-13455750D01*
X46297750Y-13303250D02*
X46602750Y-13303250D01*
D16*
X11440991Y-7995941D02*
X11440991Y-7713959D01*
X11159009Y-7713959D01*
X11159009Y-7995941D01*
X11440991Y-7995941D01*
X11440991Y-10383541D02*
X11440991Y-10101559D01*
X11159009Y-10101559D01*
X11159009Y-10383541D01*
X11440991Y-10383541D01*
X11440991Y-11805941D02*
X11440991Y-11523959D01*
X11159009Y-11523959D01*
X11159009Y-11805941D01*
X11440991Y-11805941D01*
X11440991Y-14193541D02*
X11440991Y-13911559D01*
X11159009Y-13911559D01*
X11159009Y-14193541D01*
X11440991Y-14193541D01*
X13234691Y-12869741D02*
X13234691Y-12587759D01*
X12952709Y-12587759D01*
X12952709Y-12869741D01*
X13234691Y-12869741D01*
X15622291Y-12869741D02*
X15622291Y-12587759D01*
X15340309Y-12587759D01*
X15340309Y-12869741D01*
X15622291Y-12869741D01*
X20620366Y-13129741D02*
X20620366Y-12847759D01*
X20338384Y-12847759D01*
X20338384Y-13129741D01*
X20620366Y-13129741D01*
X30620366Y-13129741D02*
X30620366Y-12847759D01*
X30338384Y-12847759D01*
X30338384Y-13129741D01*
X30620366Y-13129741D01*
X36809066Y-11224741D02*
X36809066Y-10942759D01*
X36527084Y-10942759D01*
X36527084Y-11224741D01*
X36809066Y-11224741D01*
X37761566Y-7154741D02*
X37761566Y-6872759D01*
X37479584Y-6872759D01*
X37479584Y-7154741D01*
X37761566Y-7154741D01*
X39196666Y-11224741D02*
X39196666Y-10942759D01*
X38914684Y-10942759D01*
X38914684Y-11224741D01*
X39196666Y-11224741D01*
X40149166Y-7154741D02*
X40149166Y-6872759D01*
X39867184Y-6872759D01*
X39867184Y-7154741D01*
X40149166Y-7154741D01*
X40254116Y-7995941D02*
X40254116Y-7713959D01*
X39972134Y-7713959D01*
X39972134Y-7995941D01*
X40254116Y-7995941D01*
X40254116Y-10383541D02*
X40254116Y-10101559D01*
X39972134Y-10101559D01*
X39972134Y-10383541D01*
X40254116Y-10383541D01*
D17*
X4762500Y-6391250D02*
X4962500Y-6191250D01*
X4762500Y-5991250D01*
X4562500Y-6191250D01*
X4762500Y-6391250D01*
X4762500Y-8296250D02*
X4962500Y-8096250D01*
X4762500Y-7896250D01*
X4562500Y-8096250D01*
X4762500Y-8296250D01*
X4762500Y-10201250D02*
X4962500Y-10001250D01*
X4762500Y-9801250D01*
X4562500Y-10001250D01*
X4762500Y-10201250D01*
X4762500Y-12106250D02*
X4962500Y-11906250D01*
X4762500Y-11706250D01*
X4562500Y-11906250D01*
X4762500Y-12106250D01*
X5715000Y-14011250D02*
X5915000Y-13811250D01*
X5715000Y-13611250D01*
X5515000Y-13811250D01*
X5715000Y-14011250D01*
X6667500Y-6391250D02*
X6867500Y-6191250D01*
X6667500Y-5991250D01*
X6467500Y-6191250D01*
X6667500Y-6391250D01*
X6667500Y-8296250D02*
X6867500Y-8096250D01*
X6667500Y-7896250D01*
X6467500Y-8096250D01*
X6667500Y-8296250D01*
X6667500Y-10201250D02*
X6867500Y-10001250D01*
X6667500Y-9801250D01*
X6467500Y-10001250D01*
X6667500Y-10201250D01*
X6667500Y-12106250D02*
X6867500Y-11906250D01*
X6667500Y-11706250D01*
X6467500Y-11906250D01*
X6667500Y-12106250D01*
X8572500Y-6391250D02*
X8772500Y-6191250D01*
X8572500Y-5991250D01*
X8372500Y-6191250D01*
X8572500Y-6391250D01*
X8572500Y-8296250D02*
X8772500Y-8096250D01*
X8572500Y-7896250D01*
X8372500Y-8096250D01*
X8572500Y-8296250D01*
X8572500Y-10201250D02*
X8772500Y-10001250D01*
X8572500Y-9801250D01*
X8372500Y-10001250D01*
X8572500Y-10201250D01*
X8572500Y-12106250D02*
X8772500Y-11906250D01*
X8572500Y-11706250D01*
X8372500Y-11906250D01*
X8572500Y-12106250D01*
X8572500Y-14011250D02*
X8772500Y-13811250D01*
X8572500Y-13611250D01*
X8372500Y-13811250D01*
X8572500Y-14011250D01*
X10477500Y-6391250D02*
X10677500Y-6191250D01*
X10477500Y-5991250D01*
X10277500Y-6191250D01*
X10477500Y-6391250D01*
X10477500Y-9248750D02*
X10677500Y-9048750D01*
X10477500Y-8848750D01*
X10277500Y-9048750D01*
X10477500Y-9248750D01*
X10477500Y-13058750D02*
X10677500Y-12858750D01*
X10477500Y-12658750D01*
X10277500Y-12858750D01*
X10477500Y-13058750D01*
X13335000Y-4010000D02*
X13535000Y-3810000D01*
X13335000Y-3610000D01*
X13135000Y-3810000D01*
X13335000Y-4010000D01*
X13335000Y-6391250D02*
X13535000Y-6191250D01*
X13335000Y-5991250D01*
X13135000Y-6191250D01*
X13335000Y-6391250D01*
X13573125Y-8296250D02*
X13773125Y-8096250D01*
X13573125Y-7896250D01*
X13373125Y-8096250D01*
X13573125Y-8296250D01*
X13573125Y-14011250D02*
X13773125Y-13811250D01*
X13573125Y-13611250D01*
X13373125Y-13811250D01*
X13573125Y-14011250D01*
X13811250Y-10201250D02*
X14011250Y-10001250D01*
X13811250Y-9801250D01*
X13611250Y-10001250D01*
X13811250Y-10201250D01*
X14287500Y-12106250D02*
X14487500Y-11906250D01*
X14287500Y-11706250D01*
X14087500Y-11906250D01*
X14287500Y-12106250D01*
X15240000Y-6391250D02*
X15440000Y-6191250D01*
X15240000Y-5991250D01*
X15040000Y-6191250D01*
X15240000Y-6391250D01*
X15716250Y-4010000D02*
X15916250Y-3810000D01*
X15716250Y-3610000D01*
X15516250Y-3810000D01*
X15716250Y-4010000D01*
X15716250Y-8296250D02*
X15916250Y-8096250D01*
X15716250Y-7896250D01*
X15516250Y-8096250D01*
X15716250Y-8296250D01*
X15954375Y-14011250D02*
X16154375Y-13811250D01*
X15954375Y-13611250D01*
X15754375Y-13811250D01*
X15954375Y-14011250D01*
X16192500Y-10201250D02*
X16392500Y-10001250D01*
X16192500Y-9801250D01*
X15992500Y-10001250D01*
X16192500Y-10201250D01*
X17145000Y-6391250D02*
X17345000Y-6191250D01*
X17145000Y-5991250D01*
X16945000Y-6191250D01*
X17145000Y-6391250D01*
X17145000Y-12106250D02*
X17345000Y-11906250D01*
X17145000Y-11706250D01*
X16945000Y-11906250D01*
X17145000Y-12106250D01*
X17621250Y-4010000D02*
X17821250Y-3810000D01*
X17621250Y-3610000D01*
X17421250Y-3810000D01*
X17621250Y-4010000D01*
X17621250Y-8296250D02*
X17821250Y-8096250D01*
X17621250Y-7896250D01*
X17421250Y-8096250D01*
X17621250Y-8296250D01*
X18097500Y-10201250D02*
X18297500Y-10001250D01*
X18097500Y-9801250D01*
X17897500Y-10001250D01*
X18097500Y-10201250D01*
X18335625Y-14011250D02*
X18535625Y-13811250D01*
X18335625Y-13611250D01*
X18135625Y-13811250D01*
X18335625Y-14011250D01*
X19050000Y-6391250D02*
X19250000Y-6191250D01*
X19050000Y-5991250D01*
X18850000Y-6191250D01*
X19050000Y-6391250D01*
X19050000Y-12106250D02*
X19250000Y-11906250D01*
X19050000Y-11706250D01*
X18850000Y-11906250D01*
X19050000Y-12106250D01*
X19526250Y-4010000D02*
X19726250Y-3810000D01*
X19526250Y-3610000D01*
X19326250Y-3810000D01*
X19526250Y-4010000D01*
X19526250Y-8296250D02*
X19726250Y-8096250D01*
X19526250Y-7896250D01*
X19326250Y-8096250D01*
X19526250Y-8296250D01*
X20002500Y-10201250D02*
X20202500Y-10001250D01*
X20002500Y-9801250D01*
X19802500Y-10001250D01*
X20002500Y-10201250D01*
X20955000Y-6391250D02*
X21155000Y-6191250D01*
X20955000Y-5991250D01*
X20755000Y-6191250D01*
X20955000Y-6391250D01*
X20955000Y-12106250D02*
X21155000Y-11906250D01*
X20955000Y-11706250D01*
X20755000Y-11906250D01*
X20955000Y-12106250D01*
X21431250Y-4010000D02*
X21631250Y-3810000D01*
X21431250Y-3610000D01*
X21231250Y-3810000D01*
X21431250Y-4010000D01*
X21431250Y-8296250D02*
X21631250Y-8096250D01*
X21431250Y-7896250D01*
X21231250Y-8096250D01*
X21431250Y-8296250D01*
X21907500Y-10201250D02*
X22107500Y-10001250D01*
X21907500Y-9801250D01*
X21707500Y-10001250D01*
X21907500Y-10201250D01*
X22860000Y-6391250D02*
X23060000Y-6191250D01*
X22860000Y-5991250D01*
X22660000Y-6191250D01*
X22860000Y-6391250D01*
X22860000Y-12106250D02*
X23060000Y-11906250D01*
X22860000Y-11706250D01*
X22660000Y-11906250D01*
X22860000Y-12106250D01*
X23336250Y-8296250D02*
X23536250Y-8096250D01*
X23336250Y-7896250D01*
X23136250Y-8096250D01*
X23336250Y-8296250D01*
X23812500Y-4010000D02*
X24012500Y-3810000D01*
X23812500Y-3610000D01*
X23612500Y-3810000D01*
X23812500Y-4010000D01*
X23812500Y-10201250D02*
X24012500Y-10001250D01*
X23812500Y-9801250D01*
X23612500Y-10001250D01*
X23812500Y-10201250D01*
X24765000Y-6391250D02*
X24965000Y-6191250D01*
X24765000Y-5991250D01*
X24565000Y-6191250D01*
X24765000Y-6391250D01*
X24765000Y-12106250D02*
X24965000Y-11906250D01*
X24765000Y-11706250D01*
X24565000Y-11906250D01*
X24765000Y-12106250D01*
X25241250Y-8296250D02*
X25441250Y-8096250D01*
X25241250Y-7896250D01*
X25041250Y-8096250D01*
X25241250Y-8296250D01*
X25479375Y-14011250D02*
X25679375Y-13811250D01*
X25479375Y-13611250D01*
X25279375Y-13811250D01*
X25479375Y-14011250D01*
X25717500Y-4010000D02*
X25917500Y-3810000D01*
X25717500Y-3610000D01*
X25517500Y-3810000D01*
X25717500Y-4010000D01*
X25717500Y-10201250D02*
X25917500Y-10001250D01*
X25717500Y-9801250D01*
X25517500Y-10001250D01*
X25717500Y-10201250D01*
X26670000Y-6391250D02*
X26870000Y-6191250D01*
X26670000Y-5991250D01*
X26470000Y-6191250D01*
X26670000Y-6391250D01*
X26670000Y-12106250D02*
X26870000Y-11906250D01*
X26670000Y-11706250D01*
X26470000Y-11906250D01*
X26670000Y-12106250D01*
X27146250Y-8296250D02*
X27346250Y-8096250D01*
X27146250Y-7896250D01*
X26946250Y-8096250D01*
X27146250Y-8296250D01*
X27622500Y-4010000D02*
X27822500Y-3810000D01*
X27622500Y-3610000D01*
X27422500Y-3810000D01*
X27622500Y-4010000D01*
X27622500Y-10201250D02*
X27822500Y-10001250D01*
X27622500Y-9801250D01*
X27422500Y-10001250D01*
X27622500Y-10201250D01*
X28575000Y-6391250D02*
X28775000Y-6191250D01*
X28575000Y-5991250D01*
X28375000Y-6191250D01*
X28575000Y-6391250D01*
X28575000Y-12106250D02*
X28775000Y-11906250D01*
X28575000Y-11706250D01*
X28375000Y-11906250D01*
X28575000Y-12106250D01*
X29051250Y-8296250D02*
X29251250Y-8096250D01*
X29051250Y-7896250D01*
X28851250Y-8096250D01*
X29051250Y-8296250D01*
X29527500Y-4010000D02*
X29727500Y-3810000D01*
X29527500Y-3610000D01*
X29327500Y-3810000D01*
X29527500Y-4010000D01*
X29527500Y-10201250D02*
X29727500Y-10001250D01*
X29527500Y-9801250D01*
X29327500Y-10001250D01*
X29527500Y-10201250D01*
X30480000Y-6391250D02*
X30680000Y-6191250D01*
X30480000Y-5991250D01*
X30280000Y-6191250D01*
X30480000Y-6391250D01*
X30480000Y-12106250D02*
X30680000Y-11906250D01*
X30480000Y-11706250D01*
X30280000Y-11906250D01*
X30480000Y-12106250D01*
X30956250Y-8296250D02*
X31156250Y-8096250D01*
X30956250Y-7896250D01*
X30756250Y-8096250D01*
X30956250Y-8296250D01*
X31432500Y-10201250D02*
X31632500Y-10001250D01*
X31432500Y-9801250D01*
X31232500Y-10001250D01*
X31432500Y-10201250D01*
X31908750Y-4010000D02*
X32108750Y-3810000D01*
X31908750Y-3610000D01*
X31708750Y-3810000D01*
X31908750Y-4010000D01*
X32385000Y-6391250D02*
X32585000Y-6191250D01*
X32385000Y-5991250D01*
X32185000Y-6191250D01*
X32385000Y-6391250D01*
X32385000Y-12106250D02*
X32585000Y-11906250D01*
X32385000Y-11706250D01*
X32185000Y-11906250D01*
X32385000Y-12106250D01*
X32623125Y-14011250D02*
X32823125Y-13811250D01*
X32623125Y-13611250D01*
X32423125Y-13811250D01*
X32623125Y-14011250D01*
X32861250Y-8296250D02*
X33061250Y-8096250D01*
X32861250Y-7896250D01*
X32661250Y-8096250D01*
X32861250Y-8296250D01*
X33337500Y-10201250D02*
X33537500Y-10001250D01*
X33337500Y-9801250D01*
X33137500Y-10001250D01*
X33337500Y-10201250D01*
X33813750Y-4010000D02*
X34013750Y-3810000D01*
X33813750Y-3610000D01*
X33613750Y-3810000D01*
X33813750Y-4010000D01*
X34290000Y-6391250D02*
X34490000Y-6191250D01*
X34290000Y-5991250D01*
X34090000Y-6191250D01*
X34290000Y-6391250D01*
X34290000Y-12106250D02*
X34490000Y-11906250D01*
X34290000Y-11706250D01*
X34090000Y-11906250D01*
X34290000Y-12106250D01*
X34766250Y-8296250D02*
X34966250Y-8096250D01*
X34766250Y-7896250D01*
X34566250Y-8096250D01*
X34766250Y-8296250D01*
X35004375Y-14011250D02*
X35204375Y-13811250D01*
X35004375Y-13611250D01*
X34804375Y-13811250D01*
X35004375Y-14011250D01*
X35242500Y-10201250D02*
X35442500Y-10001250D01*
X35242500Y-9801250D01*
X35042500Y-10001250D01*
X35242500Y-10201250D01*
X35718750Y-4010000D02*
X35918750Y-3810000D01*
X35718750Y-3610000D01*
X35518750Y-3810000D01*
X35718750Y-4010000D01*
X36195000Y-6391250D02*
X36395000Y-6191250D01*
X36195000Y-5991250D01*
X35995000Y-6191250D01*
X36195000Y-6391250D01*
X36671250Y-8296250D02*
X36871250Y-8096250D01*
X36671250Y-7896250D01*
X36471250Y-8096250D01*
X36671250Y-8296250D01*
X37147500Y-10201250D02*
X37347500Y-10001250D01*
X37147500Y-9801250D01*
X36947500Y-10001250D01*
X37147500Y-10201250D01*
X37385625Y-14011250D02*
X37585625Y-13811250D01*
X37385625Y-13611250D01*
X37185625Y-13811250D01*
X37385625Y-14011250D01*
X37623750Y-4010000D02*
X37823750Y-3810000D01*
X37623750Y-3610000D01*
X37423750Y-3810000D01*
X37623750Y-4010000D01*
X37861875Y-12106250D02*
X38061875Y-11906250D01*
X37861875Y-11706250D01*
X37661875Y-11906250D01*
X37861875Y-12106250D01*
X38814375Y-6391250D02*
X39014375Y-6191250D01*
X38814375Y-5991250D01*
X38614375Y-6191250D01*
X38814375Y-6391250D01*
X39290625Y-9248750D02*
X39490625Y-9048750D01*
X39290625Y-8848750D01*
X39090625Y-9048750D01*
X39290625Y-9248750D01*
X39528750Y-4010000D02*
X39728750Y-3810000D01*
X39528750Y-3610000D01*
X39328750Y-3810000D01*
X39528750Y-4010000D01*
X39528750Y-14011250D02*
X39728750Y-13811250D01*
X39528750Y-13611250D01*
X39328750Y-13811250D01*
X39528750Y-14011250D01*
X42386250Y-7343750D02*
X42586250Y-7143750D01*
X42386250Y-6943750D01*
X42186250Y-7143750D01*
X42386250Y-7343750D01*
X42386250Y-9248750D02*
X42586250Y-9048750D01*
X42386250Y-8848750D01*
X42186250Y-9048750D01*
X42386250Y-9248750D01*
X42386250Y-14011250D02*
X42586250Y-13811250D01*
X42386250Y-13611250D01*
X42186250Y-13811250D01*
X42386250Y-14011250D01*
X44291250Y-7343750D02*
X44491250Y-7143750D01*
X44291250Y-6943750D01*
X44091250Y-7143750D01*
X44291250Y-7343750D01*
X44291250Y-9248750D02*
X44491250Y-9048750D01*
X44291250Y-8848750D01*
X44091250Y-9048750D01*
X44291250Y-9248750D01*
X44291250Y-12106250D02*
X44491250Y-11906250D01*
X44291250Y-11706250D01*
X44091250Y-11906250D01*
X44291250Y-12106250D01*
X44291250Y-14011250D02*
X44491250Y-13811250D01*
X44291250Y-13611250D01*
X44091250Y-13811250D01*
X44291250Y-14011250D01*
X46196250Y-7343750D02*
X46396250Y-7143750D01*
X46196250Y-6943750D01*
X45996250Y-7143750D01*
X46196250Y-7343750D01*
X46196250Y-9248750D02*
X46396250Y-9048750D01*
X46196250Y-8848750D01*
X45996250Y-9048750D01*
X46196250Y-9248750D01*
X46196250Y-14011250D02*
X46396250Y-13811250D01*
X46196250Y-13611250D01*
X45996250Y-13811250D01*
X46196250Y-14011250D01*
D11*
X4120777Y-15025184D02*
X4120777Y-14825184D01*
X4120777Y-14825184D02*
X4168396Y-14825184D01*
X4168396Y-14825184D02*
X4196967Y-14834708D01*
X4196967Y-14834708D02*
X4216015Y-14853755D01*
X4216015Y-14853755D02*
X4225539Y-14872803D01*
X4225539Y-14872803D02*
X4235063Y-14910898D01*
X4235063Y-14910898D02*
X4235063Y-14939469D01*
X4235063Y-14939469D02*
X4225539Y-14977565D01*
X4225539Y-14977565D02*
X4216015Y-14996612D01*
X4216015Y-14996612D02*
X4196967Y-15015660D01*
X4196967Y-15015660D02*
X4168396Y-15025184D01*
X4168396Y-15025184D02*
X4120777Y-15025184D01*
X4320777Y-15025184D02*
X4320777Y-14891850D01*
X4320777Y-14929946D02*
X4330301Y-14910898D01*
X4330301Y-14910898D02*
X4339824Y-14901374D01*
X4339824Y-14901374D02*
X4358872Y-14891850D01*
X4358872Y-14891850D02*
X4377920Y-14891850D01*
X4444586Y-15025184D02*
X4444586Y-14891850D01*
X4444586Y-14825184D02*
X4435063Y-14834708D01*
X4435063Y-14834708D02*
X4444586Y-14844231D01*
X4444586Y-14844231D02*
X4454110Y-14834708D01*
X4454110Y-14834708D02*
X4444586Y-14825184D01*
X4444586Y-14825184D02*
X4444586Y-14844231D01*
X4568396Y-15025184D02*
X4549348Y-15015660D01*
X4549348Y-15015660D02*
X4539824Y-14996612D01*
X4539824Y-14996612D02*
X4539824Y-14825184D01*
X4673158Y-15025184D02*
X4654110Y-15015660D01*
X4654110Y-15015660D02*
X4644586Y-14996612D01*
X4644586Y-14996612D02*
X4644586Y-14825184D01*
X4901729Y-15025184D02*
X4901729Y-14825184D01*
X4901729Y-14825184D02*
X4968396Y-14968041D01*
X4968396Y-14968041D02*
X5035063Y-14825184D01*
X5035063Y-14825184D02*
X5035063Y-15025184D01*
X5216015Y-15025184D02*
X5216015Y-14920422D01*
X5216015Y-14920422D02*
X5206491Y-14901374D01*
X5206491Y-14901374D02*
X5187444Y-14891850D01*
X5187444Y-14891850D02*
X5149348Y-14891850D01*
X5149348Y-14891850D02*
X5130301Y-14901374D01*
X5216015Y-15015660D02*
X5196967Y-15025184D01*
X5196967Y-15025184D02*
X5149348Y-15025184D01*
X5149348Y-15025184D02*
X5130301Y-15015660D01*
X5130301Y-15015660D02*
X5120777Y-14996612D01*
X5120777Y-14996612D02*
X5120777Y-14977565D01*
X5120777Y-14977565D02*
X5130301Y-14958517D01*
X5130301Y-14958517D02*
X5149348Y-14948993D01*
X5149348Y-14948993D02*
X5196967Y-14948993D01*
X5196967Y-14948993D02*
X5216015Y-14939469D01*
X5311253Y-14891850D02*
X5311253Y-15091850D01*
X5311253Y-14901374D02*
X5330301Y-14891850D01*
X5330301Y-14891850D02*
X5368396Y-14891850D01*
X5368396Y-14891850D02*
X5387444Y-14901374D01*
X5387444Y-14901374D02*
X5396967Y-14910898D01*
X5396967Y-14910898D02*
X5406491Y-14929946D01*
X5406491Y-14929946D02*
X5406491Y-14987088D01*
X5406491Y-14987088D02*
X5396967Y-15006136D01*
X5396967Y-15006136D02*
X5387444Y-15015660D01*
X5387444Y-15015660D02*
X5368396Y-15025184D01*
X5368396Y-15025184D02*
X5330301Y-15025184D01*
X5330301Y-15025184D02*
X5311253Y-15015660D01*
X5492205Y-15006136D02*
X5501729Y-15015660D01*
X5501729Y-15015660D02*
X5492205Y-15025184D01*
X5492205Y-15025184D02*
X5482682Y-15015660D01*
X5482682Y-15015660D02*
X5492205Y-15006136D01*
X5492205Y-15006136D02*
X5492205Y-15025184D01*
X5492205Y-14901374D02*
X5501729Y-14910898D01*
X5501729Y-14910898D02*
X5492205Y-14920422D01*
X5492205Y-14920422D02*
X5482682Y-14910898D01*
X5482682Y-14910898D02*
X5492205Y-14901374D01*
X5492205Y-14901374D02*
X5492205Y-14920422D01*
D12*
X3685000Y-15266200D02*
X3860000Y-15441200D01*
X3860000Y-15266200D02*
X3685000Y-15441200D01*
D11*
X4225539Y-15445184D02*
X4111253Y-15445184D01*
X4168396Y-15445184D02*
X4168396Y-15245184D01*
X4168396Y-15245184D02*
X4149348Y-15273755D01*
X4149348Y-15273755D02*
X4130301Y-15292803D01*
X4130301Y-15292803D02*
X4111253Y-15302327D01*
X4311253Y-15426136D02*
X4320777Y-15435660D01*
X4320777Y-15435660D02*
X4311253Y-15445184D01*
X4311253Y-15445184D02*
X4301729Y-15435660D01*
X4301729Y-15435660D02*
X4311253Y-15426136D01*
X4311253Y-15426136D02*
X4311253Y-15445184D01*
X4387444Y-15245184D02*
X4520777Y-15245184D01*
X4520777Y-15245184D02*
X4435063Y-15445184D01*
X4692205Y-15245184D02*
X4596967Y-15245184D01*
X4596967Y-15245184D02*
X4587444Y-15340422D01*
X4587444Y-15340422D02*
X4596967Y-15330898D01*
X4596967Y-15330898D02*
X4616015Y-15321374D01*
X4616015Y-15321374D02*
X4663634Y-15321374D01*
X4663634Y-15321374D02*
X4682682Y-15330898D01*
X4682682Y-15330898D02*
X4692205Y-15340422D01*
X4692205Y-15340422D02*
X4701729Y-15359469D01*
X4701729Y-15359469D02*
X4701729Y-15407088D01*
X4701729Y-15407088D02*
X4692205Y-15426136D01*
X4692205Y-15426136D02*
X4682682Y-15435660D01*
X4682682Y-15435660D02*
X4663634Y-15445184D01*
X4663634Y-15445184D02*
X4616015Y-15445184D01*
X4616015Y-15445184D02*
X4596967Y-15435660D01*
X4596967Y-15435660D02*
X4587444Y-15426136D01*
X4825539Y-15245184D02*
X4844586Y-15245184D01*
X4844586Y-15245184D02*
X4863634Y-15254708D01*
X4863634Y-15254708D02*
X4873158Y-15264231D01*
X4873158Y-15264231D02*
X4882682Y-15283279D01*
X4882682Y-15283279D02*
X4892205Y-15321374D01*
X4892205Y-15321374D02*
X4892205Y-15368993D01*
X4892205Y-15368993D02*
X4882682Y-15407088D01*
X4882682Y-15407088D02*
X4873158Y-15426136D01*
X4873158Y-15426136D02*
X4863634Y-15435660D01*
X4863634Y-15435660D02*
X4844586Y-15445184D01*
X4844586Y-15445184D02*
X4825539Y-15445184D01*
X4825539Y-15445184D02*
X4806491Y-15435660D01*
X4806491Y-15435660D02*
X4796967Y-15426136D01*
X4796967Y-15426136D02*
X4787444Y-15407088D01*
X4787444Y-15407088D02*
X4777920Y-15368993D01*
X4777920Y-15368993D02*
X4777920Y-15321374D01*
X4777920Y-15321374D02*
X4787444Y-15283279D01*
X4787444Y-15283279D02*
X4796967Y-15264231D01*
X4796967Y-15264231D02*
X4806491Y-15254708D01*
X4806491Y-15254708D02*
X4825539Y-15245184D01*
X4977920Y-15445184D02*
X4977920Y-15311850D01*
X4977920Y-15330898D02*
X4987444Y-15321374D01*
X4987444Y-15321374D02*
X5006491Y-15311850D01*
X5006491Y-15311850D02*
X5035063Y-15311850D01*
X5035063Y-15311850D02*
X5054110Y-15321374D01*
X5054110Y-15321374D02*
X5063634Y-15340422D01*
X5063634Y-15340422D02*
X5063634Y-15445184D01*
X5063634Y-15340422D02*
X5073158Y-15321374D01*
X5073158Y-15321374D02*
X5092205Y-15311850D01*
X5092205Y-15311850D02*
X5120777Y-15311850D01*
X5120777Y-15311850D02*
X5139825Y-15321374D01*
X5139825Y-15321374D02*
X5149348Y-15340422D01*
X5149348Y-15340422D02*
X5149348Y-15445184D01*
X5244586Y-15445184D02*
X5244586Y-15311850D01*
X5244586Y-15330898D02*
X5254110Y-15321374D01*
X5254110Y-15321374D02*
X5273158Y-15311850D01*
X5273158Y-15311850D02*
X5301729Y-15311850D01*
X5301729Y-15311850D02*
X5320777Y-15321374D01*
X5320777Y-15321374D02*
X5330301Y-15340422D01*
X5330301Y-15340422D02*
X5330301Y-15445184D01*
X5330301Y-15340422D02*
X5339825Y-15321374D01*
X5339825Y-15321374D02*
X5358872Y-15311850D01*
X5358872Y-15311850D02*
X5387444Y-15311850D01*
X5387444Y-15311850D02*
X5406491Y-15321374D01*
X5406491Y-15321374D02*
X5416015Y-15340422D01*
X5416015Y-15340422D02*
X5416015Y-15445184D01*
X5806491Y-15235660D02*
X5635063Y-15492803D01*
X6063634Y-15245184D02*
X6082682Y-15245184D01*
X6082682Y-15245184D02*
X6101729Y-15254708D01*
X6101729Y-15254708D02*
X6111253Y-15264231D01*
X6111253Y-15264231D02*
X6120777Y-15283279D01*
X6120777Y-15283279D02*
X6130301Y-15321374D01*
X6130301Y-15321374D02*
X6130301Y-15368993D01*
X6130301Y-15368993D02*
X6120777Y-15407088D01*
X6120777Y-15407088D02*
X6111253Y-15426136D01*
X6111253Y-15426136D02*
X6101729Y-15435660D01*
X6101729Y-15435660D02*
X6082682Y-15445184D01*
X6082682Y-15445184D02*
X6063634Y-15445184D01*
X6063634Y-15445184D02*
X6044586Y-15435660D01*
X6044586Y-15435660D02*
X6035063Y-15426136D01*
X6035063Y-15426136D02*
X6025539Y-15407088D01*
X6025539Y-15407088D02*
X6016015Y-15368993D01*
X6016015Y-15368993D02*
X6016015Y-15321374D01*
X6016015Y-15321374D02*
X6025539Y-15283279D01*
X6025539Y-15283279D02*
X6035063Y-15264231D01*
X6035063Y-15264231D02*
X6044586Y-15254708D01*
X6044586Y-15254708D02*
X6063634Y-15245184D01*
X6216015Y-15426136D02*
X6225539Y-15435660D01*
X6225539Y-15435660D02*
X6216015Y-15445184D01*
X6216015Y-15445184D02*
X6206491Y-15435660D01*
X6206491Y-15435660D02*
X6216015Y-15426136D01*
X6216015Y-15426136D02*
X6216015Y-15445184D01*
X6349348Y-15245184D02*
X6368396Y-15245184D01*
X6368396Y-15245184D02*
X6387444Y-15254708D01*
X6387444Y-15254708D02*
X6396967Y-15264231D01*
X6396967Y-15264231D02*
X6406491Y-15283279D01*
X6406491Y-15283279D02*
X6416015Y-15321374D01*
X6416015Y-15321374D02*
X6416015Y-15368993D01*
X6416015Y-15368993D02*
X6406491Y-15407088D01*
X6406491Y-15407088D02*
X6396967Y-15426136D01*
X6396967Y-15426136D02*
X6387444Y-15435660D01*
X6387444Y-15435660D02*
X6368396Y-15445184D01*
X6368396Y-15445184D02*
X6349348Y-15445184D01*
X6349348Y-15445184D02*
X6330301Y-15435660D01*
X6330301Y-15435660D02*
X6320777Y-15426136D01*
X6320777Y-15426136D02*
X6311253Y-15407088D01*
X6311253Y-15407088D02*
X6301729Y-15368993D01*
X6301729Y-15368993D02*
X6301729Y-15321374D01*
X6301729Y-15321374D02*
X6311253Y-15283279D01*
X6311253Y-15283279D02*
X6320777Y-15264231D01*
X6320777Y-15264231D02*
X6330301Y-15254708D01*
X6330301Y-15254708D02*
X6349348Y-15245184D01*
X6587444Y-15245184D02*
X6549348Y-15245184D01*
X6549348Y-15245184D02*
X6530301Y-15254708D01*
X6530301Y-15254708D02*
X6520777Y-15264231D01*
X6520777Y-15264231D02*
X6501729Y-15292803D01*
X6501729Y-15292803D02*
X6492206Y-15330898D01*
X6492206Y-15330898D02*
X6492206Y-15407088D01*
X6492206Y-15407088D02*
X6501729Y-15426136D01*
X6501729Y-15426136D02*
X6511253Y-15435660D01*
X6511253Y-15435660D02*
X6530301Y-15445184D01*
X6530301Y-15445184D02*
X6568396Y-15445184D01*
X6568396Y-15445184D02*
X6587444Y-15435660D01*
X6587444Y-15435660D02*
X6596967Y-15426136D01*
X6596967Y-15426136D02*
X6606491Y-15407088D01*
X6606491Y-15407088D02*
X6606491Y-15359469D01*
X6606491Y-15359469D02*
X6596967Y-15340422D01*
X6596967Y-15340422D02*
X6587444Y-15330898D01*
X6587444Y-15330898D02*
X6568396Y-15321374D01*
X6568396Y-15321374D02*
X6530301Y-15321374D01*
X6530301Y-15321374D02*
X6511253Y-15330898D01*
X6511253Y-15330898D02*
X6501729Y-15340422D01*
X6501729Y-15340422D02*
X6492206Y-15359469D01*
X6720777Y-15330898D02*
X6701729Y-15321374D01*
X6701729Y-15321374D02*
X6692206Y-15311850D01*
X6692206Y-15311850D02*
X6682682Y-15292803D01*
X6682682Y-15292803D02*
X6682682Y-15283279D01*
X6682682Y-15283279D02*
X6692206Y-15264231D01*
X6692206Y-15264231D02*
X6701729Y-15254708D01*
X6701729Y-15254708D02*
X6720777Y-15245184D01*
X6720777Y-15245184D02*
X6758872Y-15245184D01*
X6758872Y-15245184D02*
X6777920Y-15254708D01*
X6777920Y-15254708D02*
X6787444Y-15264231D01*
X6787444Y-15264231D02*
X6796967Y-15283279D01*
X6796967Y-15283279D02*
X6796967Y-15292803D01*
X6796967Y-15292803D02*
X6787444Y-15311850D01*
X6787444Y-15311850D02*
X6777920Y-15321374D01*
X6777920Y-15321374D02*
X6758872Y-15330898D01*
X6758872Y-15330898D02*
X6720777Y-15330898D01*
X6720777Y-15330898D02*
X6701729Y-15340422D01*
X6701729Y-15340422D02*
X6692206Y-15349946D01*
X6692206Y-15349946D02*
X6682682Y-15368993D01*
X6682682Y-15368993D02*
X6682682Y-15407088D01*
X6682682Y-15407088D02*
X6692206Y-15426136D01*
X6692206Y-15426136D02*
X6701729Y-15435660D01*
X6701729Y-15435660D02*
X6720777Y-15445184D01*
X6720777Y-15445184D02*
X6758872Y-15445184D01*
X6758872Y-15445184D02*
X6777920Y-15435660D01*
X6777920Y-15435660D02*
X6787444Y-15426136D01*
X6787444Y-15426136D02*
X6796967Y-15407088D01*
X6796967Y-15407088D02*
X6796967Y-15368993D01*
X6796967Y-15368993D02*
X6787444Y-15349946D01*
X6787444Y-15349946D02*
X6777920Y-15340422D01*
X6777920Y-15340422D02*
X6758872Y-15330898D01*
X6892206Y-15445184D02*
X6930301Y-15445184D01*
X6930301Y-15445184D02*
X6949348Y-15435660D01*
X6949348Y-15435660D02*
X6958872Y-15426136D01*
X6958872Y-15426136D02*
X6977920Y-15397565D01*
X6977920Y-15397565D02*
X6987444Y-15359469D01*
X6987444Y-15359469D02*
X6987444Y-15283279D01*
X6987444Y-15283279D02*
X6977920Y-15264231D01*
X6977920Y-15264231D02*
X6968396Y-15254708D01*
X6968396Y-15254708D02*
X6949348Y-15245184D01*
X6949348Y-15245184D02*
X6911253Y-15245184D01*
X6911253Y-15245184D02*
X6892206Y-15254708D01*
X6892206Y-15254708D02*
X6882682Y-15264231D01*
X6882682Y-15264231D02*
X6873158Y-15283279D01*
X6873158Y-15283279D02*
X6873158Y-15330898D01*
X6873158Y-15330898D02*
X6882682Y-15349946D01*
X6882682Y-15349946D02*
X6892206Y-15359469D01*
X6892206Y-15359469D02*
X6911253Y-15368993D01*
X6911253Y-15368993D02*
X6949348Y-15368993D01*
X6949348Y-15368993D02*
X6968396Y-15359469D01*
X6968396Y-15359469D02*
X6977920Y-15349946D01*
X6977920Y-15349946D02*
X6987444Y-15330898D01*
X7063634Y-15245184D02*
X7063634Y-15283279D01*
X7139825Y-15245184D02*
X7139825Y-15283279D01*
X7435063Y-15521374D02*
X7425539Y-15511850D01*
X7425539Y-15511850D02*
X7406491Y-15483279D01*
X7406491Y-15483279D02*
X7396968Y-15464231D01*
X7396968Y-15464231D02*
X7387444Y-15435660D01*
X7387444Y-15435660D02*
X7377920Y-15388041D01*
X7377920Y-15388041D02*
X7377920Y-15349946D01*
X7377920Y-15349946D02*
X7387444Y-15302327D01*
X7387444Y-15302327D02*
X7396968Y-15273755D01*
X7396968Y-15273755D02*
X7406491Y-15254708D01*
X7406491Y-15254708D02*
X7425539Y-15226136D01*
X7425539Y-15226136D02*
X7435063Y-15216612D01*
X7501729Y-15264231D02*
X7511253Y-15254708D01*
X7511253Y-15254708D02*
X7530301Y-15245184D01*
X7530301Y-15245184D02*
X7577920Y-15245184D01*
X7577920Y-15245184D02*
X7596968Y-15254708D01*
X7596968Y-15254708D02*
X7606491Y-15264231D01*
X7606491Y-15264231D02*
X7616015Y-15283279D01*
X7616015Y-15283279D02*
X7616015Y-15302327D01*
X7616015Y-15302327D02*
X7606491Y-15330898D01*
X7606491Y-15330898D02*
X7492206Y-15445184D01*
X7492206Y-15445184D02*
X7616015Y-15445184D01*
X7739825Y-15245184D02*
X7758872Y-15245184D01*
X7758872Y-15245184D02*
X7777920Y-15254708D01*
X7777920Y-15254708D02*
X7787444Y-15264231D01*
X7787444Y-15264231D02*
X7796968Y-15283279D01*
X7796968Y-15283279D02*
X7806491Y-15321374D01*
X7806491Y-15321374D02*
X7806491Y-15368993D01*
X7806491Y-15368993D02*
X7796968Y-15407088D01*
X7796968Y-15407088D02*
X7787444Y-15426136D01*
X7787444Y-15426136D02*
X7777920Y-15435660D01*
X7777920Y-15435660D02*
X7758872Y-15445184D01*
X7758872Y-15445184D02*
X7739825Y-15445184D01*
X7739825Y-15445184D02*
X7720777Y-15435660D01*
X7720777Y-15435660D02*
X7711253Y-15426136D01*
X7711253Y-15426136D02*
X7701729Y-15407088D01*
X7701729Y-15407088D02*
X7692206Y-15368993D01*
X7692206Y-15368993D02*
X7692206Y-15321374D01*
X7692206Y-15321374D02*
X7701729Y-15283279D01*
X7701729Y-15283279D02*
X7711253Y-15264231D01*
X7711253Y-15264231D02*
X7720777Y-15254708D01*
X7720777Y-15254708D02*
X7739825Y-15245184D01*
X7977920Y-15311850D02*
X7977920Y-15445184D01*
X7930301Y-15235660D02*
X7882682Y-15378517D01*
X7882682Y-15378517D02*
X8006491Y-15378517D01*
X8235063Y-15445184D02*
X8235063Y-15245184D01*
X8320777Y-15445184D02*
X8320777Y-15340422D01*
X8320777Y-15340422D02*
X8311253Y-15321374D01*
X8311253Y-15321374D02*
X8292206Y-15311850D01*
X8292206Y-15311850D02*
X8263634Y-15311850D01*
X8263634Y-15311850D02*
X8244587Y-15321374D01*
X8244587Y-15321374D02*
X8235063Y-15330898D01*
X8444587Y-15445184D02*
X8425539Y-15435660D01*
X8425539Y-15435660D02*
X8416015Y-15426136D01*
X8416015Y-15426136D02*
X8406492Y-15407088D01*
X8406492Y-15407088D02*
X8406492Y-15349946D01*
X8406492Y-15349946D02*
X8416015Y-15330898D01*
X8416015Y-15330898D02*
X8425539Y-15321374D01*
X8425539Y-15321374D02*
X8444587Y-15311850D01*
X8444587Y-15311850D02*
X8473158Y-15311850D01*
X8473158Y-15311850D02*
X8492206Y-15321374D01*
X8492206Y-15321374D02*
X8501730Y-15330898D01*
X8501730Y-15330898D02*
X8511253Y-15349946D01*
X8511253Y-15349946D02*
X8511253Y-15407088D01*
X8511253Y-15407088D02*
X8501730Y-15426136D01*
X8501730Y-15426136D02*
X8492206Y-15435660D01*
X8492206Y-15435660D02*
X8473158Y-15445184D01*
X8473158Y-15445184D02*
X8444587Y-15445184D01*
X8625539Y-15445184D02*
X8606492Y-15435660D01*
X8606492Y-15435660D02*
X8596968Y-15416612D01*
X8596968Y-15416612D02*
X8596968Y-15245184D01*
X8777920Y-15435660D02*
X8758873Y-15445184D01*
X8758873Y-15445184D02*
X8720777Y-15445184D01*
X8720777Y-15445184D02*
X8701730Y-15435660D01*
X8701730Y-15435660D02*
X8692206Y-15416612D01*
X8692206Y-15416612D02*
X8692206Y-15340422D01*
X8692206Y-15340422D02*
X8701730Y-15321374D01*
X8701730Y-15321374D02*
X8720777Y-15311850D01*
X8720777Y-15311850D02*
X8758873Y-15311850D01*
X8758873Y-15311850D02*
X8777920Y-15321374D01*
X8777920Y-15321374D02*
X8787444Y-15340422D01*
X8787444Y-15340422D02*
X8787444Y-15359469D01*
X8787444Y-15359469D02*
X8692206Y-15378517D01*
X8863634Y-15435660D02*
X8882682Y-15445184D01*
X8882682Y-15445184D02*
X8920777Y-15445184D01*
X8920777Y-15445184D02*
X8939825Y-15435660D01*
X8939825Y-15435660D02*
X8949349Y-15416612D01*
X8949349Y-15416612D02*
X8949349Y-15407088D01*
X8949349Y-15407088D02*
X8939825Y-15388041D01*
X8939825Y-15388041D02*
X8920777Y-15378517D01*
X8920777Y-15378517D02*
X8892206Y-15378517D01*
X8892206Y-15378517D02*
X8873158Y-15368993D01*
X8873158Y-15368993D02*
X8863634Y-15349946D01*
X8863634Y-15349946D02*
X8863634Y-15340422D01*
X8863634Y-15340422D02*
X8873158Y-15321374D01*
X8873158Y-15321374D02*
X8892206Y-15311850D01*
X8892206Y-15311850D02*
X8920777Y-15311850D01*
X8920777Y-15311850D02*
X8939825Y-15321374D01*
X9016015Y-15521374D02*
X9025539Y-15511850D01*
X9025539Y-15511850D02*
X9044587Y-15483279D01*
X9044587Y-15483279D02*
X9054111Y-15464231D01*
X9054111Y-15464231D02*
X9063634Y-15435660D01*
X9063634Y-15435660D02*
X9073158Y-15388041D01*
X9073158Y-15388041D02*
X9073158Y-15349946D01*
X9073158Y-15349946D02*
X9063634Y-15302327D01*
X9063634Y-15302327D02*
X9054111Y-15273755D01*
X9054111Y-15273755D02*
X9044587Y-15254708D01*
X9044587Y-15254708D02*
X9025539Y-15226136D01*
X9025539Y-15226136D02*
X9016015Y-15216612D01*
X9377920Y-15521374D02*
X9368396Y-15511850D01*
X9368396Y-15511850D02*
X9349349Y-15483279D01*
X9349349Y-15483279D02*
X9339825Y-15464231D01*
X9339825Y-15464231D02*
X9330301Y-15435660D01*
X9330301Y-15435660D02*
X9320777Y-15388041D01*
X9320777Y-15388041D02*
X9320777Y-15349946D01*
X9320777Y-15349946D02*
X9330301Y-15302327D01*
X9330301Y-15302327D02*
X9339825Y-15273755D01*
X9339825Y-15273755D02*
X9349349Y-15254708D01*
X9349349Y-15254708D02*
X9368396Y-15226136D01*
X9368396Y-15226136D02*
X9377920Y-15216612D01*
X9454111Y-15311850D02*
X9454111Y-15445184D01*
X9454111Y-15330898D02*
X9463634Y-15321374D01*
X9463634Y-15321374D02*
X9482682Y-15311850D01*
X9482682Y-15311850D02*
X9511254Y-15311850D01*
X9511254Y-15311850D02*
X9530301Y-15321374D01*
X9530301Y-15321374D02*
X9539825Y-15340422D01*
X9539825Y-15340422D02*
X9539825Y-15445184D01*
X9663634Y-15445184D02*
X9644587Y-15435660D01*
X9644587Y-15435660D02*
X9635063Y-15426136D01*
X9635063Y-15426136D02*
X9625539Y-15407088D01*
X9625539Y-15407088D02*
X9625539Y-15349946D01*
X9625539Y-15349946D02*
X9635063Y-15330898D01*
X9635063Y-15330898D02*
X9644587Y-15321374D01*
X9644587Y-15321374D02*
X9663634Y-15311850D01*
X9663634Y-15311850D02*
X9692206Y-15311850D01*
X9692206Y-15311850D02*
X9711254Y-15321374D01*
X9711254Y-15321374D02*
X9720777Y-15330898D01*
X9720777Y-15330898D02*
X9730301Y-15349946D01*
X9730301Y-15349946D02*
X9730301Y-15407088D01*
X9730301Y-15407088D02*
X9720777Y-15426136D01*
X9720777Y-15426136D02*
X9711254Y-15435660D01*
X9711254Y-15435660D02*
X9692206Y-15445184D01*
X9692206Y-15445184D02*
X9663634Y-15445184D01*
X9787444Y-15311850D02*
X9863634Y-15311850D01*
X9816015Y-15245184D02*
X9816015Y-15416612D01*
X9816015Y-15416612D02*
X9825539Y-15435660D01*
X9825539Y-15435660D02*
X9844587Y-15445184D01*
X9844587Y-15445184D02*
X9863634Y-15445184D01*
X10082682Y-15311850D02*
X10082682Y-15511850D01*
X10082682Y-15321374D02*
X10101730Y-15311850D01*
X10101730Y-15311850D02*
X10139825Y-15311850D01*
X10139825Y-15311850D02*
X10158873Y-15321374D01*
X10158873Y-15321374D02*
X10168396Y-15330898D01*
X10168396Y-15330898D02*
X10177920Y-15349946D01*
X10177920Y-15349946D02*
X10177920Y-15407088D01*
X10177920Y-15407088D02*
X10168396Y-15426136D01*
X10168396Y-15426136D02*
X10158873Y-15435660D01*
X10158873Y-15435660D02*
X10139825Y-15445184D01*
X10139825Y-15445184D02*
X10101730Y-15445184D01*
X10101730Y-15445184D02*
X10082682Y-15435660D01*
X10292206Y-15445184D02*
X10273158Y-15435660D01*
X10273158Y-15435660D02*
X10263635Y-15416612D01*
X10263635Y-15416612D02*
X10263635Y-15245184D01*
X10454111Y-15445184D02*
X10454111Y-15340422D01*
X10454111Y-15340422D02*
X10444587Y-15321374D01*
X10444587Y-15321374D02*
X10425539Y-15311850D01*
X10425539Y-15311850D02*
X10387444Y-15311850D01*
X10387444Y-15311850D02*
X10368396Y-15321374D01*
X10454111Y-15435660D02*
X10435063Y-15445184D01*
X10435063Y-15445184D02*
X10387444Y-15445184D01*
X10387444Y-15445184D02*
X10368396Y-15435660D01*
X10368396Y-15435660D02*
X10358873Y-15416612D01*
X10358873Y-15416612D02*
X10358873Y-15397565D01*
X10358873Y-15397565D02*
X10368396Y-15378517D01*
X10368396Y-15378517D02*
X10387444Y-15368993D01*
X10387444Y-15368993D02*
X10435063Y-15368993D01*
X10435063Y-15368993D02*
X10454111Y-15359469D01*
X10520777Y-15311850D02*
X10596968Y-15311850D01*
X10549349Y-15245184D02*
X10549349Y-15416612D01*
X10549349Y-15416612D02*
X10558873Y-15435660D01*
X10558873Y-15435660D02*
X10577920Y-15445184D01*
X10577920Y-15445184D02*
X10596968Y-15445184D01*
X10739825Y-15435660D02*
X10720777Y-15445184D01*
X10720777Y-15445184D02*
X10682682Y-15445184D01*
X10682682Y-15445184D02*
X10663635Y-15435660D01*
X10663635Y-15435660D02*
X10654111Y-15416612D01*
X10654111Y-15416612D02*
X10654111Y-15340422D01*
X10654111Y-15340422D02*
X10663635Y-15321374D01*
X10663635Y-15321374D02*
X10682682Y-15311850D01*
X10682682Y-15311850D02*
X10720777Y-15311850D01*
X10720777Y-15311850D02*
X10739825Y-15321374D01*
X10739825Y-15321374D02*
X10749349Y-15340422D01*
X10749349Y-15340422D02*
X10749349Y-15359469D01*
X10749349Y-15359469D02*
X10654111Y-15378517D01*
X10920777Y-15445184D02*
X10920777Y-15245184D01*
X10920777Y-15435660D02*
X10901730Y-15445184D01*
X10901730Y-15445184D02*
X10863635Y-15445184D01*
X10863635Y-15445184D02*
X10844587Y-15435660D01*
X10844587Y-15435660D02*
X10835063Y-15426136D01*
X10835063Y-15426136D02*
X10825539Y-15407088D01*
X10825539Y-15407088D02*
X10825539Y-15349946D01*
X10825539Y-15349946D02*
X10835063Y-15330898D01*
X10835063Y-15330898D02*
X10844587Y-15321374D01*
X10844587Y-15321374D02*
X10863635Y-15311850D01*
X10863635Y-15311850D02*
X10901730Y-15311850D01*
X10901730Y-15311850D02*
X10920777Y-15321374D01*
X10996968Y-15521374D02*
X11006492Y-15511850D01*
X11006492Y-15511850D02*
X11025539Y-15483279D01*
X11025539Y-15483279D02*
X11035063Y-15464231D01*
X11035063Y-15464231D02*
X11044587Y-15435660D01*
X11044587Y-15435660D02*
X11054111Y-15388041D01*
X11054111Y-15388041D02*
X11054111Y-15349946D01*
X11054111Y-15349946D02*
X11044587Y-15302327D01*
X11044587Y-15302327D02*
X11035063Y-15273755D01*
X11035063Y-15273755D02*
X11025539Y-15254708D01*
X11025539Y-15254708D02*
X11006492Y-15226136D01*
X11006492Y-15226136D02*
X10996968Y-15216612D01*
X3860000Y-15648700D02*
G75*
G02*
X3660000Y-15648700I-100000J0D01*
G01*
X3660000Y-15648700D02*
G75*
G02*
X3860000Y-15648700I100000J0D01*
G01*
X4101729Y-15540184D02*
X4225539Y-15540184D01*
X4225539Y-15540184D02*
X4158872Y-15616374D01*
X4158872Y-15616374D02*
X4187443Y-15616374D01*
X4187443Y-15616374D02*
X4206491Y-15625898D01*
X4206491Y-15625898D02*
X4216015Y-15635422D01*
X4216015Y-15635422D02*
X4225539Y-15654469D01*
X4225539Y-15654469D02*
X4225539Y-15702088D01*
X4225539Y-15702088D02*
X4216015Y-15721136D01*
X4216015Y-15721136D02*
X4206491Y-15730660D01*
X4206491Y-15730660D02*
X4187443Y-15740184D01*
X4187443Y-15740184D02*
X4130301Y-15740184D01*
X4130301Y-15740184D02*
X4111253Y-15730660D01*
X4111253Y-15730660D02*
X4101729Y-15721136D01*
X4311253Y-15721136D02*
X4320777Y-15730660D01*
X4320777Y-15730660D02*
X4311253Y-15740184D01*
X4311253Y-15740184D02*
X4301729Y-15730660D01*
X4301729Y-15730660D02*
X4311253Y-15721136D01*
X4311253Y-15721136D02*
X4311253Y-15740184D01*
X4444586Y-15540184D02*
X4463634Y-15540184D01*
X4463634Y-15540184D02*
X4482682Y-15549708D01*
X4482682Y-15549708D02*
X4492205Y-15559231D01*
X4492205Y-15559231D02*
X4501729Y-15578279D01*
X4501729Y-15578279D02*
X4511253Y-15616374D01*
X4511253Y-15616374D02*
X4511253Y-15663993D01*
X4511253Y-15663993D02*
X4501729Y-15702088D01*
X4501729Y-15702088D02*
X4492205Y-15721136D01*
X4492205Y-15721136D02*
X4482682Y-15730660D01*
X4482682Y-15730660D02*
X4463634Y-15740184D01*
X4463634Y-15740184D02*
X4444586Y-15740184D01*
X4444586Y-15740184D02*
X4425539Y-15730660D01*
X4425539Y-15730660D02*
X4416015Y-15721136D01*
X4416015Y-15721136D02*
X4406491Y-15702088D01*
X4406491Y-15702088D02*
X4396967Y-15663993D01*
X4396967Y-15663993D02*
X4396967Y-15616374D01*
X4396967Y-15616374D02*
X4406491Y-15578279D01*
X4406491Y-15578279D02*
X4416015Y-15559231D01*
X4416015Y-15559231D02*
X4425539Y-15549708D01*
X4425539Y-15549708D02*
X4444586Y-15540184D01*
X4682682Y-15606850D02*
X4682682Y-15740184D01*
X4635063Y-15530660D02*
X4587444Y-15673517D01*
X4587444Y-15673517D02*
X4711253Y-15673517D01*
X4816015Y-15625898D02*
X4796967Y-15616374D01*
X4796967Y-15616374D02*
X4787444Y-15606850D01*
X4787444Y-15606850D02*
X4777920Y-15587803D01*
X4777920Y-15587803D02*
X4777920Y-15578279D01*
X4777920Y-15578279D02*
X4787444Y-15559231D01*
X4787444Y-15559231D02*
X4796967Y-15549708D01*
X4796967Y-15549708D02*
X4816015Y-15540184D01*
X4816015Y-15540184D02*
X4854110Y-15540184D01*
X4854110Y-15540184D02*
X4873158Y-15549708D01*
X4873158Y-15549708D02*
X4882682Y-15559231D01*
X4882682Y-15559231D02*
X4892205Y-15578279D01*
X4892205Y-15578279D02*
X4892205Y-15587803D01*
X4892205Y-15587803D02*
X4882682Y-15606850D01*
X4882682Y-15606850D02*
X4873158Y-15616374D01*
X4873158Y-15616374D02*
X4854110Y-15625898D01*
X4854110Y-15625898D02*
X4816015Y-15625898D01*
X4816015Y-15625898D02*
X4796967Y-15635422D01*
X4796967Y-15635422D02*
X4787444Y-15644946D01*
X4787444Y-15644946D02*
X4777920Y-15663993D01*
X4777920Y-15663993D02*
X4777920Y-15702088D01*
X4777920Y-15702088D02*
X4787444Y-15721136D01*
X4787444Y-15721136D02*
X4796967Y-15730660D01*
X4796967Y-15730660D02*
X4816015Y-15740184D01*
X4816015Y-15740184D02*
X4854110Y-15740184D01*
X4854110Y-15740184D02*
X4873158Y-15730660D01*
X4873158Y-15730660D02*
X4882682Y-15721136D01*
X4882682Y-15721136D02*
X4892205Y-15702088D01*
X4892205Y-15702088D02*
X4892205Y-15663993D01*
X4892205Y-15663993D02*
X4882682Y-15644946D01*
X4882682Y-15644946D02*
X4873158Y-15635422D01*
X4873158Y-15635422D02*
X4854110Y-15625898D01*
X4977920Y-15740184D02*
X4977920Y-15606850D01*
X4977920Y-15625898D02*
X4987444Y-15616374D01*
X4987444Y-15616374D02*
X5006491Y-15606850D01*
X5006491Y-15606850D02*
X5035063Y-15606850D01*
X5035063Y-15606850D02*
X5054110Y-15616374D01*
X5054110Y-15616374D02*
X5063634Y-15635422D01*
X5063634Y-15635422D02*
X5063634Y-15740184D01*
X5063634Y-15635422D02*
X5073158Y-15616374D01*
X5073158Y-15616374D02*
X5092205Y-15606850D01*
X5092205Y-15606850D02*
X5120777Y-15606850D01*
X5120777Y-15606850D02*
X5139825Y-15616374D01*
X5139825Y-15616374D02*
X5149348Y-15635422D01*
X5149348Y-15635422D02*
X5149348Y-15740184D01*
X5244586Y-15740184D02*
X5244586Y-15606850D01*
X5244586Y-15625898D02*
X5254110Y-15616374D01*
X5254110Y-15616374D02*
X5273158Y-15606850D01*
X5273158Y-15606850D02*
X5301729Y-15606850D01*
X5301729Y-15606850D02*
X5320777Y-15616374D01*
X5320777Y-15616374D02*
X5330301Y-15635422D01*
X5330301Y-15635422D02*
X5330301Y-15740184D01*
X5330301Y-15635422D02*
X5339825Y-15616374D01*
X5339825Y-15616374D02*
X5358872Y-15606850D01*
X5358872Y-15606850D02*
X5387444Y-15606850D01*
X5387444Y-15606850D02*
X5406491Y-15616374D01*
X5406491Y-15616374D02*
X5416015Y-15635422D01*
X5416015Y-15635422D02*
X5416015Y-15740184D01*
X5806491Y-15530660D02*
X5635063Y-15787803D01*
X6063634Y-15540184D02*
X6082682Y-15540184D01*
X6082682Y-15540184D02*
X6101729Y-15549708D01*
X6101729Y-15549708D02*
X6111253Y-15559231D01*
X6111253Y-15559231D02*
X6120777Y-15578279D01*
X6120777Y-15578279D02*
X6130301Y-15616374D01*
X6130301Y-15616374D02*
X6130301Y-15663993D01*
X6130301Y-15663993D02*
X6120777Y-15702088D01*
X6120777Y-15702088D02*
X6111253Y-15721136D01*
X6111253Y-15721136D02*
X6101729Y-15730660D01*
X6101729Y-15730660D02*
X6082682Y-15740184D01*
X6082682Y-15740184D02*
X6063634Y-15740184D01*
X6063634Y-15740184D02*
X6044586Y-15730660D01*
X6044586Y-15730660D02*
X6035063Y-15721136D01*
X6035063Y-15721136D02*
X6025539Y-15702088D01*
X6025539Y-15702088D02*
X6016015Y-15663993D01*
X6016015Y-15663993D02*
X6016015Y-15616374D01*
X6016015Y-15616374D02*
X6025539Y-15578279D01*
X6025539Y-15578279D02*
X6035063Y-15559231D01*
X6035063Y-15559231D02*
X6044586Y-15549708D01*
X6044586Y-15549708D02*
X6063634Y-15540184D01*
X6216015Y-15721136D02*
X6225539Y-15730660D01*
X6225539Y-15730660D02*
X6216015Y-15740184D01*
X6216015Y-15740184D02*
X6206491Y-15730660D01*
X6206491Y-15730660D02*
X6216015Y-15721136D01*
X6216015Y-15721136D02*
X6216015Y-15740184D01*
X6416015Y-15740184D02*
X6301729Y-15740184D01*
X6358872Y-15740184D02*
X6358872Y-15540184D01*
X6358872Y-15540184D02*
X6339825Y-15568755D01*
X6339825Y-15568755D02*
X6320777Y-15587803D01*
X6320777Y-15587803D02*
X6301729Y-15597327D01*
X6492206Y-15559231D02*
X6501729Y-15549708D01*
X6501729Y-15549708D02*
X6520777Y-15540184D01*
X6520777Y-15540184D02*
X6568396Y-15540184D01*
X6568396Y-15540184D02*
X6587444Y-15549708D01*
X6587444Y-15549708D02*
X6596967Y-15559231D01*
X6596967Y-15559231D02*
X6606491Y-15578279D01*
X6606491Y-15578279D02*
X6606491Y-15597327D01*
X6606491Y-15597327D02*
X6596967Y-15625898D01*
X6596967Y-15625898D02*
X6482682Y-15740184D01*
X6482682Y-15740184D02*
X6606491Y-15740184D01*
X6730301Y-15540184D02*
X6749348Y-15540184D01*
X6749348Y-15540184D02*
X6768396Y-15549708D01*
X6768396Y-15549708D02*
X6777920Y-15559231D01*
X6777920Y-15559231D02*
X6787444Y-15578279D01*
X6787444Y-15578279D02*
X6796967Y-15616374D01*
X6796967Y-15616374D02*
X6796967Y-15663993D01*
X6796967Y-15663993D02*
X6787444Y-15702088D01*
X6787444Y-15702088D02*
X6777920Y-15721136D01*
X6777920Y-15721136D02*
X6768396Y-15730660D01*
X6768396Y-15730660D02*
X6749348Y-15740184D01*
X6749348Y-15740184D02*
X6730301Y-15740184D01*
X6730301Y-15740184D02*
X6711253Y-15730660D01*
X6711253Y-15730660D02*
X6701729Y-15721136D01*
X6701729Y-15721136D02*
X6692206Y-15702088D01*
X6692206Y-15702088D02*
X6682682Y-15663993D01*
X6682682Y-15663993D02*
X6682682Y-15616374D01*
X6682682Y-15616374D02*
X6692206Y-15578279D01*
X6692206Y-15578279D02*
X6701729Y-15559231D01*
X6701729Y-15559231D02*
X6711253Y-15549708D01*
X6711253Y-15549708D02*
X6730301Y-15540184D01*
X6920777Y-15540184D02*
X6939825Y-15540184D01*
X6939825Y-15540184D02*
X6958872Y-15549708D01*
X6958872Y-15549708D02*
X6968396Y-15559231D01*
X6968396Y-15559231D02*
X6977920Y-15578279D01*
X6977920Y-15578279D02*
X6987444Y-15616374D01*
X6987444Y-15616374D02*
X6987444Y-15663993D01*
X6987444Y-15663993D02*
X6977920Y-15702088D01*
X6977920Y-15702088D02*
X6968396Y-15721136D01*
X6968396Y-15721136D02*
X6958872Y-15730660D01*
X6958872Y-15730660D02*
X6939825Y-15740184D01*
X6939825Y-15740184D02*
X6920777Y-15740184D01*
X6920777Y-15740184D02*
X6901729Y-15730660D01*
X6901729Y-15730660D02*
X6892206Y-15721136D01*
X6892206Y-15721136D02*
X6882682Y-15702088D01*
X6882682Y-15702088D02*
X6873158Y-15663993D01*
X6873158Y-15663993D02*
X6873158Y-15616374D01*
X6873158Y-15616374D02*
X6882682Y-15578279D01*
X6882682Y-15578279D02*
X6892206Y-15559231D01*
X6892206Y-15559231D02*
X6901729Y-15549708D01*
X6901729Y-15549708D02*
X6920777Y-15540184D01*
X7063634Y-15540184D02*
X7063634Y-15578279D01*
X7139825Y-15540184D02*
X7139825Y-15578279D01*
X7435063Y-15816374D02*
X7425539Y-15806850D01*
X7425539Y-15806850D02*
X7406491Y-15778279D01*
X7406491Y-15778279D02*
X7396968Y-15759231D01*
X7396968Y-15759231D02*
X7387444Y-15730660D01*
X7387444Y-15730660D02*
X7377920Y-15683041D01*
X7377920Y-15683041D02*
X7377920Y-15644946D01*
X7377920Y-15644946D02*
X7387444Y-15597327D01*
X7387444Y-15597327D02*
X7396968Y-15568755D01*
X7396968Y-15568755D02*
X7406491Y-15549708D01*
X7406491Y-15549708D02*
X7425539Y-15521136D01*
X7425539Y-15521136D02*
X7435063Y-15511612D01*
X7616015Y-15740184D02*
X7501729Y-15740184D01*
X7558872Y-15740184D02*
X7558872Y-15540184D01*
X7558872Y-15540184D02*
X7539825Y-15568755D01*
X7539825Y-15568755D02*
X7520777Y-15587803D01*
X7520777Y-15587803D02*
X7501729Y-15597327D01*
X7692206Y-15559231D02*
X7701729Y-15549708D01*
X7701729Y-15549708D02*
X7720777Y-15540184D01*
X7720777Y-15540184D02*
X7768396Y-15540184D01*
X7768396Y-15540184D02*
X7787444Y-15549708D01*
X7787444Y-15549708D02*
X7796968Y-15559231D01*
X7796968Y-15559231D02*
X7806491Y-15578279D01*
X7806491Y-15578279D02*
X7806491Y-15597327D01*
X7806491Y-15597327D02*
X7796968Y-15625898D01*
X7796968Y-15625898D02*
X7682682Y-15740184D01*
X7682682Y-15740184D02*
X7806491Y-15740184D01*
X8044587Y-15740184D02*
X8044587Y-15540184D01*
X8130301Y-15740184D02*
X8130301Y-15635422D01*
X8130301Y-15635422D02*
X8120777Y-15616374D01*
X8120777Y-15616374D02*
X8101730Y-15606850D01*
X8101730Y-15606850D02*
X8073158Y-15606850D01*
X8073158Y-15606850D02*
X8054110Y-15616374D01*
X8054110Y-15616374D02*
X8044587Y-15625898D01*
X8254110Y-15740184D02*
X8235063Y-15730660D01*
X8235063Y-15730660D02*
X8225539Y-15721136D01*
X8225539Y-15721136D02*
X8216015Y-15702088D01*
X8216015Y-15702088D02*
X8216015Y-15644946D01*
X8216015Y-15644946D02*
X8225539Y-15625898D01*
X8225539Y-15625898D02*
X8235063Y-15616374D01*
X8235063Y-15616374D02*
X8254110Y-15606850D01*
X8254110Y-15606850D02*
X8282682Y-15606850D01*
X8282682Y-15606850D02*
X8301730Y-15616374D01*
X8301730Y-15616374D02*
X8311253Y-15625898D01*
X8311253Y-15625898D02*
X8320777Y-15644946D01*
X8320777Y-15644946D02*
X8320777Y-15702088D01*
X8320777Y-15702088D02*
X8311253Y-15721136D01*
X8311253Y-15721136D02*
X8301730Y-15730660D01*
X8301730Y-15730660D02*
X8282682Y-15740184D01*
X8282682Y-15740184D02*
X8254110Y-15740184D01*
X8435063Y-15740184D02*
X8416015Y-15730660D01*
X8416015Y-15730660D02*
X8406492Y-15711612D01*
X8406492Y-15711612D02*
X8406492Y-15540184D01*
X8587444Y-15730660D02*
X8568396Y-15740184D01*
X8568396Y-15740184D02*
X8530301Y-15740184D01*
X8530301Y-15740184D02*
X8511253Y-15730660D01*
X8511253Y-15730660D02*
X8501730Y-15711612D01*
X8501730Y-15711612D02*
X8501730Y-15635422D01*
X8501730Y-15635422D02*
X8511253Y-15616374D01*
X8511253Y-15616374D02*
X8530301Y-15606850D01*
X8530301Y-15606850D02*
X8568396Y-15606850D01*
X8568396Y-15606850D02*
X8587444Y-15616374D01*
X8587444Y-15616374D02*
X8596968Y-15635422D01*
X8596968Y-15635422D02*
X8596968Y-15654469D01*
X8596968Y-15654469D02*
X8501730Y-15673517D01*
X8673158Y-15730660D02*
X8692206Y-15740184D01*
X8692206Y-15740184D02*
X8730301Y-15740184D01*
X8730301Y-15740184D02*
X8749349Y-15730660D01*
X8749349Y-15730660D02*
X8758873Y-15711612D01*
X8758873Y-15711612D02*
X8758873Y-15702088D01*
X8758873Y-15702088D02*
X8749349Y-15683041D01*
X8749349Y-15683041D02*
X8730301Y-15673517D01*
X8730301Y-15673517D02*
X8701730Y-15673517D01*
X8701730Y-15673517D02*
X8682682Y-15663993D01*
X8682682Y-15663993D02*
X8673158Y-15644946D01*
X8673158Y-15644946D02*
X8673158Y-15635422D01*
X8673158Y-15635422D02*
X8682682Y-15616374D01*
X8682682Y-15616374D02*
X8701730Y-15606850D01*
X8701730Y-15606850D02*
X8730301Y-15606850D01*
X8730301Y-15606850D02*
X8749349Y-15616374D01*
X8996968Y-15663993D02*
X9149349Y-15663993D01*
X9073158Y-15740184D02*
X9073158Y-15587803D01*
X9387444Y-15559231D02*
X9396968Y-15549708D01*
X9396968Y-15549708D02*
X9416015Y-15540184D01*
X9416015Y-15540184D02*
X9463635Y-15540184D01*
X9463635Y-15540184D02*
X9482682Y-15549708D01*
X9482682Y-15549708D02*
X9492206Y-15559231D01*
X9492206Y-15559231D02*
X9501730Y-15578279D01*
X9501730Y-15578279D02*
X9501730Y-15597327D01*
X9501730Y-15597327D02*
X9492206Y-15625898D01*
X9492206Y-15625898D02*
X9377920Y-15740184D01*
X9377920Y-15740184D02*
X9501730Y-15740184D01*
X9730301Y-15730660D02*
X9749349Y-15740184D01*
X9749349Y-15740184D02*
X9787444Y-15740184D01*
X9787444Y-15740184D02*
X9806492Y-15730660D01*
X9806492Y-15730660D02*
X9816016Y-15711612D01*
X9816016Y-15711612D02*
X9816016Y-15702088D01*
X9816016Y-15702088D02*
X9806492Y-15683041D01*
X9806492Y-15683041D02*
X9787444Y-15673517D01*
X9787444Y-15673517D02*
X9758873Y-15673517D01*
X9758873Y-15673517D02*
X9739825Y-15663993D01*
X9739825Y-15663993D02*
X9730301Y-15644946D01*
X9730301Y-15644946D02*
X9730301Y-15635422D01*
X9730301Y-15635422D02*
X9739825Y-15616374D01*
X9739825Y-15616374D02*
X9758873Y-15606850D01*
X9758873Y-15606850D02*
X9787444Y-15606850D01*
X9787444Y-15606850D02*
X9806492Y-15616374D01*
X9930301Y-15740184D02*
X9911254Y-15730660D01*
X9911254Y-15730660D02*
X9901730Y-15711612D01*
X9901730Y-15711612D02*
X9901730Y-15540184D01*
X10035063Y-15740184D02*
X10016016Y-15730660D01*
X10016016Y-15730660D02*
X10006492Y-15721136D01*
X10006492Y-15721136D02*
X9996968Y-15702088D01*
X9996968Y-15702088D02*
X9996968Y-15644946D01*
X9996968Y-15644946D02*
X10006492Y-15625898D01*
X10006492Y-15625898D02*
X10016016Y-15616374D01*
X10016016Y-15616374D02*
X10035063Y-15606850D01*
X10035063Y-15606850D02*
X10063635Y-15606850D01*
X10063635Y-15606850D02*
X10082682Y-15616374D01*
X10082682Y-15616374D02*
X10092206Y-15625898D01*
X10092206Y-15625898D02*
X10101730Y-15644946D01*
X10101730Y-15644946D02*
X10101730Y-15702088D01*
X10101730Y-15702088D02*
X10092206Y-15721136D01*
X10092206Y-15721136D02*
X10082682Y-15730660D01*
X10082682Y-15730660D02*
X10063635Y-15740184D01*
X10063635Y-15740184D02*
X10035063Y-15740184D01*
X10158873Y-15606850D02*
X10235063Y-15606850D01*
X10187444Y-15540184D02*
X10187444Y-15711612D01*
X10187444Y-15711612D02*
X10196968Y-15730660D01*
X10196968Y-15730660D02*
X10216016Y-15740184D01*
X10216016Y-15740184D02*
X10235063Y-15740184D01*
X10292206Y-15730660D02*
X10311254Y-15740184D01*
X10311254Y-15740184D02*
X10349349Y-15740184D01*
X10349349Y-15740184D02*
X10368397Y-15730660D01*
X10368397Y-15730660D02*
X10377920Y-15711612D01*
X10377920Y-15711612D02*
X10377920Y-15702088D01*
X10377920Y-15702088D02*
X10368397Y-15683041D01*
X10368397Y-15683041D02*
X10349349Y-15673517D01*
X10349349Y-15673517D02*
X10320777Y-15673517D01*
X10320777Y-15673517D02*
X10301730Y-15663993D01*
X10301730Y-15663993D02*
X10292206Y-15644946D01*
X10292206Y-15644946D02*
X10292206Y-15635422D01*
X10292206Y-15635422D02*
X10301730Y-15616374D01*
X10301730Y-15616374D02*
X10320777Y-15606850D01*
X10320777Y-15606850D02*
X10349349Y-15606850D01*
X10349349Y-15606850D02*
X10368397Y-15616374D01*
X10444587Y-15816374D02*
X10454111Y-15806850D01*
X10454111Y-15806850D02*
X10473158Y-15778279D01*
X10473158Y-15778279D02*
X10482682Y-15759231D01*
X10482682Y-15759231D02*
X10492206Y-15730660D01*
X10492206Y-15730660D02*
X10501730Y-15683041D01*
X10501730Y-15683041D02*
X10501730Y-15644946D01*
X10501730Y-15644946D02*
X10492206Y-15597327D01*
X10492206Y-15597327D02*
X10482682Y-15568755D01*
X10482682Y-15568755D02*
X10473158Y-15549708D01*
X10473158Y-15549708D02*
X10454111Y-15521136D01*
X10454111Y-15521136D02*
X10444587Y-15511612D01*
X10806492Y-15816374D02*
X10796968Y-15806850D01*
X10796968Y-15806850D02*
X10777920Y-15778279D01*
X10777920Y-15778279D02*
X10768397Y-15759231D01*
X10768397Y-15759231D02*
X10758873Y-15730660D01*
X10758873Y-15730660D02*
X10749349Y-15683041D01*
X10749349Y-15683041D02*
X10749349Y-15644946D01*
X10749349Y-15644946D02*
X10758873Y-15597327D01*
X10758873Y-15597327D02*
X10768397Y-15568755D01*
X10768397Y-15568755D02*
X10777920Y-15549708D01*
X10777920Y-15549708D02*
X10796968Y-15521136D01*
X10796968Y-15521136D02*
X10806492Y-15511612D01*
X10882682Y-15606850D02*
X10882682Y-15740184D01*
X10882682Y-15625898D02*
X10892206Y-15616374D01*
X10892206Y-15616374D02*
X10911254Y-15606850D01*
X10911254Y-15606850D02*
X10939825Y-15606850D01*
X10939825Y-15606850D02*
X10958873Y-15616374D01*
X10958873Y-15616374D02*
X10968397Y-15635422D01*
X10968397Y-15635422D02*
X10968397Y-15740184D01*
X11092206Y-15740184D02*
X11073158Y-15730660D01*
X11073158Y-15730660D02*
X11063635Y-15721136D01*
X11063635Y-15721136D02*
X11054111Y-15702088D01*
X11054111Y-15702088D02*
X11054111Y-15644946D01*
X11054111Y-15644946D02*
X11063635Y-15625898D01*
X11063635Y-15625898D02*
X11073158Y-15616374D01*
X11073158Y-15616374D02*
X11092206Y-15606850D01*
X11092206Y-15606850D02*
X11120778Y-15606850D01*
X11120778Y-15606850D02*
X11139825Y-15616374D01*
X11139825Y-15616374D02*
X11149349Y-15625898D01*
X11149349Y-15625898D02*
X11158873Y-15644946D01*
X11158873Y-15644946D02*
X11158873Y-15702088D01*
X11158873Y-15702088D02*
X11149349Y-15721136D01*
X11149349Y-15721136D02*
X11139825Y-15730660D01*
X11139825Y-15730660D02*
X11120778Y-15740184D01*
X11120778Y-15740184D02*
X11092206Y-15740184D01*
X11216016Y-15606850D02*
X11292206Y-15606850D01*
X11244587Y-15540184D02*
X11244587Y-15711612D01*
X11244587Y-15711612D02*
X11254111Y-15730660D01*
X11254111Y-15730660D02*
X11273158Y-15740184D01*
X11273158Y-15740184D02*
X11292206Y-15740184D01*
X11511254Y-15606850D02*
X11511254Y-15806850D01*
X11511254Y-15616374D02*
X11530301Y-15606850D01*
X11530301Y-15606850D02*
X11568397Y-15606850D01*
X11568397Y-15606850D02*
X11587444Y-15616374D01*
X11587444Y-15616374D02*
X11596968Y-15625898D01*
X11596968Y-15625898D02*
X11606492Y-15644946D01*
X11606492Y-15644946D02*
X11606492Y-15702088D01*
X11606492Y-15702088D02*
X11596968Y-15721136D01*
X11596968Y-15721136D02*
X11587444Y-15730660D01*
X11587444Y-15730660D02*
X11568397Y-15740184D01*
X11568397Y-15740184D02*
X11530301Y-15740184D01*
X11530301Y-15740184D02*
X11511254Y-15730660D01*
X11720777Y-15740184D02*
X11701730Y-15730660D01*
X11701730Y-15730660D02*
X11692206Y-15711612D01*
X11692206Y-15711612D02*
X11692206Y-15540184D01*
X11882682Y-15740184D02*
X11882682Y-15635422D01*
X11882682Y-15635422D02*
X11873158Y-15616374D01*
X11873158Y-15616374D02*
X11854111Y-15606850D01*
X11854111Y-15606850D02*
X11816016Y-15606850D01*
X11816016Y-15606850D02*
X11796968Y-15616374D01*
X11882682Y-15730660D02*
X11863635Y-15740184D01*
X11863635Y-15740184D02*
X11816016Y-15740184D01*
X11816016Y-15740184D02*
X11796968Y-15730660D01*
X11796968Y-15730660D02*
X11787444Y-15711612D01*
X11787444Y-15711612D02*
X11787444Y-15692565D01*
X11787444Y-15692565D02*
X11796968Y-15673517D01*
X11796968Y-15673517D02*
X11816016Y-15663993D01*
X11816016Y-15663993D02*
X11863635Y-15663993D01*
X11863635Y-15663993D02*
X11882682Y-15654469D01*
X11949349Y-15606850D02*
X12025539Y-15606850D01*
X11977920Y-15540184D02*
X11977920Y-15711612D01*
X11977920Y-15711612D02*
X11987444Y-15730660D01*
X11987444Y-15730660D02*
X12006492Y-15740184D01*
X12006492Y-15740184D02*
X12025539Y-15740184D01*
X12168397Y-15730660D02*
X12149349Y-15740184D01*
X12149349Y-15740184D02*
X12111254Y-15740184D01*
X12111254Y-15740184D02*
X12092206Y-15730660D01*
X12092206Y-15730660D02*
X12082682Y-15711612D01*
X12082682Y-15711612D02*
X12082682Y-15635422D01*
X12082682Y-15635422D02*
X12092206Y-15616374D01*
X12092206Y-15616374D02*
X12111254Y-15606850D01*
X12111254Y-15606850D02*
X12149349Y-15606850D01*
X12149349Y-15606850D02*
X12168397Y-15616374D01*
X12168397Y-15616374D02*
X12177920Y-15635422D01*
X12177920Y-15635422D02*
X12177920Y-15654469D01*
X12177920Y-15654469D02*
X12082682Y-15673517D01*
X12349349Y-15740184D02*
X12349349Y-15540184D01*
X12349349Y-15730660D02*
X12330301Y-15740184D01*
X12330301Y-15740184D02*
X12292206Y-15740184D01*
X12292206Y-15740184D02*
X12273158Y-15730660D01*
X12273158Y-15730660D02*
X12263635Y-15721136D01*
X12263635Y-15721136D02*
X12254111Y-15702088D01*
X12254111Y-15702088D02*
X12254111Y-15644946D01*
X12254111Y-15644946D02*
X12263635Y-15625898D01*
X12263635Y-15625898D02*
X12273158Y-15616374D01*
X12273158Y-15616374D02*
X12292206Y-15606850D01*
X12292206Y-15606850D02*
X12330301Y-15606850D01*
X12330301Y-15606850D02*
X12349349Y-15616374D01*
X12425539Y-15816374D02*
X12435063Y-15806850D01*
X12435063Y-15806850D02*
X12454111Y-15778279D01*
X12454111Y-15778279D02*
X12463635Y-15759231D01*
X12463635Y-15759231D02*
X12473158Y-15730660D01*
X12473158Y-15730660D02*
X12482682Y-15683041D01*
X12482682Y-15683041D02*
X12482682Y-15644946D01*
X12482682Y-15644946D02*
X12473158Y-15597327D01*
X12473158Y-15597327D02*
X12463635Y-15568755D01*
X12463635Y-15568755D02*
X12454111Y-15549708D01*
X12454111Y-15549708D02*
X12435063Y-15521136D01*
X12435063Y-15521136D02*
X12425539Y-15511612D01*
X3760000Y-15868700D02*
X3760000Y-16068700D01*
X3660000Y-15968700D02*
X3860000Y-15968700D01*
X4101729Y-15860184D02*
X4225539Y-15860184D01*
X4225539Y-15860184D02*
X4158872Y-15936374D01*
X4158872Y-15936374D02*
X4187443Y-15936374D01*
X4187443Y-15936374D02*
X4206491Y-15945898D01*
X4206491Y-15945898D02*
X4216015Y-15955422D01*
X4216015Y-15955422D02*
X4225539Y-15974469D01*
X4225539Y-15974469D02*
X4225539Y-16022088D01*
X4225539Y-16022088D02*
X4216015Y-16041136D01*
X4216015Y-16041136D02*
X4206491Y-16050660D01*
X4206491Y-16050660D02*
X4187443Y-16060184D01*
X4187443Y-16060184D02*
X4130301Y-16060184D01*
X4130301Y-16060184D02*
X4111253Y-16050660D01*
X4111253Y-16050660D02*
X4101729Y-16041136D01*
X4311253Y-16041136D02*
X4320777Y-16050660D01*
X4320777Y-16050660D02*
X4311253Y-16060184D01*
X4311253Y-16060184D02*
X4301729Y-16050660D01*
X4301729Y-16050660D02*
X4311253Y-16041136D01*
X4311253Y-16041136D02*
X4311253Y-16060184D01*
X4444586Y-15860184D02*
X4463634Y-15860184D01*
X4463634Y-15860184D02*
X4482682Y-15869708D01*
X4482682Y-15869708D02*
X4492205Y-15879231D01*
X4492205Y-15879231D02*
X4501729Y-15898279D01*
X4501729Y-15898279D02*
X4511253Y-15936374D01*
X4511253Y-15936374D02*
X4511253Y-15983993D01*
X4511253Y-15983993D02*
X4501729Y-16022088D01*
X4501729Y-16022088D02*
X4492205Y-16041136D01*
X4492205Y-16041136D02*
X4482682Y-16050660D01*
X4482682Y-16050660D02*
X4463634Y-16060184D01*
X4463634Y-16060184D02*
X4444586Y-16060184D01*
X4444586Y-16060184D02*
X4425539Y-16050660D01*
X4425539Y-16050660D02*
X4416015Y-16041136D01*
X4416015Y-16041136D02*
X4406491Y-16022088D01*
X4406491Y-16022088D02*
X4396967Y-15983993D01*
X4396967Y-15983993D02*
X4396967Y-15936374D01*
X4396967Y-15936374D02*
X4406491Y-15898279D01*
X4406491Y-15898279D02*
X4416015Y-15879231D01*
X4416015Y-15879231D02*
X4425539Y-15869708D01*
X4425539Y-15869708D02*
X4444586Y-15860184D01*
X4692205Y-15860184D02*
X4596967Y-15860184D01*
X4596967Y-15860184D02*
X4587444Y-15955422D01*
X4587444Y-15955422D02*
X4596967Y-15945898D01*
X4596967Y-15945898D02*
X4616015Y-15936374D01*
X4616015Y-15936374D02*
X4663634Y-15936374D01*
X4663634Y-15936374D02*
X4682682Y-15945898D01*
X4682682Y-15945898D02*
X4692205Y-15955422D01*
X4692205Y-15955422D02*
X4701729Y-15974469D01*
X4701729Y-15974469D02*
X4701729Y-16022088D01*
X4701729Y-16022088D02*
X4692205Y-16041136D01*
X4692205Y-16041136D02*
X4682682Y-16050660D01*
X4682682Y-16050660D02*
X4663634Y-16060184D01*
X4663634Y-16060184D02*
X4616015Y-16060184D01*
X4616015Y-16060184D02*
X4596967Y-16050660D01*
X4596967Y-16050660D02*
X4587444Y-16041136D01*
X4825539Y-15860184D02*
X4844586Y-15860184D01*
X4844586Y-15860184D02*
X4863634Y-15869708D01*
X4863634Y-15869708D02*
X4873158Y-15879231D01*
X4873158Y-15879231D02*
X4882682Y-15898279D01*
X4882682Y-15898279D02*
X4892205Y-15936374D01*
X4892205Y-15936374D02*
X4892205Y-15983993D01*
X4892205Y-15983993D02*
X4882682Y-16022088D01*
X4882682Y-16022088D02*
X4873158Y-16041136D01*
X4873158Y-16041136D02*
X4863634Y-16050660D01*
X4863634Y-16050660D02*
X4844586Y-16060184D01*
X4844586Y-16060184D02*
X4825539Y-16060184D01*
X4825539Y-16060184D02*
X4806491Y-16050660D01*
X4806491Y-16050660D02*
X4796967Y-16041136D01*
X4796967Y-16041136D02*
X4787444Y-16022088D01*
X4787444Y-16022088D02*
X4777920Y-15983993D01*
X4777920Y-15983993D02*
X4777920Y-15936374D01*
X4777920Y-15936374D02*
X4787444Y-15898279D01*
X4787444Y-15898279D02*
X4796967Y-15879231D01*
X4796967Y-15879231D02*
X4806491Y-15869708D01*
X4806491Y-15869708D02*
X4825539Y-15860184D01*
X4977920Y-16060184D02*
X4977920Y-15926850D01*
X4977920Y-15945898D02*
X4987444Y-15936374D01*
X4987444Y-15936374D02*
X5006491Y-15926850D01*
X5006491Y-15926850D02*
X5035063Y-15926850D01*
X5035063Y-15926850D02*
X5054110Y-15936374D01*
X5054110Y-15936374D02*
X5063634Y-15955422D01*
X5063634Y-15955422D02*
X5063634Y-16060184D01*
X5063634Y-15955422D02*
X5073158Y-15936374D01*
X5073158Y-15936374D02*
X5092205Y-15926850D01*
X5092205Y-15926850D02*
X5120777Y-15926850D01*
X5120777Y-15926850D02*
X5139825Y-15936374D01*
X5139825Y-15936374D02*
X5149348Y-15955422D01*
X5149348Y-15955422D02*
X5149348Y-16060184D01*
X5244586Y-16060184D02*
X5244586Y-15926850D01*
X5244586Y-15945898D02*
X5254110Y-15936374D01*
X5254110Y-15936374D02*
X5273158Y-15926850D01*
X5273158Y-15926850D02*
X5301729Y-15926850D01*
X5301729Y-15926850D02*
X5320777Y-15936374D01*
X5320777Y-15936374D02*
X5330301Y-15955422D01*
X5330301Y-15955422D02*
X5330301Y-16060184D01*
X5330301Y-15955422D02*
X5339825Y-15936374D01*
X5339825Y-15936374D02*
X5358872Y-15926850D01*
X5358872Y-15926850D02*
X5387444Y-15926850D01*
X5387444Y-15926850D02*
X5406491Y-15936374D01*
X5406491Y-15936374D02*
X5416015Y-15955422D01*
X5416015Y-15955422D02*
X5416015Y-16060184D01*
X5806491Y-15850660D02*
X5635063Y-16107803D01*
X6063634Y-15860184D02*
X6082682Y-15860184D01*
X6082682Y-15860184D02*
X6101729Y-15869708D01*
X6101729Y-15869708D02*
X6111253Y-15879231D01*
X6111253Y-15879231D02*
X6120777Y-15898279D01*
X6120777Y-15898279D02*
X6130301Y-15936374D01*
X6130301Y-15936374D02*
X6130301Y-15983993D01*
X6130301Y-15983993D02*
X6120777Y-16022088D01*
X6120777Y-16022088D02*
X6111253Y-16041136D01*
X6111253Y-16041136D02*
X6101729Y-16050660D01*
X6101729Y-16050660D02*
X6082682Y-16060184D01*
X6082682Y-16060184D02*
X6063634Y-16060184D01*
X6063634Y-16060184D02*
X6044586Y-16050660D01*
X6044586Y-16050660D02*
X6035063Y-16041136D01*
X6035063Y-16041136D02*
X6025539Y-16022088D01*
X6025539Y-16022088D02*
X6016015Y-15983993D01*
X6016015Y-15983993D02*
X6016015Y-15936374D01*
X6016015Y-15936374D02*
X6025539Y-15898279D01*
X6025539Y-15898279D02*
X6035063Y-15879231D01*
X6035063Y-15879231D02*
X6044586Y-15869708D01*
X6044586Y-15869708D02*
X6063634Y-15860184D01*
X6216015Y-16041136D02*
X6225539Y-16050660D01*
X6225539Y-16050660D02*
X6216015Y-16060184D01*
X6216015Y-16060184D02*
X6206491Y-16050660D01*
X6206491Y-16050660D02*
X6216015Y-16041136D01*
X6216015Y-16041136D02*
X6216015Y-16060184D01*
X6416015Y-16060184D02*
X6301729Y-16060184D01*
X6358872Y-16060184D02*
X6358872Y-15860184D01*
X6358872Y-15860184D02*
X6339825Y-15888755D01*
X6339825Y-15888755D02*
X6320777Y-15907803D01*
X6320777Y-15907803D02*
X6301729Y-15917327D01*
X6492206Y-15879231D02*
X6501729Y-15869708D01*
X6501729Y-15869708D02*
X6520777Y-15860184D01*
X6520777Y-15860184D02*
X6568396Y-15860184D01*
X6568396Y-15860184D02*
X6587444Y-15869708D01*
X6587444Y-15869708D02*
X6596967Y-15879231D01*
X6596967Y-15879231D02*
X6606491Y-15898279D01*
X6606491Y-15898279D02*
X6606491Y-15917327D01*
X6606491Y-15917327D02*
X6596967Y-15945898D01*
X6596967Y-15945898D02*
X6482682Y-16060184D01*
X6482682Y-16060184D02*
X6606491Y-16060184D01*
X6730301Y-15860184D02*
X6749348Y-15860184D01*
X6749348Y-15860184D02*
X6768396Y-15869708D01*
X6768396Y-15869708D02*
X6777920Y-15879231D01*
X6777920Y-15879231D02*
X6787444Y-15898279D01*
X6787444Y-15898279D02*
X6796967Y-15936374D01*
X6796967Y-15936374D02*
X6796967Y-15983993D01*
X6796967Y-15983993D02*
X6787444Y-16022088D01*
X6787444Y-16022088D02*
X6777920Y-16041136D01*
X6777920Y-16041136D02*
X6768396Y-16050660D01*
X6768396Y-16050660D02*
X6749348Y-16060184D01*
X6749348Y-16060184D02*
X6730301Y-16060184D01*
X6730301Y-16060184D02*
X6711253Y-16050660D01*
X6711253Y-16050660D02*
X6701729Y-16041136D01*
X6701729Y-16041136D02*
X6692206Y-16022088D01*
X6692206Y-16022088D02*
X6682682Y-15983993D01*
X6682682Y-15983993D02*
X6682682Y-15936374D01*
X6682682Y-15936374D02*
X6692206Y-15898279D01*
X6692206Y-15898279D02*
X6701729Y-15879231D01*
X6701729Y-15879231D02*
X6711253Y-15869708D01*
X6711253Y-15869708D02*
X6730301Y-15860184D01*
X6987444Y-16060184D02*
X6873158Y-16060184D01*
X6930301Y-16060184D02*
X6930301Y-15860184D01*
X6930301Y-15860184D02*
X6911253Y-15888755D01*
X6911253Y-15888755D02*
X6892206Y-15907803D01*
X6892206Y-15907803D02*
X6873158Y-15917327D01*
X7063634Y-15860184D02*
X7063634Y-15898279D01*
X7139825Y-15860184D02*
X7139825Y-15898279D01*
X7435063Y-16136374D02*
X7425539Y-16126850D01*
X7425539Y-16126850D02*
X7406491Y-16098279D01*
X7406491Y-16098279D02*
X7396968Y-16079231D01*
X7396968Y-16079231D02*
X7387444Y-16050660D01*
X7387444Y-16050660D02*
X7377920Y-16003041D01*
X7377920Y-16003041D02*
X7377920Y-15964946D01*
X7377920Y-15964946D02*
X7387444Y-15917327D01*
X7387444Y-15917327D02*
X7396968Y-15888755D01*
X7396968Y-15888755D02*
X7406491Y-15869708D01*
X7406491Y-15869708D02*
X7425539Y-15841136D01*
X7425539Y-15841136D02*
X7435063Y-15831612D01*
X7501729Y-15879231D02*
X7511253Y-15869708D01*
X7511253Y-15869708D02*
X7530301Y-15860184D01*
X7530301Y-15860184D02*
X7577920Y-15860184D01*
X7577920Y-15860184D02*
X7596968Y-15869708D01*
X7596968Y-15869708D02*
X7606491Y-15879231D01*
X7606491Y-15879231D02*
X7616015Y-15898279D01*
X7616015Y-15898279D02*
X7616015Y-15917327D01*
X7616015Y-15917327D02*
X7606491Y-15945898D01*
X7606491Y-15945898D02*
X7492206Y-16060184D01*
X7492206Y-16060184D02*
X7616015Y-16060184D01*
X7739825Y-15860184D02*
X7758872Y-15860184D01*
X7758872Y-15860184D02*
X7777920Y-15869708D01*
X7777920Y-15869708D02*
X7787444Y-15879231D01*
X7787444Y-15879231D02*
X7796968Y-15898279D01*
X7796968Y-15898279D02*
X7806491Y-15936374D01*
X7806491Y-15936374D02*
X7806491Y-15983993D01*
X7806491Y-15983993D02*
X7796968Y-16022088D01*
X7796968Y-16022088D02*
X7787444Y-16041136D01*
X7787444Y-16041136D02*
X7777920Y-16050660D01*
X7777920Y-16050660D02*
X7758872Y-16060184D01*
X7758872Y-16060184D02*
X7739825Y-16060184D01*
X7739825Y-16060184D02*
X7720777Y-16050660D01*
X7720777Y-16050660D02*
X7711253Y-16041136D01*
X7711253Y-16041136D02*
X7701729Y-16022088D01*
X7701729Y-16022088D02*
X7692206Y-15983993D01*
X7692206Y-15983993D02*
X7692206Y-15936374D01*
X7692206Y-15936374D02*
X7701729Y-15898279D01*
X7701729Y-15898279D02*
X7711253Y-15879231D01*
X7711253Y-15879231D02*
X7720777Y-15869708D01*
X7720777Y-15869708D02*
X7739825Y-15860184D01*
X7977920Y-15926850D02*
X7977920Y-16060184D01*
X7930301Y-15850660D02*
X7882682Y-15993517D01*
X7882682Y-15993517D02*
X8006491Y-15993517D01*
X8235063Y-16060184D02*
X8235063Y-15860184D01*
X8320777Y-16060184D02*
X8320777Y-15955422D01*
X8320777Y-15955422D02*
X8311253Y-15936374D01*
X8311253Y-15936374D02*
X8292206Y-15926850D01*
X8292206Y-15926850D02*
X8263634Y-15926850D01*
X8263634Y-15926850D02*
X8244587Y-15936374D01*
X8244587Y-15936374D02*
X8235063Y-15945898D01*
X8444587Y-16060184D02*
X8425539Y-16050660D01*
X8425539Y-16050660D02*
X8416015Y-16041136D01*
X8416015Y-16041136D02*
X8406492Y-16022088D01*
X8406492Y-16022088D02*
X8406492Y-15964946D01*
X8406492Y-15964946D02*
X8416015Y-15945898D01*
X8416015Y-15945898D02*
X8425539Y-15936374D01*
X8425539Y-15936374D02*
X8444587Y-15926850D01*
X8444587Y-15926850D02*
X8473158Y-15926850D01*
X8473158Y-15926850D02*
X8492206Y-15936374D01*
X8492206Y-15936374D02*
X8501730Y-15945898D01*
X8501730Y-15945898D02*
X8511253Y-15964946D01*
X8511253Y-15964946D02*
X8511253Y-16022088D01*
X8511253Y-16022088D02*
X8501730Y-16041136D01*
X8501730Y-16041136D02*
X8492206Y-16050660D01*
X8492206Y-16050660D02*
X8473158Y-16060184D01*
X8473158Y-16060184D02*
X8444587Y-16060184D01*
X8625539Y-16060184D02*
X8606492Y-16050660D01*
X8606492Y-16050660D02*
X8596968Y-16031612D01*
X8596968Y-16031612D02*
X8596968Y-15860184D01*
X8777920Y-16050660D02*
X8758873Y-16060184D01*
X8758873Y-16060184D02*
X8720777Y-16060184D01*
X8720777Y-16060184D02*
X8701730Y-16050660D01*
X8701730Y-16050660D02*
X8692206Y-16031612D01*
X8692206Y-16031612D02*
X8692206Y-15955422D01*
X8692206Y-15955422D02*
X8701730Y-15936374D01*
X8701730Y-15936374D02*
X8720777Y-15926850D01*
X8720777Y-15926850D02*
X8758873Y-15926850D01*
X8758873Y-15926850D02*
X8777920Y-15936374D01*
X8777920Y-15936374D02*
X8787444Y-15955422D01*
X8787444Y-15955422D02*
X8787444Y-15974469D01*
X8787444Y-15974469D02*
X8692206Y-15993517D01*
X8863634Y-16050660D02*
X8882682Y-16060184D01*
X8882682Y-16060184D02*
X8920777Y-16060184D01*
X8920777Y-16060184D02*
X8939825Y-16050660D01*
X8939825Y-16050660D02*
X8949349Y-16031612D01*
X8949349Y-16031612D02*
X8949349Y-16022088D01*
X8949349Y-16022088D02*
X8939825Y-16003041D01*
X8939825Y-16003041D02*
X8920777Y-15993517D01*
X8920777Y-15993517D02*
X8892206Y-15993517D01*
X8892206Y-15993517D02*
X8873158Y-15983993D01*
X8873158Y-15983993D02*
X8863634Y-15964946D01*
X8863634Y-15964946D02*
X8863634Y-15955422D01*
X8863634Y-15955422D02*
X8873158Y-15936374D01*
X8873158Y-15936374D02*
X8892206Y-15926850D01*
X8892206Y-15926850D02*
X8920777Y-15926850D01*
X8920777Y-15926850D02*
X8939825Y-15936374D01*
X9016015Y-16136374D02*
X9025539Y-16126850D01*
X9025539Y-16126850D02*
X9044587Y-16098279D01*
X9044587Y-16098279D02*
X9054111Y-16079231D01*
X9054111Y-16079231D02*
X9063634Y-16050660D01*
X9063634Y-16050660D02*
X9073158Y-16003041D01*
X9073158Y-16003041D02*
X9073158Y-15964946D01*
X9073158Y-15964946D02*
X9063634Y-15917327D01*
X9063634Y-15917327D02*
X9054111Y-15888755D01*
X9054111Y-15888755D02*
X9044587Y-15869708D01*
X9044587Y-15869708D02*
X9025539Y-15841136D01*
X9025539Y-15841136D02*
X9016015Y-15831612D01*
X9377920Y-16136374D02*
X9368396Y-16126850D01*
X9368396Y-16126850D02*
X9349349Y-16098279D01*
X9349349Y-16098279D02*
X9339825Y-16079231D01*
X9339825Y-16079231D02*
X9330301Y-16050660D01*
X9330301Y-16050660D02*
X9320777Y-16003041D01*
X9320777Y-16003041D02*
X9320777Y-15964946D01*
X9320777Y-15964946D02*
X9330301Y-15917327D01*
X9330301Y-15917327D02*
X9339825Y-15888755D01*
X9339825Y-15888755D02*
X9349349Y-15869708D01*
X9349349Y-15869708D02*
X9368396Y-15841136D01*
X9368396Y-15841136D02*
X9377920Y-15831612D01*
X9454111Y-15926850D02*
X9454111Y-16060184D01*
X9454111Y-15945898D02*
X9463634Y-15936374D01*
X9463634Y-15936374D02*
X9482682Y-15926850D01*
X9482682Y-15926850D02*
X9511254Y-15926850D01*
X9511254Y-15926850D02*
X9530301Y-15936374D01*
X9530301Y-15936374D02*
X9539825Y-15955422D01*
X9539825Y-15955422D02*
X9539825Y-16060184D01*
X9663634Y-16060184D02*
X9644587Y-16050660D01*
X9644587Y-16050660D02*
X9635063Y-16041136D01*
X9635063Y-16041136D02*
X9625539Y-16022088D01*
X9625539Y-16022088D02*
X9625539Y-15964946D01*
X9625539Y-15964946D02*
X9635063Y-15945898D01*
X9635063Y-15945898D02*
X9644587Y-15936374D01*
X9644587Y-15936374D02*
X9663634Y-15926850D01*
X9663634Y-15926850D02*
X9692206Y-15926850D01*
X9692206Y-15926850D02*
X9711254Y-15936374D01*
X9711254Y-15936374D02*
X9720777Y-15945898D01*
X9720777Y-15945898D02*
X9730301Y-15964946D01*
X9730301Y-15964946D02*
X9730301Y-16022088D01*
X9730301Y-16022088D02*
X9720777Y-16041136D01*
X9720777Y-16041136D02*
X9711254Y-16050660D01*
X9711254Y-16050660D02*
X9692206Y-16060184D01*
X9692206Y-16060184D02*
X9663634Y-16060184D01*
X9787444Y-15926850D02*
X9863634Y-15926850D01*
X9816015Y-15860184D02*
X9816015Y-16031612D01*
X9816015Y-16031612D02*
X9825539Y-16050660D01*
X9825539Y-16050660D02*
X9844587Y-16060184D01*
X9844587Y-16060184D02*
X9863634Y-16060184D01*
X10082682Y-15926850D02*
X10082682Y-16126850D01*
X10082682Y-15936374D02*
X10101730Y-15926850D01*
X10101730Y-15926850D02*
X10139825Y-15926850D01*
X10139825Y-15926850D02*
X10158873Y-15936374D01*
X10158873Y-15936374D02*
X10168396Y-15945898D01*
X10168396Y-15945898D02*
X10177920Y-15964946D01*
X10177920Y-15964946D02*
X10177920Y-16022088D01*
X10177920Y-16022088D02*
X10168396Y-16041136D01*
X10168396Y-16041136D02*
X10158873Y-16050660D01*
X10158873Y-16050660D02*
X10139825Y-16060184D01*
X10139825Y-16060184D02*
X10101730Y-16060184D01*
X10101730Y-16060184D02*
X10082682Y-16050660D01*
X10292206Y-16060184D02*
X10273158Y-16050660D01*
X10273158Y-16050660D02*
X10263635Y-16031612D01*
X10263635Y-16031612D02*
X10263635Y-15860184D01*
X10454111Y-16060184D02*
X10454111Y-15955422D01*
X10454111Y-15955422D02*
X10444587Y-15936374D01*
X10444587Y-15936374D02*
X10425539Y-15926850D01*
X10425539Y-15926850D02*
X10387444Y-15926850D01*
X10387444Y-15926850D02*
X10368396Y-15936374D01*
X10454111Y-16050660D02*
X10435063Y-16060184D01*
X10435063Y-16060184D02*
X10387444Y-16060184D01*
X10387444Y-16060184D02*
X10368396Y-16050660D01*
X10368396Y-16050660D02*
X10358873Y-16031612D01*
X10358873Y-16031612D02*
X10358873Y-16012565D01*
X10358873Y-16012565D02*
X10368396Y-15993517D01*
X10368396Y-15993517D02*
X10387444Y-15983993D01*
X10387444Y-15983993D02*
X10435063Y-15983993D01*
X10435063Y-15983993D02*
X10454111Y-15974469D01*
X10520777Y-15926850D02*
X10596968Y-15926850D01*
X10549349Y-15860184D02*
X10549349Y-16031612D01*
X10549349Y-16031612D02*
X10558873Y-16050660D01*
X10558873Y-16050660D02*
X10577920Y-16060184D01*
X10577920Y-16060184D02*
X10596968Y-16060184D01*
X10739825Y-16050660D02*
X10720777Y-16060184D01*
X10720777Y-16060184D02*
X10682682Y-16060184D01*
X10682682Y-16060184D02*
X10663635Y-16050660D01*
X10663635Y-16050660D02*
X10654111Y-16031612D01*
X10654111Y-16031612D02*
X10654111Y-15955422D01*
X10654111Y-15955422D02*
X10663635Y-15936374D01*
X10663635Y-15936374D02*
X10682682Y-15926850D01*
X10682682Y-15926850D02*
X10720777Y-15926850D01*
X10720777Y-15926850D02*
X10739825Y-15936374D01*
X10739825Y-15936374D02*
X10749349Y-15955422D01*
X10749349Y-15955422D02*
X10749349Y-15974469D01*
X10749349Y-15974469D02*
X10654111Y-15993517D01*
X10920777Y-16060184D02*
X10920777Y-15860184D01*
X10920777Y-16050660D02*
X10901730Y-16060184D01*
X10901730Y-16060184D02*
X10863635Y-16060184D01*
X10863635Y-16060184D02*
X10844587Y-16050660D01*
X10844587Y-16050660D02*
X10835063Y-16041136D01*
X10835063Y-16041136D02*
X10825539Y-16022088D01*
X10825539Y-16022088D02*
X10825539Y-15964946D01*
X10825539Y-15964946D02*
X10835063Y-15945898D01*
X10835063Y-15945898D02*
X10844587Y-15936374D01*
X10844587Y-15936374D02*
X10863635Y-15926850D01*
X10863635Y-15926850D02*
X10901730Y-15926850D01*
X10901730Y-15926850D02*
X10920777Y-15936374D01*
X10996968Y-16136374D02*
X11006492Y-16126850D01*
X11006492Y-16126850D02*
X11025539Y-16098279D01*
X11025539Y-16098279D02*
X11035063Y-16079231D01*
X11035063Y-16079231D02*
X11044587Y-16050660D01*
X11044587Y-16050660D02*
X11054111Y-16003041D01*
X11054111Y-16003041D02*
X11054111Y-15964946D01*
X11054111Y-15964946D02*
X11044587Y-15917327D01*
X11044587Y-15917327D02*
X11035063Y-15888755D01*
X11035063Y-15888755D02*
X11025539Y-15869708D01*
X11025539Y-15869708D02*
X11006492Y-15841136D01*
X11006492Y-15841136D02*
X10996968Y-15831612D01*
X3830711Y-16359411D02*
X3830711Y-16217989D01*
X3689289Y-16217989D01*
X3689289Y-16359411D01*
X3830711Y-16359411D01*
X4101729Y-16180184D02*
X4225539Y-16180184D01*
X4225539Y-16180184D02*
X4158872Y-16256374D01*
X4158872Y-16256374D02*
X4187443Y-16256374D01*
X4187443Y-16256374D02*
X4206491Y-16265898D01*
X4206491Y-16265898D02*
X4216015Y-16275422D01*
X4216015Y-16275422D02*
X4225539Y-16294469D01*
X4225539Y-16294469D02*
X4225539Y-16342088D01*
X4225539Y-16342088D02*
X4216015Y-16361136D01*
X4216015Y-16361136D02*
X4206491Y-16370660D01*
X4206491Y-16370660D02*
X4187443Y-16380184D01*
X4187443Y-16380184D02*
X4130301Y-16380184D01*
X4130301Y-16380184D02*
X4111253Y-16370660D01*
X4111253Y-16370660D02*
X4101729Y-16361136D01*
X4311253Y-16361136D02*
X4320777Y-16370660D01*
X4320777Y-16370660D02*
X4311253Y-16380184D01*
X4311253Y-16380184D02*
X4301729Y-16370660D01*
X4301729Y-16370660D02*
X4311253Y-16361136D01*
X4311253Y-16361136D02*
X4311253Y-16380184D01*
X4416015Y-16380184D02*
X4454110Y-16380184D01*
X4454110Y-16380184D02*
X4473158Y-16370660D01*
X4473158Y-16370660D02*
X4482682Y-16361136D01*
X4482682Y-16361136D02*
X4501729Y-16332565D01*
X4501729Y-16332565D02*
X4511253Y-16294469D01*
X4511253Y-16294469D02*
X4511253Y-16218279D01*
X4511253Y-16218279D02*
X4501729Y-16199231D01*
X4501729Y-16199231D02*
X4492205Y-16189708D01*
X4492205Y-16189708D02*
X4473158Y-16180184D01*
X4473158Y-16180184D02*
X4435063Y-16180184D01*
X4435063Y-16180184D02*
X4416015Y-16189708D01*
X4416015Y-16189708D02*
X4406491Y-16199231D01*
X4406491Y-16199231D02*
X4396967Y-16218279D01*
X4396967Y-16218279D02*
X4396967Y-16265898D01*
X4396967Y-16265898D02*
X4406491Y-16284946D01*
X4406491Y-16284946D02*
X4416015Y-16294469D01*
X4416015Y-16294469D02*
X4435063Y-16303993D01*
X4435063Y-16303993D02*
X4473158Y-16303993D01*
X4473158Y-16303993D02*
X4492205Y-16294469D01*
X4492205Y-16294469D02*
X4501729Y-16284946D01*
X4501729Y-16284946D02*
X4511253Y-16265898D01*
X4625539Y-16265898D02*
X4606491Y-16256374D01*
X4606491Y-16256374D02*
X4596967Y-16246850D01*
X4596967Y-16246850D02*
X4587444Y-16227803D01*
X4587444Y-16227803D02*
X4587444Y-16218279D01*
X4587444Y-16218279D02*
X4596967Y-16199231D01*
X4596967Y-16199231D02*
X4606491Y-16189708D01*
X4606491Y-16189708D02*
X4625539Y-16180184D01*
X4625539Y-16180184D02*
X4663634Y-16180184D01*
X4663634Y-16180184D02*
X4682682Y-16189708D01*
X4682682Y-16189708D02*
X4692205Y-16199231D01*
X4692205Y-16199231D02*
X4701729Y-16218279D01*
X4701729Y-16218279D02*
X4701729Y-16227803D01*
X4701729Y-16227803D02*
X4692205Y-16246850D01*
X4692205Y-16246850D02*
X4682682Y-16256374D01*
X4682682Y-16256374D02*
X4663634Y-16265898D01*
X4663634Y-16265898D02*
X4625539Y-16265898D01*
X4625539Y-16265898D02*
X4606491Y-16275422D01*
X4606491Y-16275422D02*
X4596967Y-16284946D01*
X4596967Y-16284946D02*
X4587444Y-16303993D01*
X4587444Y-16303993D02*
X4587444Y-16342088D01*
X4587444Y-16342088D02*
X4596967Y-16361136D01*
X4596967Y-16361136D02*
X4606491Y-16370660D01*
X4606491Y-16370660D02*
X4625539Y-16380184D01*
X4625539Y-16380184D02*
X4663634Y-16380184D01*
X4663634Y-16380184D02*
X4682682Y-16370660D01*
X4682682Y-16370660D02*
X4692205Y-16361136D01*
X4692205Y-16361136D02*
X4701729Y-16342088D01*
X4701729Y-16342088D02*
X4701729Y-16303993D01*
X4701729Y-16303993D02*
X4692205Y-16284946D01*
X4692205Y-16284946D02*
X4682682Y-16275422D01*
X4682682Y-16275422D02*
X4663634Y-16265898D01*
X4816015Y-16265898D02*
X4796967Y-16256374D01*
X4796967Y-16256374D02*
X4787444Y-16246850D01*
X4787444Y-16246850D02*
X4777920Y-16227803D01*
X4777920Y-16227803D02*
X4777920Y-16218279D01*
X4777920Y-16218279D02*
X4787444Y-16199231D01*
X4787444Y-16199231D02*
X4796967Y-16189708D01*
X4796967Y-16189708D02*
X4816015Y-16180184D01*
X4816015Y-16180184D02*
X4854110Y-16180184D01*
X4854110Y-16180184D02*
X4873158Y-16189708D01*
X4873158Y-16189708D02*
X4882682Y-16199231D01*
X4882682Y-16199231D02*
X4892205Y-16218279D01*
X4892205Y-16218279D02*
X4892205Y-16227803D01*
X4892205Y-16227803D02*
X4882682Y-16246850D01*
X4882682Y-16246850D02*
X4873158Y-16256374D01*
X4873158Y-16256374D02*
X4854110Y-16265898D01*
X4854110Y-16265898D02*
X4816015Y-16265898D01*
X4816015Y-16265898D02*
X4796967Y-16275422D01*
X4796967Y-16275422D02*
X4787444Y-16284946D01*
X4787444Y-16284946D02*
X4777920Y-16303993D01*
X4777920Y-16303993D02*
X4777920Y-16342088D01*
X4777920Y-16342088D02*
X4787444Y-16361136D01*
X4787444Y-16361136D02*
X4796967Y-16370660D01*
X4796967Y-16370660D02*
X4816015Y-16380184D01*
X4816015Y-16380184D02*
X4854110Y-16380184D01*
X4854110Y-16380184D02*
X4873158Y-16370660D01*
X4873158Y-16370660D02*
X4882682Y-16361136D01*
X4882682Y-16361136D02*
X4892205Y-16342088D01*
X4892205Y-16342088D02*
X4892205Y-16303993D01*
X4892205Y-16303993D02*
X4882682Y-16284946D01*
X4882682Y-16284946D02*
X4873158Y-16275422D01*
X4873158Y-16275422D02*
X4854110Y-16265898D01*
X4977920Y-16380184D02*
X4977920Y-16246850D01*
X4977920Y-16265898D02*
X4987444Y-16256374D01*
X4987444Y-16256374D02*
X5006491Y-16246850D01*
X5006491Y-16246850D02*
X5035063Y-16246850D01*
X5035063Y-16246850D02*
X5054110Y-16256374D01*
X5054110Y-16256374D02*
X5063634Y-16275422D01*
X5063634Y-16275422D02*
X5063634Y-16380184D01*
X5063634Y-16275422D02*
X5073158Y-16256374D01*
X5073158Y-16256374D02*
X5092205Y-16246850D01*
X5092205Y-16246850D02*
X5120777Y-16246850D01*
X5120777Y-16246850D02*
X5139825Y-16256374D01*
X5139825Y-16256374D02*
X5149348Y-16275422D01*
X5149348Y-16275422D02*
X5149348Y-16380184D01*
X5244586Y-16380184D02*
X5244586Y-16246850D01*
X5244586Y-16265898D02*
X5254110Y-16256374D01*
X5254110Y-16256374D02*
X5273158Y-16246850D01*
X5273158Y-16246850D02*
X5301729Y-16246850D01*
X5301729Y-16246850D02*
X5320777Y-16256374D01*
X5320777Y-16256374D02*
X5330301Y-16275422D01*
X5330301Y-16275422D02*
X5330301Y-16380184D01*
X5330301Y-16275422D02*
X5339825Y-16256374D01*
X5339825Y-16256374D02*
X5358872Y-16246850D01*
X5358872Y-16246850D02*
X5387444Y-16246850D01*
X5387444Y-16246850D02*
X5406491Y-16256374D01*
X5406491Y-16256374D02*
X5416015Y-16275422D01*
X5416015Y-16275422D02*
X5416015Y-16380184D01*
X5806491Y-16170660D02*
X5635063Y-16427803D01*
X6063634Y-16180184D02*
X6082682Y-16180184D01*
X6082682Y-16180184D02*
X6101729Y-16189708D01*
X6101729Y-16189708D02*
X6111253Y-16199231D01*
X6111253Y-16199231D02*
X6120777Y-16218279D01*
X6120777Y-16218279D02*
X6130301Y-16256374D01*
X6130301Y-16256374D02*
X6130301Y-16303993D01*
X6130301Y-16303993D02*
X6120777Y-16342088D01*
X6120777Y-16342088D02*
X6111253Y-16361136D01*
X6111253Y-16361136D02*
X6101729Y-16370660D01*
X6101729Y-16370660D02*
X6082682Y-16380184D01*
X6082682Y-16380184D02*
X6063634Y-16380184D01*
X6063634Y-16380184D02*
X6044586Y-16370660D01*
X6044586Y-16370660D02*
X6035063Y-16361136D01*
X6035063Y-16361136D02*
X6025539Y-16342088D01*
X6025539Y-16342088D02*
X6016015Y-16303993D01*
X6016015Y-16303993D02*
X6016015Y-16256374D01*
X6016015Y-16256374D02*
X6025539Y-16218279D01*
X6025539Y-16218279D02*
X6035063Y-16199231D01*
X6035063Y-16199231D02*
X6044586Y-16189708D01*
X6044586Y-16189708D02*
X6063634Y-16180184D01*
X6216015Y-16361136D02*
X6225539Y-16370660D01*
X6225539Y-16370660D02*
X6216015Y-16380184D01*
X6216015Y-16380184D02*
X6206491Y-16370660D01*
X6206491Y-16370660D02*
X6216015Y-16361136D01*
X6216015Y-16361136D02*
X6216015Y-16380184D01*
X6416015Y-16380184D02*
X6301729Y-16380184D01*
X6358872Y-16380184D02*
X6358872Y-16180184D01*
X6358872Y-16180184D02*
X6339825Y-16208755D01*
X6339825Y-16208755D02*
X6320777Y-16227803D01*
X6320777Y-16227803D02*
X6301729Y-16237327D01*
X6596967Y-16180184D02*
X6501729Y-16180184D01*
X6501729Y-16180184D02*
X6492206Y-16275422D01*
X6492206Y-16275422D02*
X6501729Y-16265898D01*
X6501729Y-16265898D02*
X6520777Y-16256374D01*
X6520777Y-16256374D02*
X6568396Y-16256374D01*
X6568396Y-16256374D02*
X6587444Y-16265898D01*
X6587444Y-16265898D02*
X6596967Y-16275422D01*
X6596967Y-16275422D02*
X6606491Y-16294469D01*
X6606491Y-16294469D02*
X6606491Y-16342088D01*
X6606491Y-16342088D02*
X6596967Y-16361136D01*
X6596967Y-16361136D02*
X6587444Y-16370660D01*
X6587444Y-16370660D02*
X6568396Y-16380184D01*
X6568396Y-16380184D02*
X6520777Y-16380184D01*
X6520777Y-16380184D02*
X6501729Y-16370660D01*
X6501729Y-16370660D02*
X6492206Y-16361136D01*
X6673158Y-16180184D02*
X6806491Y-16180184D01*
X6806491Y-16180184D02*
X6720777Y-16380184D01*
X6920777Y-16180184D02*
X6939825Y-16180184D01*
X6939825Y-16180184D02*
X6958872Y-16189708D01*
X6958872Y-16189708D02*
X6968396Y-16199231D01*
X6968396Y-16199231D02*
X6977920Y-16218279D01*
X6977920Y-16218279D02*
X6987444Y-16256374D01*
X6987444Y-16256374D02*
X6987444Y-16303993D01*
X6987444Y-16303993D02*
X6977920Y-16342088D01*
X6977920Y-16342088D02*
X6968396Y-16361136D01*
X6968396Y-16361136D02*
X6958872Y-16370660D01*
X6958872Y-16370660D02*
X6939825Y-16380184D01*
X6939825Y-16380184D02*
X6920777Y-16380184D01*
X6920777Y-16380184D02*
X6901729Y-16370660D01*
X6901729Y-16370660D02*
X6892206Y-16361136D01*
X6892206Y-16361136D02*
X6882682Y-16342088D01*
X6882682Y-16342088D02*
X6873158Y-16303993D01*
X6873158Y-16303993D02*
X6873158Y-16256374D01*
X6873158Y-16256374D02*
X6882682Y-16218279D01*
X6882682Y-16218279D02*
X6892206Y-16199231D01*
X6892206Y-16199231D02*
X6901729Y-16189708D01*
X6901729Y-16189708D02*
X6920777Y-16180184D01*
X7063634Y-16180184D02*
X7063634Y-16218279D01*
X7139825Y-16180184D02*
X7139825Y-16218279D01*
X7435063Y-16456374D02*
X7425539Y-16446850D01*
X7425539Y-16446850D02*
X7406491Y-16418279D01*
X7406491Y-16418279D02*
X7396968Y-16399231D01*
X7396968Y-16399231D02*
X7387444Y-16370660D01*
X7387444Y-16370660D02*
X7377920Y-16323041D01*
X7377920Y-16323041D02*
X7377920Y-16284946D01*
X7377920Y-16284946D02*
X7387444Y-16237327D01*
X7387444Y-16237327D02*
X7396968Y-16208755D01*
X7396968Y-16208755D02*
X7406491Y-16189708D01*
X7406491Y-16189708D02*
X7425539Y-16161136D01*
X7425539Y-16161136D02*
X7435063Y-16151612D01*
X7616015Y-16380184D02*
X7501729Y-16380184D01*
X7558872Y-16380184D02*
X7558872Y-16180184D01*
X7558872Y-16180184D02*
X7539825Y-16208755D01*
X7539825Y-16208755D02*
X7520777Y-16227803D01*
X7520777Y-16227803D02*
X7501729Y-16237327D01*
X7787444Y-16246850D02*
X7787444Y-16380184D01*
X7739825Y-16170660D02*
X7692206Y-16313517D01*
X7692206Y-16313517D02*
X7816015Y-16313517D01*
X8044587Y-16380184D02*
X8044587Y-16180184D01*
X8130301Y-16380184D02*
X8130301Y-16275422D01*
X8130301Y-16275422D02*
X8120777Y-16256374D01*
X8120777Y-16256374D02*
X8101730Y-16246850D01*
X8101730Y-16246850D02*
X8073158Y-16246850D01*
X8073158Y-16246850D02*
X8054110Y-16256374D01*
X8054110Y-16256374D02*
X8044587Y-16265898D01*
X8254110Y-16380184D02*
X8235063Y-16370660D01*
X8235063Y-16370660D02*
X8225539Y-16361136D01*
X8225539Y-16361136D02*
X8216015Y-16342088D01*
X8216015Y-16342088D02*
X8216015Y-16284946D01*
X8216015Y-16284946D02*
X8225539Y-16265898D01*
X8225539Y-16265898D02*
X8235063Y-16256374D01*
X8235063Y-16256374D02*
X8254110Y-16246850D01*
X8254110Y-16246850D02*
X8282682Y-16246850D01*
X8282682Y-16246850D02*
X8301730Y-16256374D01*
X8301730Y-16256374D02*
X8311253Y-16265898D01*
X8311253Y-16265898D02*
X8320777Y-16284946D01*
X8320777Y-16284946D02*
X8320777Y-16342088D01*
X8320777Y-16342088D02*
X8311253Y-16361136D01*
X8311253Y-16361136D02*
X8301730Y-16370660D01*
X8301730Y-16370660D02*
X8282682Y-16380184D01*
X8282682Y-16380184D02*
X8254110Y-16380184D01*
X8435063Y-16380184D02*
X8416015Y-16370660D01*
X8416015Y-16370660D02*
X8406492Y-16351612D01*
X8406492Y-16351612D02*
X8406492Y-16180184D01*
X8587444Y-16370660D02*
X8568396Y-16380184D01*
X8568396Y-16380184D02*
X8530301Y-16380184D01*
X8530301Y-16380184D02*
X8511253Y-16370660D01*
X8511253Y-16370660D02*
X8501730Y-16351612D01*
X8501730Y-16351612D02*
X8501730Y-16275422D01*
X8501730Y-16275422D02*
X8511253Y-16256374D01*
X8511253Y-16256374D02*
X8530301Y-16246850D01*
X8530301Y-16246850D02*
X8568396Y-16246850D01*
X8568396Y-16246850D02*
X8587444Y-16256374D01*
X8587444Y-16256374D02*
X8596968Y-16275422D01*
X8596968Y-16275422D02*
X8596968Y-16294469D01*
X8596968Y-16294469D02*
X8501730Y-16313517D01*
X8673158Y-16370660D02*
X8692206Y-16380184D01*
X8692206Y-16380184D02*
X8730301Y-16380184D01*
X8730301Y-16380184D02*
X8749349Y-16370660D01*
X8749349Y-16370660D02*
X8758873Y-16351612D01*
X8758873Y-16351612D02*
X8758873Y-16342088D01*
X8758873Y-16342088D02*
X8749349Y-16323041D01*
X8749349Y-16323041D02*
X8730301Y-16313517D01*
X8730301Y-16313517D02*
X8701730Y-16313517D01*
X8701730Y-16313517D02*
X8682682Y-16303993D01*
X8682682Y-16303993D02*
X8673158Y-16284946D01*
X8673158Y-16284946D02*
X8673158Y-16275422D01*
X8673158Y-16275422D02*
X8682682Y-16256374D01*
X8682682Y-16256374D02*
X8701730Y-16246850D01*
X8701730Y-16246850D02*
X8730301Y-16246850D01*
X8730301Y-16246850D02*
X8749349Y-16256374D01*
X8825539Y-16456374D02*
X8835063Y-16446850D01*
X8835063Y-16446850D02*
X8854111Y-16418279D01*
X8854111Y-16418279D02*
X8863634Y-16399231D01*
X8863634Y-16399231D02*
X8873158Y-16370660D01*
X8873158Y-16370660D02*
X8882682Y-16323041D01*
X8882682Y-16323041D02*
X8882682Y-16284946D01*
X8882682Y-16284946D02*
X8873158Y-16237327D01*
X8873158Y-16237327D02*
X8863634Y-16208755D01*
X8863634Y-16208755D02*
X8854111Y-16189708D01*
X8854111Y-16189708D02*
X8835063Y-16161136D01*
X8835063Y-16161136D02*
X8825539Y-16151612D01*
X9187444Y-16456374D02*
X9177920Y-16446850D01*
X9177920Y-16446850D02*
X9158873Y-16418279D01*
X9158873Y-16418279D02*
X9149349Y-16399231D01*
X9149349Y-16399231D02*
X9139825Y-16370660D01*
X9139825Y-16370660D02*
X9130301Y-16323041D01*
X9130301Y-16323041D02*
X9130301Y-16284946D01*
X9130301Y-16284946D02*
X9139825Y-16237327D01*
X9139825Y-16237327D02*
X9149349Y-16208755D01*
X9149349Y-16208755D02*
X9158873Y-16189708D01*
X9158873Y-16189708D02*
X9177920Y-16161136D01*
X9177920Y-16161136D02*
X9187444Y-16151612D01*
X9263634Y-16246850D02*
X9263634Y-16380184D01*
X9263634Y-16265898D02*
X9273158Y-16256374D01*
X9273158Y-16256374D02*
X9292206Y-16246850D01*
X9292206Y-16246850D02*
X9320777Y-16246850D01*
X9320777Y-16246850D02*
X9339825Y-16256374D01*
X9339825Y-16256374D02*
X9349349Y-16275422D01*
X9349349Y-16275422D02*
X9349349Y-16380184D01*
X9473158Y-16380184D02*
X9454111Y-16370660D01*
X9454111Y-16370660D02*
X9444587Y-16361136D01*
X9444587Y-16361136D02*
X9435063Y-16342088D01*
X9435063Y-16342088D02*
X9435063Y-16284946D01*
X9435063Y-16284946D02*
X9444587Y-16265898D01*
X9444587Y-16265898D02*
X9454111Y-16256374D01*
X9454111Y-16256374D02*
X9473158Y-16246850D01*
X9473158Y-16246850D02*
X9501730Y-16246850D01*
X9501730Y-16246850D02*
X9520777Y-16256374D01*
X9520777Y-16256374D02*
X9530301Y-16265898D01*
X9530301Y-16265898D02*
X9539825Y-16284946D01*
X9539825Y-16284946D02*
X9539825Y-16342088D01*
X9539825Y-16342088D02*
X9530301Y-16361136D01*
X9530301Y-16361136D02*
X9520777Y-16370660D01*
X9520777Y-16370660D02*
X9501730Y-16380184D01*
X9501730Y-16380184D02*
X9473158Y-16380184D01*
X9596968Y-16246850D02*
X9673158Y-16246850D01*
X9625539Y-16180184D02*
X9625539Y-16351612D01*
X9625539Y-16351612D02*
X9635063Y-16370660D01*
X9635063Y-16370660D02*
X9654111Y-16380184D01*
X9654111Y-16380184D02*
X9673158Y-16380184D01*
X9892206Y-16246850D02*
X9892206Y-16446850D01*
X9892206Y-16256374D02*
X9911254Y-16246850D01*
X9911254Y-16246850D02*
X9949349Y-16246850D01*
X9949349Y-16246850D02*
X9968396Y-16256374D01*
X9968396Y-16256374D02*
X9977920Y-16265898D01*
X9977920Y-16265898D02*
X9987444Y-16284946D01*
X9987444Y-16284946D02*
X9987444Y-16342088D01*
X9987444Y-16342088D02*
X9977920Y-16361136D01*
X9977920Y-16361136D02*
X9968396Y-16370660D01*
X9968396Y-16370660D02*
X9949349Y-16380184D01*
X9949349Y-16380184D02*
X9911254Y-16380184D01*
X9911254Y-16380184D02*
X9892206Y-16370660D01*
X10101730Y-16380184D02*
X10082682Y-16370660D01*
X10082682Y-16370660D02*
X10073158Y-16351612D01*
X10073158Y-16351612D02*
X10073158Y-16180184D01*
X10263635Y-16380184D02*
X10263635Y-16275422D01*
X10263635Y-16275422D02*
X10254111Y-16256374D01*
X10254111Y-16256374D02*
X10235063Y-16246850D01*
X10235063Y-16246850D02*
X10196968Y-16246850D01*
X10196968Y-16246850D02*
X10177920Y-16256374D01*
X10263635Y-16370660D02*
X10244587Y-16380184D01*
X10244587Y-16380184D02*
X10196968Y-16380184D01*
X10196968Y-16380184D02*
X10177920Y-16370660D01*
X10177920Y-16370660D02*
X10168396Y-16351612D01*
X10168396Y-16351612D02*
X10168396Y-16332565D01*
X10168396Y-16332565D02*
X10177920Y-16313517D01*
X10177920Y-16313517D02*
X10196968Y-16303993D01*
X10196968Y-16303993D02*
X10244587Y-16303993D01*
X10244587Y-16303993D02*
X10263635Y-16294469D01*
X10330301Y-16246850D02*
X10406492Y-16246850D01*
X10358873Y-16180184D02*
X10358873Y-16351612D01*
X10358873Y-16351612D02*
X10368396Y-16370660D01*
X10368396Y-16370660D02*
X10387444Y-16380184D01*
X10387444Y-16380184D02*
X10406492Y-16380184D01*
X10549349Y-16370660D02*
X10530301Y-16380184D01*
X10530301Y-16380184D02*
X10492206Y-16380184D01*
X10492206Y-16380184D02*
X10473158Y-16370660D01*
X10473158Y-16370660D02*
X10463635Y-16351612D01*
X10463635Y-16351612D02*
X10463635Y-16275422D01*
X10463635Y-16275422D02*
X10473158Y-16256374D01*
X10473158Y-16256374D02*
X10492206Y-16246850D01*
X10492206Y-16246850D02*
X10530301Y-16246850D01*
X10530301Y-16246850D02*
X10549349Y-16256374D01*
X10549349Y-16256374D02*
X10558873Y-16275422D01*
X10558873Y-16275422D02*
X10558873Y-16294469D01*
X10558873Y-16294469D02*
X10463635Y-16313517D01*
X10730301Y-16380184D02*
X10730301Y-16180184D01*
X10730301Y-16370660D02*
X10711254Y-16380184D01*
X10711254Y-16380184D02*
X10673158Y-16380184D01*
X10673158Y-16380184D02*
X10654111Y-16370660D01*
X10654111Y-16370660D02*
X10644587Y-16361136D01*
X10644587Y-16361136D02*
X10635063Y-16342088D01*
X10635063Y-16342088D02*
X10635063Y-16284946D01*
X10635063Y-16284946D02*
X10644587Y-16265898D01*
X10644587Y-16265898D02*
X10654111Y-16256374D01*
X10654111Y-16256374D02*
X10673158Y-16246850D01*
X10673158Y-16246850D02*
X10711254Y-16246850D01*
X10711254Y-16246850D02*
X10730301Y-16256374D01*
X10806492Y-16456374D02*
X10816016Y-16446850D01*
X10816016Y-16446850D02*
X10835063Y-16418279D01*
X10835063Y-16418279D02*
X10844587Y-16399231D01*
X10844587Y-16399231D02*
X10854111Y-16370660D01*
X10854111Y-16370660D02*
X10863635Y-16323041D01*
X10863635Y-16323041D02*
X10863635Y-16284946D01*
X10863635Y-16284946D02*
X10854111Y-16237327D01*
X10854111Y-16237327D02*
X10844587Y-16208755D01*
X10844587Y-16208755D02*
X10835063Y-16189708D01*
X10835063Y-16189708D02*
X10816016Y-16161136D01*
X10816016Y-16161136D02*
X10806492Y-16151612D01*
X3760000Y-16708700D02*
X3860000Y-16608700D01*
X3760000Y-16508700D01*
X3660000Y-16608700D01*
X3760000Y-16708700D01*
X4206491Y-16566850D02*
X4206491Y-16700184D01*
X4158872Y-16490660D02*
X4111253Y-16633517D01*
X4111253Y-16633517D02*
X4235063Y-16633517D01*
X4311253Y-16681136D02*
X4320777Y-16690660D01*
X4320777Y-16690660D02*
X4311253Y-16700184D01*
X4311253Y-16700184D02*
X4301729Y-16690660D01*
X4301729Y-16690660D02*
X4311253Y-16681136D01*
X4311253Y-16681136D02*
X4311253Y-16700184D01*
X4444586Y-16500184D02*
X4463634Y-16500184D01*
X4463634Y-16500184D02*
X4482682Y-16509708D01*
X4482682Y-16509708D02*
X4492205Y-16519231D01*
X4492205Y-16519231D02*
X4501729Y-16538279D01*
X4501729Y-16538279D02*
X4511253Y-16576374D01*
X4511253Y-16576374D02*
X4511253Y-16623993D01*
X4511253Y-16623993D02*
X4501729Y-16662088D01*
X4501729Y-16662088D02*
X4492205Y-16681136D01*
X4492205Y-16681136D02*
X4482682Y-16690660D01*
X4482682Y-16690660D02*
X4463634Y-16700184D01*
X4463634Y-16700184D02*
X4444586Y-16700184D01*
X4444586Y-16700184D02*
X4425539Y-16690660D01*
X4425539Y-16690660D02*
X4416015Y-16681136D01*
X4416015Y-16681136D02*
X4406491Y-16662088D01*
X4406491Y-16662088D02*
X4396967Y-16623993D01*
X4396967Y-16623993D02*
X4396967Y-16576374D01*
X4396967Y-16576374D02*
X4406491Y-16538279D01*
X4406491Y-16538279D02*
X4416015Y-16519231D01*
X4416015Y-16519231D02*
X4425539Y-16509708D01*
X4425539Y-16509708D02*
X4444586Y-16500184D01*
X4635063Y-16500184D02*
X4654110Y-16500184D01*
X4654110Y-16500184D02*
X4673158Y-16509708D01*
X4673158Y-16509708D02*
X4682682Y-16519231D01*
X4682682Y-16519231D02*
X4692205Y-16538279D01*
X4692205Y-16538279D02*
X4701729Y-16576374D01*
X4701729Y-16576374D02*
X4701729Y-16623993D01*
X4701729Y-16623993D02*
X4692205Y-16662088D01*
X4692205Y-16662088D02*
X4682682Y-16681136D01*
X4682682Y-16681136D02*
X4673158Y-16690660D01*
X4673158Y-16690660D02*
X4654110Y-16700184D01*
X4654110Y-16700184D02*
X4635063Y-16700184D01*
X4635063Y-16700184D02*
X4616015Y-16690660D01*
X4616015Y-16690660D02*
X4606491Y-16681136D01*
X4606491Y-16681136D02*
X4596967Y-16662088D01*
X4596967Y-16662088D02*
X4587444Y-16623993D01*
X4587444Y-16623993D02*
X4587444Y-16576374D01*
X4587444Y-16576374D02*
X4596967Y-16538279D01*
X4596967Y-16538279D02*
X4606491Y-16519231D01*
X4606491Y-16519231D02*
X4616015Y-16509708D01*
X4616015Y-16509708D02*
X4635063Y-16500184D01*
X4825539Y-16500184D02*
X4844586Y-16500184D01*
X4844586Y-16500184D02*
X4863634Y-16509708D01*
X4863634Y-16509708D02*
X4873158Y-16519231D01*
X4873158Y-16519231D02*
X4882682Y-16538279D01*
X4882682Y-16538279D02*
X4892205Y-16576374D01*
X4892205Y-16576374D02*
X4892205Y-16623993D01*
X4892205Y-16623993D02*
X4882682Y-16662088D01*
X4882682Y-16662088D02*
X4873158Y-16681136D01*
X4873158Y-16681136D02*
X4863634Y-16690660D01*
X4863634Y-16690660D02*
X4844586Y-16700184D01*
X4844586Y-16700184D02*
X4825539Y-16700184D01*
X4825539Y-16700184D02*
X4806491Y-16690660D01*
X4806491Y-16690660D02*
X4796967Y-16681136D01*
X4796967Y-16681136D02*
X4787444Y-16662088D01*
X4787444Y-16662088D02*
X4777920Y-16623993D01*
X4777920Y-16623993D02*
X4777920Y-16576374D01*
X4777920Y-16576374D02*
X4787444Y-16538279D01*
X4787444Y-16538279D02*
X4796967Y-16519231D01*
X4796967Y-16519231D02*
X4806491Y-16509708D01*
X4806491Y-16509708D02*
X4825539Y-16500184D01*
X4977920Y-16700184D02*
X4977920Y-16566850D01*
X4977920Y-16585898D02*
X4987444Y-16576374D01*
X4987444Y-16576374D02*
X5006491Y-16566850D01*
X5006491Y-16566850D02*
X5035063Y-16566850D01*
X5035063Y-16566850D02*
X5054110Y-16576374D01*
X5054110Y-16576374D02*
X5063634Y-16595422D01*
X5063634Y-16595422D02*
X5063634Y-16700184D01*
X5063634Y-16595422D02*
X5073158Y-16576374D01*
X5073158Y-16576374D02*
X5092205Y-16566850D01*
X5092205Y-16566850D02*
X5120777Y-16566850D01*
X5120777Y-16566850D02*
X5139825Y-16576374D01*
X5139825Y-16576374D02*
X5149348Y-16595422D01*
X5149348Y-16595422D02*
X5149348Y-16700184D01*
X5244586Y-16700184D02*
X5244586Y-16566850D01*
X5244586Y-16585898D02*
X5254110Y-16576374D01*
X5254110Y-16576374D02*
X5273158Y-16566850D01*
X5273158Y-16566850D02*
X5301729Y-16566850D01*
X5301729Y-16566850D02*
X5320777Y-16576374D01*
X5320777Y-16576374D02*
X5330301Y-16595422D01*
X5330301Y-16595422D02*
X5330301Y-16700184D01*
X5330301Y-16595422D02*
X5339825Y-16576374D01*
X5339825Y-16576374D02*
X5358872Y-16566850D01*
X5358872Y-16566850D02*
X5387444Y-16566850D01*
X5387444Y-16566850D02*
X5406491Y-16576374D01*
X5406491Y-16576374D02*
X5416015Y-16595422D01*
X5416015Y-16595422D02*
X5416015Y-16700184D01*
X5806491Y-16490660D02*
X5635063Y-16747803D01*
X6063634Y-16500184D02*
X6082682Y-16500184D01*
X6082682Y-16500184D02*
X6101729Y-16509708D01*
X6101729Y-16509708D02*
X6111253Y-16519231D01*
X6111253Y-16519231D02*
X6120777Y-16538279D01*
X6120777Y-16538279D02*
X6130301Y-16576374D01*
X6130301Y-16576374D02*
X6130301Y-16623993D01*
X6130301Y-16623993D02*
X6120777Y-16662088D01*
X6120777Y-16662088D02*
X6111253Y-16681136D01*
X6111253Y-16681136D02*
X6101729Y-16690660D01*
X6101729Y-16690660D02*
X6082682Y-16700184D01*
X6082682Y-16700184D02*
X6063634Y-16700184D01*
X6063634Y-16700184D02*
X6044586Y-16690660D01*
X6044586Y-16690660D02*
X6035063Y-16681136D01*
X6035063Y-16681136D02*
X6025539Y-16662088D01*
X6025539Y-16662088D02*
X6016015Y-16623993D01*
X6016015Y-16623993D02*
X6016015Y-16576374D01*
X6016015Y-16576374D02*
X6025539Y-16538279D01*
X6025539Y-16538279D02*
X6035063Y-16519231D01*
X6035063Y-16519231D02*
X6044586Y-16509708D01*
X6044586Y-16509708D02*
X6063634Y-16500184D01*
X6216015Y-16681136D02*
X6225539Y-16690660D01*
X6225539Y-16690660D02*
X6216015Y-16700184D01*
X6216015Y-16700184D02*
X6206491Y-16690660D01*
X6206491Y-16690660D02*
X6216015Y-16681136D01*
X6216015Y-16681136D02*
X6216015Y-16700184D01*
X6416015Y-16700184D02*
X6301729Y-16700184D01*
X6358872Y-16700184D02*
X6358872Y-16500184D01*
X6358872Y-16500184D02*
X6339825Y-16528755D01*
X6339825Y-16528755D02*
X6320777Y-16547803D01*
X6320777Y-16547803D02*
X6301729Y-16557327D01*
X6596967Y-16500184D02*
X6501729Y-16500184D01*
X6501729Y-16500184D02*
X6492206Y-16595422D01*
X6492206Y-16595422D02*
X6501729Y-16585898D01*
X6501729Y-16585898D02*
X6520777Y-16576374D01*
X6520777Y-16576374D02*
X6568396Y-16576374D01*
X6568396Y-16576374D02*
X6587444Y-16585898D01*
X6587444Y-16585898D02*
X6596967Y-16595422D01*
X6596967Y-16595422D02*
X6606491Y-16614469D01*
X6606491Y-16614469D02*
X6606491Y-16662088D01*
X6606491Y-16662088D02*
X6596967Y-16681136D01*
X6596967Y-16681136D02*
X6587444Y-16690660D01*
X6587444Y-16690660D02*
X6568396Y-16700184D01*
X6568396Y-16700184D02*
X6520777Y-16700184D01*
X6520777Y-16700184D02*
X6501729Y-16690660D01*
X6501729Y-16690660D02*
X6492206Y-16681136D01*
X6673158Y-16500184D02*
X6806491Y-16500184D01*
X6806491Y-16500184D02*
X6720777Y-16700184D01*
X6977920Y-16500184D02*
X6882682Y-16500184D01*
X6882682Y-16500184D02*
X6873158Y-16595422D01*
X6873158Y-16595422D02*
X6882682Y-16585898D01*
X6882682Y-16585898D02*
X6901729Y-16576374D01*
X6901729Y-16576374D02*
X6949348Y-16576374D01*
X6949348Y-16576374D02*
X6968396Y-16585898D01*
X6968396Y-16585898D02*
X6977920Y-16595422D01*
X6977920Y-16595422D02*
X6987444Y-16614469D01*
X6987444Y-16614469D02*
X6987444Y-16662088D01*
X6987444Y-16662088D02*
X6977920Y-16681136D01*
X6977920Y-16681136D02*
X6968396Y-16690660D01*
X6968396Y-16690660D02*
X6949348Y-16700184D01*
X6949348Y-16700184D02*
X6901729Y-16700184D01*
X6901729Y-16700184D02*
X6882682Y-16690660D01*
X6882682Y-16690660D02*
X6873158Y-16681136D01*
X7063634Y-16500184D02*
X7063634Y-16538279D01*
X7139825Y-16500184D02*
X7139825Y-16538279D01*
X7435063Y-16776374D02*
X7425539Y-16766850D01*
X7425539Y-16766850D02*
X7406491Y-16738279D01*
X7406491Y-16738279D02*
X7396968Y-16719231D01*
X7396968Y-16719231D02*
X7387444Y-16690660D01*
X7387444Y-16690660D02*
X7377920Y-16643041D01*
X7377920Y-16643041D02*
X7377920Y-16604946D01*
X7377920Y-16604946D02*
X7387444Y-16557327D01*
X7387444Y-16557327D02*
X7396968Y-16528755D01*
X7396968Y-16528755D02*
X7406491Y-16509708D01*
X7406491Y-16509708D02*
X7425539Y-16481136D01*
X7425539Y-16481136D02*
X7435063Y-16471612D01*
X7616015Y-16700184D02*
X7501729Y-16700184D01*
X7558872Y-16700184D02*
X7558872Y-16500184D01*
X7558872Y-16500184D02*
X7539825Y-16528755D01*
X7539825Y-16528755D02*
X7520777Y-16547803D01*
X7520777Y-16547803D02*
X7501729Y-16557327D01*
X7739825Y-16500184D02*
X7758872Y-16500184D01*
X7758872Y-16500184D02*
X7777920Y-16509708D01*
X7777920Y-16509708D02*
X7787444Y-16519231D01*
X7787444Y-16519231D02*
X7796968Y-16538279D01*
X7796968Y-16538279D02*
X7806491Y-16576374D01*
X7806491Y-16576374D02*
X7806491Y-16623993D01*
X7806491Y-16623993D02*
X7796968Y-16662088D01*
X7796968Y-16662088D02*
X7787444Y-16681136D01*
X7787444Y-16681136D02*
X7777920Y-16690660D01*
X7777920Y-16690660D02*
X7758872Y-16700184D01*
X7758872Y-16700184D02*
X7739825Y-16700184D01*
X7739825Y-16700184D02*
X7720777Y-16690660D01*
X7720777Y-16690660D02*
X7711253Y-16681136D01*
X7711253Y-16681136D02*
X7701729Y-16662088D01*
X7701729Y-16662088D02*
X7692206Y-16623993D01*
X7692206Y-16623993D02*
X7692206Y-16576374D01*
X7692206Y-16576374D02*
X7701729Y-16538279D01*
X7701729Y-16538279D02*
X7711253Y-16519231D01*
X7711253Y-16519231D02*
X7720777Y-16509708D01*
X7720777Y-16509708D02*
X7739825Y-16500184D01*
X7882682Y-16519231D02*
X7892206Y-16509708D01*
X7892206Y-16509708D02*
X7911253Y-16500184D01*
X7911253Y-16500184D02*
X7958872Y-16500184D01*
X7958872Y-16500184D02*
X7977920Y-16509708D01*
X7977920Y-16509708D02*
X7987444Y-16519231D01*
X7987444Y-16519231D02*
X7996968Y-16538279D01*
X7996968Y-16538279D02*
X7996968Y-16557327D01*
X7996968Y-16557327D02*
X7987444Y-16585898D01*
X7987444Y-16585898D02*
X7873158Y-16700184D01*
X7873158Y-16700184D02*
X7996968Y-16700184D01*
X8235063Y-16700184D02*
X8235063Y-16500184D01*
X8320777Y-16700184D02*
X8320777Y-16595422D01*
X8320777Y-16595422D02*
X8311253Y-16576374D01*
X8311253Y-16576374D02*
X8292206Y-16566850D01*
X8292206Y-16566850D02*
X8263634Y-16566850D01*
X8263634Y-16566850D02*
X8244587Y-16576374D01*
X8244587Y-16576374D02*
X8235063Y-16585898D01*
X8444587Y-16700184D02*
X8425539Y-16690660D01*
X8425539Y-16690660D02*
X8416015Y-16681136D01*
X8416015Y-16681136D02*
X8406492Y-16662088D01*
X8406492Y-16662088D02*
X8406492Y-16604946D01*
X8406492Y-16604946D02*
X8416015Y-16585898D01*
X8416015Y-16585898D02*
X8425539Y-16576374D01*
X8425539Y-16576374D02*
X8444587Y-16566850D01*
X8444587Y-16566850D02*
X8473158Y-16566850D01*
X8473158Y-16566850D02*
X8492206Y-16576374D01*
X8492206Y-16576374D02*
X8501730Y-16585898D01*
X8501730Y-16585898D02*
X8511253Y-16604946D01*
X8511253Y-16604946D02*
X8511253Y-16662088D01*
X8511253Y-16662088D02*
X8501730Y-16681136D01*
X8501730Y-16681136D02*
X8492206Y-16690660D01*
X8492206Y-16690660D02*
X8473158Y-16700184D01*
X8473158Y-16700184D02*
X8444587Y-16700184D01*
X8625539Y-16700184D02*
X8606492Y-16690660D01*
X8606492Y-16690660D02*
X8596968Y-16671612D01*
X8596968Y-16671612D02*
X8596968Y-16500184D01*
X8777920Y-16690660D02*
X8758873Y-16700184D01*
X8758873Y-16700184D02*
X8720777Y-16700184D01*
X8720777Y-16700184D02*
X8701730Y-16690660D01*
X8701730Y-16690660D02*
X8692206Y-16671612D01*
X8692206Y-16671612D02*
X8692206Y-16595422D01*
X8692206Y-16595422D02*
X8701730Y-16576374D01*
X8701730Y-16576374D02*
X8720777Y-16566850D01*
X8720777Y-16566850D02*
X8758873Y-16566850D01*
X8758873Y-16566850D02*
X8777920Y-16576374D01*
X8777920Y-16576374D02*
X8787444Y-16595422D01*
X8787444Y-16595422D02*
X8787444Y-16614469D01*
X8787444Y-16614469D02*
X8692206Y-16633517D01*
X8863634Y-16690660D02*
X8882682Y-16700184D01*
X8882682Y-16700184D02*
X8920777Y-16700184D01*
X8920777Y-16700184D02*
X8939825Y-16690660D01*
X8939825Y-16690660D02*
X8949349Y-16671612D01*
X8949349Y-16671612D02*
X8949349Y-16662088D01*
X8949349Y-16662088D02*
X8939825Y-16643041D01*
X8939825Y-16643041D02*
X8920777Y-16633517D01*
X8920777Y-16633517D02*
X8892206Y-16633517D01*
X8892206Y-16633517D02*
X8873158Y-16623993D01*
X8873158Y-16623993D02*
X8863634Y-16604946D01*
X8863634Y-16604946D02*
X8863634Y-16595422D01*
X8863634Y-16595422D02*
X8873158Y-16576374D01*
X8873158Y-16576374D02*
X8892206Y-16566850D01*
X8892206Y-16566850D02*
X8920777Y-16566850D01*
X8920777Y-16566850D02*
X8939825Y-16576374D01*
X9016015Y-16776374D02*
X9025539Y-16766850D01*
X9025539Y-16766850D02*
X9044587Y-16738279D01*
X9044587Y-16738279D02*
X9054111Y-16719231D01*
X9054111Y-16719231D02*
X9063634Y-16690660D01*
X9063634Y-16690660D02*
X9073158Y-16643041D01*
X9073158Y-16643041D02*
X9073158Y-16604946D01*
X9073158Y-16604946D02*
X9063634Y-16557327D01*
X9063634Y-16557327D02*
X9054111Y-16528755D01*
X9054111Y-16528755D02*
X9044587Y-16509708D01*
X9044587Y-16509708D02*
X9025539Y-16481136D01*
X9025539Y-16481136D02*
X9016015Y-16471612D01*
X9377920Y-16776374D02*
X9368396Y-16766850D01*
X9368396Y-16766850D02*
X9349349Y-16738279D01*
X9349349Y-16738279D02*
X9339825Y-16719231D01*
X9339825Y-16719231D02*
X9330301Y-16690660D01*
X9330301Y-16690660D02*
X9320777Y-16643041D01*
X9320777Y-16643041D02*
X9320777Y-16604946D01*
X9320777Y-16604946D02*
X9330301Y-16557327D01*
X9330301Y-16557327D02*
X9339825Y-16528755D01*
X9339825Y-16528755D02*
X9349349Y-16509708D01*
X9349349Y-16509708D02*
X9368396Y-16481136D01*
X9368396Y-16481136D02*
X9377920Y-16471612D01*
X9454111Y-16566850D02*
X9454111Y-16700184D01*
X9454111Y-16585898D02*
X9463634Y-16576374D01*
X9463634Y-16576374D02*
X9482682Y-16566850D01*
X9482682Y-16566850D02*
X9511254Y-16566850D01*
X9511254Y-16566850D02*
X9530301Y-16576374D01*
X9530301Y-16576374D02*
X9539825Y-16595422D01*
X9539825Y-16595422D02*
X9539825Y-16700184D01*
X9663634Y-16700184D02*
X9644587Y-16690660D01*
X9644587Y-16690660D02*
X9635063Y-16681136D01*
X9635063Y-16681136D02*
X9625539Y-16662088D01*
X9625539Y-16662088D02*
X9625539Y-16604946D01*
X9625539Y-16604946D02*
X9635063Y-16585898D01*
X9635063Y-16585898D02*
X9644587Y-16576374D01*
X9644587Y-16576374D02*
X9663634Y-16566850D01*
X9663634Y-16566850D02*
X9692206Y-16566850D01*
X9692206Y-16566850D02*
X9711254Y-16576374D01*
X9711254Y-16576374D02*
X9720777Y-16585898D01*
X9720777Y-16585898D02*
X9730301Y-16604946D01*
X9730301Y-16604946D02*
X9730301Y-16662088D01*
X9730301Y-16662088D02*
X9720777Y-16681136D01*
X9720777Y-16681136D02*
X9711254Y-16690660D01*
X9711254Y-16690660D02*
X9692206Y-16700184D01*
X9692206Y-16700184D02*
X9663634Y-16700184D01*
X9787444Y-16566850D02*
X9863634Y-16566850D01*
X9816015Y-16500184D02*
X9816015Y-16671612D01*
X9816015Y-16671612D02*
X9825539Y-16690660D01*
X9825539Y-16690660D02*
X9844587Y-16700184D01*
X9844587Y-16700184D02*
X9863634Y-16700184D01*
X10082682Y-16566850D02*
X10082682Y-16766850D01*
X10082682Y-16576374D02*
X10101730Y-16566850D01*
X10101730Y-16566850D02*
X10139825Y-16566850D01*
X10139825Y-16566850D02*
X10158873Y-16576374D01*
X10158873Y-16576374D02*
X10168396Y-16585898D01*
X10168396Y-16585898D02*
X10177920Y-16604946D01*
X10177920Y-16604946D02*
X10177920Y-16662088D01*
X10177920Y-16662088D02*
X10168396Y-16681136D01*
X10168396Y-16681136D02*
X10158873Y-16690660D01*
X10158873Y-16690660D02*
X10139825Y-16700184D01*
X10139825Y-16700184D02*
X10101730Y-16700184D01*
X10101730Y-16700184D02*
X10082682Y-16690660D01*
X10292206Y-16700184D02*
X10273158Y-16690660D01*
X10273158Y-16690660D02*
X10263635Y-16671612D01*
X10263635Y-16671612D02*
X10263635Y-16500184D01*
X10454111Y-16700184D02*
X10454111Y-16595422D01*
X10454111Y-16595422D02*
X10444587Y-16576374D01*
X10444587Y-16576374D02*
X10425539Y-16566850D01*
X10425539Y-16566850D02*
X10387444Y-16566850D01*
X10387444Y-16566850D02*
X10368396Y-16576374D01*
X10454111Y-16690660D02*
X10435063Y-16700184D01*
X10435063Y-16700184D02*
X10387444Y-16700184D01*
X10387444Y-16700184D02*
X10368396Y-16690660D01*
X10368396Y-16690660D02*
X10358873Y-16671612D01*
X10358873Y-16671612D02*
X10358873Y-16652565D01*
X10358873Y-16652565D02*
X10368396Y-16633517D01*
X10368396Y-16633517D02*
X10387444Y-16623993D01*
X10387444Y-16623993D02*
X10435063Y-16623993D01*
X10435063Y-16623993D02*
X10454111Y-16614469D01*
X10520777Y-16566850D02*
X10596968Y-16566850D01*
X10549349Y-16500184D02*
X10549349Y-16671612D01*
X10549349Y-16671612D02*
X10558873Y-16690660D01*
X10558873Y-16690660D02*
X10577920Y-16700184D01*
X10577920Y-16700184D02*
X10596968Y-16700184D01*
X10739825Y-16690660D02*
X10720777Y-16700184D01*
X10720777Y-16700184D02*
X10682682Y-16700184D01*
X10682682Y-16700184D02*
X10663635Y-16690660D01*
X10663635Y-16690660D02*
X10654111Y-16671612D01*
X10654111Y-16671612D02*
X10654111Y-16595422D01*
X10654111Y-16595422D02*
X10663635Y-16576374D01*
X10663635Y-16576374D02*
X10682682Y-16566850D01*
X10682682Y-16566850D02*
X10720777Y-16566850D01*
X10720777Y-16566850D02*
X10739825Y-16576374D01*
X10739825Y-16576374D02*
X10749349Y-16595422D01*
X10749349Y-16595422D02*
X10749349Y-16614469D01*
X10749349Y-16614469D02*
X10654111Y-16633517D01*
X10920777Y-16700184D02*
X10920777Y-16500184D01*
X10920777Y-16690660D02*
X10901730Y-16700184D01*
X10901730Y-16700184D02*
X10863635Y-16700184D01*
X10863635Y-16700184D02*
X10844587Y-16690660D01*
X10844587Y-16690660D02*
X10835063Y-16681136D01*
X10835063Y-16681136D02*
X10825539Y-16662088D01*
X10825539Y-16662088D02*
X10825539Y-16604946D01*
X10825539Y-16604946D02*
X10835063Y-16585898D01*
X10835063Y-16585898D02*
X10844587Y-16576374D01*
X10844587Y-16576374D02*
X10863635Y-16566850D01*
X10863635Y-16566850D02*
X10901730Y-16566850D01*
X10901730Y-16566850D02*
X10920777Y-16576374D01*
X10996968Y-16776374D02*
X11006492Y-16766850D01*
X11006492Y-16766850D02*
X11025539Y-16738279D01*
X11025539Y-16738279D02*
X11035063Y-16719231D01*
X11035063Y-16719231D02*
X11044587Y-16690660D01*
X11044587Y-16690660D02*
X11054111Y-16643041D01*
X11054111Y-16643041D02*
X11054111Y-16604946D01*
X11054111Y-16604946D02*
X11044587Y-16557327D01*
X11044587Y-16557327D02*
X11035063Y-16528755D01*
X11035063Y-16528755D02*
X11025539Y-16509708D01*
X11025539Y-16509708D02*
X11006492Y-16481136D01*
X11006492Y-16481136D02*
X10996968Y-16471612D01*
M02*
