M48
; DRILL file KiCad 10.0.0 date 2026-04-01T17:16:30
; FORMAT={-:-/ absolute / metric / decimal}
; #@! TF.CreationDate,2026-04-01T17:16:30+03:00
; #@! TF.GenerationSoftware,Kicad,Pcbnew,10.0.0
; #@! TF.FileFunction,Plated,1,2,PTH
FMAT,2
METRIC
; #@! TA.AperFunction,Plated,PTH,ViaDrill
T1C0.300
; #@! TA.AperFunction,Plated,PTH,ComponentDrill
T2C0.750
; #@! TA.AperFunction,Plated,PTH,ComponentDrill
T3C0.800
; #@! TA.AperFunction,Plated,PTH,ComponentDrill
T4C1.000
; #@! TA.AperFunction,Plated,PTH,ComponentDrill
T5C1.200
; #@! TA.AperFunction,Plated,PTH,ComponentDrill
T6C2.000
%
G90
G05
T1
X40.6Y-55.5
X41.2Y-50.5
X43.2Y-50.4
X45.0Y-56.5
X45.2Y-50.4
X45.5Y-106.9
X45.8Y-70.4
X47.176Y-50.4
X49.168Y-50.4
X49.887Y-123.712
X50.2Y-84.9
X51.16Y-50.36
X54.8Y-144.4
X56.7Y-52.9
X59.57Y-62.13
X59.59Y-90.0
X63.2Y-106.2
X63.7Y-68.5
X64.3Y-91.7
X65.7Y-51.3
X67.4Y-91.7
X68.2Y-51.3
X69.0Y-123.7
X69.9Y-85.2
X70.2Y-37.5
X73.1Y-45.4
X74.41Y-69.0
X75.2Y-131.2
X75.9Y-54.1
X76.01Y-70.09
X76.1Y-39.5
X76.2Y-61.2
X77.0Y-68.8
X77.4Y-91.8
X77.6Y-42.8
X78.64Y-90.0
X78.9Y-56.7
X79.2Y-54.1
X79.792Y-64.412
X80.0Y-91.8
X82.0Y-68.8
X82.4Y-106.2
X82.7Y-144.5
X83.7Y-34.9
X84.0Y-29.5
X88.0Y-123.7
X88.4Y-85.0
X88.7Y-28.8
X90.1Y-36.5
X91.7Y-66.6
X92.1Y-29.3
X92.4Y-32.3
X92.4Y-68.9
X94.755Y-37.6
X94.8Y-32.9
X94.9Y-71.4
X95.4Y-47.4
X96.03Y-41.18
X96.1Y-33.0
X97.0Y-49.1
X100.43Y-51.89
X100.6Y-77.1
X101.1Y-138.5
X101.7Y-32.1
X102.1Y-68.1
X102.4Y-33.0
X104.8Y-50.8
X105.1Y-53.9
X105.55Y-49.85
X106.2Y-49.0
X106.2Y-136.8
X106.4Y-132.1
X107.0Y-48.1
X107.8Y-95.1
X107.9Y-47.2
X108.5Y-69.1
X108.8Y-46.1
X109.0Y-66.6
X110.8Y-44.7
X111.7Y-33.4
X115.8Y-33.4
X116.3Y-134.2
X117.8Y-91.4
X117.8Y-102.5
X120.6Y-108.9
X120.6Y-111.8
X120.7Y-97.5
X120.7Y-106.0
X120.7Y-114.1
X120.9Y-116.2
X121.0Y-87.2
X121.0Y-119.1
X121.1Y-101.718
X121.1Y-122.0
X121.12Y-98.82
X121.172Y-90.127
X121.2Y-93.0
X121.6Y-33.4
X125.2Y-33.4
X125.31Y-81.16
X126.265Y-52.8
X130.99Y-84.96
X131.0Y-67.662
X131.8Y-33.4
X132.6Y-144.6
X135.7Y-42.3
X135.8Y-105.8
X136.0Y-107.5
X138.987Y-85.612
X140.7Y-51.55
X141.7Y-102.5
X141.7Y-104.8
X142.65Y-72.35
X145.3Y-33.4
X145.3Y-123.7
X146.1Y-104.97
X147.78Y-83.48
X149.8Y-67.662
X149.9Y-32.7
X150.9Y-93.0
X150.9Y-105.9
X152.0Y-51.4
X153.77Y-102.51
X156.4Y-33.8
X156.4Y-144.6
X159.8Y-42.3
X159.8Y-85.2
X159.838Y-105.762
X162.8Y-109.2
X165.1Y-52.4
X166.463Y-79.278
X168.3Y-45.4
X169.037Y-67.662
X169.4Y-32.9
X172.5Y-45.0
X174.3Y-123.7
X174.8Y-45.6
X175.3Y-33.7
X178.1Y-45.7
X178.45Y-42.75
X178.8Y-105.8
X178.82Y-70.59
X179.1Y-85.612
X179.7Y-144.6
X180.8Y-51.4
X186.5Y-50.5
X186.7Y-85.6
X186.9Y-38.5
X186.9Y-81.2
X188.0Y-67.7
X188.9Y-32.8
X189.0Y-89.8
X189.3Y-39.8
X189.3Y-82.5
X190.31Y-52.39
X190.6Y-85.3
X192.8Y-123.7
X194.7Y-33.9
X195.0Y-91.4
X196.7Y-84.3
X197.8Y-42.1
X199.7Y-84.9
X199.8Y-107.3
X206.49Y-52.39
X207.2Y-67.662
X208.4Y-33.0
X211.48Y-132.62
X211.9Y-123.712
X214.0Y-132.7
X214.22Y-72.4
X216.5Y-132.6
X216.737Y-105.762
X217.0Y-85.612
X218.5Y-42.2
X219.01Y-132.61
X221.52Y-132.82
X221.8Y-109.2
X224.03Y-132.8
X226.1Y-67.662
X226.6Y-49.1
X227.1Y-33.6
X227.4Y-132.2
X227.8Y-127.3
X228.33Y-108.72
X232.3Y-70.1
X233.1Y-49.5
X233.1Y-66.2
X234.2Y-32.7
X234.3Y-123.6
X236.0Y-105.762
X236.15Y-129.46
X236.2Y-85.612
X236.3Y-45.2
X237.8Y-34.3
X238.9Y-49.0
X240.6Y-42.75
X241.0Y-123.3
X245.2Y-67.7
X245.75Y-48.05
X249.4Y-122.3
X250.9Y-32.7
X251.4Y-144.7
X252.79Y-130.35
X254.3Y-123.6
X254.9Y-106.1
X255.0Y-85.1
X256.3Y-33.7
X259.6Y-42.8
X264.4Y-67.662
X269.14Y-45.46
X270.0Y-32.8
X270.3Y-124.5
X273.7Y-106.0
X274.5Y-85.2
X275.4Y-33.9
X276.0Y-132.8
X278.51Y-132.6
X278.7Y-42.8
X281.02Y-132.7
X283.53Y-132.87
X283.537Y-67.662
X284.47Y-42.63
X285.0Y-34.7
X286.04Y-132.8
X286.8Y-38.6
X288.2Y-43.0
X288.55Y-132.95
X288.8Y-124.6
X289.4Y-39.5
X290.4Y-47.6
X290.7Y-41.7
X291.06Y-132.94
X291.1Y-32.6
X292.7Y-106.1
X292.9Y-47.6
X293.2Y-84.8
X293.57Y-132.9
X295.2Y-34.4
X295.4Y-46.7
X299.6Y-46.4
X301.2Y-42.75
X302.1Y-67.662
X302.4Y-45.6
X303.2Y-84.8
X304.575Y-51.775
X307.7Y-124.7
X308.0Y-34.1
X310.1Y-66.4
X310.8Y-53.2
X311.5Y-63.4
X311.6Y-49.9
X311.9Y-85.0
X314.0Y-107.1
X314.1Y-71.0
X314.6Y-32.7
X318.7Y-89.8
X318.8Y-34.2
X321.337Y-67.662
X322.1Y-42.3
X323.5Y-144.8
X323.625Y-108.4
X324.4Y-91.9
X326.9Y-124.4
X327.1Y-72.0
X327.4Y-63.8
X327.8Y-91.3
X328.2Y-88.5
X328.9Y-67.2
X331.5Y-85.1
X333.0Y-106.9
X334.0Y-126.3
X334.2Y-32.8
X338.1Y-34.4
X341.4Y-42.1
X342.6Y-69.4
X345.3Y-101.0
X345.6Y-123.1
X345.8Y-103.6
X346.2Y-145.1
X346.8Y-48.2
X349.3Y-48.2
X349.3Y-71.8
X349.5Y-106.1
X350.5Y-85.2
X350.7Y-67.8
X352.6Y-32.8
X354.0Y-44.9
X355.4Y-101.3
X355.4Y-104.2
X356.7Y-34.4
X360.4Y-42.2
X361.7Y-69.4
X367.4Y-128.9
X367.6Y-42.9
X367.9Y-38.5
X368.0Y-66.8
X368.9Y-62.8
X369.2Y-105.637
X369.4Y-85.0
X370.1Y-144.6
X370.3Y-39.5
X370.3Y-41.9
X372.1Y-32.8
X372.5Y-51.9
X376.1Y-34.3
X377.6Y-50.6
X378.5Y-42.75
X380.0Y-122.6
X380.8Y-50.2
X382.0Y-47.0
X383.6Y-123.8
X385.5Y-46.4
X385.5Y-68.9
X387.0Y-123.8
X388.1Y-51.5
X389.6Y-32.7
X390.6Y-144.3
X394.6Y-93.7
X394.8Y-34.2
X396.2Y-108.4
X397.43Y-75.65
X398.4Y-42.2
X400.1Y-51.8
X402.2Y-98.3
X404.587Y-48.587
X405.5Y-51.8
X405.8Y-71.5
X407.6Y-132.9
X410.2Y-127.3
X410.4Y-50.7
X412.6Y-33.7
X413.2Y-80.2
X413.2Y-85.3
X413.2Y-90.3
X413.2Y-93.8
X413.2Y-99.5
X413.2Y-104.6
X413.2Y-109.6
X413.2Y-112.9
X414.6Y-119.7
X415.2Y-78.2
X417.8Y-102.5
X419.8Y-119.7
X420.6Y-144.5
X421.3Y-78.2
X426.5Y-94.4
X431.25Y-56.85
X433.8Y-108.2
X434.4Y-122.8
X434.5Y-129.2
X434.9Y-54.2
X435.8Y-66.6
X437.0Y-52.1
X437.3Y-122.8
X437.7Y-129.2
X438.0Y-121.8
X438.2Y-108.2
X439.5Y-124.9
X439.7Y-144.6
X440.7Y-78.2
X440.9Y-85.1
X442.9Y-83.1
X446.1Y-93.8
X446.3Y-123.1
X447.9Y-51.2
X449.3Y-100.5
X450.5Y-82.6
X451.7Y-88.6
X452.8Y-102.9
X453.6Y-78.2
X453.8Y-82.8
X453.8Y-84.0
X456.5Y-84.0
X456.8Y-82.8
X459.3Y-78.2
X459.5Y-144.7
X462.7Y-56.5
X462.9Y-59.2
X464.5Y-94.5
X468.6Y-116.7
X468.8Y-109.5
T2
X55.131Y-39.4
X55.131Y-41.4
T3
X56.925Y-56.792
X56.925Y-64.412
X56.925Y-75.843
X56.925Y-83.462
X56.925Y-94.892
X56.925Y-102.512
X56.925Y-113.942
X56.925Y-121.562
X66.45Y-132.993
X66.45Y-140.612
X75.975Y-56.792
X75.975Y-64.412
X75.975Y-75.843
X75.975Y-83.462
X75.975Y-94.892
X75.975Y-102.512
X75.975Y-113.942
X75.975Y-121.562
X94.725Y-75.843
X94.725Y-83.462
X94.725Y-94.892
X94.725Y-102.512
X94.725Y-113.942
X94.725Y-121.562
X94.725Y-135.993
X94.725Y-143.612
X95.025Y-56.792
X95.025Y-64.412
X114.075Y-56.792
X114.075Y-64.412
X114.075Y-85.367
X114.075Y-92.987
X114.075Y-123.468
X114.075Y-131.088
X142.65Y-32.98
X142.65Y-40.6
X142.65Y-56.792
X142.65Y-64.412
X145.031Y-75.843
X145.031Y-83.462
X145.031Y-132.993
X145.031Y-140.612
X147.412Y-94.892
X147.412Y-102.512
X152.175Y-113.942
X152.175Y-121.562
X161.7Y-56.792
X161.7Y-64.412
X166.463Y-32.98
X166.463Y-40.6
X166.463Y-75.843
X166.463Y-83.462
X168.844Y-132.993
X168.844Y-140.612
X171.225Y-94.892
X171.225Y-102.512
X180.75Y-56.792
X180.75Y-64.412
X180.75Y-113.942
X180.75Y-121.562
X185.512Y-32.98
X185.512Y-40.6
X185.512Y-75.843
X185.512Y-83.462
X190.275Y-94.892
X190.275Y-102.512
X192.656Y-132.993
X192.656Y-140.612
X199.8Y-56.792
X199.8Y-64.412
X199.8Y-113.942
X199.8Y-121.562
X204.562Y-32.98
X204.562Y-40.6
X204.562Y-75.843
X204.562Y-83.462
X209.325Y-94.892
X209.325Y-102.512
X218.85Y-56.792
X218.85Y-64.412
X218.85Y-113.942
X218.85Y-121.562
X223.612Y-32.98
X223.612Y-40.6
X223.612Y-75.843
X223.612Y-83.462
X228.375Y-94.892
X228.375Y-102.512
X237.9Y-56.792
X237.9Y-64.412
X237.9Y-113.942
X237.9Y-121.562
X242.662Y-75.843
X242.662Y-83.462
X247.425Y-32.98
X247.425Y-40.6
X247.425Y-94.892
X247.425Y-102.512
X256.95Y-56.792
X256.95Y-64.412
X256.95Y-113.942
X256.95Y-121.562
X261.712Y-75.843
X261.712Y-83.462
X264.094Y-132.993
X264.094Y-140.612
X266.475Y-32.98
X266.475Y-40.6
X266.475Y-94.892
X266.475Y-102.512
X276.0Y-56.792
X276.0Y-64.412
X276.0Y-113.942
X276.0Y-121.562
X280.762Y-75.843
X280.762Y-83.462
X285.525Y-32.98
X285.525Y-40.6
X285.525Y-94.892
X285.525Y-102.512
X295.05Y-56.792
X295.05Y-64.412
X295.05Y-113.942
X295.05Y-121.562
X299.812Y-75.843
X299.812Y-83.462
X304.575Y-32.98
X304.575Y-40.6
X304.575Y-94.892
X304.575Y-102.512
X314.1Y-56.792
X314.1Y-64.412
X314.1Y-113.942
X314.1Y-121.562
X318.863Y-75.843
X318.863Y-83.462
X323.625Y-94.892
X323.625Y-102.512
X328.387Y-32.98
X328.387Y-40.6
X333.15Y-56.792
X333.15Y-64.412
X333.15Y-113.942
X333.15Y-121.562
X335.531Y-132.993
X335.531Y-140.612
X337.912Y-75.843
X337.912Y-83.462
X342.675Y-94.892
X342.675Y-102.512
X347.438Y-32.98
X347.438Y-40.6
X352.2Y-56.792
X352.2Y-64.412
X352.2Y-113.942
X352.2Y-121.562
X356.962Y-75.843
X356.962Y-83.462
X359.344Y-132.993
X359.344Y-140.612
X361.725Y-94.892
X361.725Y-102.512
X366.488Y-32.98
X366.488Y-40.6
X371.25Y-56.792
X371.25Y-64.412
X376.012Y-75.843
X376.012Y-83.462
X380.775Y-94.892
X380.775Y-102.512
X383.156Y-132.993
X383.156Y-140.612
X385.537Y-32.98
X385.537Y-40.6
X387.919Y-113.942
X387.919Y-121.562
X397.444Y-56.792
X397.444Y-64.412
X402.206Y-85.367
X402.206Y-92.987
X404.587Y-32.98
X404.587Y-40.6
X404.587Y-132.993
X404.587Y-140.612
X433.162Y-66.317
X433.162Y-73.938
X433.162Y-85.367
X433.162Y-92.987
X433.162Y-132.993
X433.162Y-140.612
X452.212Y-66.317
X452.212Y-73.938
X452.212Y-85.367
X452.212Y-92.987
X452.212Y-113.942
X452.212Y-121.562
X452.212Y-132.993
X452.212Y-140.612
X471.262Y-66.317
X471.262Y-73.938
X471.262Y-85.367
X471.262Y-92.987
X471.262Y-132.993
X471.262Y-140.612
T4
X417.5Y-33.0
X420.04Y-33.0
X422.58Y-33.0
X425.12Y-33.0
X427.66Y-33.0
X430.2Y-33.0
X432.74Y-33.0
X435.28Y-33.0
X448.0Y-40.5
X448.0Y-43.0
X448.0Y-45.5
X462.5Y-40.5
X462.5Y-45.5
T5
X54.26Y-32.76
X54.26Y-48.0
X56.8Y-32.76
X56.8Y-48.0
X59.34Y-32.76
X59.34Y-48.0
X61.88Y-32.76
X61.88Y-48.0
X64.42Y-32.76
X64.42Y-48.0
X66.96Y-32.76
X66.96Y-48.0
X69.5Y-32.76
X69.5Y-48.0
X72.04Y-32.76
X72.04Y-48.0
X74.58Y-32.76
X74.58Y-48.0
X77.12Y-32.76
X77.12Y-48.0
X79.66Y-32.76
X79.66Y-48.0
X81.09Y-39.9
X81.09Y-42.44
X81.09Y-44.98
X82.2Y-32.76
X82.2Y-48.0
X84.74Y-32.76
X84.74Y-48.0
T6
X455.25Y-37.4G85X455.75Y-37.4
G05
X455.25Y-48.6G85X455.75Y-48.6
G05
M30
