0
SECTION
2
HEADER
9
$INSUNITS
70
4
9
$ACADVER
1
AC1014
9
$HANDSEED
5
FFFF
0
ENDSEC
0
SECTION
2
TABLES
0
TABLE
2
VPORT
5
8
100
AcDbSymbolTable
0
ENDTAB
0
TABLE
2
LTYPE
5
5
100
AcDbSymbolTable
0
LTYPE
5
14
100
AcDbSymbolTableRecord
100
AcDbLinetypeTableRecord
2
BYBLOCK
70
0
0
LTYPE
5
15
100
AcDbSymbolTableRecord
100
AcDbLinetypeTableRecord
2
BYLAYER
70
0
0
LTYPE
5
16
100
AcDbSymbolTableRecord
100
AcDbLinetypeTableRecord
2
DASHED
70
0
3
Dashed __ __ __ __ __ __ __ __ __ __ __ __ __ _
72
65
73
2
40
0.75
49
0.5
74
0
49
-0.25
74
0
0
ENDTAB
0
TABLE
2
LAYER
5
2
100
AcDbSymbolTable
70
2
0
LAYER
5
50
100
AcDbSymbolTableRecord
100
AcDbLayerTableRecord
2
0
70
0
62
7
6
CONTINUOUS
0
ENDTAB
0
TABLE
2
STYLE
5
3
100
AcDbSymbolTable
70
1
0
STYLE
5
11
100
AcDbSymbolTableRecord
100
AcDbTextStyleTableRecord
2
STANDARD
70
0
0
ENDTAB
0
TABLE
2
VIEW
5
6
100
AcDbSymbolTable
70
0
0
ENDTAB
0
TABLE
2
UCS
5
7
100
AcDbSymbolTable
70
0
0
ENDTAB
0
TABLE
2
APPID
5
9
100
AcDbSymbolTable
70
2
0
APPID
5
12
100
AcDbSymbolTableRecord
100
AcDbRegAppTableRecord
2
ACAD
70
0
0
ENDTAB
0
TABLE
2
DIMSTYLE
5
A
100
AcDbSymbolTable
70
1
0
ENDTAB
0
TABLE
2
BLOCK_RECORD
5
1
100
AcDbSymbolTable
70
1
0
BLOCK_RECORD
5
1F
100
AcDbSymbolTableRecord
100
AcDbBlockTableRecord
2
*MODEL_SPACE
0
BLOCK_RECORD
5
1B
100
AcDbSymbolTableRecord
100
AcDbBlockTableRecord
2
*PAPER_SPACE
0
ENDTAB
0
ENDSEC
0
SECTION
2
BLOCKS
0
BLOCK
5
20
100
AcDbEntity
100
AcDbBlockBegin
2
*MODEL_SPACE
0
ENDBLK
5
21
100
AcDbEntity
100
AcDbBlockEnd
0
BLOCK
5
1C
100
AcDbEntity
100
AcDbBlockBegin
2
*PAPER_SPACE
0
ENDBLK
5
1D
100
AcDbEntity
100
AcDbBlockEnd
0
ENDSEC
0
SECTION
2
ENTITIES
0
POINT
5
100
100
AcDbEntity
8
0
100
AcDbPoint
10
63.470796234462824
20
230.49999999999997
30
6.794564910705958e-13
0
POINT
5
101
100
AcDbEntity
8
0
100
AcDbPoint
10
-67.529203765537218
20
-230.49999999999997
30
-7.3274719625260332e-13
0
LWPOLYLINE
5
102
100
AcDbEntity
8
0
100
AcDbPolyline
90
8
70
1
43
0.0
10
-59.079249999999952
20
-127.91925000000028
10
-59.079250000000101
20
-114.91925000000026
42
-0.41421356237313667
10
-58.579249999999988
20
-114.41925000000023
10
-45.579249999999988
20
-114.41925000000023
42
-0.41421356237307422
10
-45.079249999999988
20
-114.91925000000026
10
-45.079250000000016
20
-127.91925000000028
42
-0.41421356237309503
10
-45.579249999999988
20
-128.41925000000026
10
-58.579249999999981
20
-128.41925000000026
42
-0.41421356237310025
0
LWPOLYLINE
5
103
100
AcDbEntity
8
0
100
AcDbPolyline
90
8
70
1
43
0.0
10
-59.079249999999952
20
-104.10675000000019
10
-59.079249999999952
20
-91.106750000000218
42
-0.4142135623730534
10
-58.579250000000052
20
-90.606750000000247
10
-45.579250000000009
20
-90.606750000000176
42
-0.41421356237311585
10
-45.079249999999931
20
-91.106750000000218
10
-45.079249999999931
20
-104.10675000000019
42
-0.41421356237309503
10
-45.579249999999973
20
-104.60675000000023
10
-58.579249999999981
20
-104.6067500000002
42
-0.41421356237307422
0
LWPOLYLINE
5
104
100
AcDbEntity
8
0
100
AcDbPolyline
90
8
70
1
43
0.0
10
-59.079249999999952
20
-85.056750000000179
10
-59.079249999999952
20
-72.056750000000193
42
-0.41421356237309503
10
-58.579249999999981
20
-71.556750000000221
10
-45.579249999999973
20
-71.55675000000015
42
-0.41421356237309503
10
-45.079249999999931
20
-72.056750000000193
10
-45.079249999999931
20
-85.056750000000179
42
-0.41421356237309503
10
-45.579249999999973
20
-85.556750000000221
10
-58.579249999999981
20
-85.55675000000015
42
-0.41421356237309503
0
LWPOLYLINE
5
105
100
AcDbEntity
8
0
100
AcDbPolyline
90
8
70
1
43
0.0
10
-59.079249999999952
20
-66.006750000000224
10
-59.079250000000023
20
-53.006750000000189
42
-0.41421356237309503
10
-58.579249999999981
20
-52.506750000000146
10
-45.579249999999973
20
-52.506750000000146
42
-0.41421356237313667
10
-45.079249999999931
20
-53.00675000000026
10
-45.079250000000002
20
-66.006750000000224
42
-0.41421356237309503
10
-45.579249999999973
20
-66.506750000000196
10
-58.579249999999981
20
-66.506750000000196
42
-0.41421356237309503
0
LWPOLYLINE
5
106
100
AcDbEntity
8
0
100
AcDbPolyline
90
8
70
1
43
0.0
10
-59.079249999999952
20
-46.95675000000022
10
-59.079250000000002
20
-33.956750000000248
42
-0.41421356237308982
10
-58.579249999999973
20
-33.456750000000206
10
-45.579249999999973
20
-33.456750000000206
42
-0.41421356237311585
10
-45.079249999999895
20
-33.956750000000248
10
-45.079249999999931
20
-46.95675000000022
42
-0.41421356237309503
10
-45.579249999999973
20
-47.456750000000262
10
-58.579249999999981
20
-47.456750000000191
42
-0.41421356237309503
0
LWPOLYLINE
5
107
100
AcDbEntity
8
0
100
AcDbPolyline
90
8
70
1
43
0.0
10
-59.079249999999931
20
-23.144250000000209
10
-59.079250000000016
20
-10.144250000000167
42
-0.4142135623730534
10
-58.579249999999973
20
-9.6442500000001949
10
-45.579249999999917
20
-9.6442500000002838
42
-0.4142135623730534
10
-45.079249999999895
20
-10.144250000000238
10
-45.079250000000002
20
-23.14425000000028
42
-0.41421356237309503
10
-45.579249999999973
20
-23.644250000000252
10
-58.579249999999938
20
-23.64425000000017
42
-0.41421356237311585
0
LWPOLYLINE
5
108
100
AcDbEntity
8
0
100
AcDbPolyline
90
8
70
1
43
0.0
10
-59.079249999999931
20
-4.0942500000002671
10
-59.079250000000016
20
8.9057499999997756
42
-0.41421356237311585
10
-58.579249999999938
20
9.4057499999998182
10
-45.579249999999973
20
9.4057499999998004
42
-0.41421356237316787
10
-45.079249999999895
20
8.9057499999997045
10
-45.079249999999945
20
-4.0942500000002671
42
-0.41421356237309503
10
-45.579249999999917
20
-4.5942500000002386
10
-58.579249999999973
20
-4.5942500000002298
42
-0.41421356237309503
0
LWPOLYLINE
5
109
100
AcDbEntity
8
0
100
AcDbPolyline
90
8
70
1
43
0.0
10
-59.079249999999931
20
14.955749999999743
10
-59.079249999999945
20
27.955749999999785
42
-0.41421356237309503
10
-58.579249999999973
20
28.455749999999757
10
-45.579249999999917
20
28.45574999999981
42
-0.41421356237309503
10
-45.079249999999895
20
27.955749999999785
10
-45.079249999999895
20
14.955749999999743
42
-0.4142135623730846
10
-45.579249999999917
20
14.4557499999997
10
-58.579249999999973
20
14.455749999999782
42
-0.41421356237309503
0
LWPOLYLINE
5
110
100
AcDbEntity
8
0
100
AcDbPolyline
90
8
70
1
43
0.0
10
-59.079249999999931
20
34.005749999999829
10
-59.079250000000073
20
47.0057499999998
42
-0.41421356237309503
10
-58.579249999999888
20
47.505749999999843
10
-45.579249999999888
20
47.505749999999757
42
-0.41421356237307422
10
-45.079249999999895
20
47.005749999999729
10
-45.079249999999874
20
34.005749999999757
42
-0.41421356237309503
10
-45.579249999999917
20
33.505749999999715
10
-58.579249999999973
20
33.505749999999864
42
-0.41421356237309503
0
LWPOLYLINE
5
111
100
AcDbEntity
8
0
100
AcDbPolyline
90
8
70
1
43
0.0
10
-59.07924999999986
20
57.818249999999843
10
-59.079250000000002
20
70.818249999999821
42
-0.41421356237311585
10
-58.579249999999931
20
71.318249999999864
10
-45.579249999999917
20
71.318249999999836
42
-0.41421356237309503
10
-45.079249999999895
20
70.818249999999821
10
-45.079249999999845
20
57.818249999999843
42
-0.41421356237309503
10
-45.579249999999888
20
57.3182499999998
10
-58.579249999999888
20
57.318249999999871
42
-0.41421356237309503
0
LWPOLYLINE
5
112
100
AcDbEntity
8
0
100
AcDbPolyline
90
8
70
1
43
0.0
10
-59.079249999999931
20
76.868249999999861
10
-59.079249999999931
20
89.868249999999748
42
-0.41421356237309503
10
-58.579249999999888
20
90.36824999999979
10
-45.579249999999888
20
90.368249999999776
42
-0.41421356237309503
10
-45.07924999999986
20
89.868249999999748
10
-45.079249999999874
20
76.868249999999861
42
-0.41421356237309503
10
-45.579249999999917
20
76.368249999999819
10
-58.579249999999931
20
76.36824999999989
42
-0.41421356237311585
0
LWPOLYLINE
5
113
100
AcDbEntity
8
0
100
AcDbPolyline
90
8
70
1
43
0.0
10
-59.07924999999986
20
95.918249999999787
10
-59.07924999999976
20
108.91824999999969
42
-0.41421356237307422
10
-58.579249999999959
20
109.41824999999966
10
-45.579249999999917
20
109.41824999999979
42
-0.41421356237315748
10
-45.07924999999986
20
108.91824999999969
10
-45.079249999999845
20
95.918249999999716
42
-0.41421356237309503
10
-45.579249999999888
20
95.418249999999674
10
-58.57924999999986
20
95.418249999999816
42
-0.41421356237311585
0
LWPOLYLINE
5
114
100
AcDbEntity
8
0
100
AcDbPolyline
90
8
70
1
43
0.0
10
-59.07924999999986
20
114.9682499999998
10
-59.07924999999986
20
127.96824999999977
42
-0.41421356237301177
10
-58.579249999999888
20
128.46824999999961
10
-45.579249999999888
20
128.46824999999964
42
-0.41421356237301177
10
-45.07924999999986
20
127.96824999999977
10
-45.079249999999774
20
114.9682499999998
42
-0.41421356237309503
10
-45.579249999999888
20
114.46824999999968
10
-58.579249999999888
20
114.46824999999983
42
-0.41421356237309503
0
LWPOLYLINE
5
115
100
AcDbEntity
8
0
100
AcDbPolyline
90
8
70
1
43
0.0
10
-59.07924999999986
20
134.01824999999968
10
-59.079250000000023
20
147.01824999999971
42
-0.41421356237306384
10
-58.579249999999888
20
147.51824999999991
10
-45.579249999999845
20
147.51824999999974
42
-0.41421356237307422
10
-45.079249999999845
20
147.01824999999971
10
-45.079249999999917
20
134.01824999999968
42
-0.41421356237309503
10
-45.579249999999888
20
133.51824999999968
10
-58.579249999999888
20
133.51824999999968
42
-0.41421356237309503
0
LWPOLYLINE
5
116
100
AcDbEntity
8
0
100
AcDbPolyline
90
8
70
1
43
0.0
10
-35.266750000000016
20
-213.64425000000017
10
-35.266749999999952
20
-200.64425000000023
42
-0.41421356237309503
10
-34.766749999999981
20
-200.14425000000023
10
-21.766749999999991
20
-200.14425000000031
42
-0.41421356237309503
10
-21.266750000000027
20
-200.64425000000028
10
-21.266749999999949
20
-213.64425000000017
42
-0.41421356237309503
10
-21.766749999999991
20
-214.14425000000023
10
-34.766749999999988
20
-214.14425000000023
42
-0.41421356237309503
0
LWPOLYLINE
5
117
100
AcDbEntity
8
0
100
AcDbPolyline
90
8
70
1
43
0.0
10
-35.266750000000016
20
-194.59425000000022
10
-35.266750000000023
20
-181.59425000000024
42
-0.41421356237309503
10
-34.766749999999981
20
-181.09425000000019
10
-21.766749999999991
20
-181.09425000000027
42
-0.41421356237309503
10
-21.266750000000027
20
-181.59425000000024
10
-21.266749999999949
20
-194.59425000000022
42
-0.41421356237311585
10
-21.766750000000027
20
-195.09425000000024
10
-34.766750000000023
20
-195.09425000000022
42
-0.41421356237307422
0
LWPOLYLINE
5
118
100
AcDbEntity
8
0
100
AcDbPolyline
90
8
70
1
43
0.0
10
-35.266750000000016
20
-175.5442500000002
10
-35.266749999999995
20
-162.54425000000026
42
-0.4142135623730846
10
-34.766749999999973
20
-162.04425000000018
10
-21.766749999999991
20
-162.04425000000026
42
-0.41421356237311585
10
-21.266749999999991
20
-162.54425000000023
10
-21.266749999999949
20
-175.54425000000026
42
-0.4142135623730534
10
-21.766749999999991
20
-176.04425000000023
10
-34.766749999999981
20
-176.04425000000023
42
-0.41421356237309503
0
LWPOLYLINE
5
119
100
AcDbEntity
8
0
100
AcDbPolyline
90
8
70
1
43
0.0
10
-35.266749999999981
20
-156.49425000000033
10
-35.266749999999945
20
-143.49425000000028
42
-0.41421356237309503
10
-34.766749999999973
20
-142.99425000000031
10
-21.766749999999981
20
-142.99425000000033
42
-0.41421356237311585
10
-21.266750000000027
20
-143.49425000000031
10
-21.266749999999984
20
-156.49425000000033
42
-0.41421356237311585
10
-21.766749999999991
20
-156.99425000000031
10
-34.766749999999973
20
-156.99425000000036
42
-0.41421356237307944
0
LWPOLYLINE
5
120
100
AcDbEntity
8
0
100
AcDbPolyline
90
8
70
1
43
0.0
10
-35.266749999999981
20
-127.91925000000028
10
-35.266750000000016
20
-114.91925000000026
42
-0.41421356237311585
10
-34.766749999999938
20
-114.41925000000023
10
-21.766749999999945
20
-114.41925000000035
42
-0.41421356237307944
10
-21.26675000000002
20
-114.9192500000003
10
-21.266749999999973
20
-127.91925000000028
42
-0.41421356237309503
10
-21.766749999999945
20
-128.41925000000026
10
-34.766749999999945
20
-128.41925000000032
42
-0.41421356237309503
0
LWPOLYLINE
5
121
100
AcDbEntity
8
0
100
AcDbPolyline
90
8
70
1
43
0.0
10
-35.266749999999995
20
-108.86925000000026
10
-35.266749999999945
20
-95.869250000000221
42
-0.414213562373069
10
-34.766749999999945
20
-95.36925000000025
10
-21.766749999999938
20
-95.369250000000321
42
-0.414213562373069
10
-21.266749999999984
20
-95.86925000000025
10
-21.266750000000002
20
-108.86925000000026
42
-0.41421356237309503
10
-21.766749999999973
20
-109.36925000000024
10
-34.766749999999973
20
-109.36925000000029
42
-0.41421356237309503
0
LWPOLYLINE
5
122
100
AcDbEntity
8
0
100
AcDbPolyline
90
8
70
1
43
0.0
10
-35.266749999999959
20
-89.819250000000252
10
-35.266749999999981
20
-76.819250000000267
42
-0.41421356237309503
10
-34.766749999999938
20
-76.319250000000224
10
-21.766749999999938
20
-76.319250000000324
42
-0.41421356237309503
10
-21.266749999999984
20
-76.819250000000267
10
-21.266749999999895
20
-89.819250000000252
42
-0.41421356237310025
10
-21.766749999999945
20
-90.319250000000295
10
-34.766749999999938
20
-90.319250000000281
42
-0.41421356237309503
0
LWPOLYLINE
5
123
100
AcDbEntity
8
0
100
AcDbPolyline
90
8
70
1
43
0.0
10
-35.266749999999959
20
-70.769250000000227
10
-35.266749999999909
20
-57.769250000000191
42
-0.41421356237309503
10
-34.766749999999938
20
-57.26925000000022
10
-21.766749999999938
20
-57.269250000000305
42
-0.41421356237309503
10
-21.266749999999984
20
-57.769250000000262
10
-21.266749999999895
20
-70.769250000000227
42
-0.41421356237309503
10
-21.766749999999938
20
-71.26925000000027
10
-34.766749999999938
20
-71.269250000000255
42
-0.41421356237309503
0
LWPOLYLINE
5
124
100
AcDbEntity
8
0
100
AcDbPolyline
90
8
70
1
43
0.0
10
-35.266749999999959
20
-51.719250000000294
10
-35.266749999999945
20
-38.719250000000322
42
-0.41421356237309503
10
-34.766749999999902
20
-38.219250000000279
10
-21.766749999999892
20
-38.219250000000365
42
-0.41421356237309503
10
-21.266749999999931
20
-38.719250000000322
10
-21.266749999999966
20
-51.719250000000294
42
-0.41421356237308982
10
-21.766749999999927
20
-52.219250000000265
10
-34.766749999999938
20
-52.219250000000315
42
-0.41421356237309503
0
LWPOLYLINE
5
125
100
AcDbEntity
8
0
100
AcDbPolyline
90
8
70
1
43
0.0
10
-35.266749999999924
20
-32.669250000000282
10
-35.266749999999874
20
-19.669250000000243
42
-0.41421356237307422
10
-34.766749999999938
20
-19.169250000000272
10
-21.766749999999938
20
-19.169250000000279
42
-0.41421356237312101
10
-21.266749999999931
20
-19.669250000000243
10
-21.26674999999992
20
-32.669250000000282
42
-0.41421356237311585
10
-21.766749999999927
20
-33.169250000000254
10
-34.766749999999938
20
-33.169250000000311
42
-0.41421356237307422
0
LWPOLYLINE
5
126
100
AcDbEntity
8
0
100
AcDbPolyline
90
8
70
1
43
0.0
10
-35.266749999999924
20
-13.619250000000203
10
-35.266749999999789
20
-0.61925000000015895
42
-0.41421356237309503
10
-34.766749999999888
20
-0.11925000000025845
10
-21.766749999999892
20
-0.11925000000019628
42
-0.41421356237309503
10
-21.266749999999931
20
-0.61925000000015995
10
-21.266749999999849
20
-13.619250000000203
42
-0.41421356237309503
10
-21.766749999999892
20
-14.119250000000246
10
-34.766749999999902
20
-14.119250000000235
42
-0.41421356237308982
0
LWPOLYLINE
5
127
100
AcDbEntity
8
0
100
AcDbPolyline
90
8
70
1
43
0.0
10
-35.266749999999924
20
5.4307499999998097
10
-35.266749999999924
20
18.430749999999779
42
-0.41421356237309503
10
-34.766749999999881
20
18.930749999999822
10
-21.766749999999885
20
18.930749999999733
42
-0.41421356237309503
10
-21.266749999999931
20
18.430749999999779
10
-21.266749999999849
20
5.4307499999998097
42
-0.41421356237312101
10
-21.766749999999938
20
4.930749999999767
10
-34.766749999999924
20
4.9307499999997759
42
-0.41421356237307422
0
LWPOLYLINE
5
128
100
AcDbEntity
8
0
100
AcDbPolyline
90
8
70
1
43
0.0
10
-35.266749999999917
20
24.480749999999748
10
-35.266749999999888
20
37.480749999999794
42
-0.41421356237307422
10
-34.766749999999881
20
37.980749999999837
10
-21.766749999999885
20
37.980749999999745
42
-0.41421356237311585
10
-21.266749999999895
20
37.480749999999794
10
-21.266749999999913
20
24.480749999999748
42
-0.41421356237309503
10
-21.766749999999885
20
23.980749999999777
10
-34.766749999999881
20
23.980749999999716
42
-0.41421356237309503
0
LWPOLYLINE
5
129
100
AcDbEntity
8
0
100
AcDbPolyline
90
8
70
1
43
0.0
10
-35.266749999999874
20
43.530749999999763
10
-35.266749999999782
20
56.530749999999806
42
-0.41421356237309503
10
-34.766749999999881
20
57.030749999999706
10
-21.766749999999885
20
57.030749999999763
42
-0.41421356237309503
10
-21.266749999999931
20
56.530749999999806
10
-21.266749999999806
20
43.530749999999763
42
-0.41421356237309503
10
-21.766749999999849
20
43.030749999999721
10
-34.766749999999845
20
43.030749999999742
42
-0.41421356237309503
0
LWPOLYLINE
5
130
100
AcDbEntity
8
0
100
AcDbPolyline
90
8
70
1
43
0.0
10
-35.266749999999909
20
62.580749999999775
10
-35.266749999999817
20
75.580749999999753
42
-0.41421356237309503
10
-34.766749999999845
20
76.080749999999725
10
-21.766749999999849
20
76.080749999999725
42
-0.41421356237309503
10
-21.266749999999885
20
75.580749999999753
10
-21.266749999999842
20
62.580749999999775
42
-0.41421356237309503
10
-21.766749999999885
20
62.080749999999732
10
-34.766749999999881
20
62.080749999999753
42
-0.41421356237309503
0
LWPOLYLINE
5
131
100
AcDbEntity
8
0
100
AcDbPolyline
90
8
70
1
43
0.0
10
-35.266749999999874
20
81.630749999999637
10
-35.266749999999746
20
94.630749999999679
42
-0.41421356237311585
10
-34.766749999999881
20
95.130749999999651
10
-21.766749999999874
20
95.130749999999708
42
-0.41421356237315748
10
-21.266749999999885
20
94.630749999999679
10
-21.266749999999949
20
81.630749999999637
42
-0.41421356237308982
10
-21.766749999999838
20
81.130749999999736
10
-34.766749999999845
20
81.130749999999608
42
-0.41421356237309503
0
LWPOLYLINE
5
132
100
AcDbEntity
8
0
100
AcDbPolyline
90
8
70
1
43
0.0
10
-35.266749999999874
20
100.68074999999972
10
-35.266749999999959
20
113.68074999999969
42
-0.41421356237309503
10
-34.766749999999845
20
114.1807499999998
10
-21.766749999999838
20
114.18074999999965
42
-0.41421356237309503
10
-21.266749999999885
20
113.68074999999969
10
-21.266749999999867
20
100.68074999999972
42
-0.41421356237309503
10
-21.766749999999838
20
100.18074999999975
10
-34.766749999999845
20
100.18074999999969
42
-0.41421356237309503
0
LWPOLYLINE
5
133
100
AcDbEntity
8
0
100
AcDbPolyline
90
8
70
1
43
0.0
10
-35.266749999999874
20
126.87449999999977
10
-35.266749999999732
20
139.87449999999973
42
-0.41421356237308982
10
-34.766749999999838
20
140.37449999999964
10
-21.766749999999838
20
140.37449999999973
42
-0.41421356237309503
10
-21.266749999999877
20
139.87449999999973
10
-21.266749999999725
20
126.87449999999977
42
-0.41421356237309503
10
-21.766749999999838
20
126.37449999999966
10
-34.766749999999838
20
126.37449999999974
42
-0.41421356237310025
0
LWPOLYLINE
5
134
100
AcDbEntity
8
0
100
AcDbPolyline
90
8
70
1
43
0.0
10
-25.741749999999865
20
162.59324999999973
10
-25.741749999999804
20
175.59324999999984
42
-0.41421356237309503
10
-25.241749999999833
20
176.09324999999981
10
-12.241749999999826
20
176.09324999999984
42
-0.41421356237309503
10
-11.741749999999808
20
175.59324999999984
10
-11.74174999999989
20
162.59324999999973
42
-0.41421356237309503
10
-12.241749999999861
20
162.09324999999976
10
-25.241749999999875
20
162.09324999999973
42
-0.41421356237309503
0
LWPOLYLINE
5
135
100
AcDbEntity
8
0
100
AcDbPolyline
90
8
70
1
43
0.0
10
-25.741749999999829
20
181.64324999999988
10
-25.741749999999946
20
194.64324999999971
42
-0.41421356237307422
10
-25.241749999999868
20
195.14324999999982
10
-12.241749999999861
20
195.14324999999971
42
-0.41421356237311585
10
-11.741749999999801
20
194.64324999999971
10
-11.741749999999712
20
181.64324999999988
42
-0.41421356237309503
10
-12.241749999999826
20
181.14324999999977
10
-25.241749999999833
20
181.14324999999985
42
-0.41421356237309503
0
LWPOLYLINE
5
136
100
AcDbEntity
8
0
100
AcDbPolyline
90
8
70
1
43
0.0
10
-25.741749999999829
20
200.69324999999975
10
-25.741749999999865
20
213.69324999999978
42
-0.41421356237313667
10
-25.241749999999822
20
214.19324999999989
10
-12.241749999999815
20
214.19324999999986
42
-0.41421356237313145
10
-11.741749999999808
20
213.69324999999978
10
-11.741749999999996
20
200.69324999999975
42
-0.41421356237309503
10
-12.241749999999826
20
200.19324999999992
10
-25.241749999999822
20
200.19324999999975
42
-0.41421356237310025
0
LWPOLYLINE
5
137
100
AcDbEntity
8
0
100
AcDbPolyline
90
8
70
1
43
0.0
10
-16.216750000000012
20
-213.64425000000017
10
-16.216750000000037
20
-200.64425000000028
42
-0.41421356237309503
10
-15.716749999999994
20
-200.14425000000023
10
-2.7167500000000233
20
-200.14425000000028
42
-0.41421356237309503
10
-2.2167499999999989
20
-200.64425000000028
10
-2.2167500000000517
20
-213.64425000000026
42
-0.41421356237309503
10
-2.7167500000000233
20
-214.14425000000023
10
-15.716750000000005
20
-214.14425000000026
42
-0.41421356237313667
0
LWPOLYLINE
5
138
100
AcDbEntity
8
0
100
AcDbPolyline
90
8
70
1
43
0.0
10
-16.216750000000012
20
-194.59425000000022
10
-16.216750000000037
20
-181.59425000000024
42
-0.41421356237309503
10
-15.716749999999994
20
-181.09425000000019
10
-2.7167500000000055
20
-181.09425000000022
42
-0.41421356237309503
10
-2.2167499999999811
20
-181.59425000000024
10
-2.2167499999999629
20
-194.59425000000022
42
-0.41421356237309503
10
-2.7167500000000055
20
-195.09425000000024
10
-15.71675000000003
20
-195.09425000000022
42
-0.41421356237307422
0
LWPOLYLINE
5
139
100
AcDbEntity
8
0
100
AcDbPolyline
90
8
70
1
43
0.0
10
-16.216750000000012
20
-175.54425000000026
10
-16.216750000000001
20
-162.54425000000023
42
-0.41421356237307422
10
-15.716749999999994
20
-162.04425000000018
10
-2.7167500000000055
20
-162.0442500000002
42
-0.41421356237309503
10
-2.2167499999999811
20
-162.54425000000023
10
-2.216750000000034
20
-175.54425000000026
42
-0.41421356237309503
10
-2.7167500000000055
20
-176.04425000000023
10
-15.716749999999994
20
-176.04425000000026
42
-0.41421356237309503
0
LWPOLYLINE
5
140
100
AcDbEntity
8
0
100
AcDbPolyline
90
8
70
1
43
0.0
10
-6.1917499999999714
20
-142.99425000000031
10
6.8082500000000179
20
-142.99425000000036
42
-0.41421356237309503
10
7.3082499999999895
20
-143.49425000000031
10
7.3082499999999895
20
-156.49425000000033
42
-0.41421356237309503
10
6.8082500000000179
20
-156.99425000000031
10
-6.1917499999999714
20
-156.99425000000033
42
-0.41421356237310542
10
-6.6917499999999963
20
-156.49425000000033
10
-6.6917499999999785
20
-143.49425000000031
42
-0.41421356237309503
0
LWPOLYLINE
5
141
100
AcDbEntity
8
0
100
AcDbPolyline
90
8
70
1
43
0.0
10
-14.629750000000005
20
-143.99425000000033
10
-8.6297499999999729
20
-143.99425000000031
42
-0.41421356237309503
10
-8.1297499999999658
20
-144.49425000000031
10
-8.1297499999999836
20
-158.49425000000031
42
-0.41421356237309503
10
-8.6297499999999907
20
-158.99425000000033
10
-14.629750000000016
20
-158.99425000000031
42
-0.41421356237309503
10
-15.129749999999987
20
-158.49425000000031
10
-15.129749999999976
20
-144.49425000000031
42
-0.41421356237309503
0
LWPOLYLINE
5
142
100
AcDbEntity
8
0
100
AcDbPolyline
90
8
70
1
43
0.0
10
9.2462500000000389
20
-143.99425000000033
10
15.246250000000071
20
-143.99425000000031
42
-0.4142135623730846
10
15.746250000000042
20
-144.49425000000031
10
15.746250000000042
20
-158.49425000000031
42
-0.4142135623730846
10
15.246250000000053
20
-158.99425000000033
10
9.2462500000000212
20
-158.99425000000033
42
-0.41421356237309503
10
8.7462499999999963
20
-158.49425000000031
10
8.7462500000000674
20
-144.49425000000031
42
-0.41421356237309503
0
LWPOLYLINE
5
143
100
AcDbEntity
8
0
100
AcDbPolyline
90
8
70
1
43
0.0
10
-16.216750000000001
20
-125.53800000000031
10
-16.216749999999958
20
-112.53800000000027
42
-0.41421356237309503
10
-15.716749999999951
20
-112.03800000000027
10
-2.71674999999997
20
-112.03800000000027
42
-0.41421356237309503
10
-2.2167499999999634
20
-112.53800000000027
10
-2.2167499999999984
20
-125.53800000000031
42
-0.41421356237309503
10
-2.71674999999997
20
-126.03800000000028
10
-15.716749999999951
20
-126.03800000000032
42
-0.41421356237312101
0
LWPOLYLINE
5
144
100
AcDbEntity
8
0
100
AcDbPolyline
90
8
70
1
43
0.0
10
-16.216749999999958
20
-104.10675000000023
10
-16.216749999999923
20
-91.106750000000218
42
-0.41421356237307422
10
-15.716749999999987
20
-90.606750000000247
10
-2.7167499999999523
20
-90.60675000000019
42
-0.41421356237309503
10
-2.2167499999999278
20
-91.106750000000218
10
-2.2167499999999096
20
-104.10675000000023
42
-0.41421356237310542
10
-2.71674999999997
20
-104.60675000000026
10
-15.716749999999951
20
-104.60675000000023
42
-0.41421356237309503
0
LWPOLYLINE
5
145
100
AcDbEntity
8
0
100
AcDbPolyline
90
8
70
1
43
0.0
10
-16.216749999999958
20
-85.056750000000221
10
-16.216749999999983
20
-72.056750000000264
42
-0.41421356237309503
10
-15.716749999999941
20
-71.556750000000221
10
-2.7167499999999523
20
-71.55675000000025
42
-0.41421356237309503
10
-2.2167499999999278
20
-72.056750000000264
10
-2.2167499999999452
20
-85.056750000000221
42
-0.41421356237310542
10
-2.71674999999997
20
-85.556750000000221
10
-15.716749999999951
20
-85.556750000000221
42
-0.41421356237309503
0
LWPOLYLINE
5
146
100
AcDbEntity
8
0
100
AcDbPolyline
90
8
70
1
43
0.0
10
-16.216749999999958
20
-66.006750000000295
10
-16.216749999999912
20
-53.00675000000026
42
-0.41421356237313667
10
-15.716749999999941
20
-52.506750000000217
10
-2.7167499999999345
20
-52.506750000000181
42
-0.41421356237313667
10
-2.2167499999999278
20
-53.00675000000026
10
-2.2167499999999629
20
-66.006750000000295
42
-0.41421356237310542
10
-2.7167499999999523
20
-66.506750000000267
10
-15.716749999999941
20
-66.506750000000324
42
-0.41421356237309503
0
LWPOLYLINE
5
147
100
AcDbEntity
8
0
100
AcDbPolyline
90
8
70
1
43
0.0
10
-16.216749999999958
20
-46.95675000000022
10
-16.216749999999877
20
-33.956750000000248
42
-0.41421356237307422
10
-15.716749999999941
20
-33.456750000000277
10
-2.7167499999999345
20
-33.456750000000227
42
-0.41421356237309503
10
-2.2167499999999101
20
-33.956750000000248
10
-2.2167499999998919
20
-46.95675000000022
42
-0.41421356237309503
10
-2.7167499999999345
20
-47.456750000000262
10
-15.716749999999941
20
-47.456750000000234
42
-0.41421356237309503
0
LWPOLYLINE
5
148
100
AcDbEntity
8
0
100
AcDbPolyline
90
8
70
1
43
0.0
10
-16.216749999999923
20
-27.906750000000212
10
-16.216749999999912
20
-14.90675000000024
42
-0.41421356237311585
10
-15.716749999999905
20
-14.406750000000269
10
-2.7167499999999345
20
-14.406750000000216
42
-0.41421356237309503
10
-2.2167499999999101
20
-14.90675000000024
10
-2.2167499999998919
20
-27.906750000000212
42
-0.41421356237309503
10
-2.7167499999999345
20
-28.406750000000255
10
-15.716749999999905
20
-28.406750000000226
42
-0.41421356237309503
0
LWPOLYLINE
5
149
100
AcDbEntity
8
0
100
AcDbPolyline
90
8
70
1
43
0.0
10
-16.216749999999948
20
-8.8567500000002699
10
-16.216749999999948
20
4.1432499999997727
42
-0.41421356237309503
10
-15.716749999999905
20
4.6432499999998154
10
-2.716749999999899
20
4.6432499999997798
42
-0.41421356237309503
10
-2.2167499999998923
20
4.1432499999997727
10
-2.2167499999999629
20
-8.8567500000002699
42
-0.41421356237307422
10
-2.716749999999899
20
-9.3567500000002415
10
-15.716749999999941
20
-9.356750000000277
42
-0.41421356237309503
0
LWPOLYLINE
5
150
100
AcDbEntity
8
0
100
AcDbPolyline
90
8
70
1
43
0.0
10
-16.216749999999912
20
10.19324999999974
10
-16.216749999999806
20
23.193249999999782
42
-0.41421356237309503
10
-15.716749999999905
20
23.693249999999683
10
-2.716749999999899
20
23.693249999999789
42
-0.41421356237309503
10
-2.2167499999998923
20
23.193249999999782
10
-2.2167499999999993
20
10.19324999999974
42
-0.41421356237309503
10
-2.716749999999899
20
9.6932499999998409
10
-15.716749999999905
20
9.6932499999997326
42
-0.41421356237309503
0
LWPOLYLINE
5
151
100
AcDbEntity
8
0
100
AcDbPolyline
90
8
70
1
43
0.0
10
-16.21674999999987
20
29.243249999999751
10
-16.216749999999941
20
42.243249999999726
42
-0.41421356237309503
10
-15.716749999999898
20
42.743249999999769
10
-2.716749999999899
20
42.743249999999769
42
-0.41421356237309503
10
-2.2167499999998568
20
42.243249999999726
10
-2.2167499999999274
20
29.243249999999751
42
-0.41421356237309503
10
-2.716749999999899
20
28.743249999999779
10
-15.716749999999898
20
28.743249999999744
42
-0.41421356237307422
0
LWPOLYLINE
5
152
100
AcDbEntity
8
0
100
AcDbPolyline
90
8
70
1
43
0.0
10
-16.216749999999905
20
48.293249999999695
10
-16.216749999999834
20
61.293249999999738
42
-0.41421356237309503
10
-15.716749999999863
20
61.793249999999709
10
-2.716749999999899
20
61.79324999999978
42
-0.41421356237309503
10
-2.2167499999998568
20
61.293249999999738
10
-2.2167499999999274
20
48.293249999999695
42
-0.41421356237309503
10
-2.716749999999899
20
47.793249999999723
10
-15.716749999999898
20
47.793249999999688
42
-0.41421356237309503
0
LWPOLYLINE
5
153
100
AcDbEntity
8
0
100
AcDbPolyline
90
8
70
1
43
0.0
10
-16.21674999999987
20
67.343249999999713
10
-16.216749999999877
20
80.3432499999996
42
-0.414213562373069
10
-15.716749999999898
20
80.843249999999642
10
-2.716749999999899
20
80.843249999999657
42
-0.41421356237309503
10
-2.2167499999998568
20
80.343249999999614
10
-2.2167499999999274
20
67.343249999999713
42
-0.41421356237309503
10
-2.716749999999899
20
66.843249999999742
10
-15.716749999999898
20
66.843249999999699
42
-0.41421356237307422
0
LWPOLYLINE
5
154
100
AcDbEntity
8
0
100
AcDbPolyline
90
8
70
1
43
0.0
10
-16.21674999999987
20
86.393249999999711
10
-16.216749999999823
20
99.393249999999753
42
-0.4142135623730534
10
-15.716749999999852
20
99.893249999999654
10
-2.716749999999899
20
99.893249999999739
42
-0.4142135623730534
10
-2.216749999999839
20
99.393249999999753
10
-2.2167499999998563
20
86.393249999999711
42
-0.41421356237309503
10
-2.716749999999899
20
85.893249999999668
10
-15.716749999999852
20
85.893249999999711
42
-0.41421356237309503
0
LWPOLYLINE
5
155
100
AcDbEntity
8
0
100
AcDbPolyline
90
8
70
1
43
0.0
10
-16.21674999999987
20
105.44324999999965
10
-16.21674999999961
20
118.44324999999976
42
-0.41421356237313667
10
-15.716749999999852
20
118.94324999999959
10
-2.7167499999998634
20
118.94324999999988
42
-0.41421356237313667
10
-2.2167499999998213
20
118.44324999999976
10
-2.2167499999998919
20
105.44324999999965
42
-0.41421356237309503
10
-2.7167499999998634
20
104.94324999999968
10
-15.716749999999887
20
104.94324999999964
42
-0.41421356237307422
0
LWPOLYLINE
5
156
100
AcDbEntity
8
0
100
AcDbPolyline
90
8
70
1
43
0.0
10
-6.1917499999998293
20
145.13699999999972
10
6.80825000000016
20
145.13699999999974
42
-0.4142135623730846
10
7.3082500000001493
20
144.63699999999974
10
7.3082500000001138
20
131.63699999999972
42
-0.41421356237309503
10
6.8082500000001422
20
131.13699999999972
10
-6.1917499999998293
20
131.13699999999969
42
-0.41421356237309503
10
-6.6917499999998542
20
131.63699999999972
10
-6.6917499999998009
20
144.63699999999974
42
-0.41421356237309503
0
LWPOLYLINE
5
157
100
AcDbEntity
8
0
100
AcDbPolyline
90
8
70
1
43
0.0
10
-14.629749999999863
20
144.13699999999963
10
-8.6297499999998308
20
144.13699999999989
42
-0.41421356237309503
10
-8.1297499999998237
20
143.63699999999989
10
-8.1297499999997171
20
129.63699999999983
42
-0.4142135623731783
10
-8.6297499999998308
20
129.13699999999955
10
-14.629749999999863
20
129.13699999999972
42
-0.4142135623731783
10
-15.129749999999834
20
129.63699999999983
10
-15.129749999999621
20
143.63699999999989
42
-0.41421356237309503
0
LWPOLYLINE
5
158
100
AcDbEntity
8
0
100
AcDbPolyline
90
8
70
1
43
0.0
10
9.246250000000181
20
144.13699999999963
10
15.246250000000195
20
144.13699999999986
42
-0.41421356237309503
10
15.746250000000185
20
143.63699999999989
10
15.746250000000291
20
129.63699999999983
42
-0.41421356237316787
10
15.246250000000195
20
129.13699999999955
10
9.246250000000181
20
129.13699999999963
42
-0.4142135623731783
10
8.7462500000001384
20
129.63699999999983
10
8.7462500000004226
20
143.63699999999989
42
-0.41421356237309503
0
LWPOLYLINE
5
159
100
AcDbEntity
8
0
100
AcDbPolyline
90
8
70
1
43
0.0
10
-6.6917499999998364
20
162.59324999999973
10
-6.6917499999997831
20
175.59324999999978
42
-0.41421356237310542
10
-6.1917499999997938
20
176.09324999999981
10
6.8082500000001778
20
176.09324999999981
42
-0.41421356237309503
10
7.3082500000001493
20
175.59324999999984
10
7.3082500000001493
20
162.59324999999973
42
-0.41421356237309503
10
6.8082500000001778
20
162.09324999999976
10
-6.1917499999998293
20
162.09324999999973
42
-0.41421356237309503
0
LWPOLYLINE
5
160
100
AcDbEntity
8
0
100
AcDbPolyline
90
8
70
1
43
0.0
10
-6.6917499999998187
20
181.64324999999988
10
-6.6917499999999253
20
194.64324999999968
42
-0.41421356237310542
10
-6.1917499999997938
20
195.14324999999982
10
6.8082500000001778
20
195.14324999999968
42
-0.41421356237309503
10
7.3082500000001493
20
194.64324999999971
10
7.3082500000002915
20
181.64324999999988
42
-0.41421356237309503
10
6.8082500000001778
20
181.14324999999977
10
-6.1917499999998116
20
181.14324999999985
42
-0.41421356237309503
0
LWPOLYLINE
5
161
100
AcDbEntity
8
0
100
AcDbPolyline
90
8
70
1
43
0.0
10
-6.6917499999998009
20
200.69324999999975
10
-6.6917499999998364
20
213.69324999999978
42
-0.41421356237313667
10
-6.1917499999997938
20
214.19324999999989
10
6.8082500000001955
20
214.19324999999984
42
-0.41421356237313667
10
7.3082500000001671
20
213.69324999999978
10
7.308250000000025
20
200.69324999999978
42
-0.41421356237310542
10
6.8082500000001778
20
200.19324999999992
10
-6.1917499999997938
20
200.19324999999975
42
-0.41421356237309503
0
LWPOLYLINE
5
162
100
AcDbEntity
8
0
100
AcDbPolyline
90
8
70
1
43
0.0
10
2.8332499999999907
20
-213.64425000000026
10
2.8332499999999197
20
-200.64425000000028
42
-0.41421356237309503
10
3.3332499999999623
20
-200.14425000000023
10
16.333250000000007
20
-200.14425000000028
42
-0.41421356237309503
10
16.833250000000014
20
-200.64425000000028
10
16.833249999999978
20
-213.64425000000026
42
-0.41421356237309503
10
16.333250000000007
20
-214.14425000000023
10
3.3332499999999623
20
-214.14425000000023
42
-0.41421356237309503
0
LWPOLYLINE
5
163
100
AcDbEntity
8
0
100
AcDbPolyline
90
8
70
1
43
0.0
10
2.8332500000000085
20
-194.59425000000022
10
2.8332499999999552
20
-181.59425000000024
42
-0.41421356237309503
10
3.3332499999999978
20
-181.09425000000019
10
16.333250000000024
20
-181.09425000000022
42
-0.41421356237309503
10
16.833250000000032
20
-181.59425000000024
10
16.833250000000067
20
-194.59425000000022
42
-0.41421356237309503
10
16.333250000000024
20
-195.09425000000024
10
3.3332499999999978
20
-195.09425000000022
42
-0.41421356237309503
0
LWPOLYLINE
5
164
100
AcDbEntity
8
0
100
AcDbPolyline
90
8
70
1
43
0.0
10
2.8332500000000085
20
-175.54425000000026
10
2.8332499999999552
20
-162.54425000000023
42
-0.41421356237309503
10
3.3332499999999978
20
-162.04425000000018
10
16.333250000000024
20
-162.0442500000002
42
-0.41421356237309503
10
16.833250000000032
20
-162.54425000000023
10
16.833249999999996
20
-175.54425000000026
42
-0.41421356237309503
10
16.333250000000024
20
-176.04425000000023
10
3.3332499999999978
20
-176.04425000000026
42
-0.41421356237309503
0
LWPOLYLINE
5
165
100
AcDbEntity
8
0
100
AcDbPolyline
90
8
70
1
43
0.0
10
2.8332500000000618
20
-123.15675000000027
10
2.8332500000000262
20
-110.15675000000027
42
-0.41421356237309503
10
3.3332500000000334
20
-109.65675000000026
10
16.333250000000078
20
-109.65675000000032
42
-0.41421356237309503
10
16.833250000000067
20
-110.1567500000003
10
16.833250000000049
20
-123.15675000000027
42
-0.41421356237311585
10
16.333250000000042
20
-123.65675000000024
10
3.3332500000000334
20
-123.65675000000024
42
-0.41421356237309503
0
LWPOLYLINE
5
166
100
AcDbEntity
8
0
100
AcDbPolyline
90
8
70
1
43
0.0
10
2.8332500000000262
20
-99.344250000000258
10
2.8332499999999907
20
-86.344250000000287
42
-0.41421356237310542
10
3.3332500000000511
20
-85.844250000000244
10
16.333250000000078
20
-85.844250000000272
42
-0.4142135623730846
10
16.833250000000067
20
-86.344250000000287
10
16.833250000000032
20
-99.344250000000258
42
-0.41421356237309503
10
16.33325000000006
20
-99.84425000000023
10
3.3332500000000334
20
-99.844250000000272
42
-0.41421356237309503
0
LWPOLYLINE
5
167
100
AcDbEntity
8
0
100
AcDbPolyline
90
8
70
1
43
0.0
10
2.8332500000000618
20
-80.294250000000318
10
2.8332500000000085
20
-67.294250000000261
42
-0.41421356237310542
10
3.3332500000000689
20
-66.794250000000218
10
16.333250000000113
20
-66.794250000000261
42
-0.41421356237307422
10
16.833250000000085
20
-67.294250000000261
10
16.833250000000049
20
-80.294250000000318
42
-0.41421356237309503
10
16.333250000000078
20
-80.794250000000289
10
3.3332500000000334
20
-80.794250000000304
42
-0.4142135623730846
0
LWPOLYLINE
5
168
100
AcDbEntity
8
0
100
AcDbPolyline
90
8
70
1
43
0.0
10
2.8332500000000618
20
-61.244250000000228
10
2.8332500000000795
20
-48.244250000000257
42
-0.41421356237310542
10
3.3332500000000689
20
-47.744250000000285
10
16.333250000000113
20
-47.744250000000264
42
-0.41421356237309503
10
16.833250000000103
20
-48.244250000000257
10
16.833250000000138
20
-61.244250000000228
42
-0.41421356237310542
10
16.333250000000078
20
-61.744250000000271
10
3.3332500000000511
20
-61.744250000000214
42
-0.41421356237309503
0
LWPOLYLINE
5
169
100
AcDbEntity
8
0
100
AcDbPolyline
90
8
70
1
43
0.0
10
2.8332500000000795
20
-42.194250000000288
10
2.8332500000000973
20
-29.19425000000032
42
-0.41421356237309503
10
3.3332500000000689
20
-28.694250000000348
10
16.333250000000113
20
-28.694250000000331
42
-0.41421356237309503
10
16.833250000000103
20
-29.19425000000032
10
16.833250000000067
20
-42.194250000000288
42
-0.41421356237310542
10
16.333250000000078
20
-42.69425000000026
10
3.3332500000000511
20
-42.694250000000274
42
-0.4142135623730846
0
LWPOLYLINE
5
170
100
AcDbEntity
8
0
100
AcDbPolyline
90
8
70
1
43
0.0
10
2.8332500000000973
20
-23.14425000000028
10
2.833250000000044
20
-10.144250000000238
42
-0.4142135623730534
10
3.3332500000000866
20
-9.644250000000266
10
16.333250000000131
20
-9.6442500000003193
42
-0.4142135623730534
10
16.83325000000012
20
-10.144250000000238
10
16.833250000000103
20
-23.14425000000028
42
-0.41421356237310542
10
16.333250000000113
20
-23.644250000000252
10
3.3332500000000689
20
-23.64425000000027
42
-0.4142135623730846
0
LWPOLYLINE
5
171
100
AcDbEntity
8
0
100
AcDbPolyline
90
8
70
1
43
0.0
10
2.8332500000000973
20
-4.0942500000003381
10
2.833250000000044
20
8.9057499999997045
42
-0.41421356237313667
10
3.3332500000000866
20
9.4057499999998182
10
16.333250000000149
20
9.4057499999996939
42
-0.4142135623730846
10
16.83325000000012
20
8.9057499999997045
10
16.833250000000103
20
-4.0942500000003381
42
-0.41421356237311585
10
16.333250000000096
20
-4.5942500000003097
10
3.3332500000000689
20
-4.5942500000003275
42
-0.4142135623730846
0
LWPOLYLINE
5
172
100
AcDbEntity
8
0
100
AcDbPolyline
90
8
70
1
43
0.0
10
2.8332500000000973
20
14.955749999999743
10
2.8332500000001861
20
27.955749999999785
42
-0.41421356237310542
10
3.3332500000001044
20
28.455749999999686
10
16.333250000000149
20
28.455749999999757
42
-0.41421356237309503
10
16.83325000000012
20
27.955749999999785
10
16.833250000000156
20
14.955749999999743
42
-0.41421356237310542
10
16.333250000000096
20
14.4557499999997
10
3.3332500000000689
20
14.455749999999753
42
-0.4142135623730846
0
LWPOLYLINE
5
173
100
AcDbEntity
8
0
100
AcDbPolyline
90
8
70
1
43
0.0
10
2.8332500000001328
20
34.005749999999757
10
2.8332500000000618
20
47.005749999999729
42
-0.41421356237309503
10
3.3332500000001044
20
47.505749999999772
10
16.333250000000167
20
47.505749999999701
42
-0.41421356237309503
10
16.833250000000138
20
47.005749999999729
10
16.833250000000209
20
34.005749999999757
42
-0.41421356237309503
10
16.333250000000167
20
33.505749999999715
10
3.3332500000001044
20
33.505749999999786
42
-0.41421356237309503
0
LWPOLYLINE
5
174
100
AcDbEntity
8
0
100
AcDbPolyline
90
8
70
1
43
0.0
10
2.8332500000001328
20
53.055749999999698
10
2.8332500000001328
20
66.055749999999748
42
-0.41421356237313667
10
3.3332500000001044
20
66.55574999999979
10
16.333250000000167
20
66.555749999999804
42
-0.41421356237313667
10
16.833250000000156
20
66.055749999999748
10
16.833250000000067
20
53.055749999999698
42
-0.41421356237309503
10
16.333250000000167
20
52.555749999999797
10
3.3332500000001044
20
52.555749999999726
42
-0.41421356237309503
0
LWPOLYLINE
5
175
100
AcDbEntity
8
0
100
AcDbPolyline
90
8
70
1
43
0.0
10
2.8332500000001328
20
72.105749999999716
10
2.8332500000001328
20
85.105749999999674
42
-0.41421356237309503
10
3.3332500000001044
20
85.605749999999645
10
16.333250000000167
20
85.605749999999659
42
-0.41421356237309503
10
16.833250000000156
20
85.105749999999674
10
16.833250000000156
20
72.105749999999716
42
-0.41421356237310542
10
16.333250000000167
20
71.605749999999745
10
3.3332500000001044
20
71.605749999999745
42
-0.41421356237309503
0
LWPOLYLINE
5
176
100
AcDbEntity
8
0
100
AcDbPolyline
90
8
70
1
43
0.0
10
2.8332500000001506
20
91.155749999999713
10
2.8332500000000262
20
104.15574999999968
42
-0.41421356237309503
10
3.3332500000001399
20
104.6557499999998
10
16.333250000000184
20
104.65574999999966
42
-0.41421356237310542
10
16.833250000000174
20
104.15574999999968
10
16.833250000000227
20
91.155749999999713
42
-0.41421356237309503
10
16.333250000000184
20
90.655749999999671
10
3.3332500000001399
20
90.655749999999728
42
-0.41421356237309503
0
LWPOLYLINE
5
177
100
AcDbEntity
8
0
100
AcDbPolyline
90
8
70
1
43
0.0
10
2.8332500000001506
20
110.20574999999965
10
2.8332500000001684
20
123.2057499999997
42
-0.41421356237309503
10
3.3332500000001399
20
123.70574999999967
10
16.333250000000184
20
123.70574999999968
42
-0.41421356237309503
10
16.833250000000174
20
123.2057499999997
10
16.833250000000174
20
110.20574999999965
42
-0.41421356237310542
10
16.333250000000184
20
109.70574999999968
10
3.3332500000001399
20
109.70574999999967
42
-0.41421356237309503
0
LWPOLYLINE
5
178
100
AcDbEntity
8
0
100
AcDbPolyline
90
8
70
1
43
0.0
10
21.883250000000004
20
-213.64425000000026
10
21.883249999999968
20
-200.64425000000028
42
-0.41421356237309503
10
22.383250000000011
20
-200.14425000000023
10
35.383250000000054
20
-200.14425000000031
42
-0.4142135623730846
10
35.883250000000004
20
-200.64425000000028
10
35.883250000000004
20
-213.64425000000026
42
-0.41421356237309503
10
35.383250000000032
20
-214.14425000000023
10
22.383249999999993
20
-214.14425000000023
42
-0.41421356237309503
0
LWPOLYLINE
5
179
100
AcDbEntity
8
0
100
AcDbPolyline
90
8
70
1
43
0.0
10
21.883250000000039
20
-194.59425000000022
10
21.883250000000039
20
-181.59425000000027
42
-0.41421356237310542
10
22.383250000000029
20
-181.09425000000027
10
35.383250000000068
20
-181.09425000000027
42
-0.4142135623730846
10
35.883250000000025
20
-181.59425000000024
10
35.883250000000025
20
-194.59425000000024
42
-0.4142135623730846
10
35.383250000000068
20
-195.09425000000024
10
22.383250000000029
20
-195.09425000000022
42
-0.41421356237309503
0
LWPOLYLINE
5
180
100
AcDbEntity
8
0
100
AcDbPolyline
90
8
70
1
43
0.0
10
21.883250000000039
20
-175.54425000000026
10
21.883250000000057
20
-162.54425000000023
42
-0.41421356237309503
10
22.383250000000029
20
-162.04425000000026
10
35.383250000000068
20
-162.04425000000026
42
-0.4142135623730846
10
35.883250000000025
20
-162.54425000000023
10
35.883250000000025
20
-175.54425000000023
42
-0.4142135623730846
10
35.383250000000068
20
-176.04425000000023
10
22.383250000000029
20
-176.04425000000026
42
-0.41421356237309503
0
LWPOLYLINE
5
181
100
AcDbEntity
8
0
100
AcDbPolyline
90
8
70
1
43
0.0
10
31.908250000000034
20
-142.99425000000036
10
44.908250000000024
20
-142.99425000000036
42
-0.41421356237309503
10
45.408250000000038
20
-143.49425000000036
10
45.408250000000038
20
-156.49425000000033
42
-0.41421356237309503
10
44.908250000000024
20
-156.99425000000033
10
31.908250000000017
20
-156.99425000000031
42
-0.41421356237309503
10
31.408250000000045
20
-156.49425000000033
10
31.408250000000045
20
-143.49425000000031
42
-0.41421356237310542
0
LWPOLYLINE
5
182
100
AcDbEntity
8
0
100
AcDbPolyline
90
8
70
1
43
0.0
10
23.470250000000053
20
-143.99425000000033
10
29.47025000000005
20
-143.99425000000028
42
-0.4142135623730846
10
29.970250000000057
20
-144.49425000000031
10
29.970250000000021
20
-158.49425000000031
42
-0.4142135623730846
10
29.470250000000032
20
-158.99425000000033
10
23.470250000000036
20
-158.99425000000033
42
-0.41421356237309503
10
22.970250000000028
20
-158.49425000000031
10
22.970250000000082
20
-144.49425000000031
42
-0.41421356237309503
0
LWPOLYLINE
5
183
100
AcDbEntity
8
0
100
AcDbPolyline
90
8
70
1
43
0.0
10
47.346250000000047
20
-143.99425000000033
10
53.34625000000004
20
-143.99425000000033
42
-0.41421356237309503
10
53.846250000000055
20
-144.49425000000033
10
53.846249999999998
20
-158.49425000000036
42
-0.41421356237309503
10
53.346250000000026
20
-158.99425000000033
10
47.346250000000026
20
-158.99425000000036
42
-0.41421356237309503
10
46.846250000000026
20
-158.49425000000036
10
46.84625000000004
20
-144.49425000000033
42
-0.41421356237309503
0
LWPOLYLINE
5
184
100
AcDbEntity
8
0
100
AcDbPolyline
90
8
70
1
43
0.0
10
21.883250000000057
20
-118.39425000000027
10
21.883250000000004
20
-105.3942500000003
42
-0.41421356237310542
10
22.383250000000064
20
-104.89425000000026
10
35.383250000000103
20
-104.89425000000031
42
-0.41421356237307422
10
35.883250000000061
20
-105.3942500000003
10
35.883250000000039
20
-118.39425000000027
42
-0.41421356237307422
10
35.383250000000103
20
-118.89425000000024
10
22.383250000000046
20
-118.89425000000026
42
-0.41421356237309503
0
LWPOLYLINE
5
185
100
AcDbEntity
8
0
100
AcDbPolyline
90
8
70
1
43
0.0
10
22.883250000000071
20
-126.83225000000029
10
22.883250000000071
20
-120.83225000000027
42
-0.41421356237309503
10
23.383250000000043
20
-120.3322500000003
10
37.383250000000061
20
-120.33225000000024
42
-0.4142135623730846
10
37.883250000000068
20
-120.83225000000027
10
37.883250000000089
20
-126.83225000000029
42
-0.4142135623730846
10
37.383250000000061
20
-127.33225000000033
10
23.383250000000043
20
-127.33225000000026
42
-0.41421356237309503
0
LWPOLYLINE
5
186
100
AcDbEntity
8
0
100
AcDbPolyline
90
8
70
1
43
0.0
10
22.883250000000071
20
-102.95625000000027
10
22.883250000000089
20
-96.956250000000239
42
-0.41421356237306384
10
23.383250000000043
20
-96.45625000000031
10
37.383250000000061
20
-96.456250000000253
42
-0.41421356237307422
10
37.883250000000089
20
-96.956250000000239
10
37.883250000000068
20
-102.95625000000027
42
-0.4142135623730846
10
37.383250000000082
20
-103.45625000000027
10
23.383250000000078
20
-103.45625000000027
42
-0.41421356237309503
0
LWPOLYLINE
5
187
100
AcDbEntity
8
0
100
AcDbPolyline
90
8
70
1
43
0.0
10
21.883250000000075
20
-89.819250000000252
10
21.883250000000093
20
-76.819250000000267
42
-0.41421356237309503
10
22.383250000000064
20
-76.319250000000295
10
35.383250000000103
20
-76.319250000000295
42
-0.41421356237309503
10
35.883250000000075
20
-76.819250000000267
10
35.883250000000146
20
-89.819250000000252
42
-0.41421356237309503
10
35.383250000000103
20
-90.319250000000295
10
22.383250000000064
20
-90.319250000000238
42
-0.41421356237309503
0
LWPOLYLINE
5
188
100
AcDbEntity
8
0
100
AcDbPolyline
90
8
70
1
43
0.0
10
21.883250000000075
20
-70.769250000000298
10
21.883250000000022
20
-57.769250000000262
42
-0.41421356237309503
10
22.383250000000064
20
-57.26925000000022
10
35.383250000000103
20
-57.269250000000291
42
-0.41421356237309503
10
35.883250000000075
20
-57.769250000000262
10
35.883250000000075
20
-70.769250000000298
42
-0.41421356237309503
10
35.383250000000103
20
-71.26925000000027
10
22.383250000000064
20
-71.269250000000298
42
-0.41421356237309503
0
LWPOLYLINE
5
189
100
AcDbEntity
8
0
100
AcDbPolyline
90
8
70
1
43
0.0
10
21.88325000000011
20
-51.719250000000294
10
21.883250000000039
20
-38.719250000000322
42
-0.4142135623730846
10
22.383250000000064
20
-38.219250000000279
10
35.383250000000125
20
-38.219250000000336
42
-0.4142135623730846
10
35.883250000000096
20
-38.719250000000322
10
35.883250000000146
20
-51.719250000000294
42
-0.41421356237307422
10
35.383250000000139
20
-52.219250000000336
10
22.383250000000082
20
-52.219250000000279
42
-0.4142135623730846
0
LWPOLYLINE
5
190
100
AcDbEntity
8
0
100
AcDbPolyline
90
8
70
1
43
0.0
10
21.88325000000011
20
-32.669250000000282
10
21.88325000000011
20
-19.669250000000243
42
-0.41421356237310542
10
22.3832500000001
20
-19.169250000000272
10
35.383250000000139
20
-19.169250000000254
42
-0.41421356237307422
10
35.883250000000096
20
-19.669250000000243
10
35.883250000000096
20
-32.669250000000282
42
-0.4142135623730846
10
35.383250000000139
20
-33.169250000000254
10
22.383250000000082
20
-33.169250000000275
42
-0.4142135623730846
0
LWPOLYLINE
5
191
100
AcDbEntity
8
0
100
AcDbPolyline
90
8
70
1
43
0.0
10
21.88325000000011
20
-13.619250000000203
10
21.883250000000128
20
-0.61925000000023001
42
-0.41421356237309503
10
22.3832500000001
20
-0.11925000000025845
10
35.383250000000139
20
-0.11925000000025845
42
-0.4142135623730846
10
35.883250000000096
20
-0.619250000000231
10
35.883250000000167
20
-13.619250000000275
42
-0.4142135623730846
10
35.383250000000139
20
-14.119250000000317
10
22.3832500000001
20
-14.119250000000193
42
-0.41421356237309503
0
LWPOLYLINE
5
192
100
AcDbEntity
8
0
100
AcDbPolyline
90
8
70
1
43
0.0
10
21.883250000000128
20
5.4307499999997386
10
21.883250000000075
20
18.430749999999779
42
-0.41421356237309503
10
22.383250000000118
20
18.930749999999822
10
35.38325000000016
20
18.930749999999751
42
-0.4142135623730846
10
35.88325000000011
20
18.430749999999779
10
35.883250000000182
20
5.4307499999997386
42
-0.4142135623730846
10
35.38325000000016
20
4.930749999999696
10
22.383250000000118
20
4.9307499999997493
42
-0.41421356237309503
0
LWPOLYLINE
5
193
100
AcDbEntity
8
0
100
AcDbPolyline
90
8
70
1
43
0.0
10
21.883250000000128
20
24.480749999999748
10
21.883250000000057
20
37.480749999999794
42
-0.41421356237311585
10
22.383250000000135
20
37.980749999999837
10
35.383250000000174
20
37.980749999999695
42
-0.41421356237307422
10
35.88325000000011
20
37.480749999999723
10
35.883250000000182
20
24.480749999999748
42
-0.4142135623730846
10
35.38325000000016
20
23.980749999999706
10
22.383250000000118
20
23.980749999999759
42
-0.41421356237309503
0
LWPOLYLINE
5
194
100
AcDbEntity
8
0
100
AcDbPolyline
90
8
70
1
43
0.0
10
21.883250000000128
20
43.530749999999763
10
21.883250000000217
20
56.530749999999806
42
-0.41421356237310542
10
22.383250000000135
20
57.030749999999706
10
35.383250000000174
20
57.030749999999728
42
-0.41421356237307422
10
35.883250000000132
20
56.530749999999735
10
35.88325000000011
20
43.530749999999692
42
-0.4142135623730846
10
35.38325000000016
20
43.030749999999721
10
22.383250000000118
20
43.030749999999777
42
-0.41421356237309503
0
LWPOLYLINE
5
195
100
AcDbEntity
8
0
100
AcDbPolyline
90
8
70
1
43
0.0
10
21.883250000000146
20
62.580749999999775
10
21.883250000000164
20
75.580749999999753
42
-0.41421356237310542
10
22.383250000000153
20
76.080749999999725
10
35.383250000000174
20
76.080749999999711
42
-0.41421356237309503
10
35.883250000000132
20
75.580749999999753
10
35.883250000000217
20
62.580749999999775
42
-0.41421356237309503
10
35.383250000000174
20
62.080749999999732
10
22.383250000000135
20
62.080749999999789
42
-0.41421356237309503
0
LWPOLYLINE
5
196
100
AcDbEntity
8
0
100
AcDbPolyline
90
8
70
1
43
0.0
10
21.883250000000146
20
81.630749999999637
10
21.883250000000235
20
94.630749999999679
42
-0.41421356237315748
10
22.383250000000171
20
95.130749999999651
10
35.383250000000196
20
95.130749999999637
42
-0.4142135623730846
10
35.883250000000132
20
94.630749999999679
10
35.883250000000004
20
81.630749999999566
42
-0.41421356237309503
10
35.383250000000174
20
81.130749999999736
10
22.383250000000135
20
81.130749999999651
42
-0.41421356237309503
0
LWPOLYLINE
5
197
100
AcDbEntity
8
0
100
AcDbPolyline
90
8
70
1
43
0.0
10
21.883250000000182
20
117.34949999999969
10
21.883250000000341
20
130.34949999999975
42
-0.4142135623731783
10
22.383250000000171
20
130.84949999999969
10
35.383250000000196
20
130.84949999999989
42
-0.41421356237316787
10
35.883250000000182
20
130.34949999999975
10
35.883250000000217
20
117.34949999999969
42
-0.4142135623730846
10
35.383250000000196
20
116.84949999999965
10
22.383250000000153
20
116.84949999999972
42
-0.41421356237309503
0
LWPOLYLINE
5
198
100
AcDbEntity
8
0
100
AcDbPolyline
90
8
70
1
43
0.0
10
22.883250000000178
20
108.91149999999982
10
22.883250000000054
20
114.91149999999976
42
-0.4142135623730534
10
23.383250000000167
20
115.4114999999998
10
37.383250000000189
20
115.41149999999972
42
-0.41421356237303258
10
37.883250000000174
20
114.91149999999976
10
37.883250000000267
20
108.91149999999982
42
-0.41421356237307422
10
37.383250000000189
20
108.41149999999971
10
23.38325000000015
20
108.41149999999985
42
-0.41421356237309503
0
LWPOLYLINE
5
199
100
AcDbEntity
8
0
100
AcDbPolyline
90
8
70
1
43
0.0
10
22.883250000000196
20
132.78749999999968
10
22.883250000000213
20
138.78749999999974
42
-0.4142135623730846
10
23.383250000000167
20
139.28749999999974
10
37.383250000000189
20
139.28749999999977
42
-0.41421356237309503
10
37.883250000000196
20
138.78749999999974
10
37.88325000000016
20
132.78749999999968
42
-0.41421356237309503
10
37.383250000000189
20
132.28749999999968
10
23.383250000000167
20
132.28749999999968
42
-0.4142135623730846
0
LWPOLYLINE
5
200
100
AcDbEntity
8
0
100
AcDbPolyline
90
8
70
1
43
0.0
10
21.883250000000199
20
181.64324999999988
10
21.883250000000057
20
194.64324999999971
42
-0.41421356237311585
10
22.383250000000206
20
195.14324999999982
10
35.383250000000231
20
195.14324999999971
42
-0.41421356237307422
10
35.883250000000203
20
194.64324999999971
10
35.883250000000309
20
181.64324999999988
42
-0.41421356237307422
10
35.383250000000231
20
181.14324999999977
10
22.383250000000189
20
181.14324999999991
42
-0.41421356237310542
0
LWPOLYLINE
5
201
100
AcDbEntity
8
0
100
AcDbPolyline
90
8
70
1
43
0.0
10
40.933250000000008
20
-204.11925000000025
10
40.933250000000037
20
-191.11925000000025
42
-0.41421356237309503
10
41.433250000000008
20
-190.61925000000028
10
54.433250000000001
20
-190.61925000000025
42
-0.41421356237309503
10
54.933250000000001
20
-191.11925000000025
10
54.933249999999973
20
-204.11925000000025
42
-0.41421356237310542
10
54.43324999999998
20
-204.61925000000022
10
41.433250000000008
20
-204.61925000000025
42
-0.41421356237309503
0
LWPOLYLINE
5
202
100
AcDbEntity
8
0
100
AcDbPolyline
90
8
70
1
43
0.0
10
41.93324999999998
20
-212.55725000000027
10
41.933249999999958
20
-206.55725000000024
42
-0.41421356237309503
10
42.433250000000001
20
-206.05725000000021
10
56.433249999999987
20
-206.05725000000029
42
-0.41421356237309503
10
56.93324999999998
20
-206.55725000000024
10
56.933249999999958
20
-212.55725000000027
42
-0.4142135623730846
10
56.433250000000008
20
-213.05725000000024
10
42.433250000000001
20
-213.05725000000029
42
-0.41421356237309503
0
LWPOLYLINE
5
203
100
AcDbEntity
8
0
100
AcDbPolyline
90
8
70
1
43
0.0
10
41.933250000000001
20
-188.68125000000023
10
41.933250000000029
20
-182.68125000000026
42
-0.41421356237310542
10
42.433250000000022
20
-182.18125000000026
10
56.433250000000008
20
-182.1812500000002
42
-0.41421356237309503
10
56.933250000000001
20
-182.68125000000023
10
56.933250000000051
20
-188.68125000000023
42
-0.41421356237309503
10
56.433250000000008
20
-189.18125000000029
10
42.433250000000001
20
-189.18125000000026
42
-0.41421356237309503
0
LWPOLYLINE
5
204
100
AcDbEntity
8
0
100
AcDbPolyline
90
8
70
1
43
0.0
10
40.933250000000029
20
-175.54425000000026
10
40.933250000000058
20
-162.54425000000029
42
-0.41421356237313667
10
41.433250000000029
20
-162.04425000000026
10
54.433250000000015
20
-162.0442500000002
42
-0.41421356237313667
10
54.933250000000022
20
-162.54425000000029
10
54.933249999999987
20
-175.54425000000026
42
-0.41421356237309503
10
54.433250000000015
20
-176.04425000000023
10
41.433250000000029
20
-176.04425000000026
42
-0.41421356237309503
0
LWPOLYLINE
5
205
100
AcDbEntity
8
0
100
AcDbPolyline
90
8
70
1
43
0.0
10
40.933250000000044
20
-125.53800000000031
10
40.933250000000072
20
-112.53800000000027
42
-0.41421356237309503
10
41.433250000000044
20
-112.0380000000003
10
54.433250000000015
20
-112.03800000000028
42
-0.41421356237309503
10
54.933250000000044
20
-112.5380000000003
10
54.933250000000058
20
-125.53800000000031
42
-0.41421356237309503
10
54.433250000000015
20
-126.03800000000035
10
41.433250000000044
20
-126.03800000000032
42
-0.41421356237309503
0
LWPOLYLINE
5
206
100
AcDbEntity
8
0
100
AcDbPolyline
90
8
70
1
43
0.0
10
40.933250000000079
20
-101.7255000000003
10
40.933250000000108
20
-88.725500000000252
42
-0.41421356237309503
10
41.433250000000079
20
-88.225500000000281
10
54.433250000000051
20
-88.225500000000267
42
-0.41421356237307422
10
54.933250000000072
20
-88.725500000000252
10
54.933250000000058
20
-101.7255000000003
42
-0.41421356237309503
10
54.433250000000051
20
-102.2255000000003
10
41.433250000000079
20
-102.2255000000003
42
-0.41421356237309503
0
LWPOLYLINE
5
207
100
AcDbEntity
8
0
100
AcDbPolyline
90
8
70
1
43
0.0
10
40.933250000000079
20
-77.913000000000267
10
40.933250000000179
20
-64.913000000000224
42
-0.41421356237309503
10
41.433250000000079
20
-64.413000000000324
10
54.433250000000051
20
-64.413000000000281
42
-0.41421356237309503
10
54.933250000000072
20
-64.913000000000295
10
54.933250000000093
20
-77.913000000000267
42
-0.41421356237309503
10
54.433250000000051
20
-78.413000000000309
10
41.433250000000079
20
-78.413000000000267
42
-0.41421356237309503
0
LWPOLYLINE
5
208
100
AcDbEntity
8
0
100
AcDbPolyline
90
8
70
1
43
0.0
10
40.933250000000115
20
-6.475500000000304
10
40.933250000000129
20
6.5244999999996676
42
-0.41421356237310542
10
41.433250000000115
20
7.0244999999996391
10
54.433250000000086
20
7.0244999999996569
42
-0.41421356237309503
10
54.933250000000072
20
6.5244999999996676
10
54.933250000000058
20
-6.475500000000304
42
-0.41421356237309503
10
54.433250000000086
20
-6.9755000000002756
10
41.4332500000001
20
-6.9755000000002845
42
-0.41421356237309503
0
LWPOLYLINE
5
209
100
AcDbEntity
8
0
100
AcDbPolyline
90
8
70
1
43
0.0
10
41.933250000000051
20
-52.975500000000359
10
41.933249999999958
20
-46.975500000000345
42
-0.41421356237309503
10
42.433250000000072
20
-46.475500000000231
10
56.433250000000058
20
-46.475500000000338
42
-0.41421356237309503
10
56.933250000000072
20
-46.975500000000345
10
56.933250000000015
20
-52.975500000000359
42
-0.4142135623730846
10
56.433250000000058
20
-53.475500000000331
10
42.433250000000072
20
-53.475500000000366
42
-0.41421356237310542
0
LWPOLYLINE
5
210
100
AcDbEntity
8
0
100
AcDbPolyline
90
8
70
1
43
0.0
10
41.933250000000122
20
47.024499999999712
10
41.933250000000072
20
53.024499999999726
42
-0.41421356237315748
10
42.433250000000143
20
53.52449999999984
10
56.433250000000129
20
53.52449999999979
42
-0.41421356237311585
10
56.933250000000086
20
53.024499999999726
10
56.9332500000001
20
47.024499999999712
42
-0.41421356237309503
10
56.433250000000129
20
46.52449999999974
10
42.433250000000129
20
46.524499999999691
42
-0.4142135623730846
0
LWPOLYLINE
5
211
100
AcDbEntity
8
0
100
AcDbPolyline
90
8
70
1
43
0.0
10
40.933250000000172
20
64.961999999999676
10
40.933250000000086
20
77.961999999999719
42
-0.41421356237310542
10
41.43325000000015
20
78.461999999999762
10
54.433250000000122
20
78.461999999999691
42
-0.41421356237310542
10
54.933250000000115
20
77.961999999999719
10
54.933250000000022
20
64.961999999999676
42
-0.41421356237310542
10
54.4332500000001
20
64.461999999999776
10
41.433250000000115
20
64.461999999999705
42
-0.4142135623730846
0
LWPOLYLINE
5
212
100
AcDbEntity
8
0
100
AcDbPolyline
90
8
70
1
43
0.0
10
40.933250000000172
20
88.774499999999605
10
40.933250000000108
20
101.77449999999972
42
-0.41421356237309503
10
41.43325000000015
20
102.27449999999976
10
54.433250000000143
20
102.27449999999973
42
-0.41421356237309503
10
54.933250000000143
20
101.77449999999972
10
54.933250000000115
20
88.774499999999605
42
-0.41421356237310542
10
54.433250000000122
20
88.274499999999634
10
41.433250000000129
20
88.274499999999634
42
-0.4142135623730846
0
LWPOLYLINE
5
213
100
AcDbEntity
8
0
100
AcDbPolyline
90
8
70
1
43
0.0
10
40.933250000000172
20
112.58699999999969
10
40.933249999999894
20
125.58699999999966
42
-0.41421356237311585
10
41.433250000000186
20
126.08699999999992
10
54.433250000000157
20
126.08699999999968
42
-0.4142135623730846
10
54.933250000000143
20
125.58699999999966
10
54.933250000000115
20
112.58699999999969
42
-0.4142135623730846
10
54.433250000000157
20
112.08699999999972
10
41.433250000000172
20
112.08699999999972
42
-0.41421356237310542
0
LWPOLYLINE
5
214
100
AcDbEntity
8
0
100
AcDbPolyline
90
8
70
1
43
0.0
10
40.933250000000207
20
134.01824999999968
10
40.933250000000001
20
147.01824999999971
42
-0.41421356237309503
10
41.433250000000186
20
147.51824999999991
10
54.433250000000157
20
147.51824999999974
42
-0.41421356237309503
10
54.933250000000186
20
147.01824999999971
10
54.933250000000129
20
134.01824999999968
42
-0.41421356237309503
10
54.433250000000157
20
133.51824999999968
10
41.433250000000186
20
133.51824999999968
42
-0.41421356237309503
0
LWPOLYLINE
5
215
100
AcDbEntity
8
0
100
AcDbPolyline
90
8
70
1
43
0.0
10
40.933250000000207
20
162.59324999999973
10
40.933250000000214
20
175.59324999999978
42
-0.41421356237310542
10
41.4332500000002
20
176.09324999999981
10
54.433250000000193
20
176.09324999999984
42
-0.41421356237307422
10
54.933250000000186
20
175.59324999999984
10
54.933250000000129
20
162.59324999999973
42
-0.41421356237309503
10
54.433250000000157
20
162.09324999999976
10
41.433250000000186
20
162.09324999999976
42
-0.41421356237309503
0
LWPOLYLINE
5
216
100
AcDbEntity
8
0
100
AcDbPolyline
90
8
70
1
43
0.0
10
40.933250000000207
20
181.64324999999988
10
40.933250000000108
20
194.64324999999971
42
-0.41421356237309503
10
41.433250000000221
20
195.14324999999982
10
54.433250000000193
20
195.14324999999971
42
-0.4142135623730846
10
54.933250000000186
20
194.64324999999971
10
54.933250000000271
20
181.64324999999988
42
-0.41421356237309503
10
54.433250000000157
20
181.14324999999977
10
41.433250000000186
20
181.14324999999991
42
-0.41421356237309503
0
LWPOLYLINE
5
217
100
AcDbEntity
8
0
100
AcDbPolyline
90
8
70
1
43
0.0
10
40.933250000000243
20
200.69324999999975
10
40.933250000000143
20
213.69324999999978
42
-0.41421356237315748
10
41.433250000000221
20
214.19324999999989
10
54.433250000000193
20
214.19324999999986
42
-0.41421356237313667
10
54.933250000000186
20
213.69324999999978
10
54.933250000000022
20
200.69324999999975
42
-0.41421356237309503
10
54.433250000000193
20
200.19324999999992
10
41.433250000000186
20
200.19324999999978
42
-0.41421356237307422
0
LINE
5
218
100
AcDbEntity
8
0
100
AcDbLine
10
58.333249999999992
20
-216.64425000000026
30
-4.4408920985006262e-15
11
58.333250000000206
21
224.19324999999992
31
-3.3306690738754696e-14
6
DASHED
0
LINE
5
219
100
AcDbEntity
8
0
100
AcDbLine
10
-61.77100084042565
20
-216.6442500000002
30
-6.6613381477509392e-15
11
-61.77100084042528
21
224.19324999999986
31
-3.9968028886505635e-14
6
DASHED
0
LINE
5
220
100
AcDbEntity
8
0
100
AcDbLine
10
58.333249999999992
20
-216.64425000000026
30
-4.4408920985006262e-15
11
-61.77100084042565
21
-216.6442500000002
31
-6.6613381477509392e-15
6
DASHED
0
LINE
5
221
100
AcDbEntity
8
0
100
AcDbLine
10
58.333250000000206
20
224.19324999999992
30
-3.3306690738754696e-14
11
-61.77100084042528
21
224.19324999999986
31
-3.9968028886505635e-14
6
DASHED
0
LINE
5
222
100
AcDbEntity
8
0
100
AcDbLine
10
58.333249999999992
20
-216.64425000000026
30
-4.4408920985006262e-15
11
-37.766750000000016
21
-216.6442500000002
31
-6.212656775663242e-15
6
DASHED
0
LINE
5
223
100
AcDbEntity
8
0
100
AcDbLine
10
-37.766750000000016
20
-216.6442500000002
30
-6.212656775663242e-15
11
-37.766749999999988
21
-166.6442500000002
31
-6.212656775663242e-15
6
DASHED
0
LINE
5
224
100
AcDbEntity
8
0
100
AcDbLine
10
-37.766749999999988
20
-166.6442500000002
30
-6.212656775663242e-15
11
-61.771000840425614
21
-166.6442500000002
31
-6.212656775663242e-15
6
DASHED
0
LINE
5
225
100
AcDbEntity
8
0
100
AcDbLine
10
-61.771000840425387
20
150.01824999999991
30
-2.3314683517128287e-14
11
-28.241749999999858
21
150.01824999999988
31
-2.3314683517128287e-14
6
DASHED
0
LINE
5
226
100
AcDbEntity
8
0
100
AcDbLine
10
-28.241749999999858
20
150.01824999999988
30
-2.3314683517128287e-14
11
-28.241749999999858
21
224.19324999999989
31
-2.3314683517128287e-14
6
DASHED
0
LINE
5
227
100
AcDbEntity
8
0
100
AcDbLine
10
-28.241749999999858
20
224.19324999999989
30
-2.3314683517128287e-14
11
58.333250000000206
21
224.19324999999992
31
-3.3306690738754696e-14
6
DASHED
0
LINE
5
228
100
AcDbEntity
8
0
100
AcDbLine
10
-61.771000840425387
20
150.01824999999991
30
-2.3314683517128287e-14
11
-61.771000840425614
21
-166.6442500000002
31
-6.212656775663242e-15
6
DASHED
0
LINE
5
229
100
AcDbEntity
8
0
100
AcDbLine
10
63.47079623446281
20
230.49999999999997
30
6.794564910705958e-13
11
-67.529203765537233
21
230.49999999999997
31
-7.3274719625260332e-13
6
DASHED
0
LINE
5
230
100
AcDbEntity
8
0
100
AcDbLine
10
-67.529203765537233
20
230.49999999999997
30
-7.3274719625260332e-13
11
-67.529203765537233
21
-230.49999999999997
31
-7.3274719625260332e-13
6
DASHED
0
LINE
5
231
100
AcDbEntity
8
0
100
AcDbLine
10
-67.529203765537233
20
-230.49999999999997
30
-7.3274719625260332e-13
11
63.47079623446281
21
-230.49999999999997
31
-7.3274719625260332e-13
6
DASHED
0
LINE
5
232
100
AcDbEntity
8
0
100
AcDbLine
10
63.47079623446281
20
-230.49999999999997
30
-7.3274719625260332e-13
11
63.47079623446281
21
230.49999999999997
31
6.794564910705958e-13
6
DASHED
0
LINE
5
233
100
AcDbEntity
8
0
100
AcDbLine
10
-67.029203765537233
20
-230.00000000000003
30
-7.3274719625260332e-13
11
62.970796234462803
21
-229.99999999999997
31
-7.3274719625260332e-13
6
DASHED
0
LWPOLYLINE
5
234
100
AcDbEntity
8
0
100
AcDbPolyline
90
10
70
1
43
0.0
10
62.970796234462803
20
-229.99999999999997
10
62.97079623446281
20
230.00000000000003
10
-66.743066929428409
20
230.00000000000003
10
-66.743066929428409
20
215.00000000000003
10
-32.029203765537147
20
215.00000000000003
10
-32.02920376553719
20
150.00000000000003
10
-66.743066929428409
20
150.00000000000006
10
-66.743066929428423
20
-166.6442500000002
10
-37.766749999999988
20
-166.6442500000002
10
-37.766750000000002
20
-230.00000000000003
0
LINE
5
235
100
AcDbEntity
8
0
100
AcDbLine
10
-66.743066929428409
20
150.00000000000006
30
6.7792481678933432e-13
11
-66.743066929428409
21
230.00000000000003
31
6.7792481678933432e-13
6
DASHED
0
ENDSEC
0
SECTION
2
OBJECTS
0
DICTIONARY
5
C
100
AcDbDictionary
3
ACAD_GROUP
350
D
3
ACAD_MLINESTYLE
350
17
0
DICTIONARY
5
D
100
AcDbDictionary
0
DICTIONARY
5
1A
330
C
100
AcDbDictionary
0
DICTIONARY
5
17
100
AcDbDictionary
0
ENDSEC
0
EOF
